/* XPM */
static char *_45c8c6f842345c1a75f0493b7f2f865puDM45FuJk67j1BT[] = {
/* columns rows colors chars-per-pixel */
"64 64 236 2 ",
"   c None",
".  c #000101",
"X  c #01050B",
"o  c #030A0D",
"O  c #0A0000",
"+  c #180703",
"@  c #010A13",
"#  c #010E1C",
"$  c #000714",
"%  c #071214",
"&  c #03131D",
"*  c #091718",
"=  c #10171B",
"-  c #22140D",
";  c #000E2A",
":  c #021324",
">  c #02162B",
",  c #061B26",
"<  c #031A32",
"1  c #021D3B",
"2  c #011536",
"3  c #0D2429",
"4  c #04223C",
"5  c #092937",
"6  c #172B35",
"7  c #153133",
"8  c #16373C",
"9  c #0B2E34",
"0  c #312A33",
"q  c #593729",
"w  c #64392B",
"e  c #71553E",
"r  c #6E4433",
"t  c #011B42",
"y  c #032243",
"u  c #062B45",
"i  c #03254A",
"p  c #062C4A",
"a  c #0A2C47",
"s  c #093249",
"d  c #173B45",
"f  c #042B52",
"g  c #052C59",
"h  c #06315B",
"j  c #09395A",
"k  c #093454",
"l  c #122E59",
"z  c #35384E",
"x  c #053463",
"c  c #063A68",
"v  c #00337B",
"b  c #043E7B",
"n  c #053A75",
"m  c #0B3561",
"M  c #223A60",
"N  c #4C3955",
"B  c #792263",
"V  c #1A454A",
"C  c #1C4C55",
"Z  c #104755",
"A  c #22565A",
"S  c #294D57",
"D  c #0B4369",
"F  c #1A5869",
"G  c #0B4A73",
"H  c #06427D",
"J  c #0C4D7A",
"K  c #084575",
"L  c #11577A",
"P  c #124D6D",
"I  c #245A69",
"U  c #2D506E",
"Y  c #1E6470",
"T  c #286976",
"R  c #2C6971",
"E  c #72504A",
"W  c #404565",
"Q  c #62676F",
"!  c #914D33",
"~  c #AF603E",
"^  c #AC0552",
"/  c #C40A55",
"(  c #8E5B4C",
")  c #A35E41",
"_  c #AB6041",
"`  c #987973",
"'  c #CD764E",
"]  c #9E857E",
"[  c #BD8866",
"{  c #C18665",
"}  c #D0916E",
"|  c #EA9B6C",
" . c #D1A57B",
".. c #E7A677",
"X. c #E4A16E",
"o. c #053F84",
"O. c #064485",
"+. c #05458B",
"@. c #06488C",
"#. c #094B88",
"$. c #0C5589",
"%. c #12598B",
"&. c #034591",
"*. c #064A93",
"=. c #084D94",
"-. c #084E99",
";. c #064D9B",
":. c #09549C",
">. c #0B5B9D",
",. c #095595",
"<. c #125D9B",
"1. c #146489",
"2. c #0E619B",
"3. c #13649B",
"4. c #176997",
"5. c #246C88",
"6. c #247A99",
"7. c #31798F",
"8. c #0955A3",
"9. c #0B5BA4",
"0. c #0A5BAB",
"q. c #0755A7",
"w. c #0D5EA9",
"e. c #0E63A4",
"r. c #0E64AB",
"t. c #0F6AAC",
"y. c #116CAC",
"u. c #166AA6",
"i. c #1776A9",
"p. c #0F6CB3",
"a. c #0D68B7",
"s. c #106EB2",
"d. c #0E71B8",
"f. c #1273B4",
"g. c #1276B9",
"h. c #147BBB",
"j. c #157AB4",
"k. c #286C9E",
"l. c #755587",
"z. c #556B88",
"x. c #7A6995",
"c. c #137CC3",
"v. c #1279C4",
"b. c #0D6EC2",
"n. c #817FAA",
"m. c #2C8B98",
"M. c #398C9D",
"N. c #348896",
"B. c #3A929A",
"V. c #30848C",
"C. c #1680BC",
"Z. c #1984BD",
"A. c #1B85B9",
"S. c #1F8EAD",
"D. c #328BA3",
"F. c #2B92A8",
"G. c #3C9CAD",
"H. c #3797A8",
"J. c #399CB7",
"K. c #2B8BB6",
"L. c #3CA1B4",
"P. c #3AA6B8",
"I. c #37A2AE",
"U. c #449D9E",
"Y. c #4C97AC",
"T. c #48A7A9",
"R. c #42A5B7",
"E. c #4DB6BB",
"W. c #53A0AF",
"Q. c #6DAAB4",
"!. c #739597",
"~. c #1985C1",
"^. c #1B8BC3",
"/. c #1584CB",
"(. c #1587C4",
"). c #1E92C6",
"_. c #1E94CA",
"`. c #1590CC",
"'. c #168AD3",
"]. c #168CD9",
"[. c #1C94D3",
"{. c #1D98D7",
"}. c #0C89C1",
"|. c #2598C8",
" X c #209ED7",
".X c #3093C9",
"XX c #37AAC3",
"oX c #3DB5CA",
"OX c #3BB5C9",
"+X c #21A3DC",
"@X c #2BA7D3",
"#X c #2EAFCF",
"$X c #22A9E7",
"%X c #37BDE6",
"&X c #1B9DD7",
"*X c #50BDC3",
"=X c #41BED3",
"-X c #4BBDD1",
";X c #4BB1CF",
":X c #7BB2CF",
">X c #5197CD",
",X c #3EC2D8",
"<X c #45C8DA",
"1X c #4FC6D1",
"2X c #44CDE4",
"3X c #4CD3E3",
"4X c #48D7EA",
"5X c #56D9E5",
"6X c #49DBF4",
"7X c #59E3EE",
"8X c #56E7F6",
"9X c #5DF5FF",
"0X c #65E6EC",
"qX c #63ECF2",
"wX c #6AF4F5",
"eX c #6DFDFF",
"rX c #68F3F8",
"tX c #73FFFF",
"yX c #75D0DC",
"uX c #96B0B6",
"iX c #8892B4",
"pX c #D4B393",
"aX c #F5B486",
"sX c #F5C08C",
"dX c #FAC392",
"fX c #DEC2A5",
"gX c #FFD5A2",
"hX c #F6CFA8",
"jX c #FFE2B4",
"kX c #8FB3D6",
"lX c #99C7D6",
"zX c #A5DAE8",
"xX c #A5F6F6",
"cX c #AAC8CC",
"vX c #F9F9F4",
"bX c #D7E3DC",
/* pixels */
"                                                                          . . . . . .                                           ",
"                                                                        % d C A R R A o                                         ",
"                                                                  O . . d H.;X<XqXtX5Xd o .                                     ",
"                                                                . 8 R G 4.|.@X#XXX<X5XE.T.T.8 .                                 ",
"                                                              X % T XX(.(.).`.J.Q.Y.#X8XtXtXU.7                                 ",
"                                                            . = z 4.(.^.).).&XyXvXcXF.OX7XwXwXE.7 .                             ",
"                                                            . 3 4.f.d.C.Z.).|.1XzXkXY.7.m.*X0X1X7 .                             ",
"                                                            X a s.v.f.y.C.).).^.}.>X:Xz.I N.J.7.= .                             ",
"                                                          $ g #.9.p.g.f.g.j.j.h.}.|.>XS.i.K.|.$.X . .                           ",
"                                                        . # O.0.+.:.t.r.y.s.s.g.^.^.(.`.^.j.^.K.U 0 .                           ",
"                                                        . @ H 8.&.+.*.*.9.g.g.j.g.h.g.v.3.U Y.rXxX!..                           ",
"                                                        . @ l j.#XXXu.*.-.e.,.H K H ,.q.4.T R.rXxXQ.o                           ",
"                                                        . o d Y.0X0XOX2.+.+.m l j k f v <.D.P.=XqXB.o                           ",
"                                                        . % T z.l.:X4Xy.o.x U z.Q.S X t o.<.D.J.|.L .                           ",
"                                                        . * m.l.^ iX4X2.l z Q uXzXQ X 0 M v 3.6.b 2 .                           ",
"                                                        . & V.l./ n.#XK 0 ( ` uXcXY.f r E f &.@.> .                             ",
"                                                        . * T l.^ x.S.c q ~ } bXbX>Xb E _ E z 2 X                               ",
"                                                          o d N B z.m.K z ! | jXvXkXk.` | | r .                                 ",
"                                                            @ 6 U W U &.U ~ ..gXhXfXpXpXdXdXe .                                 ",
"                                                            . . 5 F -.q.M E } aXdX....dXgXdXe .                                 ",
"                                                        . . . . . x q.:.v j ( | dX[ )  .dX} q .                                 ",
"                                                      . V U.U.B.T s ; ; g @.Q ' ..aXaXaX{ q -                                   ",
"                                                      3 T.tXtX9X4XI * % t H N ! ! [  .' w .                                     ",
"                                                  . 7 *XwXwX3X2X2XOXD.V.d . . + + + - = +               . .                     ",
"                                                  8 H.eXeX<X4XF.Y P.8X5XN.8 Z Z 9 5 3 . .             4 k o .                   ",
"                                              . * D.8XqX3XOX<XF . V.tXwX5X<X,XXXH.G.m.9 .           . J e., . o . .             ",
"                                            . 9 4.j.#X4X8XOXV , S E.eXwXqX7X4X,XE.;XoXG.A .       5 J D u h $.1.4.j @ .         ",
"                                            , 1.$Xc.j.F.I.7., d R.7XwXqXrXwX1XH.5.N.oX6XP.s %   . p v.y . c s.Z.].2.& .         ",
"                                        . , ,.^.|.[.i.D : 3 T L.OX7XwXqXrXqX1XT % V G.=X<XOXV . . y 9.4 . t x x t.3.& .         ",
"                                        . 4 g.'.A. Xf.c . . 8 m.2X5X5X0XqX3X-XY . 6 R.R.=X6X6.2 . $ i f D %.4.%.t.O.@ .         ",
"                                        . < 3.g.f.^.~.8.y o . V P.,X<X7X5XOXL.I X 8 M.U.G.OX^.+.> . . D /.`.|.A.s.n @ .         ",
"                                        . > ,.p.j.f.h.C.i.1.%.k 7 m.3X3X1XH.A =   @ 6 V.J.u.p.p.2.s . g r.J G J f.>.& .         ",
"                                        . > O.0.y.f.Z._.+X+X&Xx . F %X#XK.5., .     . V 5.&.8.f.].J . f 9.H x h #.G @ .         ",
"                                        . > @.:.,.h.).^.|.`.].j . D '.h.s.=.> .       o 4 =.8.:.v.D . j c.j.r.@.1 X             ",
"                                        . > =.0.e.~.|.).`.f.D k P k D i./.>.: . .       X y b 0.b.c . s >.,.p.d.4 .             ",
"                                        . : n w.j.^.|.)./.$.. s [.9 . i.{.y.s * * o       . y @.-.f . : f i K e.5 .             ",
"                                            : G /._.).h.b.#.. 5 '.5 . 3.b.:.6.L.H.V .       @ : : $ . X @ $ & , @               ",
"                                            . f v.~.c.r.O.f 2 k G i p :.a.u.XX3X6XF.8 o       . . . . . . . . .                 ",
"                                            . i w.f.f.:.< X O.x . g 8.;.u.U.M.H.oX2XP.7 .                                       ",
"                                              # i -.b.q.; . 1 , . : f t 6 V 7.R.J.<X,XF.V .                                     ",
"                                              . . g =.O.s * . . . . . . . . C M.M.G.=X4XI.9 %                                   ",
"                                            . . . . o # 5.D.3 .             % d M.R.G.oX<XoXV .                                 ",
"                                          . < y u s * . m.2X7 .               o C 7.G.;XP.m.F s X                               ",
"                                        . > #.r.h.{.$.. T OX3 .                 . V G.P.I . P A.5 .                             ",
"                                      . 1 b 0.c._.$X1.. 3 V                       * 8 7 3 h f. Xi.Z .                           ",
"                                    X > O.a.j.^._.+X1.X . .                         . . p g.[._.$X1..                           ",
"                                  . < O.9.g.^.)._.+X1.o . .                         . D s.d.~._.+X1..                           ",
"                                . < H a.h.^.).|.^.[.L . .                         # f u./.f.j.~. X1.o                           ",
"                              . : +.a.g.^.).).).)./.K .                         . i 8.s.f.f.s.g.[.1..                           ",
"                            . y H *.9.f.^.).).|.).`.J X                         . 1 0.a.f.s.s.f.(.J .                           ",
"                          X > H 0.8.e.f.^._._._.Z.g.c .                         : g :.p.g.f.f.f.c.G .                           ",
"                        . < *.-.9.t.y.f.Z._._.Z.t.$.4 X                     . : b =.,.y.j.y.s.f./.G .                           ",
"                      . : g O.n H y.h.f.h.Z.C./.t.p $ .                     . : *.q.=.>.y.f.j.f.r.O.y $                         ",
"                    X & g c h f K t.h.s.y.s.s.h.>., .                       . : O.8.*.*.:.y.f.y.:.8.8.p o                       ",
"                  . 1 b O.o.b $.2.t.s.f.f.f.f.e.c @ .                       . : O.8.=.*.=.:.:.:.9.g.Z.A.L X                     ",
"                @ > b 0.9.0.r.h.Z.C.f.s.f.f.r.K > X                         . : O.8.=.=.=.@.=.>.y.C.).$X^.Z ,                   ",
"              . < #.;.:.r.Z.^.).).).C.y.f.p.8.i X                           . : O.8.*.-.*.=.w.f.f.f.f.Z._._.P .                 ",
"              . < :.r.r.s.j.Z.)._.|.^.C.j.d.r.u .                           . : *.0.=.=.=.=.:.r.s.f.s.f.^.+XA.c :               ",
"              $ t *.s.g.f.s.s.Z.^.^.).^.h.g.h.j .                           . & n -.-.;.=.-.*.-.e.f.f.f.f.^.{.v.a .             ",
"          . o h #.*.r.g.f.y.f.f.j.g.~.|.h.f.c.j .                               # x 0.0.8.8.8.8.9.a.c.c.c./.].c.u .             ",
"          . @ @.a.:.0.s.g.h.h.g.g.g.(.`.c.v.d.k .                               . : x c x x x x g c K J G G J G , .             ",
"          . $ H q.=.=.:.s.g.g.f.f.f.s.f.g.d.8.y .                               . . . . . . . . . . . . . . . . . .             ",
"          . X < y 1 1 1 u p p p a p u u s u 1 #                                                                                 ",
"          . . . . . . . . . . . . . . . . . .                                                                                   "
};
