/* XPM */
static char *c75ff2e2c4cd4d86d683216d709732c8ActTiqiTJQe5jvJK[] = {
/* columns rows colors chars-per-pixel */
"64 64 234 2 ",
"   c None",
".  c #000101",
"X  c #00050A",
"o  c #030A0D",
"O  c #0A0000",
"+  c #180703",
"@  c #010A13",
"#  c #010E1C",
"$  c #000714",
"%  c #071214",
"&  c #03131D",
"*  c #091718",
"=  c #10171B",
"-  c #22140D",
";  c #000E2A",
":  c #021324",
">  c #02162B",
",  c #061B26",
"<  c #031A32",
"1  c #021D3B",
"2  c #011536",
"3  c #0D2429",
"4  c #04223C",
"5  c #092937",
"6  c #172B35",
"7  c #153133",
"8  c #16373C",
"9  c #0B2E34",
"0  c #232B2C",
"q  c #51342E",
"w  c #64392B",
"e  c #6E4E37",
"r  c #011D40",
"t  c #032243",
"y  c #062B45",
"u  c #03254A",
"i  c #062C4A",
"p  c #0A2F40",
"a  c #093249",
"s  c #173B45",
"d  c #042B53",
"f  c #042B5A",
"g  c #05315B",
"h  c #093656",
"j  c #183456",
"k  c #182E54",
"l  c #35384D",
"z  c #053463",
"x  c #063A67",
"c  c #053E7B",
"v  c #043977",
"b  c #0D2D60",
"n  c #273F65",
"m  c #483946",
"M  c #4A345F",
"N  c #792263",
"B  c #1A454A",
"V  c #1C4C55",
"C  c #104755",
"Z  c #22565A",
"A  c #224A54",
"S  c #0B4369",
"D  c #1A5869",
"F  c #0B4A73",
"G  c #07427E",
"H  c #0C4D7A",
"J  c #084575",
"K  c #11577A",
"L  c #124D6D",
"P  c #245A69",
"I  c #2F5270",
"U  c #1E6470",
"Y  c #286976",
"T  c #2C6971",
"R  c #664A46",
"E  c #745550",
"W  c #404565",
"Q  c #6E6B6D",
"!  c #755C65",
"~  c #914D33",
"^  c #A2583B",
"/  c #AF603E",
"(  c #AC0552",
")  c #C40A55",
"_  c #955842",
"`  c #8D5A4D",
"'  c #A75F41",
"]  c #946A5D",
"[  c #B06A4D",
"{  c #A1786B",
"}  c #CD7850",
"|  c #B88868",
" . c #C18665",
".. c #D68C69",
"X. c #EB9C6C",
"o. c #D1A57B",
"O. c #E7A777",
"+. c #E4A16E",
"@. c #E4804E",
"#. c #033883",
"$. c #064485",
"%. c #05458B",
"&. c #06488C",
"*. c #084B87",
"=. c #0C5589",
"-. c #12598B",
";. c #034591",
":. c #064A93",
">. c #084D94",
",. c #084E99",
"<. c #064D9B",
"1. c #09549C",
"2. c #0B5B9D",
"3. c #095597",
"4. c #165B98",
"5. c #146489",
"6. c #0E619B",
"7. c #13649B",
"8. c #176997",
"9. c #246C88",
"0. c #247A99",
"q. c #2F788D",
"w. c #0955A3",
"e. c #0B5BA4",
"r. c #0A5BAB",
"t. c #0655A7",
"y. c #0D5EA9",
"u. c #0E63A4",
"i. c #0E64AB",
"p. c #0F6AAC",
"a. c #116CAC",
"s. c #166AA6",
"d. c #1776A9",
"f. c #0F6CB3",
"g. c #0D68B7",
"h. c #106EB2",
"j. c #0E71B8",
"k. c #1273B4",
"l. c #1276B9",
"z. c #147BBB",
"x. c #157AB4",
"c. c #257CAA",
"v. c #755587",
"b. c #52688A",
"n. c #797096",
"m. c #137CC3",
"M. c #1279C4",
"N. c #0D6EC2",
"B. c #817FAA",
"V. c #2C8B98",
"C. c #398C9D",
"Z. c #348896",
"A. c #3A929A",
"S. c #30848C",
"D. c #1680BC",
"F. c #1984BD",
"G. c #1B85B9",
"H. c #1F8EAD",
"J. c #328BA3",
"K. c #2B92A8",
"L. c #3C9CAD",
"P. c #3797A8",
"I. c #399CB7",
"U. c #2B8BB6",
"Y. c #3CA1B4",
"T. c #3AA6B8",
"R. c #37A2AE",
"E. c #449D9E",
"W. c #4C97AC",
"Q. c #48A7A9",
"!. c #42A5B7",
"~. c #4DB6BB",
"^. c #53A0AF",
"/. c #6BAEB4",
"(. c #739597",
"). c #1985C1",
"_. c #1B8BC3",
"`. c #1584CB",
"'. c #1587C4",
"]. c #1E92C6",
"[. c #1E94CA",
"{. c #1590CC",
"}. c #168AD3",
"|. c #168CD9",
" X c #1C94D3",
".X c #1D98D7",
"XX c #0C89C1",
"oX c #2598C8",
"OX c #209ED7",
"+X c #3093C9",
"@X c #37AAC3",
"#X c #3DB5CA",
"$X c #3BB5C9",
"%X c #21A3DC",
"&X c #2BA7D3",
"*X c #2EAFCF",
"=X c #22A9E7",
"-X c #37BDE6",
";X c #1B9DD7",
":X c #50BDC3",
">X c #41BED3",
",X c #4BBDD1",
"<X c #4BB1CF",
"1X c #7BB2CF",
"2X c #3EC2D8",
"3X c #45C8DA",
"4X c #4FC6D1",
"5X c #44CDE4",
"6X c #4CD3E3",
"7X c #48D7EA",
"8X c #56D9E5",
"9X c #49DBF4",
"0X c #59E3EE",
"qX c #56E7F6",
"wX c #5DF5FF",
"eX c #65E6EC",
"rX c #63ECF2",
"tX c #6AF4F5",
"yX c #6DFDFF",
"uX c #68F3F8",
"iX c #73FFFF",
"pX c #75D0DC",
"aX c #A0A2AB",
"sX c #D1B293",
"dX c #F5B486",
"fX c #CDBBB6",
"gX c #F6C08C",
"hX c #FBC392",
"jX c #FCD5A6",
"kX c #EDD7B1",
"lX c #87B6DF",
"zX c #A5F6F6",
"xX c #A2CADB",
"cX c #F9FCFA",
/* pixels */
"                                                                          . . . . . .                                           ",
"                                                                        * s B Z T T Z o                                         ",
"                                                                  . . . s P.#X6XrXiX8XB o .                                     ",
"                                                                . 8 T L 8.oX&X&X@X4X8X~.Q.Q.8 .                                 ",
"                                                              X % Y @X'.`._.[.I.^.^.@XqXiXiXA.7                                 ",
"                                                            . = l 8.m.].].].;XpXcXxXJ.*X0XuXtX:X7 .                             ",
"                                                            . 3 8.k.j.D.F.].oX4XxXxX^.b.J.:XeX:X7 .                             ",
"                                                            . i h.m.k.a.D.].]._.M.<X1X9.P Z.W.q., .                             ",
"                                                          o d &.e.h.l.k.l.z.x.z.XXoX<Xc.H.]._.=.X . .                           ",
"                                                        . # %.t.%.1.p.i.p.f.p.z._.'.XX{._.d._.U.I 0 .                           ",
"                                                        . @ #.t.%.&.:.>.u.j.l.l.l.l.l.M.7.I W.uXzX(.O                           ",
"                                                        . @ j c.*XoXs.>.<.u.3.$.$.G $.t.7.Y !.uXzX/.o                           ",
"                                                        . o s ^.eXeX@Xu.;.%.z k j j j #.4.J.T.>XuXA.o                           ",
"                                                        . % Y b.v.lX7Xa.#.z m _ ] { ] V c 2.J.L.+XH .                           ",
"                                                        . * V.v.( (.5X2.b l R [ } @.} R k #.7.0.c 2 .                           ",
"                                                        . & V.v.) aX&XJ m _ Q Q ~ ^ ^ ^ R f ;.:.> .                             ",
"                                                        . * U v.( n.H.x m / | fXfXn.I ` [ E l 1 X                               ",
"                                                          o s M N b.V.v l ' +.kXcXlX-.{ X...e .                                 ",
"                                                            @ 0 I W I &.A / O.jXjXfXsXsXgXhXE .                                 ",
"                                                            . . 9 D >.t.I R  .dXhXO.+.gXjXhXe .                                 ",
"                                                        . . . . . g r.1.v g ` O.hX .' o.hX..w .                                 ",
"                                                      . B E.E.A.Y y ; ; f :.! } O.O.O.dX .q -                                   ",
"                                                      3 Q.iXyXwX6XD * % t c m ~ ^ | o. .w .                                     ",
"                                                  . 7 :XtXtX6X5X5X$XP.q.s . O O + - - - +               . .                     ",
"                                                  s A.yXyX6X5XK.U !.qX8XZ.8 C C 9 5 3 . .             4 h o .                   ",
"                                              . , V.qXrX6X$X2XD . S.iXuX8X3X2X$XP.P.V.9 .           . H u., . o . .             ",
"                                            . 9 8.G.*X8XqX$XV , Z ~.iXtXuX0X6X#X<X<X#XL.Z .       5 H S y g =.5.8.h @ .         ",
"                                            , 5.%Xm.x.U.R.q.* s !.8XuXrXtXrX6XP.Y Z.>X9XT.8 %   . i M.4 . x h.F.|.6.& .         ",
"                                        . , -.'.[. Xd.x : 3 T Y.>X8XtXrXtXrX4XT % s !.>X3X$XB . . t e.1 . t z z p.7.& .         ",
"                                        . 4 l.}.G.OXd.v . . 8 Z.5X7X8XrXqX8X,XP . 7 !.Y.>X9X0.2 . @ u d S -.7.-.p.$.@ .         ",
"                                        . < 7.l.k._.'.2.u o . B T.2X3X0X8X#XY.P X 8 C.E.L.#X_.%.> . . S `._.oXG.h.v @ .         ",
"                                        . > >.j.x.k.z.D.d.5.=.h 8 S.6X6X4XP.Z *   @ 6 S.I.s.f.f.6.a . f i.H F H k.2.& .         ",
"                                        . ; %.r.p.k.D.[.%X.X.Xx . D -X*XU.q.& .     . A 9.%.w.j.}.H . d e.G g z *.F @ .         ",
"                                        . > *.<.1.x.[.].oX X|.h . S }.D.h.>.> .       o 1 :.w.1.M.S . h m.l.i.&.1 X             ",
"                                        . > >.r.u.G.oX[.{.d.S h L h x d.`.w.: . .       . t c r.N.x . a 2.3.f.k.4 .             ",
"                                        . : c u.z._.oX_.`.3.. a  X9 . d..Xp.a * * o       . t :.,.d . : d t H u.5 .             ",
"                                            : J ).].].z.N.*.. 5 }.5 . 7.N.1.0.R.P.B .       @ : > @ . . @ @ & > @               ",
"                                            . i M.'.).i.$.d 1 i F u i w.f.s.@X6X9XK.8 o       . . . . . . . . .                 ",
"                                            . u r.h.h.1.< X $.z . f t.<.s.E.C.L.#X5XT.7 .                                       ",
"                                              : u ,.N.r.; . 1 , . : d r 6 B q.Y.I.2X3XK.B .                                     ",
"                                              . . d :.$.a * . . . . . . . . V C.C.L.>X7XR.9 o                                   ",
"                                            . . . . $ # 9.J.3 .             % s C.!.L.#X5X#XB .                                 ",
"                                          X < t y a * . V.5X7 .               o A q.L.<XT.S.D a X                               ",
"                                        . > *.i.z..XK . Y $X3 .                 . B P.T.P . K F.5 .                             ",
"                                      . 1 $.e.m. X=X5.. 3 B                       = 8 7 3 g d..Xd.C .                           ",
"                                    X : c g.z._.oX%X5.X . .                         . . i l. X[.=X5..                           ",
"                                  . > %.u.z._.].[.%X5.X . .                         . S k.k.'.oX%XK X                           ",
"                                . 1 G j.l.)._.oX_. XK . .                         # d u.`.h.l.).%X5.X                           ",
"                              . > %.g.l.F.[.].].].`.J .                         . u e.f.k.k.a.l.OX5..                           ",
"                            . 4 c :.e.l.F.[.].[.].{.H X                         . 1 r.f.k.k.h.k.'.H .                           ",
"                          $ > $.r.2.u.l.].[.].[.F.z.S .                         : f 1.a.l.h.h.k.m.F .                           ",
"                        . < &.,.w.p.p.k.F.oX[.F.a.*.t .                     . : c :.3.a.l.h.k.k.`.F .                           ",
"                      . & f $.v J a.z.k.D.D.D.`.p.i @ .                     . : >.r.>.1.s.k.l.k.i.*.u X                         ",
"                    X # f x g d J p.l.k.k.h.h.l.6., .                       . : $.w.>.:.1.h.x.i.1.w.e.i o                       ",
"                  . 1 G *.#.c =.6.p.k.k.a.k.k.u.x # .                       . : *.w.>.:.>.3.1.3.e.x.).G.K X                     ",
"                @ > c r.e.e.i.z.'.z.k.a.k.k.p.J > X                         . : $.w.>.>.>.:.>.2.a.z._.=X_.C ,                   ",
"              . < *.,.1.i.D.]._.].].D.p.k.f.t.u .                           . : $.w.>.>.:.:.y.k.k.k.k.F.[.[.L .                 ",
"              . > w.y.i.h.z.D.oX[.oX].D.l.h.p.i .                           . : :.r.>.>.>.>.1.y.h.k.h.l.).%XG.x ,               ",
"              o t >.p.l.l.f.h.D._._.].].z.k.m.h .                           . & v >.,.,.,.,.:.,.u.l.k.h.l.G. XM.y .             ",
"          . @ g %.>.i.z.k.d.h.k.x.l.).[.D.k.z.h .                               : z r.r.w.w.w.w.w.f.m.m.'.`.|.`.y .             ",
"          . @ &.g.1.r.h.l.l.l.M.l.j.)._.).M.l.d .                               . : z x z z z z f x F H F J H F , .             ",
"          . @ c t.>.>.1.p.z.k.l.k.l.j.k.k.j.w.t .                               . . . . . . . . . . . . . . . . . .             ",
"          . . < t r 1 1 y a y a y a y y i u 1 #                                                                                 ",
"          . . . . . . . . . . . . . . . . . .                                                                                   "
};
