/* XPM */
static char *_3cf4d7028d74337c95af48c454a63e5oFmO0xILBrGdkWIO[] = {
/* columns rows colors chars-per-pixel */
"64 64 235 2 ",
"   c None",
".  c #000101",
"X  c #00050A",
"o  c #030A0D",
"O  c #0A0000",
"+  c #180703",
"@  c #010A13",
"#  c #010E1C",
"$  c #000714",
"%  c #071214",
"&  c #03131D",
"*  c #091718",
"=  c #10171B",
"-  c #22140D",
";  c #000E2A",
":  c #021324",
">  c #02162B",
",  c #061B26",
"<  c #031A32",
"1  c #021D3B",
"2  c #011536",
"3  c #0D2429",
"4  c #04223C",
"5  c #092937",
"6  c #172B35",
"7  c #153133",
"8  c #16373C",
"9  c #0B2E34",
"0  c #312E34",
"q  c #59392F",
"w  c #64392B",
"e  c #71553E",
"r  c #684028",
"t  c #011D40",
"y  c #032243",
"u  c #062B45",
"i  c #03254A",
"p  c #062C4A",
"a  c #0A2F40",
"s  c #09324A",
"d  c #093248",
"f  c #173B45",
"g  c #042B53",
"h  c #042B5A",
"j  c #05315B",
"k  c #09395A",
"l  c #093454",
"z  c #173355",
"x  c #162C52",
"c  c #393649",
"v  c #2F3853",
"b  c #053463",
"n  c #063A67",
"m  c #053D7C",
"M  c #053976",
"N  c #113161",
"B  c #483A51",
"V  c #792263",
"C  c #1A454A",
"Z  c #1C4C55",
"A  c #104755",
"S  c #22565A",
"D  c #224A54",
"F  c #0B4369",
"G  c #1A5869",
"H  c #0B4A73",
"J  c #07427E",
"K  c #0C4D7A",
"L  c #084575",
"P  c #11577A",
"I  c #124D6D",
"U  c #245A69",
"Y  c #2F5270",
"T  c #1E6470",
"R  c #286976",
"E  c #2C6971",
"W  c #6F534E",
"Q  c #414766",
"!  c #755C65",
"~  c #925037",
"^  c #AB5E3E",
"/  c #AF603D",
"(  c #AC0552",
")  c #C40A55",
"_  c #865241",
"`  c #8F5C4C",
"'  c #A25C40",
"]  c #A5644A",
"[  c #B47355",
"{  c #8F6053",
"}  c #CE7852",
"|  c #BB815F",
" . c #B98663",
".. c #CB815C",
"X. c #C38564",
"o. c #D6946F",
"O. c #E79C6F",
"+. c #E69C71",
"@. c #D5A67C",
"#. c #EFA87B",
"$. c #033883",
"%. c #064485",
"&. c #05458B",
"*. c #06488C",
"=. c #084B87",
"-. c #0C5589",
";. c #12598B",
":. c #034591",
">. c #064A93",
",. c #084D94",
"<. c #084E99",
"1. c #064D9B",
"2. c #09549C",
"3. c #0B5B9D",
"4. c #095597",
"5. c #125D9B",
"6. c #146489",
"7. c #0E619B",
"8. c #13649B",
"9. c #176997",
"0. c #246C88",
"q. c #247A99",
"w. c #2F788D",
"e. c #0955A3",
"r. c #0B5BA4",
"t. c #0A5BAB",
"y. c #0655A7",
"u. c #0D5EA9",
"i. c #0E63A4",
"p. c #0E64AB",
"a. c #0F6AAC",
"s. c #116CAC",
"d. c #166AA6",
"f. c #1776A9",
"g. c #0F6CB3",
"h. c #0D68B7",
"j. c #106EB2",
"k. c #0E71B8",
"l. c #1273B4",
"z. c #1276B9",
"x. c #147BBB",
"c. c #157AB4",
"v. c #257CAA",
"b. c #755587",
"n. c #52688A",
"m. c #7A6995",
"M. c #137CC3",
"N. c #1279C4",
"B. c #0D6EC2",
"V. c #817FAA",
"C. c #2C8B98",
"Z. c #398C9D",
"A. c #348896",
"S. c #3A929A",
"D. c #30848C",
"F. c #1680BC",
"G. c #1984BD",
"H. c #1B85B9",
"J. c #1F8EAD",
"K. c #328BA3",
"L. c #2B92A8",
"P. c #3C9CAD",
"I. c #3797A8",
"U. c #399CB7",
"Y. c #2B8BB6",
"T. c #3CA1B4",
"R. c #3AA6B8",
"E. c #37A2AE",
"W. c #449D9E",
"Q. c #4C97AC",
"!. c #48A7A9",
"~. c #42A5B7",
"^. c #4DB6BB",
"/. c #53A0AF",
"(. c #6BAEB4",
"). c #739597",
"_. c #1985C1",
"`. c #1B8BC3",
"'. c #1584CB",
"]. c #1587C4",
"[. c #1E92C6",
"{. c #1E94CA",
"}. c #1590CC",
"|. c #168AD3",
" X c #168CD9",
".X c #1C94D3",
"XX c #1D98D7",
"oX c #0C89C1",
"OX c #2598C8",
"+X c #209ED7",
"@X c #3093C9",
"#X c #28A4CA",
"$X c #37AAC3",
"%X c #3DB5CA",
"&X c #3BB5C9",
"*X c #21A3DC",
"=X c #2BA7D3",
"-X c #31B4D1",
";X c #22A9E7",
":X c #37BDE6",
">X c #1B9DD7",
",X c #50BDC3",
"<X c #41BED3",
"1X c #4BBDD1",
"2X c #4BB1CF",
"3X c #7BB2CF",
"4X c #3EC2D8",
"5X c #45C8DA",
"6X c #4FC6D1",
"7X c #44CDE4",
"8X c #4CD3E3",
"9X c #48D7EA",
"0X c #56D9E5",
"qX c #49DBF4",
"wX c #59E3EE",
"eX c #56E7F6",
"rX c #5DF5FF",
"tX c #65E6EC",
"yX c #63ECF2",
"uX c #6AF4F5",
"iX c #6DFDFF",
"pX c #68F3F8",
"aX c #73FFFF",
"sX c #75D0DC",
"dX c #8892B4",
"fX c #DEAB80",
"gX c #EAB88A",
"hX c #F2B588",
"jX c #FBC392",
"kX c #FFD29E",
"lX c #F8C18F",
"zX c #98C0D8",
"xX c #A5F6F6",
"cX c #A8D0DD",
"vX c #F2F8F7",
/* pixels */
"                                                                        . . . . O .                                             ",
"                                                                      = f C S E E S %                                           ",
"                                                                . . . f I.&X5XtXaX0XC X X                                       ",
"                                                              . 8 E H 9.OX*X-XR.5X0X^.!.!.7 .                                   ",
"                                                            O = R #X].'.OX}.U././.~.wXaXaXW.7                                   ",
"                                                          . = D 9._.[.[.`.#XsXvXcXv.&X0XuXuX^.7 .                               ",
"                                                          . 3 9.d.z.F.`.OXOX1XcXzXQ.w.K.,XtX6X7 .                               ",
"                                                          . p l.N.j.a.x.[.[.}.}.2X3Xn.G Z.P.w.= .                               ",
"                                                        $ g *.t.j.c.l.z.F.l.F.oXOX$Xv.v.H.[.-.X . .                             ",
"                                                      . @ &.t.$.2.p.p.s.j.j.l.oX[.oX|.[.H.`.Y.Y 0 .                             ",
"                                                      . # m 1.&.*.,.,.u.l.z.z.z.z.x.M.8.Y Q.uXxX)..                             ",
"                                                      . @ l v.=X@Xd.,.<.i.4.%.=.%.%.e.8.E ~.pXxX(.X                             ",
"                                                      . o C W.sXtX&X8.$.>.n x z x z $.5.K.T.<XeXW.X                             ",
"                                                      . % T n.V.3X9Xs.$.b B _ { { { D $.5.Y.T.@XP .                             ",
"                                                      . * C.b.( dX9X7.b c ~ } O.hXO.W z M 8.q.M 2 .                             ",
"                                                      . % q.m.) dX#XH 0 ` [ o.hXkXgX[ q h :.>.> X                               ",
"                                                      . % R b.( m.L.n 0 / } X.|  .| } ] W v 1 .                                 ",
"                                                        o d Y ( n.q.M B ' ..X.] ~ ] [ O.O.r .                                   ",
"                                                          o 6 Y E Y $.Y / O.gXfXfXgXgXlXjXW .                                   ",
"                                                          . . 6 I ;.y.Y W  .jXkXgX@.lXkXjXe .                                   ",
"                                                      . . . . . h e.e.m z { +.lX .' @.hXo.q .                                   ",
"                                                    . C W.W.S.R u ; ; h *.! ..#.fX#.hXX.q -                                     ",
"                                                    3 !.aXiXrX7XU = % t m B ~ `  .fXX.w .                                       ",
"                                                . 7 6XuXuX8X5X7X&XK.w.f . O O + + - - +               . .                       ",
"                                                f I.iXiX8X7XL.T R.eX0XA.C C A 9 5 3 . .             5 s o .                     ",
"                                            . * C.eXtX8X&X5XT . D.aXpX0X4X4X&XI.Q.A.9 X           X K i., X X X .               ",
"                                          . 9 9.F.-X8XeX&XA , S ^.iXuXyXwX9X%X$X<X%XU.Z .       5 K F u j -.9.6.k @ .           ",
"                                          , 6.;XM.l.L.R.w.= f ~.tXuXtXuXuX8XP.R A.%XqXE.8 %   . p N.y . b a.G. X7.& .           ",
"                                      . , 4._.{..Xf.n & 3 E R.%XwXuXyXpXyX6XE @ f ~.<X5X&XC . . y r.1 . 4 b n a.7.& .           ",
"                                      . 4 c.|.H.OXc.M . . 8 A.7X9X0XyXyX8X1XU . 6 ~.T.<X9Xq.2 . @ i g F ;.9.;.a.K @ .           ",
"                                      . , i.x.l.[._.e.y o . f $X%X5XtX0X%XT.U X 6 I.Z.~.%X[.&., X . F '.`.[.`.g.M $ .           ",
"                                      . > ,.k.z.z.x.F.f.6.;.k 8 C.8X8X6XI.S =   % 6 D.U.d.j.a.5.d . g t.=.I K k.5.# .           ",
"                                      . : %.t.s.j.F.[.*X*X>Xb . G :X=XU.0., .     . D 0.&.y.l. XK . g r.J b h =.I @ .           ",
"                                      . > *.1.2.c.{.[.OX|. Xk . F ].x.g.>.> .       X 5 >.1.2.M.F . b M.z.p.*.1 o               ",
"                                      . > ,.t.i.G.OXOX}.l.F l I s n f.'.3.; . .       X y m t.B.F . d 3.4.j.g.4 .               ",
"                                      . : m t.x.[.{.[.'.-.. a +Xa X f.XXa.d * * o       . y >.>.g . : g y H i.u .               ",
"                                          : F _.{.[.x.N.&.. 5 |.5 . 9.B.<.q.E.U.C .       @ : : @ . . @ @ : , @                 ",
"                                          . g N.`.F.p.%.g 1 g H p p r.d.d.R.7XqXL.8 X       . . . . . . . . .                   ",
"                                          . i t.j.j.<.< @ %.b . g y.1.d.I.Z.P.&X5XR.9 .                                         ",
"                                            # i 2.B.y.; . 1 > . ; g t 6 C D.T.T.:X5XI.C .                                       ",
"                                            . . h >.%.l * . . . . . . . . D Z.Z.T.<X9XU.9 %                                     ",
"                                          . . . . @ & R C.3 .             % f Z.~.I.%X5X&XC .                                   ",
"                                        . < y u s * . S.7X7 .               o Z w.Q.<XR.D.G d X                                 ",
"                                      . > &.g.c.+XP . R $X9 .                 . C I.~.U . P H.9 .                               ",
"                                    . 1 m t.M..X;X6.. 3 C                       * 8 7 3 j l.XXf.l X                             ",
"                                  X : J h.x.`.OX+X6.X . .                         . X p l..XOX;X6.X                             ",
"                                . < &.r.x.`.[.[.*X6.X . .                         . F g.l.G.{.*X6.O                             ",
"                              . < J k.x.G.[.{.`..XP X .                         & p i.'.l.z.`.XX6.X                             ",
"                            . > %.h.l.`.[.[.[.[.'.H X                         . i e.s.l.l.j.l.XXP X                             ",
"                          . 4 m >.t.z.G.[.[.[.{.|.K X                         . 1 t.g.l.j.j.l.'.P X                             ",
"                        o > J t.3.i.l.[.{.[.[.H.x.n X                         : h 2.a.z.l.j.l.M.H .                             ",
"                      . < >.1.e.a.j.l.G.OX{.`.a.=.4 .                     . & m <.2.s.z.l.l.l.M.H .                             ",
"                    . & g %.M J s.z.l.c.F.F.].s.p @ .                     . : ,.t.,.2.s.l.c.l.g.=.y o                           ",
"                  X & j M j g H a.x.j.j.l.l.z.7., .                       . : %.e.>.>.2.s.l.s.2.e.r.p X                         ",
"                . 1 $.%.%.$.=.8.a.l.l.j.l.z.i.n # .                       . : %.e.,.>.,.2.2.2.r.l.`.H.P X                       ",
"              @ > M t.r.r.a.x._.c.z.s.l.j.s.M > X                         . : %.e.,.,.>.>.,.3.s.x.`.;X`.A :                     ",
"            . < *.<.2.p.F.[.[.[.[.F.j.l.a.e.i .                           . : %.e.,.,.>.,.u.l.l.l.l.`.{.{.I .                   ",
"            . > e.p.i.j.x.G.[.[.OX`.F.c.g.p.u .                           . : ,.t.>.,.,.>.2.p.l.l.s.l._.*XH.k :                 ",
"            @ y >.j.z.l.j.j.F.[.`.[.[.x.z.x.k .                           . & M 1.<.<.<.,.,.,.p.l.k.l.z.`..XM.p .               ",
"        . @ h &.,.p.x.l.j.j.l.c.l.`.[.c.z.M.k .                               & b t.t.y.e.e.e.e.g.M.M.M.'. XM.d .               ",
"        . @ *.h.2.t.j.z.x.x.z.k.k.'.`.'.N.k.l .                               . > b n b b b b h b H H H H K H > .               ",
"        . @ m e.,.<.2.j.c.z.k.z.l.l.l.z.g.e.y .                               . . . . . . . . . . X . . . . . . .               ",
"        . X > y 1 1 1 u d u u d d u u p p 1 #                                                                                   ",
"        . . . . . . . . . . . . . . . . . .                                                                                     "
};
