/* XPM */
static char *febef69f3a02429ee956fa192fc3dc83kcLHpBd1qR8WtCXZ[] = {
/* columns rows colors chars-per-pixel */
"64 64 239 2 ",
"   c None",
".  c #000101",
"X  c #01050B",
"o  c #03090C",
"O  c #0A0704",
"+  c #180703",
"@  c #020B13",
"#  c #010D1C",
"$  c #000611",
"%  c #061314",
"&  c #0A1314",
"*  c #03131E",
"=  c #081619",
"-  c #09191A",
";  c #10171B",
":  c #22140D",
">  c #000F28",
",  c #021324",
"<  c #02152B",
"1  c #041C2B",
"2  c #0A1C25",
"3  c #031B33",
"4  c #021D3C",
"5  c #011434",
"6  c #0C242B",
"7  c #04223C",
"8  c #082938",
"9  c #162A36",
"0  c #153233",
"q  c #15373C",
"w  c #0E2D31",
"e  c #312A33",
"r  c #593729",
"t  c #64392B",
"y  c #6F4C38",
"u  c #001C42",
"i  c #042344",
"p  c #062C46",
"a  c #03254B",
"s  c #062C4B",
"d  c #0A2C44",
"f  c #09334A",
"g  c #0A3448",
"h  c #183B45",
"j  c #042A52",
"k  c #042C58",
"l  c #05315C",
"z  c #093654",
"x  c #122E59",
"c  c #35384E",
"v  c #053363",
"b  c #04356A",
"n  c #063B6D",
"m  c #073C65",
"M  c #063B74",
"N  c #053E7B",
"B  c #02367B",
"V  c #123C61",
"C  c #223A60",
"Z  c #4C3955",
"A  c #792263",
"S  c #194549",
"D  c #0E445C",
"F  c #1C4C57",
"G  c #1A525A",
"H  c #0B434D",
"J  c #225558",
"K  c #294D57",
"L  c #0B446A",
"P  c #1A596A",
"I  c #0C4A72",
"U  c #06427D",
"Y  c #0B4D7B",
"T  c #084475",
"R  c #11577A",
"E  c #134C6E",
"W  c #245968",
"Q  c #2D506E",
"!  c #1E6470",
"~  c #266269",
"^  c #276977",
"/  c #2C6F78",
"(  c #72504A",
")  c #5A5F6C",
"_  c #914D33",
"`  c #AF603E",
"'  c #AC0552",
"]  c #C40A55",
"[  c #8E5B4C",
"{  c #A35E41",
"}  c #A26D5A",
"|  c #CD764E",
" . c #9E857E",
".. c #BD8866",
"X. c #C18665",
"o. c #D0916E",
"O. c #EA9B6C",
"+. c #D1A57B",
"@. c #E7A677",
"#. c #E4A16E",
"$. c #043F85",
"%. c #064484",
"&. c #05448C",
"*. c #06488B",
"=. c #094B8D",
"-. c #0A4C83",
";. c #0C5487",
":. c #145A8C",
">. c #044591",
",. c #064A93",
"<. c #084D95",
"1. c #064B9A",
"2. c #084E99",
"3. c #09539C",
"4. c #0B5B9E",
"5. c #095296",
"6. c #125D9B",
"7. c #146184",
"8. c #15698E",
"9. c #0E629B",
"0. c #176598",
"q. c #276C8A",
"w. c #2C7584",
"e. c #337D8A",
"r. c #27799A",
"t. c #327798",
"y. c #0955A4",
"u. c #0B5CA3",
"i. c #0A5CAB",
"p. c #0756A9",
"a. c #0C5DAC",
"s. c #0E63A4",
"d. c #0D64AB",
"f. c #0F6AAC",
"g. c #116CAD",
"h. c #1768A3",
"j. c #1979AA",
"k. c #0E6BB2",
"l. c #0C66B7",
"z. c #106EB1",
"x. c #0E71B8",
"c. c #1273B4",
"v. c #1478B6",
"b. c #1276B9",
"n. c #137ABA",
"m. c #197FB1",
"M. c #286C9E",
"N. c #755587",
"B. c #556B88",
"V. c #7A6995",
"C. c #137CC3",
"Z. c #137CC7",
"A. c #0E71C6",
"S. c #817FAA",
"D. c #2A8998",
"F. c #398C9D",
"G. c #348796",
"H. c #3A929A",
"J. c #30848C",
"K. c #1680BC",
"L. c #1984BD",
"P. c #1B88BB",
"I. c #1F8EAD",
"U. c #328BA3",
"Y. c #3998A9",
"T. c #2E95B7",
"R. c #3A9DB6",
"E. c #2A8CAC",
"W. c #3CA1B4",
"Q. c #3AA6B9",
"!. c #37A2AE",
"~. c #449D9E",
"^. c #4C97AC",
"/. c #46A6AB",
"(. c #43A7B8",
"). c #4DB5BB",
"_. c #53A0AF",
"`. c #6DAAB4",
"'. c #739597",
"]. c #1B8BC3",
"[. c #1584CA",
"{. c #1788C5",
"}. c #1E92C6",
"|. c #1D94CA",
" X c #1590CC",
".X c #188DD5",
"XX c #1D96D4",
"oX c #0C89C1",
"OX c #2499C9",
"+X c #309DD2",
"@X c #37AAC4",
"#X c #3CB5CB",
"$X c #3BB5C9",
"%X c #24A4D9",
"&X c #3AB8D2",
"*X c #26A8C8",
"=X c #22AAE8",
"-X c #36B9E7",
";X c #1B9FD8",
":X c #44B5C9",
">X c #40BDD3",
",X c #4BBDD1",
"<X c #51B6CD",
"1X c #7BB2CF",
"2X c #5197CD",
"3X c #3FC2D8",
"4X c #42C1D5",
"5X c #46C9DB",
"6X c #4FC9D5",
"7X c #43CCE3",
"8X c #4AD4E6",
"9X c #56D9E5",
"0X c #4ADCF3",
"qX c #59E2ED",
"wX c #56E6F5",
"eX c #54EBFD",
"rX c #65E6EC",
"tX c #63ECF2",
"yX c #6AF4F5",
"uX c #6DFDFF",
"iX c #68F3F8",
"pX c #73FFFF",
"aX c #75D0DC",
"sX c #96B0B6",
"dX c #8892B4",
"fX c #D4B393",
"gX c #F5B486",
"hX c #F5C08C",
"jX c #FAC392",
"kX c #DEC2A5",
"lX c #FCD3A4",
"zX c #FFE2B4",
"xX c #8FB3D6",
"cX c #99C7D6",
"vX c #A5DAE8",
"bX c #A5F6F6",
"nX c #AAC8CC",
"mX c #F9F9F4",
"MX c #D7E3DC",
/* pixels */
"                                                                        . . . . O .                                             ",
"                                                                      & h S J ~ / J o                                           ",
"                                                                . O . h Y.:X8XrXuX9XS . O                                       ",
"                                                              . q ^ E 0.+X%X*XQ.5XqX)././.q .                                   ",
"                                                            . & ^ @X{.[.}. XT.`._.$XwXuXpX~.0                                   ",
"                                                          . ; F :.{.].}.}.*XaXmXnXU.$X0XyXyX).0 .                               ",
"                                                          . 6 M.c.x.K.]. X*X,XvXxX^.t.F.<XrX<X0 .                               ",
"                                                          . s c.C.c.c.n.].].[.oX2X1XB.W F.!.e.2 .                               ",
"                                                        $ k >.i.z.v.b.v.n.v.K.L.OX@Xm.r.T.{.;.O . .                             ",
"                                                      . # &.p.$.2.d.d.g.z.z.b.{. XoX.X}.m.{.P.Q e .                             ",
"                                                      . @ N p.$.,.<.<.u.c.b.b.b.b.v.C.0.Q ^.yXbX'..                             ",
"                                                      . @ x j.@XOXh.<.2.s.5.U T %.5.u.6./ (.iXbX`.o                             ",
"                                                      . o S ~.aXrX@X6.$.>.n V V f j B 5.G.R.:XeX~.o                             ",
"                                                      . % ! B.S.1X9Xd.$.v Q ) `.Q X u $.6.U.R.+XY .                             ",
"                                                      . - D.N.' dX8X9.V c ) sXvX) X e C $.9.r.M 4 .                             ",
"                                                      . % r.V.] dX*XI e [ } cXcX~.s y ( k >.=.< .                               ",
"                                                      . = ! N.' V.I.l e { o.MXmX2XB [ | ( c 4 .                                 ",
"                                                        o h Q ' B.r.n Z ` o.zXmXxX0.} O.@.t .                                   ",
"                                                          @ 9 Q / W &.Q { #.lXlXkXfXfXjXjX( .                                   ",
"                                                          . . w F :.p.E ( ..gXhX@.#.hXlXjXy .                                   ",
"                                                      . . . . . v p.y.B V [ #.gX..[ +.jXo.r .                                   ",
"                                                    . S /.~.H.^ i > > k 3.( | gXgX@.gXX.r :           . .                       ",
"                                                    w /.pXuXiX8X~ & & u N Z _ _ ..+.X.t .           @ 6 1 @                     ",
"                                                . 0 ).yXiX6X5X7X$XU.t.h . O + + + : : +           . D P.v.z .                   ",
"                                                h Y.uXuX8X8XE.! Q.wX9XJ.S H H 8 8 1 . .         = z K.XXz.Y f *                 ",
"                                            . - D.wXrX8X&X3XW . J.pXuX9X&X4X#XY./.G.w X       . g OX X4.v -.c.s .               ",
"                                          . g m. X-X8XwX#XG 2 F ).uXyXtXwX8X4X:X:X$XR.F .     . 8 .Xh.n ;.z.d.3 .               ",
"                                          , L j.;.7.T.Q./ o 9 :XrXyXrXyXyX5XY./ G.&X0XQ.q %   , z ;.T M f.l.%.u #               ",
"                                      . # $.s o X 1 L d & 9 q.:XqXyXtXiXtX,X~ & h (.>X4XQ.S . ;.Y @ L c.i.U l -.n @ .           ",
"                                    . 6 Y c.:.g f 7 > . . W R.3X8X9XtXrX9X,X~ . 0 (.(.>X0XJ . u.Y . f A.-.b N =.b @ .           ",
"                                  . # ;..X|.OXOX.XU . . = w.:X:X$X4XrX9X$XW.W . 9 F.U.(.&XG X M v X j &.v M <.U i X .           ",
"                                . < M c.XX}.XX;X=X%.. . = e.(./.Q.5X8X6XY.J 2   & q J.R.j.9.I , 5 N i 3 U *.n <.M @ .           ",
"                                . a l.].OX].|.L.9.m 8 * % W t.t.T.$X*XT.q.2 .     . F q.&.l.g.p 7 T , . k U n U l @ .           ",
"                                . z A.}.|.OX X9., q P.H . i U 2.g.n.v.f.<.3 .       O 7 >.p.3.c.L . . . X s 2.a X               ",
"                                . z C. X|.P.Z.3.. 6 XXL . j $.1.d.b.K.C.4.> . .       X i N p.A.4.j v a . # a #                 ",
"                                . s b.].].c.y.n # 7 4.p $ N y.<.u.c.]. Xg.g = = o       . i ,.%.%.=.3.N # . .                   ",
"                                . s l.C.b.u.j , n n 1 , a $.3.<.<.u.v.k.2.r.Y.Y.H .       @ , , , < < , . .                     ",
"                                . < b 4.l.p.5 . l j . 1 :.:.6.y.1.y.d.d.h.@X8X0XU.h o       . . . . . . .                       ",
"                                    X n i.y.a . . O . F Y.Y.r.2.1.1.1.0.Y.H.R.$X7XQ.w .                                         ",
"                                      > a 7 k k . O F G.,X8XD.4 4 4 4 9 S e.Q.W.3X3XY.S .                                       ",
"                                      . . . 4 b $ w /.7X>X#X~ . . . . . . F F.F.W.:X0XY.w %                                     ",
"                                          . . X . q >X0XQ.S = . .         & h F.(.Y.&X7X$XS .                                   ",
"                                          5 4 8 H D / 3X@X= . .             o F e./.:XQ.J.P g .                                 ",
"                                      . , &.k.b.XXR . / @Xw .                 . h Y.(.W . R P.w .                               ",
"                                    . 4 U i.Z.|.=X:.. 6 S                       = h q 6 l j.XXj.z .                             ",
"                                  X , U x.b.{.OX=X7.. . .                         . . s b..XXX=X8.O                             ",
"                                . < *.u.b.].}.|.%X7.. . .                         . L k.z.].|.%X7..                             ",
"                              . 4 U l.n.].}.OX].XXR X .                         # j s.[.c.c.].XX7..                             ",
"                            . < &.l.c.P.|.}.}.].[.I .                         . a y.z.c.c.z.v.XX7.X                             ",
"                          . 7 N >.d.v.].}.}.OX X.XY X                         . 4 i.k.c.z.z.z.[.R .                             ",
"                        $ < U a.3.s.v.].|.}.}.P.b.L .                         , l y.z.c.c.z.c.C.I .                             ",
"                      . 3 ,.2.y.f.z.c.P.|.|.P.z.-.i .                     . * N 1.<.g.c.c.c.c.Z.I .                             ",
"                    . * j %.M -.g.v.c.v.P.K.[.s.j @ .                     . , <.p.<.4.g.c.v.c.k.%.a X                           ",
"                  O # k n l j T g.b.c.z.k.z.n.9., .                       . , %.y.<.,.5.g.v.g.3.3.u.s o                         ",
"                . 4 $.%.$.$.-.9.g.c.z.c.c.b.s.n % .                       . , %.y.<.,.<.3.5.3.u.c.{.L.R .                       ",
"              @ < N a.u.u.d.n.{.n.c.k.c.c.f.T 1 X                         . , %.y.<.<.<.,.<.4.g.K.].=X].D 2                     ",
"            . 3 *.2.3.d.K.].}.}.}.K.z.c.k.3.a .                           . , %.y.<.<.,.<.u.c.c.z.c.{.|.OXE .                   ",
"            . < y.i.s.z.n.P.|.|.OX].K.v.x.d.s .                           . , <.i.<.<.<.<.3.d.c.v.z.c.{.%XP.l ,                 ",
"            $ u <.k.v.c.z.z.L.].].}.OXn.x.n.z .                           . * M 2.2.2.2.2.,.<.d.c.c.k.c.].XXC.p .               ",
"        . @ l &.<.g.b.c.c.z.c.v.c.P.}.n.x.C.z .                               # v i.i.p.y.y.y.y.k.C.Z.Z.[..XZ.s .               ",
"        . # *.l.3.i.z.b.n.b.n.b.b.[.].C.A.x.z .                               . , b v v v v v l v I I I I Y I 1 .               ",
"        . @ N y.2.<.y.g.v.c.x.c.c.c.b.b.z.y.i .                               . . . . . . . . X . . . . . . . . .               ",
"        . . 1 i 4 4 4 p g p s p p p p g p u #                                                                                   ",
"        . . . . . . . . . . . . . . . . . .                                                                                     "
};
