/* XPM */
static char *a8c5d4893a4a4bb0b70656be4aef0d1fAu9yA5gFpoIFyDoW[] = {
/* columns rows colors chars-per-pixel */
"64 64 245 2 ",
"   c None",
".  c #000001",
"X  c #01040A",
"o  c #030A0C",
"O  c #0D0707",
"+  c #000612",
"@  c #020B13",
"#  c #010D1B",
"$  c #0C0E14",
"%  c #081214",
"&  c #04141E",
"*  c #08171B",
"=  c #0E1211",
"-  c #280112",
";  c #26000C",
":  c #000E28",
">  c #021424",
",  c #051B26",
"<  c #091D22",
"1  c #01152A",
"2  c #041B2A",
"3  c #091A28",
"4  c #021B35",
"5  c #021D3C",
"6  c #0E152B",
"7  c #2A1327",
"8  c #0C2124",
"9  c #0A222B",
"0  c #152B2B",
"q  c #05243C",
"w  c #092938",
"e  c #153639",
"r  c #132F34",
"t  c #202B29",
"y  c #523531",
"u  c #643B32",
"i  c #5A2514",
"p  c #7B4939",
"a  c #021E44",
"s  c #042343",
"d  c #062B43",
"f  c #03254A",
"g  c #082D48",
"h  c #182B4B",
"j  c #0B3447",
"k  c #173B42",
"l  c #032B54",
"z  c #032C5A",
"x  c #052857",
"c  c #09355A",
"v  c #093C5C",
"b  c #073556",
"n  c #143158",
"m  c #2D3853",
"M  c #053364",
"N  c #06396A",
"B  c #063A73",
"V  c #053D7B",
"C  c #023677",
"Z  c #032E60",
"A  c #243C67",
"S  c #473D5F",
"D  c #1A464C",
"F  c #184855",
"G  c #1C535A",
"H  c #0C425F",
"J  c #264459",
"K  c #25585B",
"L  c #2D4555",
"P  c #0A446B",
"I  c #0A4367",
"U  c #1B5764",
"Y  c #0A4572",
"T  c #08477B",
"R  c #145877",
"E  c #0F4A73",
"W  c #255A65",
"Q  c #2E4B6F",
"!  c #1A6477",
"~  c #2A6567",
"^  c #276976",
"/  c #2F6E77",
"(  c #77534B",
")  c #41697F",
"_  c #716776",
"`  c #82003A",
"'  c #AB0038",
"]  c #844E36",
"[  c #9E064A",
"{  c #846553",
"}  c #B97757",
"|  c #AC6C4C",
" . c #8C645B",
".. c #C57D5A",
"X. c #C67F67",
"o. c #A68463",
"O. c #CD8559",
"+. c #D28F68",
"@. c #EBA378",
"#. c #E29D70",
"$. c #033E88",
"%. c #054482",
"&. c #0A4C84",
"*. c #04448B",
"=. c #074A8C",
"-. c #0F5C8C",
";. c #0B5486",
":. c #064A93",
">. c #084C94",
",. c #054A98",
"<. c #0A5396",
"1. c #09529B",
"2. c #0C5B9D",
"3. c #0A5795",
"4. c #14599A",
"5. c #174E81",
"6. c #295686",
"7. c #17678A",
"8. c #0E619C",
"9. c #0A6799",
"0. c #136897",
"q. c #19749D",
"w. c #136E85",
"e. c #2B7A88",
"r. c #327888",
"t. c #277498",
"y. c #286281",
"u. c #0953A2",
"i. c #0B5BA4",
"p. c #0B5CAB",
"a. c #0757A8",
"s. c #0B5FB4",
"d. c #0E62A4",
"f. c #0D64AB",
"g. c #0F6BAC",
"h. c #0F68A4",
"j. c #106CAC",
"k. c #1667A5",
"l. c #1874A9",
"z. c #0C63B4",
"x. c #0E6AB4",
"c. c #0D69BA",
"v. c #106EB1",
"b. c #1172B3",
"n. c #1479B6",
"m. c #1174BC",
"M. c #147CBB",
"N. c #1B76B6",
"B. c #0C7EAF",
"V. c #2778A3",
"C. c #6C7488",
"Z. c #477396",
"A. c #137CC3",
"S. c #117ACA",
"D. c #127ED1",
"F. c #0F74C8",
"G. c #99619A",
"H. c #2E8796",
"J. c #378C9B",
"K. c #3C9195",
"L. c #368086",
"P. c #1683BD",
"I. c #1984BD",
"U. c #1C89BD",
"Y. c #0A86BF",
"T. c #2B88A5",
"R. c #3C94A4",
"E. c #3A99AB",
"W. c #288DB8",
"Q. c #2993BA",
"!. c #379CB4",
"~. c #3183AE",
"^. c #3AA6B8",
"/. c #429696",
"(. c #4A8EAF",
"). c #44A9B6",
"_. c #4DAFB6",
"`. c #6DADBC",
"'. c #1986C3",
"]. c #1B8CC3",
"[. c #1583CA",
"{. c #188ACC",
"}. c #1D91C6",
"|. c #1E94C9",
" X c #1B95CA",
".X c #168AD5",
"XX c #1D98D4",
"oX c #2499C9",
"OX c #229DD6",
"+X c #2C94CC",
"@X c #3CAEC2",
"#X c #36A6C7",
"$X c #3DB9CE",
"%X c #3BB6CC",
"&X c #3EBBD3",
"*X c #25A0D5",
"=X c #23A9E6",
"-X c #1D9FE4",
";X c #4D9ACB",
":X c #45B8C8",
">X c #48AACE",
",X c #3FC2D7",
"<X c #4CC3CD",
"1X c #45C0CF",
"2X c #42C2D6",
"3X c #48CADD",
"4X c #5BD6D8",
"5X c #52C8CD",
"6X c #47CCE2",
"7X c #4BD6E9",
"8X c #56DCE7",
"9X c #4FDFF3",
"0X c #76DCE9",
"qX c #5BE3EB",
"wX c #57E1EA",
"eX c #58E8F6",
"rX c #53EBFA",
"tX c #63ECF1",
"yX c #66F1F5",
"uX c #69F4F6",
"iX c #64F3FA",
"pX c #6CFBFD",
"aX c #65F8FE",
"sX c #75FFFF",
"dX c #64E8E6",
"fX c #9DA09C",
"gX c #95A6AA",
"hX c #D4A081",
"jX c #E9B88B",
"kX c #F8BC89",
"lX c #E8B68A",
"zX c #FAC895",
"xX c #F5C18D",
"cX c #FFD6A0",
"vX c #88B3D9",
"bX c #A6BED8",
"nX c #93C8D5",
"mX c #8CCBE8",
"MX c #84FFFF",
"NX c #B6F1F9",
"BX c #A6CCEA",
"VX c #C0DFDC",
"CX c #FFEBC1",
"ZX c #F1F4F2",
"AX c #DDE1E4",
/* pixels */
"                                                                    . . . . . .                                                 ",
"                                                                  = e D K K ~ W 8                                               ",
"                                                            . O . e J.@X2XdXpXuX~ . . .                                         ",
"                                                          . e W c N V.N.W.:X8XeX_././.K .                                       ",
"                                                        O $ / Q.f.u.,.,.<.t.R.@X8XpXsX<Xr %                                     ",
"                                                      . * D R d.f.b.P.M.M.Y.W.E.:X9XaXuX4X~ .                                   ",
"                                                      . 6 6.4.a.m.].oX#X;X+XT.r.H.@X5XdXyX/ .                                   ",
"                                                      . 5 <.f.n.'. X}.;XvXvX(.Q / R.R.R.).D .                                   ",
"                                                    + f V ,.f.M.].].].;XbXZXbXt.l.Q.l.0.-.4 . .                                 ",
"                                                  . > *.a.:.d.M.]. X X;XbXZXNX.XA.I.'.N.k.b @ . .                               ",
"                                                  . # C ,.$.i.P.}. XXX X>XBXmXoX-.y.>X0XmX`.^ < .                               ",
"                                                  . , V.].g.h.g.U.Y.l.9.h.Z.+X{.y./ 5XsXNX0Xe.3 .                               ",
"                                                  . r 5XrX%Xq.,.m.9.M l z c &.b.~.R.^.wXpX_.m * .                               ",
"                                                  . t C.mXqXW.$.*.Y L ) ) 6 1 T b.Q.^.).).V.Y > .                               ",
"                                                  . ; u G.uXoXC x J C.nXvXt O f ;.v.T.e.J 5.$.1 .                               ",
"                                                  O - ' G.3XB.l u  .gXnX`.D 7 p m $.>.a.2.Z > X                                 ",
"                                                  . - [ G.^.w.h ] O.fXVXnX4.A } { m Q 6.V 2 .                                   ",
"                                                  . - [ G.E.-.h p O.zXZXAXk.6.lX#.} +.( $ X                                     ",
"                                                    ; 7 m r.T h p O.zXCXAXgXfXcXkX@.kX| O                                       ",
"                                                      . 6 J N n p ..jXxXkXkXjXjXkXkXcXo.O                                       ",
"                                                        . X M >.A ( #.kXkXO.} O.lXzXkX| O .                                     ",
"                                                          8 c C a m  .hX#.| | +.lXlXX.u O                                       ",
"                                                  . . . D !.F . . 5 4.C.....@.zXkX..y .               . . . .                   ",
"                                                  w W ~ ).eXH.D k h x 7 i i p { ] i .               & v f s b ,                 ",
"                                            . O % H.9XeXpXtX7X%X^./ t O . . . . . X               X N m.p.p.A.P .               ",
"                            . . . . . . . . . D _.qXiXpXaXeXqXqX8X_.r.7.w.e.! U ! ! o           8 R 0.p.n.'.[.2.z +             ",
"                          . . , , . X > , , , ^ 4XyXuXiX$XT.<XpXpXtX7X7X7X7X&X).3X&XU <       . w  X[.i.I.].j.x.f.l #           ",
"                        . . . q.7.. : >.2.h.h.b 0 _.pXrX/ * K.pXiXtXqXtXqX6X@XE.:X,X$X! . . . . , m.XXI.I.j.>.j.].h.z + .       ",
"                      @ j H g E R v l N i.S.[.f . K.eXH.9 . L.sXyXtXyXpXyX6XH.W r.:XrX^.g X . j I b 0.XXm.f.g.j.n.D.<.# .       ",
"                    . d U.-X8.> , v.v . z z.m.b . H.^.< . . K.pXyXtXtXiXwX_.F . k ).:X*Xu.4 o q.q.. d b.u.2.].N.>.x.-.& .       ",
"                  o v -.j.[.].-.b b , . l z.A.H . r e . 8 ~ ^.eXtXuXyXiX:XW *   % D E.#Xi.C l d v E M d 1 f j.D.v.Y q           ",
"                . # -.F.1.l.|..X&.. . > B p.m.N . . . . e E.#X:X8XyXqX7XJ.* .     . K t.>.s.>.> 9 8.v . X 1 M i.-.2 .           ",
"                . @ B v.I.].n.z.Z . 2 >.>.u.z.l . a M . 1 4.T.).1X3X3X<XL.* O       % g 1.a.>.d.E , . . M T 1 > &               ",
"                . @ V A.].n.u.v.;.5 5 B 1.,.M s 5 x x : z 1.l.T.!.oXoXW.R * .         + l *.a.D.2.5 q f N z . . .               ",
"                . # ;.[.b.2.1.I.].u.5 . B T X 4 $.> + V f.b.b.v.b.b.b.f.V # .           . l 2.1.>.>.u.=.4 . . .                 ",
"                    q Y p.m.n.k.m.D.z . 1 4   @ 5 . O !.OX1.i.M.P.P.P.A.=.+ . .           # a 5 a s l s X                       ",
"                    . + B b.].f.>.d.b . . .     . % K dX6X4.1.m.'.oX}.[.2.w 8 8 o           . . . . . .                         ",
"                        # N m.D.2.w @ .         . / 4XuX8X#Xk.1.b.I.M.i.3.T.^.!.e . . .                                         ",
"                        . : M ;.b . . .       8 G 5XsXuXqX2Xl.,.p.x.f.2.l.%X7X3Xe.D F 0                                         ",
"                          . . X .           . G 2XtXuXuX8X%Xl.:.,.,.1.V.E.R.R.R.^.,X,Xe.X                                       ",
"                                          . . * ~ :XrX7X8X6X7.q q 5 a k D D K (.).$X7X&XH.r                                     ",
"                                        X @ # @ o ! %X&X&X^.e . . . . . . . 8 r.R.R.@X,X,XW &                                   ",
"                                      . a T T 0.7.w D 2X!.w o               o 8 ~ >X:Xe.0 H 0.& .                               ",
"                                    @ q %.F.[.=XXX2 . e.G .                   . r / / k & -.OXR 9                               ",
"                                  . 4 :.p.M.].OXU.j . o o                       . o . 9 8.[. XOX7.o                             ",
"                                X a %.c.A.].}.OXU.j . . .                         . 4 &.M.{.oX=X0.# .                           ",
"                              X 4 >.v.M.].|.}.XXU.j . . .                       X > -.[.b.M.}.-X7.@ .                           ",
"                            . f =.f.A.].}.}.}.|.b.q .                         . 5 T x.M.b.b.M.XXq.@ .                           ",
"                          + q V z.v.'.|.}.}.}.{.v.q .                         . x z.x.b.b.j.x. X7.@ .                           ",
"                        . s :.:.2.g.I.}.}.}.|. Xb.q .                         . f i.x.b.b.b.b.[.R + .                           ",
"                      + f %.p.p.d.g.P.oX X].U.b.;.4 .                       # s B 1.g.M.b.b.b.S.R .                             ",
"                    . 4 :.1.>.j.m.j.P.}.oX].M.=.f @ .                     . 4 >.u.1.h.m.j.b.x.A.;.# .                           ",
"                  . > l N M N i.M.b.b.n.M.A.[.Y @ X                       . 4 >.u.>.1.f.b.M.b.f.:.C > .                         ",
"                @ 2 M B M c Y 8.m.b.v.x.b.v.j.b .                         . 4 :.u.>.=.1.g.j.h.1.i.z.T 9 o                       ",
"              . s >.:.*.*.<.h.j.v.b.b.v.M.h.T 4 .                         . 4 :.u.>.>.>.1.>.1.d.n.]. Xl.9 .                     ",
"            # s V a.p.g.v.M.'.'.n.b.v.v.v.=.5 + .                         . 4 :.u.>.,.>.:.>.d.j.n.I.OXXX7.w .                   ",
"          . 4 >.u.1.f.I.].|.}.|.].b.b.v.f.N o .                           . 4 >.u.,.>.>.>.i.N.b.b.j.M.}.=Xq.> .                 ",
"          . 1 >.z.k.v.n.M.]. XoX].'.M.b.m.T o .                           . 5 1.p.>.>.>.>.1.i.v.m.b.b.M.XX].-.d .               ",
"          # f :.x.M.b.j.g.n.].].}.oX'.b.S.-.@ .                           . > B ,.1.1.1.1.>.,.f.b.m.m.b.U. X.XY .               ",
"      . + M :.:.f.b.b.b.b.b.b.N.M.}.I.v.S.-.@ .                               @ M p.a.u.u.u.u.u.f.M.A.A.A.[.[.P .               ",
"      . # =.c.u.i.x.m.'.A.M.m.m.A.].[.M.F.&.@ .                               . 1 c z z l z l l z I P I I P Y q .               ",
"      . @ B u.,.:.<.f.b.v.b.v.v.b.j.b.v.p.B @ .                               . . . . . . . . . . . . . . . . . .               ",
"      . . 4 q 5 4 4 q g d d d d d d d d q 1                                                                                     ",
"      . . . . . . . . . . . . . . . . . . .                                                                                     "
};
