/* XPM */
static char *result[] = {
/* columns rows colors chars-per-pixel */
"64 64 220 2 ",
"   c #000000",
".  c #01050A",
"X  c #030A0C",
"o  c #050A07",
"O  c #020B13",
"+  c #010D1B",
"@  c #00041A",
"#  c #0A1413",
"$  c #03121D",
"%  c #0A1B1D",
"&  c #071619",
"*  c #150C09",
"=  c #341C0B",
"-  c #33221A",
";  c #000E22",
":  c #000D29",
">  c #021323",
",  c #041929",
"<  c #031B34",
"1  c #021D3C",
"2  c #000C31",
"3  c #0E2326",
"4  c #09232A",
"5  c #122A2B",
"6  c #152529",
"7  c #062335",
"8  c #04233D",
"9  c #0D2C34",
"0  c #143236",
"q  c #0F343D",
"w  c #362C21",
"e  c #663C2D",
"r  c #77473A",
"t  c #021D44",
"y  c #062A42",
"u  c #03254A",
"i  c #052546",
"p  c #0B3349",
"a  c #183946",
"s  c #042C53",
"d  c #042D5B",
"f  c #05325B",
"g  c #093957",
"h  c #112F59",
"j  c #29344B",
"k  c #2E3B56",
"l  c #002E68",
"z  c #063463",
"x  c #05366B",
"c  c #093B6A",
"v  c #163667",
"b  c #053A73",
"n  c #043878",
"m  c #443844",
"M  c #513D48",
"N  c #63255D",
"B  c #7A2A6B",
"V  c #184753",
"C  c #194C54",
"Z  c #23585C",
"A  c #0A436A",
"S  c #0E4967",
"D  c #184B65",
"F  c #18596C",
"G  c #094471",
"H  c #0B4A74",
"J  c #0A4C7C",
"K  c #08447C",
"L  c #175778",
"P  c #144375",
"I  c #255A65",
"U  c #225B7C",
"Y  c #305970",
"T  c #29666D",
"R  c #286974",
"E  c #29727D",
"W  c #347675",
"Q  c #356C79",
"!  c #5E4E54",
"~  c #6D4949",
"^  c #705956",
"/  c #63527E",
"(  c #505470",
")  c #803E22",
"_  c #93563F",
"`  c #A71C61",
"'  c #9E5E45",
"]  c #A66247",
"[  c #B77A5B",
"{  c #C57C58",
"}  c #C76F4A",
"|  c #37807F",
" . c #BE8D68",
".. c #D6865A",
"X. c #C78A67",
"o. c #D78962",
"O. c #C5926C",
"+. c #D69872",
"@. c #E79E76",
"#. c #E6986C",
"$. c #EFAB7E",
"%. c #003E8D",
"&. c #064584",
"*. c #024A8B",
"=. c #07488C",
"-. c #0D5484",
";. c #0C578C",
":. c #145E86",
">. c #074A94",
",. c #084D94",
"<. c #084F99",
"1. c #034898",
"2. c #0B5592",
"3. c #09539C",
"4. c #0B5C9C",
"5. c #095A95",
"6. c #105B9E",
"7. c #146288",
"8. c #136397",
"9. c #177198",
"0. c #2A7787",
"q. c #2D758C",
"w. c #0954A2",
"e. c #0B5CA3",
"r. c #0B5DAA",
"t. c #0753A4",
"y. c #0A5DB2",
"u. c #0D62A3",
"i. c #0D63AC",
"p. c #0F69AC",
"a. c #106CAE",
"s. c #146AA4",
"d. c #1778AB",
"f. c #0D66B4",
"g. c #0E6AB4",
"h. c #0C68BB",
"j. c #106EB1",
"k. c #0E72B7",
"l. c #1172B3",
"z. c #1479B7",
"x. c #1175BC",
"c. c #147BBB",
"v. c #1B74B3",
"b. c #557DA1",
"n. c #137CC3",
"m. c #1178C7",
"M. c #0B66C3",
"N. c #96578E",
"B. c #887DA4",
"V. c #2B8797",
"C. c #348C9A",
"Z. c #3B859A",
"A. c #3D9299",
"S. c #3B868C",
"D. c #1781BC",
"F. c #1984BD",
"G. c #1B86B9",
"H. c #1E9DB1",
"J. c #3289A3",
"K. c #3796A8",
"L. c #258AB5",
"P. c #3B9EB3",
"I. c #3398B3",
"U. c #298BB7",
"Y. c #39A4B7",
"T. c #3BA0AF",
"R. c #409697",
"E. c #42A6BB",
"W. c #52A6AE",
"Q. c #6D8B8C",
"!. c #1482C3",
"~. c #1B8CC4",
"^. c #1583CA",
"/. c #1A8DCB",
"(. c #1789CD",
"). c #1E92C6",
"_. c #1E94CA",
"`. c #1C9BCA",
"'. c #1588D3",
"]. c #1F9BD6",
"[. c #0786C0",
"{. c #2298C8",
"}. c #209FDA",
"|. c #2EA9C4",
" X c #3EB6CB",
".X c #3AB2C8",
"XX c #22A3DB",
"oX c #3FBCD3",
"OX c #39ADC1",
"+X c #22A7E4",
"@X c #38BFE6",
"#X c #43B7CB",
"$X c #43BED3",
"%X c #53BCD7",
"&X c #6CAFCD",
"*X c #36C3D8",
"=X c #42C5DB",
"-X c #49CDDC",
";X c #54CAD0",
":X c #70C6D4",
">X c #46D2EA",
",X c #4CD6E9",
"<X c #56DAE4",
"1X c #48D8F1",
"2X c #58E8F6",
"3X c #58F0FE",
"4X c #55E2EC",
"5X c #68E9EF",
"6X c #64ECF2",
"7X c #69F7FA",
"8X c #72FFFF",
"9X c #F2B889",
"0X c #F0C090",
"qX c #FBCC99",
"wX c #FCCA96",
"eX c #85DAD7",
"rX c #B0DAEF",
"tX c #94FFFF",
"yX c #DEE7E7",
"uX c None",
/* pixels */
"uXuXuXuXuXuXuXuXuXuXuXuXuXuXuXuXuXuXuXuXuXuXuXuXuXuXuXuXuXuXuXuXuXuXuXuXuXuXuXuXuXuXuXuXuXuXuXuXuXuXuXuXuXuXuXuXuXuXuXuXuXuXuXuX",
"uXuXuXuXuXuXuXuXuXuXuXuXuXuXuXuXuXuXuXuXuXuXuXuXuXuXuXuXuXuXuXuXuXuXuXuXuXuXuXuXuXuXuXuXuXuXuXuXuXuXuXuXuXuXuXuXuXuXuXuXuXuXuXuX",
"uXuXuXuXuXuXuXuXuXuXuXuXuXuXuXuXuXuXuXuXuXuXuXuXuXuXuXuXuXuXuXuXuXuXuXuXuXuXuXuXuXuXuXuXuXuXuXuXuXuXuXuXuXuXuXuXuXuXuXuXuXuXuXuX",
"uXuXuXuXuXuXuXuXuXuXuXuXuXuXuXuXuXuXuXuXuXuXuXuXuXuXuXuXuXuXuXuXuXuXuXuXuXuXuXuXuXuXuXuXuXuXuXuXuXuXuXuXuXuXuXuXuXuXuXuXuXuXuXuX",
"uXuXuXuXuXuXuXuXuXuXuXuXuXuXuXuXuXuXuXuXuXuXuXuXuXuXuXuXuXuXuXuXuXuXuXuXuXuXuXuXuXuXuXuXuXuXuXuXuXuXuXuXuXuXuXuXuXuXuXuXuXuXuXuX",
"uXuXuXuXuXuXuXuXuXuXuXuXuXuXuXuXuXuXuXuXuXuXuXuXuXuXuXuXuXuXuXuXuXuXuXuXuXuXuXuXuXuXuXuXuXuXuXuXuXuXuXuXuXuXuXuXuXuXuXuXuXuXuXuX",
"uXuXuXuXuXuXuXuXuXuXuXuXuXuXuXuXuXuXuXuXuXuXuXuXuXuXuXuXuXuXuXuXuXuXuXuXuXuXuXuXuXuXuXuXuXuXuXuXuXuXuXuXuXuXuXuXuXuXuXuXuXuXuXuX",
"uXuXuXuXuXuXuXuXuXuXuXuXuXuXuXuXuXuXuXuXuXuXuXuXuXuXuXuXuXuXuXuXuXuXuXuXuXuXuXuXuXuXuXuXuXuXuXuXuXuXuXuXuXuXuXuXuXuXuXuXuXuXuXuX",
"uXuXuXuXuXuXuXuXuXuXuXuXuXuXuXuXuXuXuXuXuXuXuXuXuXuXuXuXuXuXuXuXuXuXuXuXuXuXuXuXuXuXuXuXuXuXuXuXuXuXuXuXuXuXuXuXuXuXuXuXuXuXuXuX",
"uXuXuXuXuXuXuXuXuXuXuXuXuXuXuXuXuXuXuXuXuXuXuXuXuXuXuXuXuXuXuXuXuXuXuXuXuXuXuXuXuXuXuXuXuXuXuXuXuXuXuXuXuXuXuXuXuXuXuXuXuXuXuXuX",
"uXuXuXuXuXuXuXuXuXuXuXuXuXuXuXuXuXuXuXuXuXuXuXuXuXuXuXuXuXuXuXuXuXuXuXuXuXuXuXuXuXuXuXuXuXuXuXuXuXuXuXuXuXuXuXuXuXuXuXuXuXuXuXuX",
"uXuXuXuXuXuXuXuXuXuXuXuXuXuXuXuXuXuXuXuXuXuXuXuXuXuXuXuXuXuXuXuXuXuXuXuXuXuXuXuXuXuXuXuXuXuXuXuXuXuXuXuXuXuXuXuXuXuXuXuXuXuXuXuX",
"uXuXuXuXuXuXuXuXuXuXuXuXuXuXuXuXuXuXuXuXuXuXuXuXuXuXuXuXuXuXuXuXuXuXuXuXuX        uXuXuXuXuXuXuXuXuXuXuXuXuXuXuXuXuXuXuXuXuXuXuX",
"uXuXuXuXuXuXuXuXuXuXuXuXuXuXuXuXuXuXuXuXuXuXuXuXuXuXuXuXuXuXuXuXuXuXuXuX6 C I T W 5 uXuXuXuXuXuXuXuXuXuXuXuXuXuXuXuXuXuXuXuXuXuX",
"uXuXuXuXuXuXuXuXuXuXuXuXuXuXuXuXuXuXuXuXuXuXuXuXuXuXuXuXuXuXuXuXuXo % $ q.$X>X2X8XA.5 5 uXuXuXuXuXuXuXuXuXuXuXuXuXuXuXuXuXuXuXuX",
"uXuXuXuXuXuXuXuXuXuXuXuXuXuXuXuXuXuXuXuXuXuXuXuXuXuXuXuXuXuXuXuX  a K.s.F._.L.K.OX<X6X<X5 uXuXuXuXuXuXuXuXuXuXuXuXuXuXuXuXuXuXuX",
"uXuXuXuXuXuXuXuXuXuXuXuXuXuXuXuXuXuXuXuXuXuXuXuXuXuXuXuXuXuXuX  6 U ~.)./.`.;XyXW..X3X8X;XZ   uXuXuXuXuXuXuXuXuXuXuXuXuXuXuXuXuX",
"uXuXuXuXuXuXuXuXuXuXuXuXuXuXuXuXuXuXuXuXuXuXuXuXuXuXuXuXuXuXuX  D v.k.F.~.`.%XrX&Xq.C.;X5XQ   uXuXuXuXuXuXuXuXuXuXuXuXuXuXuXuXuX",
"uXuXuXuXuXuXuXuXuXuXuXuXuXuXuXuXuXuXuXuXuXuXuXuXuXuXuXuXuXuXuX+ ;.m.l.j.F.~.!.D.&Xb.F J.K.a   uXuXuXuXuXuXuXuXuXuXuXuXuXuXuXuXuX",
"uXuXuXuXuXuXuXuXuXuXuXuXuXuXuXuXuXuXuXuXuXuXuXuXuXuXuXuXuXuX+ =.,.e.l.k.k.j.z.).{._.).).~.s     uXuXuXuXuXuXuXuXuXuXuXuXuXuXuXuX",
"uXuXuXuXuXuXuXuXuXuXuXuXuXuXuXuXuXuXuXuXuXuXuXuXuXuXuXuXuXuX; <.1.%.1.w.a.x.c.c.m.n.v.U .X:XQ.  uXuXuXuXuXuXuXuXuXuXuXuXuXuXuXuX",
"uXuXuXuXuXuXuXuXuXuXuXuXuXuXuXuXuXuXuXuXuXuXuXuXuXuXuXuXuXuXO P U.|.s.>.e.e.*.*.&.3.8.Q ;XtXeX  uXuXuXuXuXuXuXuXuXuXuXuXuXuXuXuX",
"uXuXuXuXuXuXuXuXuXuXuXuXuXuXuXuXuXuXuXuXuXuXuXuXuXuXuXuXuXuX# I &X5X X3.1.x j k k v 2.J.Y.,XT.  uXuXuXuXuXuXuXuXuXuXuXuXuXuXuXuX",
"uXuXuXuXuXuXuXuXuXuXuXuXuXuXuXuXuXuXuXuXuXuXuXuXuXuXuXuXuXuX% C.B B.4X3.l m ] { o.! l <.J.L.b   uXuXuXuXuXuXuXuXuXuXuXuXuXuXuXuX",
"uXuXuXuXuXuXuXuXuXuXuXuXuXuXuXuXuXuXuXuXuXuXuXuXuXuXuXuXuXuX3 K.` N.*Xb ! ' ..0XwX .m l e.c @ uXuXuXuXuXuXuXuXuXuXuXuXuXuXuXuXuX",
"uXuXuXuXuXuXuXuXuXuXuXuXuXuXuXuXuXuXuXuXuXuXuXuXuXuXuXuXuXuX& 0.` N.H.s r ] ..X. .X.] ! h + uXuXuXuXuXuXuXuXuXuXuXuXuXuXuXuXuXuX",
"uXuXuXuXuXuXuXuXuXuXuXuXuXuXuXuXuXuXuXuXuXuXuXuXuXuXuXuXuXuXX a N / 0.x ~ ..X.] ' [ @.#.= uXuXuXuXuXuXuXuXuXuXuXuXuXuXuXuXuXuXuX",
"uXuXuXuXuXuXuXuXuXuXuXuXuXuXuXuXuXuXuXuXuXuXuXuXuXuXuXuXuXuXuX  a Y L ,.~ ..qX0X0X9XwX0Xw uXuXuXuXuXuXuXuXuXuXuXuXuXuXuXuXuXuXuX",
"uXuXuXuXuXuXuXuXuXuXuXuXuXuXuXuXuXuXuXuXuXuXuXuXuXuXuXuXuXuX      s r.t.v ^ $.wX[ O.qX@.-   uXuXuXuXuXuXuXuXuXuXuXuXuXuXuXuXuXuX",
"uXuXuXuXuXuXuXuXuXuXuXuXuXuXuXuXuXuXuXuXuXuXuXuXuXuXuXuXuX3 S.W R p t 1 n ( { 9X+.$.+.e * uXuXuXuXuXuXuXuXuXuXuXuXuXuXuXuXuXuXuX",
"uXuXuXuXuXuXuXuXuXuXuXuXuXuXuXuXuXuXuXuXuXuXuXuXuXuXuXuX3 A.8X7X3Xq.# # v k ) _  . .r   uXuXuXuXuXuXuXuXuXuXuXuXuXuXuXuXuXuXuXuX",
"uXuXuXuXuXuXuXuXuXuXuXuXuXuXuXuXuXuXuXuXuXuXuXuXuXuXuX  W.8X4X#X X=X#XK.3             uXuXuXuXuX      uXuXuXuXuXuXuXuXuXuXuXuXuX",
"uXuXuXuXuXuXuXuXuXuXuXuXuXuXuXuXuXuXuXuXuXuXuXuXuXuXo C.5X2X=X>Xq T 7X<XK.C.V.E E 4   uXuXuXuX  ;.g       uXuXuXuXuXuXuXuXuXuXuX",
"uXuXuXuXuXuXuXuXuXuXuXuXuXuXuXuXuXuXuXuXuXuXuXuXuX4 L {.,X2X.XC 3 S.8X7X2X1X*XE.$XK.V   uXuX$ g S f z F S , uXuXuXuXuXuXuXuXuXuX",
"uXuXuXuXuXuXuXuXuXuXuXuXuXuXuXuXuXuXuXuXuXuXuXuX$ L +Xk.L.T.E # 0.<X6X6X7X<XP.E P.>XOX5 uX  7 m.. : i.!.'.z   uXuXuXuXuXuXuXuXuX",
"uXuXuXuXuXuXuXuXuXuXuXuXuXuXuXuXuXuXuXuXuXuXuX  J (._.).-.@ # C.OX<X6X6X7X;XT   T #X=X=X9   > ,.$ > z f l.g   uXuXuXuXuXuXuXuXuX",
"uXuXuXuXuXuXuXuXuXuXuXuXuXuXuXuXuXuXuXuXuXuXuX  -.^.c.`.u.2   # P.1X-X5X,X%XE   E E.E.-X8.:   $ H z.G.G.i.t   uXuXuXuXuXuXuXuXuX",
"uXuXuXuXuXuXuXuXuXuXuXuXuXuXuXuXuXuXuXuXuXuXuX  G k.z.c.c.8.S s V V.-X<X$X0.0 uXq W P.v.x.2.y   -.a.7.8.x.s   uXuXuXuXuXuXuXuXuX",
"uXuXuXuXuXuXuXuXuXuXuXuXuXuXuXuXuXuXuXuXuXuXuX  z r.a.l.~.XX}.'.  q @X|.U.a   uX  0 q.1.r.(.8.  n ,.f d ;.p   uXuXuXuXuXuXuXuXuX",
"uXuXuXuXuXuXuXuXuXuXuXuXuXuXuXuXuXuXuXuXuXuXuX  z t.4.~._._.~.l.+ y c.l.r.u   uXuXuX+ >.>.f.-.  ;.!.j.>.+ uXuXuXuXuXuXuXuXuXuXuX",
"uXuXuXuXuXuXuXuXuXuXuXuXuXuXuXuXuXuXuXuXuXuXuX  b y.l./.{._.8.> 7.S 7 G.'.s     uXuXuX+ &.M.K   f K 2.x.> uXuXuXuXuXuXuXuXuXuXuX",
"uXuXuXuXuXuXuXuXuXuXuXuXuXuXuXuXuXuXuXuXuXuXuXuX, J !._.~.n.&.  d.H   F.f.8.E R o uXuXuX< s <   + + 7 g O uXuXuXuXuXuXuXuXuXuXuX",
"uXuXuXuXuXuXuXuXuXuXuXuXuXuXuXuXuXuXuXuXuXuXuXuX  8 n.~.x.,.s < A f i p.6.U.,X,XF # uXuX                uXuXuXuXuXuXuXuXuXuXuXuX",
"uXuXuXuXuXuXuXuXuXuXuXuXuXuXuXuXuXuXuXuXuXuXuXuX  < e.j.r.t . ,.+ < t.=.q.R.K.#X>XR . uXuXuXuXuXuXuXuXuXuXuXuXuXuXuXuXuXuXuXuXuX",
"uXuXuXuXuXuXuXuXuXuXuXuXuXuXuXuXuXuXuXuXuXuXuXuXuXuX< w.M.u   $   . > + & I E.K.=XoXE   uXuXuXuXuXuXuXuXuXuXuXuXuXuXuXuXuXuXuXuX",
"uXuXuXuXuXuXuXuXuXuXuXuXuXuXuXuXuXuXuXuXuXuXuXuXuX    : u S I     uXuXuXuX& I K.P.=X=X0.# uXuXuXuXuXuXuXuXuXuXuXuXuXuXuXuXuXuXuX",
"uXuXuXuXuXuXuXuXuXuXuXuXuXuXuXuXuXuXuXuXuXuXuXuX+ < 7 4   T =XX uXuXuXuXuXuXo R S.Y.#XK.V $ uXuXuXuXuXuXuXuXuXuXuXuXuXuXuXuXuXuX",
"uXuXuXuXuXuXuXuXuXuXuXuXuXuXuXuXuXuXuXuXuXuXuX  x h.!.`., C Y.. uXuXuXuXuXuXuX  R E.I   d.L . uXuXuXuXuXuXuXuXuXuXuXuXuXuXuXuXuX",
"uXuXuXuXuXuXuXuXuXuXuXuXuXuXuXuXuXuXuXuXuXuX. x r.c._.].7 X % uXuXuXuXuXuXuXuXuX# # , ;.~.`.L   uXuXuXuXuXuXuXuXuXuXuXuXuXuXuXuX",
"uXuXuXuXuXuXuXuXuXuXuXuXuXuXuXuXuXuXuXuXuXO z r.c.).`.{.q     uXuXuXuXuXuXuXuXuX  $ J x./.+Xd.  uXuXuXuXuXuXuXuXuXuXuXuXuXuXuXuX",
"uXuXuXuXuXuXuXuXuXuXuXuXuXuXuXuXuXuXuXuX+ z h.c./.{._./.7     uXuXuXuXuXuXuXuXuX> J '.l.G.].9.  uXuXuXuXuXuXuXuXuXuXuXuXuXuXuXuX",
"uXuXuXuXuXuXuXuXuXuXuXuXuXuXuXuXuXuXuX. x f.c.).).).~.x.<   uXuXuXuXuXuXuXuXuX  b g.l.l.a.(.9.  uXuXuXuXuXuXuXuXuXuXuXuXuXuXuXuX",
"uXuXuXuXuXuXuXuXuXuXuXuXuXuXuXuXuXuX  b >.4.z.~.).).).n.7   uXuXuXuXuXuXuXuXuX  x f.z.j.l.n.:.  uXuXuXuXuXuXuXuXuXuXuXuXuXuXuXuX",
"uXuXuXuXuXuXuXuXuXuXuXuXuXuXuXuXuX> b t.e.p.z.{.{.~.z.2.>   uXuXuXuXuXuXuXuXO d &.i.x.l.l.n.-.  uXuXuXuXuXuXuXuXuXuXuXuXuXuXuXuX",
"uXuXuXuXuXuXuXuXuXuXuXuXuXuXuXuXX u 3.n u.x.l.F.~.!.u.8 . uXuXuXuXuXuXuXuX  > t.<.4.a.l.l.x.,., uXuXuXuXuXuXuXuXuXuXuXuXuXuXuXuX",
"uXuXuXuXuXuXuXuXuXuXuXuXuXuXuX. u c f f 4.z.l.j.l.x.;.  uXuXuXuXuXuXuXuXuXuX+ ,.<.>.3.a.l.e.<.3.< . uXuXuXuXuXuXuXuXuXuXuXuXuXuX",
"uXuXuXuXuXuXuXuXuXuXuXuXuXuX  n >.&.=.e.a.l.l.j.z.u.d   uXuXuXuXuXuXuXuXuXuX$ >.3.>.<.3.>.e.l.~.G.p   uXuXuXuXuXuXuXuXuXuXuXuXuX",
"uXuXuXuXuXuXuXuXuXuXuXuXuX> c <.r.j.c.~.~.z.a.l.g.x O uXuXuXuXuXuXuXuXuXuXuX$ ,.<.,.>.>.e.a.c.D.XXG.g   uXuXuXuXuXuXuXuXuXuXuXuX",
"uXuXuXuXuXuXuXuXuXuXuXuX  < y.w.a.G./._.{.G.z.l.f.s   uXuXuXuXuXuXuXuXuXuX  > <.3.,.,.>.u.l.l.j.G.XXG.7 uXuXuXuXuXuXuXuXuXuXuXuX",
"uXuXuXuXuXuXuXuXuXuXuXuX. 8 w.l.l.a.l.~./.)./.l.n.A   uXuXuXuXuXuXuXuXuXuXuX+ &.<.<.,.>.>.6.l.l.j.!._.x., uXuXuXuXuXuXuXuXuXuXuX",
"uXuXuXuXuXuXuXuXuXuXuX  s >.3.j.z.j.j.z.l.D.).l.!.A   uXuXuXuXuXuXuXuXuXuXuXuXO &.r.t.t.t.3.r.n.c.n.^.x., uXuXuXuXuXuXuXuXuXuXuX",
"uXuXuXuXuXuXuXuXuXuXuX  b M.r.r.m.n.n.n.n.!.(.^.m.z   uXuXuXuXuXuXuXuXuXuXuXuX  , 1 < < < < 1 y y y y y X   uXuXuXuXuXuXuXuXuXuX",
"uXuXuXuXuXuXuXuXuXuXuX  8 x z d A H H H H G G H b <   uXuXuXuXuXuXuXuXuXuXuXuX                            uXuXuXuXuXuXuXuXuXuXuX",
"uXuXuXuXuXuXuXuXuXuXuX                              uXuXuXuXuXuXuXuXuXuXuXuXuXuXuXuXuXuXuXuXuXuXuXuXuXuXuXuXuXuXuXuXuXuXuXuXuXuX"
};
