/* XPM */
static char *result[] = {
/* columns rows colors chars-per-pixel */
"64 64 228 2 ",
"   c #000001",
".  c #01050B",
"X  c #030A0D",
"o  c #0A0607",
"O  c #180404",
"+  c #020A12",
"@  c #010E1B",
"#  c #070911",
"$  c #03131C",
"%  c #0A1A1C",
"&  c #081416",
"*  c #1C0313",
"=  c #311A0D",
"-  c #2D1411",
";  c #0F211E",
":  c #021224",
">  c #01152B",
",  c #041C2D",
"<  c #081B22",
"1  c #031B35",
"2  c #021E3D",
"3  c #011636",
"4  c #000F2F",
"5  c #0D2429",
"6  c #122B2B",
"7  c #082635",
"8  c #06253B",
"9  c #082938",
"0  c #1B3C39",
"q  c #103039",
"w  c #513B2A",
"e  c #422B21",
"r  c #7F4A3C",
"t  c #011E46",
"y  c #042342",
"u  c #062A42",
"i  c #0A2D42",
"p  c #03254B",
"a  c #062D4B",
"s  c #0A2546",
"d  c #093549",
"f  c #143B44",
"g  c #1A3A47",
"h  c #012652",
"j  c #042B55",
"k  c #032E5B",
"l  c #072959",
"z  c #05315D",
"x  c #093C5D",
"c  c #073356",
"v  c #102C4E",
"b  c #293B5B",
"n  c #3E3545",
"m  c #053363",
"M  c #063A6B",
"N  c #08396B",
"B  c #033C7A",
"V  c #033978",
"C  c #002F67",
"Z  c #703C6D",
"A  c #1B474A",
"S  c #0C4656",
"D  c #1C4A57",
"F  c #1D565D",
"G  c #235458",
"H  c #30465B",
"J  c #0B4368",
"K  c #0D5462",
"L  c #0A4673",
"P  c #0B4A74",
"I  c #09487D",
"U  c #1C546F",
"Y  c #275D66",
"T  c #25516B",
"R  c #1E616E",
"E  c #256B7A",
"W  c #316A77",
"Q  c #4B4558",
"!  c #7C5A53",
"~  c #6E676C",
"^  c #9F0034",
"/  c #8F4F38",
"(  c #A75C3D",
")  c #810A4E",
"_  c #B40244",
"`  c #9A6248",
"'  c #AB6C51",
"]  c #B0694E",
"[  c #C3795A",
"{  c #B9876D",
"}  c #D69567",
"|  c #CD8D70",
" . c #DFA67B",
".. c #E8A677",
"X. c #FAB47D",
"o. c #013E87",
"O. c #064384",
"+. c #0C4A83",
"@. c #094C8C",
"#. c #08468B",
"$. c #125A87",
"%. c #064A93",
"&. c #084D95",
"*. c #02479A",
"=. c #0A5294",
"-. c #09529B",
";. c #0D5A9A",
":. c #095798",
">. c #175D93",
",. c #104B91",
"<. c #325384",
"1. c #146487",
"2. c #0D649E",
"3. c #166B98",
"4. c #167C93",
"5. c #2A7787",
"6. c #327A87",
"7. c #256F98",
"8. c #0955A3",
"9. c #0B5BA3",
"0. c #0A5BAB",
"q. c #0658A6",
"w. c #095CB1",
"e. c #0D62A4",
"r. c #0D63AC",
"t. c #0F6AAD",
"y. c #0660A3",
"u. c #126DAB",
"i. c #1669A6",
"p. c #0C79AC",
"a. c #1878AB",
"s. c #0E6AB4",
"d. c #0D63B1",
"f. c #106EB1",
"g. c #0B77B9",
"h. c #1273B4",
"j. c #1174BB",
"k. c #157CBB",
"l. c #177BB8",
"z. c #43708F",
"x. c #667591",
"c. c #127BC4",
"v. c #127AC8",
"b. c #127DD3",
"n. c #827EAC",
"m. c #38898E",
"M. c #2B8697",
"N. c #358797",
"B. c #3F9599",
"V. c #1985BD",
"C. c #1883BB",
"Z. c #0F92AC",
"A. c #2E94AE",
"S. c #3393A5",
"D. c #3C94A4",
"F. c #3898AC",
"G. c #2486B5",
"H. c #2992BA",
"J. c #3595B6",
"K. c #39A4B6",
"L. c #3AA1AE",
"P. c #408A90",
"I. c #568AB8",
"U. c #6492A1",
"Y. c #43A9BB",
"T. c #4CB4B8",
"R. c #4BACAB",
"E. c #1A84C1",
"W. c #1B8CC3",
"Q. c #1688C8",
"!. c #1D92C6",
"~. c #1E95CA",
"^. c #1F99CD",
"/. c #198FD5",
"(. c #178AD5",
"). c #1D98D5",
"_. c #2299CB",
"`. c #2596CB",
"'. c #3897CA",
"]. c #37A8C8",
"[. c #3DB3CA",
"{. c #3EB2C4",
"}. c #21A3DE",
"|. c #3DBED4",
" X c #3EAED0",
".X c #21A6E2",
"XX c #43B8CC",
"oX c #4EAFCA",
"OX c #71ACD3",
"+X c #69BFE7",
"@X c #3FC0D5",
"#X c #2DC1D8",
"$X c #46C7DA",
"%X c #55D3DB",
"&X c #7EC6DA",
"*X c #4AD5EA",
"=X c #56DBE4",
"-X c #4FDFF1",
";X c #58E2EE",
":X c #57E7F5",
">X c #64E6E7",
",X c #64EDF2",
"<X c #6AF5F6",
"1X c #63F3FB",
"2X c #6BFCFD",
"3X c #63FAFF",
"4X c #72FFFF",
"5X c #6AF1EA",
"6X c #8D96BD",
"7X c #91928F",
"8X c #C5B39E",
"9X c #E8B285",
"0X c #F6B986",
"qX c #E5AF84",
"wX c #FDC490",
"eX c #FCCF9B",
"rX c #ECC292",
"tX c #F9D4AA",
"yX c #8DB3CA",
"uX c #A2BADB",
"iX c #8DC4CF",
"pX c #B9CECB",
"aX c #90E7EC",
"sX c #A8FFFF",
"dX c #FEEDC8",
"fX c #D9EAF9",
"gX c #EBF2FC",
"hX c None",
/* pixels */
"hXhXhXhXhXhXhXhXhXhXhXhXhXhXhXhXhXhXhXhXhXhXhXhXhXhXhXhXhXhXhXhXhXhXhXhXhXhXhXhXhXhXhXhXhXhXhXhXhXhXhXhXhXhXhXhXhXhXhXhXhXhXhXhX",
"hXhXhXhXhXhXhXhXhXhXhXhXhXhXhXhXhXhXhXhXhXhXhXhXhXhXhXhXhXhXhXhXhXhXhXhXhXhXhXhXhXhXhXhXhXhXhXhXhXhXhXhXhXhXhXhXhXhXhXhXhXhXhXhX",
"hXhXhXhXhXhXhXhXhXhXhXhXhXhXhXhXhXhXhXhXhXhXhXhXhXhXhXhXhXhXhXhXhXhXhXhXhXhXhXhXhXhXhXhXhXhXhXhXhXhXhXhXhXhXhXhXhXhXhXhXhXhXhXhX",
"hXhXhXhXhXhXhXhXhXhXhXhXhXhXhXhXhXhXhXhXhXhXhXhXhXhXhXhXhXhXhXhXhXhXhXhXhXhXhXhXhXhXhXhXhXhXhXhXhXhXhXhXhXhXhXhXhXhXhXhXhXhXhXhX",
"hXhXhXhXhXhXhXhXhXhXhXhXhXhXhXhXhXhXhXhXhXhXhXhXhXhXhXhXhXhXhXhXhXhXhXhXhXhXhXhXhXhXhXhXhXhXhXhXhXhXhXhXhXhXhXhXhXhXhXhXhXhXhXhX",
"hXhXhXhXhXhXhXhXhXhXhXhXhXhXhXhXhXhXhXhXhXhXhXhXhXhXhXhXhXhXhXhXhXhXhXhXhXhXhXhXhXhXhXhXhXhXhXhXhXhXhXhXhXhXhXhXhXhXhXhXhXhXhXhX",
"hXhXhXhXhXhXhXhXhXhXhXhXhXhXhXhXhXhXhXhXhXhXhXhXhXhXhXhXhXhXhXhXhXhXhXhXhXhXhXhXhXhXhXhXhXhXhXhXhXhXhXhXhXhXhXhXhXhXhXhXhXhXhXhX",
"hXhXhXhXhXhXhXhXhXhXhXhXhXhXhXhXhXhXhXhXhXhXhXhXhXhXhXhXhXhXhXhXhXhXhXhXhXhXhXhXhXhXhXhXhXhXhXhXhXhXhXhXhXhXhXhXhXhXhXhXhXhXhXhX",
"hXhXhXhXhXhXhXhXhXhXhXhXhXhXhXhXhXhXhXhXhXhXhXhXhXhXhXhXhXhXhXhXhXhXhXhXhXhXhXhXhXhXhXhXhXhXhXhXhXhXhXhXhXhXhXhXhXhXhXhXhXhXhXhX",
"hXhXhXhXhXhXhXhXhXhXhXhXhXhXhXhXhXhXhXhXhXhXhXhXhXhXhXhXhXhXhXhXhXhXhXhXhXhXhXhXhXhXhXhXhXhXhXhXhXhXhXhXhXhXhXhXhXhXhXhXhXhXhXhX",
"hXhXhXhXhXhXhXhXhXhXhXhXhXhXhXhXhXhXhXhXhXhXhXhXhXhXhXhXhXhXhXhXhXhXhXhXhXhXhXhXhXhXhXhXhXhXhXhXhXhXhXhXhXhXhXhXhXhXhXhXhXhXhXhX",
"hXhXhXhXhXhXhXhXhXhXhXhXhXhXhXhXhXhXhXhXhXhXhXhXhXhXhXhXhXhXhXhXhXhXhXhXhXhXhXhXhXhXhXhXhXhXhXhXhXhXhXhXhXhXhXhXhXhXhXhXhXhXhXhX",
"hXhXhXhXhXhXhXhXhXhXhXhXhXhXhXhXhXhXhXhXhXhXhXhXhXhXhXhXhXhXhXhXhXhXhXhXhXhXhXhXhXhXhXhXhXhXhXhXhXhXhXhXhXhXhXhXhXhXhXhXhXhXhXhX",
"hXhXhXhXhXhXhXhXhXhXhXhXhXhXhXhXhXhXhXhXhXhXhXhXhXhXhXhXhXhXhXhXhXhXhXhXhXhXhXhXhXhXhXhXhXhXhXhXhXhXhXhXhXhXhXhXhXhXhXhXhXhXhXhX",
"hXhXhXhXhXhXhXhXhXhXhXhXhXhXhXhXhXhXhXhXhXhXhXhXhXhXhXhXhXhXhXhXhXX 5 5 6 6 % hXhXhXhXhXhXhXhXhXhXhXhXhXhXhXhXhXhXhXhXhXhXhXhXhX",
"hXhXhXhXhXhXhXhXhXhXhXhXhXhXhXhXhXhXhXhXhXhXhXhXhXhXhXhXhXhXhX    G Y.XX=X<Xm.    hXhXhXhXhXhXhXhXhXhXhXhXhXhXhXhXhXhXhXhXhXhXhX",
"hXhXhXhXhXhXhXhXhXhXhXhXhXhXhXhXhXhXhXhXhXhXhXhXhXhXhXhXhXhX; W N +.i.a.Y.%X$XT.T.5 hXhXhXhXhXhXhXhXhXhXhXhXhXhXhXhXhXhXhXhXhXhX",
"hXhXhXhXhXhXhXhXhXhXhXhXhXhXhXhXhXhXhXhXhXhXhXhXhXhXhXhXhX& H l.d.r.0.0.a.F.$X3X4XR.A hXhXhXhXhXhXhXhXhXhXhXhXhXhXhXhXhXhXhXhXhX",
"hXhXhXhXhXhXhXhXhXhXhXhXhXhXhXhXhXhXhXhXhXhXhXhXhXhXhXhX  g >.-.h.!.`.'.`.N.N.XX%X4XB.  hXhXhXhXhXhXhXhXhXhXhXhXhXhXhXhXhXhXhXhX",
"hXhXhXhXhXhXhXhXhXhXhXhXhXhXhXhXhXhXhXhXhXhXhXhXhXhXhXhX  l e.h.W.W.'.yXOXz.R S.D.R.Y   hXhXhXhXhXhXhXhXhXhXhXhXhXhXhXhXhXhXhXhX",
"hXhXhXhXhXhXhXhXhXhXhXhXhXhXhXhXhXhXhXhXhXhXhXhXhXhXhX. m #.9.h.!.Q.'.iXgXOXp.H.u.q.t .   hXhXhXhXhXhXhXhXhXhXhXhXhXhXhXhXhXhXhX",
"hXhXhXhXhXhXhXhXhXhXhXhXhXhXhXhXhXhXhXhXhXhXhXhXhXhXhX. o.*.-.l.W.~.}.OXfX+Xp.7.].oXz.f . hXhXhXhXhXhXhXhXhXhXhXhXhXhXhXhXhXhXhX",
"hXhXhXhXhXhXhXhXhXhXhXhXhXhXhXhXhXhXhXhXhXhXhXhXhXhXhXX 3.u.e.f.W.C.a.a.I.'.3.W =XsXaX5.X hXhXhXhXhXhXhXhXhXhXhXhXhXhXhXhXhXhXhX",
"hXhXhXhXhXhXhXhXhXhXhXhXhXhXhXhXhXhXhXhXhXhXhXhXhXhXhX# %X:XG.*.h.+.h k c ;.G.D.{.1XoXb o hXhXhXhXhXhXhXhXhXhXhXhXhXhXhXhXhXhXhX",
"hXhXhXhXhXhXhXhXhXhXhXhXhXhXhXhXhXhXhXhXhXhXhXhXhXhXhXo Z iX$X*.V T U.U.o t :.V.Y.P.7.o.o hXhXhXhXhXhXhXhXhXhXhXhXhXhXhXhXhXhXhX",
"hXhXhXhXhXhXhXhXhXhXhXhXhXhXhXhXhXhXhXhXhXhXhXhXhXhXhXo ^ 6X#XV n ~ yXyX5 - H &.e.>.m t o hXhXhXhXhXhXhXhXhXhXhXhXhXhXhXhXhXhXhX",
"hXhXhXhXhXhXhXhXhXhXhXhXhXhXhXhXhXhXhXhXhXhXhXhXhXhXhXO _ n.Z.v / { pXiX#.` ` b T ,.y   hXhXhXhXhXhXhXhXhXhXhXhXhXhXhXhXhXhXhXhX",
"hXhXhXhXhXhXhXhXhXhXhXhXhXhXhXhXhXhXhXhXhXhXhXhXhXhXhXo ) x.4.l r } dXgXq.7X0X] | e   hXhXhXhXhXhXhXhXhXhXhXhXhXhXhXhXhXhXhXhXhX",
"hXhXhXhXhXhXhXhXhXhXhXhXhXhXhXhXhXhXhXhXhXhXhXhXhXhXhXhX* H U c / ..tXtX8XrXrX0XwXw . hXhXhXhXhXhXhXhXhXhXhXhXhXhXhXhXhXhXhXhXhX",
"hXhXhXhXhXhXhXhXhXhXhXhXhXhXhXhXhXhXhXhXhXhXhXhXhXhXhXhXhXX s +.n { 0X0X} } qXeXwXw   hXhXhXhXhXhXhXhXhXhXhXhXhXhXhXhXhXhXhXhXhX",
"hXhXhXhXhXhXhXhXhXhXhXhXhXhXhXhXhXhXhXhXhXhXhXhXhXhXhXhXhX& i V h Q | qX' ] qXqX' = hXhXhXhXhXhXhXhXhXhXhXhXhXhXhXhXhXhXhXhXhXhX",
"hXhXhXhXhXhXhXhXhXhXhXhXhXhXhXhXhXhXhXhXhXhXhXhXhXhXhX    M.S.    C <.( [ 9X0X' O hXhXhXhXhXhX        hXhXhXhXhXhXhXhXhXhXhXhXhX",
"hXhXhXhXhXhXhXhXhXhXhXhXhXhXhXhXhXhXhXhXhXhXhXhX    % F.T.;X%XM.E g # O - = = O hXhXhXhXhXhX, ;.M =.d   hXhXhXhXhXhXhXhXhXhXhXhX",
"hXhXhXhXhXhXhXhXhXhXhXhXhXhXhXhXhXhX              G T.:X2X1X:X;X=XP.F K S d S S hXhXhXhXhXd $.s.j.(.;.3   hXhXhXhXhXhXhXhXhXhXhX",
"hXhXhXhXhXhXhXhXhXhXhXhXhXhXhXhXhX  X 7   + , , , m.>X<X1XL.L.<X2X;X*X*X*XoXXX$Xf X hXhX  3./.e.!.h.s.;.> hXhXhXhXhXhXhXhXhXhXhX",
"hXhXhXhXhXhXhXhXhXhXhXhXhXhXhXhX    i W.& t r.h.c.> 0 1X*X7 0 3X,X,X,X>X|.S.D.$X$XA     . P Q.!.h.=.u.W.-.>   hXhXhXhXhXhXhXhXhX",
"hXhXhXhXhXhXhXhXhXhXhXhXhXhXhX  1.l.x < >.c 2 0.v.> 0 *XA   g 2X,X,X<X,XXXf g XX$Xa.4   a.9 a (.0.k.h.9.v.8   hXhXhXhXhXhXhXhXhX",
"hXhXhXhXhXhXhXhXhXhXhXhXhXhX$ J u./.a.a J $ . -.c.u % A   6 m.;X,X<X1X$XF   o G Y.c.V v S J x c 3 >.Q.9.x $ hXhXhXhXhXhXhXhXhXhX",
"hXhXhXhXhXhXhXhXhXhXhXhXhX  1 c.y.h./.t.  + j -.j.a   .   D ].{.=X,X=XS.. hXhX  Y >.0.%.$ P x   $ h @.P   hXhXhXhXhXhXhXhXhXhXhX",
"hXhXhXhXhXhXhXhXhXhXhXhXhX  : -.W.E.r.@.. p 8.*.-.> : B . h i.D.[.|.[.6.X hXhXhX  k 8.8.k.8   @ &.1     hXhXhXhXhXhXhXhXhXhXhXhX",
"hXhXhXhXhXhXhXhXhXhXhXhXhX  1 c.E.9.9.V.@.> y 8., p z @ l -.h.a.l.C.h.I + hXhXhXhX+ j w.d.%.#.I > .   hXhXhXhXhXhXhXhXhXhXhXhXhX",
"hXhXhXhXhXhXhXhXhXhXhXhXhXhX@ x 9.h.a.f.(.y   y hX> >   J.E.q.h.l.V.k.&.    hXhXhXhX+ p y p j y hXhXhXhXhXhXhXhXhXhXhXhXhXhXhXhX",
"hXhXhXhXhXhXhXhXhXhXhXhXhXhXhX  p u.E.-.;.8     hXhXo G ,X X-.t.V.!.E.9.d 0 < hXhXhXhX          hXhXhXhXhXhXhXhXhXhXhXhXhXhXhXhX",
"hXhXhXhXhXhXhXhXhXhXhXhXhXhXhXhX  p w.i.$     hXhX  G 2X<X=XH.%.u.h.9.;. X-X5.. . hXhXhXhXhXhXhXhXhXhXhXhXhXhXhXhXhXhXhXhXhXhXhX",
"hXhXhXhXhXhXhXhXhXhXhXhXhXhXhXhXhX. $ < hXhXhXhX  R *X2X<X=X`.*.0.q.i.F.Y.Y.S.L.K.5 hXhXhXhXhXhXhXhXhXhXhXhXhXhXhXhXhXhXhXhXhXhX",
"hXhXhXhXhXhXhXhXhXhXhXhXhXhXhXhXhXhXhXhXhXhXhX    5 N.:X=X-XS.y t 2 i A 0 5.oX].*XK.A hXhXhXhXhXhXhXhXhXhXhXhXhXhXhXhXhXhXhXhXhX",
"hXhXhXhXhXhXhXhXhXhXhXhXhXhXhXhXhXhXhXhXhXhX  > 3 1 d M.|.].F             g m.R.[.K.E 7 hXhXhXhXhXhXhXhXhXhXhXhXhXhXhXhXhXhXhXhX",
"hXhXhXhXhXhXhXhXhXhXhXhXhXhXhXhXhXhXhXhXhX  3 0.g.}.R   K.D   hXhXhXhXhXhX  q D.D.% c !.$ hXhXhXhXhXhXhXhXhXhXhXhXhXhXhXhXhXhXhX",
"hXhXhXhXhXhXhXhXhXhXhXhXhXhXhXhXhXhXhXhX  2 -.f.W.}.1.  % hXhXhXhXhXhXhXhXhXhX% X x k.^.C.7 hXhXhXhXhXhXhXhXhXhXhXhXhXhXhXhXhXhX",
"hXhXhXhXhXhXhXhXhXhXhXhXhXhXhXhXhXhXhX  t @.j.V.W.}.1.    hXhXhXhXhXhXhXhXhXhX  c e.Q.^.}.i   hXhXhXhXhXhXhXhXhXhXhXhXhXhXhXhXhX",
"hXhXhXhXhXhXhXhXhXhXhXhXhXhXhXhXhXhX. 1 =.j.W._.!.).$.    hXhXhXhXhXhXhXhXhX+ y h.k.h.W._.q   hXhXhXhXhXhXhXhXhXhXhXhXhXhXhXhXhX",
"hXhXhXhXhXhXhXhXhXhXhXhXhXhXhXhXhX  1 8.s.V.~.!.!.Q.P   hXhXhXhXhXhXhXhXhX  1 0.f.h.s.h.).i   hXhXhXhXhXhXhXhXhXhXhXhXhXhXhXhXhX",
"hXhXhXhXhXhXhXhXhXhXhXhXhXhXhXhX  y %.-.t.V.!.!._./.I   hXhXhXhXhXhXhXhXhX  > 0.f.h.f.h.E.8   hXhXhXhXhXhXhXhXhXhXhXhXhXhXhXhXhX",
"hXhXhXhXhXhXhXhXhXhXhXhXhXhXhX  p #.0.e.u.V.^.~.V.t.c   hXhXhXhXhXhXhXhX  1 B -.h.h.h.h.j.,   hXhXhXhXhXhXhXhXhXhXhXhXhXhXhXhXhX",
"hXhXhXhXhXhXhXhXhXhXhXhXhXhX  $ I #.@.g.h.C.V.V.c.L @   hXhXhXhXhXhXhXhX  M w.-.y.h.h.h.t.k + hXhXhXhXhXhXhXhXhXhXhXhXhXhXhXhXhX",
"hXhXhXhXhXhXhXhXhXhXhXhXhX  : M m j P h.f.f.f.f.j.u   hXhXhXhXhXhXhXhXhX  m 8.&.%.e.h.t.-.0.M + hXhXhXhXhXhXhXhXhXhXhXhXhXhXhXhX",
"hXhXhXhXhXhXhXhXhXhXhXhX  y &.#.O.:.u.s.h.f.h.h.+.:   hXhXhXhXhXhXhXhXhX  m 8.&.&.-.&.-.t.C.!.1.  hXhXhXhXhXhXhXhXhXhXhXhXhXhXhX",
"hXhXhXhXhXhXhXhXhXhXhX  p O.0.r.h.W.W.C.h.f.f.=.3 . hXhXhXhXhXhXhXhXhXhX  m 8.&.&.%.-.t.f.l./._.1.& hXhXhXhXhXhXhXhXhXhXhXhXhXhX",
"hXhXhXhXhXhXhXhXhXhXhX  O.0.9.l.V.~._.!.C.j.s.@.X hXhXhXhXhXhXhXhXhXhXhX  C 0.&.&.%.-.t.h.f.h.!..XP : hXhXhXhXhXhXhXhXhXhXhXhXhX",
"hXhXhXhXhXhXhXhXhXhXhX+ V s.h.h.t.C.!.W.!.l.j.u.$ hXhXhXhXhXhXhXhXhXhXhX  l -.&.&.&.&.-.t.h.f.h.W./.J   hXhXhXhXhXhXhXhXhXhXhXhX",
"hXhXhXhXhXhXhXhXhXhX: O.%.e.h.h.h.h.h.h.!.k.j.u.$ hXhXhXhXhXhXhXhXhXhXhXhX. p 0.8.8.8.8.8.j.E.j.c./.L   hXhXhXhXhXhXhXhXhXhXhXhX",
"hXhXhXhXhXhXhXhXhX  > w.0.0.s.c.c.v.c.v.Q.Q.v.9.@ hXhXhXhXhXhXhXhXhXhXhXhX  . 8 1 1 1 1 3 y u u 9 a >   hXhXhXhXhXhXhXhXhXhXhXhX",
"hXhXhXhXhXhXhXhXhX  @ m m k N P P P P P L P L j . hXhXhXhXhXhXhXhXhXhXhXhXhX                            hXhXhXhXhXhXhXhXhXhXhXhX",
"hXhXhXhXhXhXhXhXhX                              hXhXhXhXhXhXhXhXhXhXhXhXhXhXhXhXhXhXhXhXhXhXhXhXhXhXhXhXhXhXhXhXhXhXhXhXhXhXhXhX"
};
