/* XPM */
static char *result[] = {
/* columns rows colors chars-per-pixel */
"64 64 224 2 ",
"   c #000000",
".  c #01060B",
"X  c #030A0E",
"o  c #0A0A0C",
"O  c #160009",
"+  c #000711",
"@  c #010B14",
"#  c #020E1B",
"$  c #091515",
"%  c #03121B",
"&  c #071519",
"*  c #0B120D",
"=  c #2F1208",
"-  c #11211F",
";  c #382119",
":  c #000E25",
">  c #021324",
",  c #041A22",
"<  c #01152C",
"1  c #031C2D",
"2  c #0B1B24",
"3  c #011634",
"4  c #031C34",
"5  c #021C3A",
"6  c #00163E",
"7  c #092127",
"8  c #04233D",
"9  c #082533",
"0  c #1B2A39",
"q  c #15363C",
"w  c #401C07",
"e  c #562313",
"r  c #4E3125",
"t  c #6B3D28",
"y  c #744A36",
"u  c #032344",
"i  c #072B44",
"p  c #03244B",
"a  c #092C49",
"s  c #152D49",
"d  c #0C3948",
"f  c #193842",
"g  c #032A53",
"h  c #032A57",
"j  c #083758",
"k  c #1C3654",
"l  c #142D52",
"z  c #043364",
"x  c #04356C",
"c  c #063A6C",
"v  c #093C65",
"b  c #183E68",
"n  c #063C74",
"m  c #053E7D",
"M  c #013679",
"N  c #002B6B",
"B  c #1A444B",
"V  c #0E4359",
"C  c #154151",
"Z  c #1F5059",
"A  c #234D5C",
"S  c #245558",
"D  c #224D4F",
"F  c #0B4566",
"G  c #154868",
"H  c #1C5762",
"J  c #094472",
"K  c #0B4A74",
"L  c #07457D",
"P  c #185276",
"I  c #245B67",
"U  c #38596C",
"Y  c #255972",
"T  c #314567",
"R  c #2A666A",
"E  c #276C77",
"W  c #3A687C",
"Q  c #2C7278",
"!  c #5D4B56",
"~  c #5E525F",
"^  c #7C5D41",
"/  c #694E51",
"(  c #585F6A",
")  c #754678",
"_  c #A4003A",
"`  c #93533C",
"'  c #8C503C",
"]  c #B90046",
"[  c #870B51",
"{  c #906B60",
"}  c #CD7956",
"|  c #AF8571",
" . c #D08E6A",
".. c #EA9469",
"X. c #DAA275",
"o. c #EDAA74",
"O. c #003E88",
"+. c #064384",
"@. c #05458A",
"#. c #094B8D",
"$. c #0A4884",
"%. c #0D578A",
"&. c #125885",
"*. c #034592",
"=. c #074A93",
"-. c #084D95",
";. c #034D9A",
":. c #084F9A",
">. c #0C5393",
",. c #09539B",
"<. c #0C5C99",
"1. c #135A9C",
"2. c #146488",
"3. c #0E6198",
"4. c #136899",
"5. c #157498",
"6. c #24658A",
"7. c #3E6E8A",
"8. c #2D7A86",
"9. c #2D7682",
"0. c #337A87",
"q. c #237698",
"w. c #0955A3",
"e. c #0B5BA3",
"r. c #0A5CAC",
"t. c #0656A8",
"y. c #0A5CB1",
"u. c #0E63A4",
"i. c #0D64AB",
"p. c #0F6AAC",
"a. c #126CAC",
"s. c #166AA6",
"d. c #1777AB",
"f. c #0E6AB2",
"g. c #0D68BA",
"h. c #116EB1",
"j. c #1273B4",
"k. c #1579B7",
"l. c #1376BA",
"z. c #147CBB",
"x. c #197CB9",
"c. c #0F71B5",
"v. c #657498",
"b. c #137CC2",
"n. c #1179C9",
"m. c #0F73C4",
"M. c #3A848E",
"N. c #2E8498",
"B. c #378999",
"V. c #33909A",
"C. c #1681BD",
"Z. c #1982BC",
"A. c #1A82B1",
"S. c #188DB7",
"D. c #358BA9",
"F. c #3993A4",
"G. c #3798AC",
"H. c #399CB3",
"J. c #2691B4",
"K. c #3BA6B8",
"L. c #4C9AAB",
"P. c #7984AB",
"I. c #49ABAE",
"U. c #41A7B8",
"Y. c #54BCBA",
"T. c #75ADB9",
"R. c #1B8CC3",
"E. c #1482CA",
"W. c #1786C6",
"Q. c #1E91C6",
"!. c #1D93CA",
"~. c #1E9BC7",
"^. c #168BD9",
"/. c #1D96D2",
"(. c #1C96D8",
"). c #068AC5",
"_. c #2598C6",
"`. c #2C9FCC",
"'. c #36AAC9",
"]. c #3DB6CB",
"[. c #3BB5CC",
"{. c #3BBAD6",
"}. c #20A2DD",
"|. c #1995E4",
" X c #23ABE8",
".X c #37BEE2",
"XX c #49BBC6",
"oX c #41BED2",
"OX c #41ACC0",
"+X c #65B7DE",
"@X c #30C0DD",
"#X c #47C6D9",
"$X c #54D8DF",
"%X c #4AD1DF",
"&X c #6ECCDB",
"*X c #49D2E9",
"=X c #48D1E5",
"-X c #54D8E5",
";X c #49D9F2",
":X c #42CEE3",
">X c #5AE2EA",
",X c #56E5F5",
"<X c #63ECF2",
"1X c #6AFBFE",
"2X c #66F6FA",
"3X c #71FFFE",
"4X c #7FE1E7",
"5X c #8299AE",
"6X c #9AB8BA",
"7X c #D5A687",
"8X c #EFB687",
"9X c #FBC995",
"0X c #FCD09C",
"qX c #FFD4A0",
"wX c #FFEBBA",
"eX c #87A1C1",
"rX c #89C1CA",
"tX c #A0C6D0",
"yX c #84D3EA",
"uX c #BEDEF3",
"iX c #9AFFFF",
"pX c #F0E9D6",
"aX c #FCFEFC",
"sX c None",
/* pixels */
"sXsXsXsXsXsXsXsXsXsXsXsXsXsXsXsXsXsXsXsXsXsXsXsXsXsXsXsXsXsXsXsXsXsXsXsXsXsXsXsXsXsXsXsXsXsXsXsXsXsXsXsXsXsXsXsXsXsXsXsXsXsXsXsX",
"sXsXsXsXsXsXsXsXsXsXsXsXsXsXsXsXsXsXsXsXsXsXsXsXsXsXsXsXsXsXsXsXsXsXsXsXsXsXsXsXsXsXsXsXsXsXsXsXsXsXsXsXsXsXsXsXsXsXsXsXsXsXsXsX",
"sXsXsXsXsXsXsXsXsXsXsXsXsXsXsXsXsXsXsXsXsXsXsXsXsXsXsXsXsXsXsXsXsXsXsXsXsXsXsXsXsXsXsXsXsXsXsXsXsXsXsXsXsXsXsXsXsXsXsXsXsXsXsXsX",
"sXsXsXsXsXsXsXsXsXsXsXsXsXsXsXsXsXsXsXsXsXsXsXsXsXsXsXsXsXsXsXsXsXsXsXsXsXsXsXsXsXsXsXsXsXsXsXsXsXsXsXsXsXsXsXsXsXsXsXsXsXsXsXsX",
"sXsXsXsXsXsXsXsXsXsXsXsXsXsXsXsXsXsXsXsXsXsXsXsXsXsXsXsXsXsXsXsXsXsXsXsXsXsXsXsXsXsXsXsXsXsXsXsXsXsXsXsXsXsXsXsXsXsXsXsXsXsXsXsX",
"sXsXsXsXsXsXsXsXsXsXsXsXsXsXsXsXsXsXsXsXsXsXsXsXsXsXsXsXsXsXsXsXsXsXsXsXsXsXsXsXsXsXsXsXsXsXsXsXsXsXsXsXsXsXsXsXsXsXsXsXsXsXsXsX",
"sXsXsXsXsXsXsXsXsXsXsXsXsXsXsXsXsXsXsXsXsXsXsXsXsXsXsXsXsXsXsXsXsXsXsXsXsXsXsXsXsXsXsXsXsXsXsXsXsXsXsXsXsXsXsXsXsXsXsXsXsXsXsXsX",
"sXsXsXsXsXsXsXsXsXsXsXsXsXsXsXsXsXsXsXsXsXsXsXsXsXsXsXsXsXsXsXsXsXsXsXsXsXsXsXsXsXsXsXsXsXsXsXsXsXsXsXsXsXsXsXsXsXsXsXsXsXsXsXsX",
"sXsXsXsXsXsXsXsXsXsXsXsXsXsXsXsXsXsXsXsXsXsXsXsXsXsXsXsXsXsXsXsXsXsXsXsXsXsXsXsXsXsXsXsXsXsXsXsXsXsXsXsXsXsXsXsXsXsXsXsXsXsXsXsX",
"sXsXsXsXsXsXsXsXsXsXsXsXsXsXsXsXsXsXsXsXsXsXsXsXsXsXsXsXsXsXsXsXsXsXsXsXsXsXsXsXsXsXsXsXsXsXsXsXsXsXsXsXsXsXsXsXsXsXsXsXsXsXsXsX",
"sXsXsXsXsXsXsXsXsXsXsXsXsXsXsXsXsXsXsXsXsXsXsXsXsXsXsXsXsXsXsXsXsXsXsXsXsXsXsXsXsXsXsXsXsXsXsXsXsXsXsXsXsXsXsXsXsXsXsXsXsXsXsXsX",
"sXsXsXsXsXsXsXsXsXsXsXsXsXsXsXsXsXsXsXsXsXsXsXsXsXsXsXsXsXsXsXsX            sXsXsXsXsXsXsXsXsXsXsXsXsXsXsXsXsXsXsXsXsXsXsXsXsXsX",
"sXsXsXsXsXsXsXsXsXsXsXsXsXsXsXsXsXsXsXsXsXsXsXsXsXsXsXsXsXsX    q 0.V.U.Y.S     sXsXsXsXsXsXsXsXsXsXsXsXsXsXsXsXsXsXsXsXsXsXsXsX",
"sXsXsXsXsXsXsXsXsXsXsXsXsXsXsXsXsXsXsXsXsXsXsXsXsXsXsXsXsX$ B a q.{.{.%X2XXXR R * sXsXsXsXsXsXsXsXsXsXsXsXsXsXsXsXsXsXsXsXsXsXsX",
"sXsXsXsXsXsXsXsXsXsXsXsXsXsXsXsXsXsXsXsXsXsXsXsXsXsXsXsX. B H.W.W.!._.L.K.=X1X1XR $ sXsXsXsXsXsXsXsXsXsXsXsXsXsXsXsXsXsXsXsXsXsX",
"sXsXsXsXsXsXsXsXsXsXsXsXsXsXsXsXsXsXsXsXsXsXsXsXsXsXsX  0 6.z.R.!.~.&XaXT.G.%X<X3XQ   sXsXsXsXsXsXsXsXsXsXsXsXsXsXsXsXsXsXsXsXsX",
"sXsXsXsXsXsXsXsXsXsXsXsXsXsXsXsXsXsXsXsXsXsXsXsXsXsXsX  G x.c.k.R._.'.+X7.0.:X%X,X9.  sXsXsXsXsXsXsXsXsXsXsXsXsXsXsXsXsXsXsXsXsX",
"sXsXsXsXsXsXsXsXsXsXsXsXsXsXsXsXsXsXsXsXsXsXsXsXsXsX. 3 @.g.l.j.z.Z.b.).P U F.U.#XR   sXsXsXsXsXsXsXsXsXsXsXsXsXsXsXsXsXsXsXsXsX",
"sXsXsXsXsXsXsXsXsXsXsXsXsXsXsXsXsXsXsXsXsXsXsXsXsXsX$ s.a.u.a.p.h.f.j.R.6.P Y q.D.C   sXsXsXsXsXsXsXsXsXsXsXsXsXsXsXsXsXsXsXsXsX",
"sXsXsXsXsXsXsXsXsXsXsXsXsXsXsXsXsXsXsXsXsXsXsXsXsXsX& -X>XA.*.=.p.z.j.j.j.h.j.a.r.p     sXsXsXsXsXsXsXsXsXsXsXsXsXsXsXsXsXsXsXsX",
"sXsXsXsXsXsXsXsXsXsXsXsXsXsXsXsXsXsXsXsXsXsXsXsXsXsXo ) &X{.O.:.L z x ,.y.#.6.%X4XT.G   sXsXsX    sXsXsXsXsXsXsXsXsXsXsXsXsXsXsX",
"sXsXsXsXsXsXsXsXsXsXsXsXsXsXsXsXsXsXsXsXsXsXsXsXsXsXO _ eX.XO.M b U 7.+.M G M.>XiX4XY . sXsX  V F 2 sXsXsXsXsXsXsXsXsXsXsXsXsXsX",
"sXsXsXsXsXsXsXsXsXsXsXsXsXsXsXsXsXsXsXsXsXsXsXsXsXsXO ] P.~.O.k ( 6XeXd 6 P G.'.-XL.s   sX@ d !.^.K % sXsXsXsXsXsXsXsXsXsXsXsXsX",
"sXsXsXsXsXsXsXsXsXsXsXsXsXsXsXsXsXsXsXsXsXsXsXsXsXsXO [ v.5.l ' | tXT.* 3 m 1.F.Q G p     V (.l.,.k.5.  sXsXsXsXsXsXsXsXsXsXsXsX",
"sXsXsXsXsXsXsXsXsXsXsXsXsXsXsXsXsXsXsXsXsXsXsXsXsXsXo T W G s ` X.pXuXM / ! N x c 5 .     j ^.,.j.!.l.n . sXsXsXsXsXsXsXsXsXsXsX",
"sXsXsXsXsXsXsXsXsXsXsXsXsXsXsXsXsXsXsXsXsXsXsXsXsXsX  2 G =.b ` X.wXpXT.7X .! ! 0 6 5   5 a v i.b.4.#.g.c > sXsXsXsXsXsXsXsXsXsX",
"sXsXsXsXsXsXsXsXsXsXsXsXsXsXsXsXsXsXsXsXsXsXsXsXsX. 1 2 g *.>./  .o.X.o.9X8X....w < z   #.c % %.=.x c 4.g.g   sXsXsXsXsXsXsXsXsX",
"sXsXsXsXsXsXsXsXsXsXsXsXsXsXsXsXsXsXsXsXsXsXsXsX  8 E.!.9 : :.z {  .' ` X.0X8X .;       &.m.n   5 $.*.j -.g   sXsXsXsXsXsXsXsXsX",
"sXsXsXsXsXsXsXsXsXsXsXsXsXsXsXsXsXsXsXsXsXsXsX  G d.e.E.A.V > # y }  .8X0X9X .=   o k n 4 > < x @ < #.=.u @ sXsXsXsXsXsXsXsXsXsX",
"sXsXsXsXsXsXsXsXsXsXsXsXsXsXsXsXsXsXsXsXsXsX  5 a./.a.,.|.2.    = e t ^ ^ y r d H 8.D.t.g 4 g w.x 4 5 g . sXsXsXsXsXsXsXsXsXsXsX",
"sXsXsXsXsXsXsXsXsXsXsXsXsXsXsXsXsXsXsXsXsX. 4 ,.u.a.W.e.>.j >   @ 1 , # # @ 1 G.oX*X[.-.:.t.w.,.-.u     sXsXsXsXsXsXsXsXsXsXsXsX",
"sXsXsXsXsXsXsXsXsXsXsXsXsXsXsXsXsXsXsXsX  3 w.l.K z ,.l.7 3 @.  8.*XOXF.F.9.I B.F.U.'.:.=.-.:.,.>     sXsXsXsXsXsXsXsXsXsXsXsXsX",
"sXsXsXsXsXsXsXsXsXsXsXsXsXsXsXsXsXsXsXsX  3 y.J L #.z % K v # I.>X,X>X*XI 2 & 7 A D.U.D.g.x > > sXsXsXsXsXsXsXsXsXsXsXsXsXsXsXsX",
"sXsXsXsXsXsXsXsXsXsXsXsXsXsXsXsXsXsXsXsXi j 5 m =.z > p g j Q -X1X3X>XE $ sXsXsX& f D D l : sXsXsXsXsXsXsXsXsXsXsXsXsXsXsXsXsXsX",
"sXsXsXsXsXsXsXsXsXsXsXsXsXsXsXsXsXsXsX  %.4.+ x z @   n 2 S =X[.$X2XXX  sXsXsXsX          sXsXsXsXsXsXsXsXsXsXsXsXsXsXsXsXsXsXsX",
"sXsXsXsXsXsXsXsXsXsXsXsXsXsXsXsXsXsXsX  K m.+..         R H.F.oX{.#XH.X sXsXsXsXsXsXsXsXsXsXsXsXsXsXsXsXsXsXsXsXsXsXsXsXsXsXsXsX",
"sXsXsXsXsXsXsXsXsXsXsXsXsXsXsXsXsXsXsX  c m.w.#.<   . x >.s.d.k.Z.k.$.  sXsXsXsXsXsXsXsXsXsXsXsXsXsXsXsXsXsXsXsXsXsXsXsXsXsXsXsX",
"sXsXsXsXsXsXsXsXsXsXsXsXsXsXsXsXsXsXsXsX< p p h #   + *.t.e.l.x.C.l.=.g + sXsXsXsXsXsXsXsXsXsXsXsXsXsXsXsXsXsXsXsXsXsXsXsXsXsXsX",
"sXsXsXsXsXsXsXsXsXsXsXsXsXsXsXsXsXsXsXsXsX      sXsX@ &.Z.x.p.R._.z.f.z.4   sXsXsXsXsXsXsXsXsXsXsXsXsXsXsXsXsXsXsXsXsXsXsXsXsXsX",
"sXsXsXsXsXsXsXsXsXsXsXsXsXsXsXsXsXsXsXsXsXsXsXsXsXsX$ 0.#XJ.*.a.l.,.1.oXB   sXsXsXsXsXsXsXsXsXsXsXsXsXsXsXsXsXsXsXsXsXsXsXsXsXsX",
"sXsXsXsXsXsXsXsXsXsXsXsXsXsXsXsXsXsXsXsXsXsXsXsXsXsX. G.>X-X_.i.t.s.H.#XF.f   sXsXsXsXsXsXsXsXsXsXsXsXsXsXsXsXsXsXsXsXsXsXsXsXsX",
"sXsXsXsXsXsXsXsXsXsXsXsXsXsXsXsXsXsXsXsXsXsXsXsXsX2 R #X1X<XH.a 6 i S ].*XI   sXsXsXsXsXsXsXsXsXsXsXsXsXsXsXsXsXsXsXsXsXsXsXsXsX",
"sXsXsXsXsXsXsXsXsXsXsXsXsXsXsXsXsXsXsXsXsXsXsXsX  q oX<X2XOXS       X K.*XN.& sXsXsXsXsXsXsXsXsXsXsXsXsXsXsXsXsXsXsXsXsXsXsXsXsX",
"sXsXsXsXsXsXsXsXsXsXsXsXsXsXsXsXsXsXsXsXsXsXsXsX  B *X<X,XE   sXsXsX& M.].#X0.. sXsXsXsXsXsXsXsXsXsXsXsXsXsXsXsXsXsXsXsXsXsXsXsX",
"sXsXsXsXsXsXsXsXsXsXsXsXsXsXsXsXsXsXsXsXsXsXsX  S K.:X2X-XI   sXsXsXsX& V.;XF.  sXsXsXsXsXsXsXsXsXsXsXsXsXsXsXsXsXsXsXsXsXsXsXsX",
"sXsXsXsXsXsXsXsXsXsXsXsXsXsXsXsXsXsXsXsXsXsX    - Q oX-XQ 7 sXsXsXsXsX  9.*X].E * sXsXsXsXsXsXsXsXsXsXsXsXsXsXsXsXsXsXsXsXsXsXsX",
"sXsXsXsXsXsXsXsXsXsXsXsXsXsXsXsXsXsXsXsXsX. < 4 3 9 Q [.q   sXsXsXsXsX  B G.{.0.C , sXsXsXsXsXsXsXsXsXsXsXsXsXsXsXsXsXsXsXsXsXsX",
"sXsXsXsXsXsXsXsXsXsXsXsXsXsXsXsXsXsXsXsX  5 r.k.E.J   M.q   sXsXsXsXsXsX  H K.  5.2.. sXsXsXsXsXsXsXsXsXsXsXsXsXsXsXsXsXsXsXsXsX",
"sXsXsXsXsXsXsXsXsXsXsXsXsXsXsXsXsXsXsX  p ,.c.R.E.,.g $ .   sXsXsXsXsXsX  A F.  2.}.2.. sXsXsXsXsXsXsXsXsXsXsXsXsXsXsXsXsXsXsXsX",
"sXsXsXsXsXsXsXsXsXsXsXsXsXsXsXsXsXsXsX  v n.R.Q.R.j.@.p @   sXsXsXsXsXsX  * q v d. Xd.  sXsXsXsXsXsXsXsXsXsXsXsXsXsXsXsXsXsXsXsX",
"sXsXsXsXsXsXsXsXsXsXsXsXsXsXsXsXsXsXsX> $.!.Q.R.!.k.*.;.3   sXsXsXsXsXsX# < u l.R.!.A.8 sXsXsXsXsXsXsXsXsXsXsXsXsXsXsXsXsXsXsXsX",
"sXsXsXsXsXsXsXsXsXsXsXsXsXsXsXsXsXsXX +.f.C.Q.Q.~.k.*.@.>   sXsXsXsXsX  x g.x.j.a.C.Q.b.4   sXsXsXsXsXsXsXsXsXsXsXsXsXsXsXsXsXsX",
"sXsXsXsXsXsXsXsXsXsXsXsXsXsXsXsXsXsX  +.f.Z.Q.Q.Q.Z.u.;.<   sXsXsXsXsX  x f.l.j.j.j.z.z.,   sXsXsXsXsXsXsXsXsXsXsXsXsXsXsXsXsXsX",
"sXsXsXsXsXsXsXsXsXsXsXsXsXsXsXsXsX# x -.w.u.Z.R.!.!.p.u X sXsXsXsXsXsX  z r.e.e.h.j.f.c.%.9 sXsXsXsXsXsXsXsXsXsXsXsXsXsXsXsXsXsX",
"sXsXsXsXsXsXsXsXsXsXsXsXsXsXsXsXX u =.L #.e.j.Q.Q.E.>.  sXsXsXsXsXsXsX  c t.@.=.e.c.j.j.n.$.> sXsXsXsXsXsXsXsXsXsXsXsXsXsXsXsXsX",
"sXsXsXsXsXsXsXsXsXsXsXsXsXsXsX. u c h j <.l.j.R.Z.i.L . sXsXsXsXsXsXsX  z ,.-.=.=.<.j.h.,.w.$.@ sXsXsXsXsXsXsXsXsXsXsXsXsXsXsXsX",
"sXsXsXsXsXsXsXsXsXsXsXsXsXsX  c =.@.@.u.a.j.j.k.j.f.+.+ sXsXsXsXsXsXsXsX. p w.-.-.-.,.-.u.x._.d.& sXsXsXsXsXsXsXsXsXsXsXsXsXsXsX",
"sXsXsXsXsXsXsXsXsXsXsXsXsX# z -.r.h.x.R.R.k.p.a.j.a.+.. sXsXsXsXsXsXsXsX  5 w.-.-.=.-.u.h.k.R./.d.9 sXsXsXsXsXsXsXsXsXsXsXsXsXsX",
"sXsXsXsXsXsXsXsXsXsXsXsX  < y.w.p.z.R.Q.!.R.k.j.j.h.@.. sXsXsXsXsXsXsXsX  u r.=.-.=.-.p.j.h.j.W. X5.1 sXsXsXsXsXsXsXsXsXsXsXsXsX",
"sXsXsXsXsXsXsXsXsXsXsXsX. 5 ,.h.l.h.j.R.R.Q.Q.j.l.i.n . sXsXsXsXsXsXsXsX  5 :.-.-.-.-.=.i.j.h.h.Z./.<.  sXsXsXsXsXsXsXsXsXsXsXsX",
"sXsXsXsXsXsXsXsXsXsXsX  a *.:.h.k.h.j.j.j.C.R.k.b.K + sXsXsXsXsXsXsXsXsXsXsX< :.t.w.,.w.:.f.b.z.b.^.3.  sXsXsXsXsXsXsXsXsXsXsXsX",
"sXsXsXsXsXsXsXsXsXsXsX  x m.w.r.l.E.b.b.b.E.W.W.n.x   sXsXsXsXsXsXsXsXsXsXsX  4 5 5 5 4 3 8 i i 8 a 9   sXsXsXsXsXsXsXsXsXsXsXsX",
"sXsXsXsXsXsXsXsXsXsXsX  5 x z h c K K K K K J K n 5   sXsXsXsXsXsXsXsXsXsXsX                            sXsXsXsXsXsXsXsXsXsXsXsX",
"sXsXsXsXsXsXsXsXsXsXsX                              sXsXsXsXsXsXsXsXsXsXsXsXsXsXsXsXsXsXsXsXsXsXsXsXsXsXsXsXsXsXsXsXsXsXsXsXsXsX"
};
