/* XPM */
static char *result[] = {
/* columns rows colors chars-per-pixel */
"64 64 235 2 ",
"   c #000001",
".  c #01050A",
"X  c #030B0D",
"o  c #070D0B",
"O  c #020B13",
"+  c #010D1B",
"@  c #051115",
"#  c #03121D",
"$  c #0A161A",
"%  c #0B1A1A",
"&  c #0A1515",
"*  c #112116",
"=  c #021324",
"-  c #021429",
";  c #051C29",
":  c #151723",
">  c #031C35",
",  c #021C39",
"<  c #031637",
"1  c #010E2A",
"2  c #2A062F",
"3  c #0D252A",
"4  c #0B2627",
"5  c #112729",
"6  c #1A332B",
"7  c #04223D",
"8  c #0A2637",
"9  c #16353A",
"0  c #132C32",
"q  c #3F2922",
"w  c #321912",
"e  c #4A0022",
"r  c #543335",
"t  c #49353F",
"y  c #623E3D",
"u  c #021E42",
"i  c #042244",
"p  c #062A42",
"a  c #052B4D",
"s  c #04264B",
"d  c #0A354B",
"f  c #1B3C42",
"g  c #103D48",
"h  c #052C55",
"j  c #032A59",
"k  c #04315D",
"l  c #093A57",
"z  c #143659",
"x  c #102D40",
"c  c #392D43",
"v  c #042E61",
"b  c #053563",
"n  c #04356A",
"m  c #053A6B",
"M  c #083C67",
"N  c #063B74",
"B  c #063E7B",
"V  c #003679",
"C  c #10366E",
"Z  c #4D374B",
"A  c #7D3673",
"S  c #1B444A",
"D  c #1C4345",
"F  c #1C4B53",
"G  c #174A5A",
"H  c #014554",
"J  c #22575C",
"K  c #214D57",
"L  c #0A446B",
"P  c #184666",
"I  c #1F5F6A",
"U  c #094473",
"Y  c #0B4A74",
"T  c #0B4C7A",
"R  c #064478",
"E  c #105577",
"W  c #26576C",
"Q  c #1F6370",
"!  c #2B646A",
"~  c #296875",
"^  c #346C7E",
"/  c #32777B",
"(  c #405556",
")  c #675052",
"_  c #5C687B",
"`  c #61717B",
"'  c #985436",
"]  c #8F5E4C",
"[  c #B47757",
"{  c #AD6949",
"}  c #C47955",
"|  c #C5784D",
" . c #A88665",
".. c #D1895E",
"X. c #C59876",
"o. c #D1956E",
"O. c #F09C6D",
"+. c #033F89",
"@. c #074383",
"#. c #06458A",
"$. c #084B8D",
"%. c #0A4B8B",
"&. c #0A558A",
"*. c #195B88",
"=. c #074A93",
"-. c #084D95",
";. c #044998",
":. c #0A5295",
">. c #09529B",
",. c #0C5B9A",
"<. c #0B5998",
"1. c #144D8A",
"2. c #0F629B",
"3. c #0B6195",
"4. c #166B96",
"5. c #17739C",
"6. c #15698F",
"7. c #297A88",
"8. c #357985",
"9. c #236998",
"0. c #2B7995",
"q. c #307290",
"w. c #0954A3",
"e. c #0B5CA4",
"r. c #0A5BAB",
"t. c #0659A8",
"y. c #0A5DB3",
"u. c #0D61A3",
"i. c #0D64AC",
"p. c #0F6BAF",
"a. c #106BAC",
"s. c #1469A6",
"d. c #1877A9",
"f. c #0C63B2",
"g. c #0E6BB3",
"h. c #0E6BBA",
"j. c #0D66B8",
"k. c #106EB2",
"l. c #1268BD",
"z. c #0D74B4",
"x. c #1273B3",
"c. c #157DBA",
"v. c #1578B8",
"b. c #0071AB",
"n. c #2176AA",
"m. c #756D82",
"M. c #567694",
"N. c #137CC4",
"B. c #1476C6",
"V. c #0F73C4",
"C. c #2B8395",
"Z. c #348B9B",
"A. c #378493",
"S. c #3D9296",
"D. c #1C84B5",
"F. c #1783BD",
"G. c #1984BD",
"H. c #1581B4",
"J. c #1E91BB",
"K. c #338CA4",
"L. c #3897A9",
"P. c #248BB5",
"I. c #3782B6",
"U. c #379AB4",
"Y. c #278AAA",
"T. c #3FA6AC",
"R. c #3AA5BA",
"E. c #3DA9BD",
"W. c #38A4B9",
"Q. c #4B839E",
"!. c #489FB1",
"~. c #7C9DBC",
"^. c #44A3A9",
"/. c #44ACB4",
"(. c #43ABBD",
"). c #1682C2",
"_. c #1B8CC3",
"`. c #1685CB",
"'. c #188AC8",
"]. c #1D92C6",
"[. c #1E94C9",
"{. c #1E99CD",
"}. c #1689D3",
"|. c #1B94D5",
" X c #2195C8",
".X c #279CD2",
"XX c #2484CA",
"oX c #39A8C3",
"OX c #3DB4C9",
"+X c #3BB6D0",
"@X c #22A2D8",
"#X c #1D9EE6",
"$X c #22A9E5",
"%X c #318AE6",
"&X c #659FCD",
"*X c #41A8C9",
"=X c #47B4C3",
"-X c #43BFD4",
";X c #42A0D6",
":X c #79A4CD",
">X c #4E93F6",
",X c #42C6DA",
"<X c #4BCEDB",
"1X c #46C4D6",
"2X c #51C7D2",
"3X c #4DD2DE",
"4X c #59D3DC",
"5X c #4EC0C8",
"6X c #46CCE2",
"7X c #4AD3E7",
"8X c #57DAE6",
"9X c #5EE2E9",
"0X c #4DE5FB",
"qX c #57E5F4",
"wX c #5FF2FD",
"eX c #64EBEE",
"rX c #63ECF1",
"tX c #6CE5F5",
"yX c #66F1F5",
"uX c #6CFEFF",
"iX c #65F8FB",
"pX c #75FFFF",
"aX c #8899A2",
"sX c #F3B588",
"dX c #C8B9A6",
"fX c #ECC094",
"gX c #F8C895",
"hX c #FED39E",
"jX c #97CBD4",
"kX c #92CCE8",
"lX c #A9C3E5",
"zX c #9FFFFF",
"xX c #CCE9EF",
"cX c #F4F1EE",
"vX c None",
/* pixels */
"vXvXvXvXvXvXvXvXvXvXvXvXvXvXvXvXvXvXvXvXvXvXvXvXvXvXvXvXvXvXvXvXvXvXvXvXvXvXvXvXvXvXvXvXvXvXvXvXvXvXvXvXvXvXvXvXvXvXvXvXvXvXvXvX",
"vXvXvXvXvXvXvXvXvXvXvXvXvXvXvXvXvXvXvXvXvXvXvXvXvXvXvXvXvXvXvXvXvXvXvXvXvXvXvXvXvXvXvXvXvXvXvXvXvXvXvXvXvXvXvXvXvXvXvXvXvXvXvXvX",
"vXvXvXvXvXvXvXvXvXvXvXvXvXvXvXvXvXvXvXvXvXvXvXvXvXvXvXvXvXvXvXvXvXvXvXvXvXvXvXvXvXvXvXvXvXvXvXvXvXvXvXvXvXvXvXvXvXvXvXvXvXvXvXvX",
"vXvXvXvXvXvXvXvXvXvXvXvXvXvXvXvXvXvXvXvXvXvXvXvXvXvXvXvXvXvXvXvXvXvXvXvXvXvXvXvXvXvXvXvXvXvXvXvXvXvXvXvXvXvXvXvXvXvXvXvXvXvXvXvX",
"vXvXvXvXvXvXvXvXvXvXvXvXvXvXvXvXvXvXvXvXvXvXvXvXvXvXvXvXvXvX          vXvXvXvXvXvXvXvXvXvXvXvXvXvXvXvXvXvXvXvXvXvXvXvXvXvXvXvXvX",
"vXvXvXvXvXvXvXvXvXvXvXvXvXvXvXvXvXvXvXvXvXvXvXvXvXvXvXvXvXo f F J ! J   vXvXvXvXvXvXvXvXvXvXvXvXvXvXvXvXvXvXvXvXvXvXvXvXvXvXvXvX",
"vXvXvXvXvXvXvXvXvXvXvXvXvXvXvXvXvXvXvXvXvXvXvXvXvXvXvXo @ 8 U.+XqXpXyXD 4 & vXvXvXvXvX@ # O vXvXvXvXvXvXvXvXvXvXvXvXvXvXvXvXvXvX",
"vXvXvXvXvXvXvXvXvXvXvXvXvXvXvXvXvXvXvXvXvXvXvXvXvXvX  / 9.#.:.>.0./.1X4XeXS.  vXvXvX  d.'.L   vXvXvXvXvXvXvXvXvXvXvXvXvXvXvXvXvX",
"vXvXvXvXvXvXvXvXvXvXvXvXvXvXvXvXvXvXvXvXvXvXvXvXvX@ f *.k.g.v.z.z.P.T.3XuXyX^.%   3 4.'.2.U T O vXvXvXvXvXvXvXvXvXvXvXvXvXvXvXvX",
"vXvXvXvXvXvXvXvXvXvXvXvXvXvXvXvXvXvXvXvXvXvXvXvX  $ *.>.f.'. XoX;XI./ L.=X8X4X*   d #X2.U ,.p.. vXvXvXvXvXvXvXvXvXvXvXvXvXvXvXvX",
"vXvXvXvXvXvXvXvXvXvXvXvXvXvXvXvXvXvXvXvXvXvXvXvX. , >.g._.].].:XlX~.E 0.K.K.0.@   8 ,.m ,.k.B = vXvXvXvXvXvXvXvXvXvXvXvXvXvXvXvX",
"vXvXvXvXvXvXvXvXvXvXvXvXvXvXvXvXvXvX        vX  s >.-.i.F.].].&XcXxXG.].].].H.@     @ 2.j.@.v -.,   vXvXvXvXvXvXvXvXvXvXvXvXvXvX",
"vXvXvXvXvXvXvXvXvXvXvXvXvXvXvXvXvX  > < k k     a y.=.e._.{..X.XkXkX'.*.U.tXkXA.3     w.$.n #.R -   vXvXvXvXvXvXvXvXvXvXvXvXvXvX",
"vXvXvXvXvXvXvXvXvXvXvXvXvXvXvXvX= k :.4.<.v   g k M d.v.).c.<.&.9.n. XW /.pXzX!.3 O a a n @.R @.-   vXvXvXvXvXvXvXvXvXvXvXvXvXvX",
"vXvXvXvXvXvXvXvXvXvXvXvXvXvXvX  s e.a.|.d.,   G.l * 6XP.f.&.z K s b P.U.W.1X2Xq.$ - @.  s @.b %.>   vXvXvXvXvXvXvXvXvXvXvXvXvXvX",
"vXvXvXvXvXvXvXvXvXvXvXvXvXvXvX  - b k u.|.4.  2.h 6 tXv.n z ` jX( . n G.U.8.W .Xl         i -.+ vXvXvXvXvXvXvXvXvXvXvXvXvXvXvXvX",
"vXvXvXvXvXvXvXvXvXvXvXvXvXvX  h :.s.,.R p d 3.l.< 4 7X&.c ) aXjX^ : y L b.{.D.l O O n N +   #   vXvXvXvXvXvXvXvXvXvXvXvXvXvXvXvX",
"vXvXvXvXvXvXvXvXvXvXvXvXvXvX  b :.,.k.<.= . L k 2 Z E.R r ..dXxXn.P ..) _ Q.Y   + n r.r.N a ,   vXvXvXvXvXvXvXvXvXvXvXvXvXvXvXvX",
"vXvXvXvXvXvXvXvXvXvXvXvXvXvX  a m m @.V.l   .   e A A.m t | gXcX:Xm.gXO.O.'     b y.-.-.v.z.+.X vXvXvXvXvXvXvXvXvXvXvXvXvXvXvXvX",
"vXvXvXvXvXvXvXvXvXvXvXvXvXvX  n g.2.k >.i O $.#   % W b t | gXgXfXgXfXgXhX .    h w.-.p.`.T   vXvXvXvXvXvXvXvXvXvXvXvXvXvXvXvXvX",
"vXvXvXvXvXvXvXvXvXvXvXvXvXvX  h >.i.2.7 < #.g.%.<   . +.+.) O.gXo.[ o.sXgX{   / s.;.-.x.B.m   vXvXvXvXvXvXvXvXvXvXvXvXvXvXvXvXvX",
"vXvXvXvXvXvXvXvXvXvXvXvXvXvX  # h <.h.  , B.F.j., o 9 i u 0 ` X...} sXsX' r I ,XoX1.w.j.R < vXvXvXvXvXvXvXvXvXvXvXvXvXvXvXvXvXvX",
"vXvXvXvXvXvXvXvXvXvXvXvXvXvXvX  + k N 1 M '.].k.< 5 =Xf : < V r ' [  .[ w H 7X,X/.0.V @.=   vXvXvXvXvXvXvXvXvXvXvXvXvXvXvXvXvXvX",
"vXvXvXvXvXvXvXvXvXvXvXvXvXvXvXvX      n i.c.].`., 6 tX1X(.!         o . K OX+XL.!.~     vXvXvXvXvXvXvXvXvXvXvXvXvXvXvXvXvXvXvXvX",
"vXvXvXvXvXvXvXvXvXvXvXvXvXvXvXvXvXvX  @.y.u.c.V.1 % 7X7X-XW.C.T././.T.Y.S F E.9 5 % vXvXvXvXvXvXvXvXvXvXvXvXvXvXvXvXvXvXvXvXvXvX",
"vXvXvXvXvXvXvXvXvXvXvXvXvXvXvXvXvXvX  7 B r.i.v x ~ OX=X+X6XqXuXpXpXuXiXS   F     vXvXvXvXvXvXvXvXvXvXvXvXvXvXvXvXvXvXvXvXvXvXvX",
"vXvXvXvXvXvXvXvXvXvXvXvXvXvXvXvXvXvXvX  > #.N   9 Z.~ ~ Z.1X9XeXeXeXrXpX/ o   vXvXvXvXvXvXvXvXvXvXvXvXvXvXvXvXvXvXvXvXvXvXvXvXvX",
"vXvXvXvXvXvXvXvXvXvXvXvXvXvXvXvXvXvXvXvX          .     F E.-XeXrXrXrXyX2XW   vXvXvXvXvXvXvXvXvXvXvXvXvXvXvXvXvXvXvXvXvXvXvXvXvX",
"vXvXvXvXvXvXvXvXvXvXvXvXvXvXvXvXvXvXvXvXvXvXvXvXvXvXvX  J (.L.9XiXeXeXyXqX7.  vXvXvXvXvXvXvXvXvXvXvXvXvXvXvXvXvXvXvXvXvXvXvXvXvX",
"vXvXvXvXvXvXvXvXvXvXvXvXvXvXvXvXvXvXvXvXvXvXvXvXvXvXvXvX5 W L.8XiXeXeXyXqXC.  vXvXvXvXvXvXvXvXvXvXvXvXvXvXvXvXvXvXvXvXvXvXvXvXvX",
"vXvXvXvXvXvXvXvXvXvXvXvXvXvXvXvXvXvXvXvXvXvXvXvXvXvXvXvXvX$ L.8XyXeXeXyXqX0.  vXvXvXvXvXvXvXvXvXvXvXvXvXvXvXvXvXvXvXvXvXvXvXvXvX",
"vXvXvXvXvXvXvXvXvXvXvXvXvXvXvXvXvXvXvXvXvXvXvXvXvXvXvXvX  5 L.=X8XyXqXyXqX7.  vXvXvXvXvXvXvXvXvXvXvXvXvXvXvXvXvXvXvXvXvXvXvXvXvX",
"vXvXvXvXvXvXvXvXvXvXvXvXvXvXvXvXvXvXvXvXvXvXvXvXvXvXvXvX  + P K.5X3X6X3X2X~   vXvXvXvXvXvXvXvXvXvXvXvXvXvXvXvXvXvXvXvXvXvXvXvXvX",
"vXvXvXvXvXvXvXvXvXvXvXvXvXvXvXvXvXvXvXvXvXvXvXvXvXvXvXvX  + B *.D.J.P.P.P.z   vXvXvXvXvXvXvXvXvXvXvXvXvXvXvXvXvXvXvXvXvXvXvXvXvX",
"vXvXvXvXvXvXvXvXvXvXvXvXvXvXvXvXvXvXvXvXvXvXvXvXvXvXvXvX  - >.;.u.z.x.B.l.n   vXvXvXvXvXvXvXvXvXvXvXvXvXvXvXvXvXvXvXvXvXvXvXvXvX",
"vXvXvXvXvXvXvXvXvXvXvXvXvXvXvXvXvXvXvXvXvXvXvXvXvXvXvXvX  - >.g.F.].[.>X%XT   vXvXvXvXvXvXvXvXvXvXvXvXvXvXvXvXvXvXvXvXvXvXvXvXvX",
"vXvXvXvXvXvXvXvXvXvXvXvXvXvXvXvXvXvXvXvXvXvXvXvXvXvXvX  O j ;.a._.[.].XXh.n   vXvXvXvXvXvXvXvXvXvXvXvXvXvXvXvXvXvXvXvXvXvXvXvXvX",
"vXvXvXvXvXvXvXvXvXvXvXvXvXvXvXvXvXvXvXvXvXvXvXvXvXvXvX  G P.d.w.x.|.'.t.s.P   vXvXvXvXvXvXvXvXvXvXvXvXvXvXvXvXvXvXvXvXvXvXvXvXvX",
"vXvXvXvXvXvXvXvXvXvXvXvXvXvXvXvXvXvXvXvXvXvXvXvXvXvXvX  Q 0X3Xn.%.&.%.&.U./   vXvXvXvXvXvXvXvXvXvXvXvXvXvXvXvXvXvXvXvXvXvXvXvXvX",
"vXvXvXvXvXvXvXvXvXvXvXvXvXvXvXvXvXvXvXvXvXvXvXvXvXvXvX  ~ qXeX/.9     8.6XC.  vXvXvXvXvXvXvXvXvXvXvXvXvXvXvXvXvXvXvXvXvXvXvXvXvX",
"vXvXvXvXvXvXvXvXvXvXvXvXvXvXvXvXvXvXvXvXvXvXvXvXvXvX  J =XuXeXD vXvXo W.0XC.  vXvXvXvXvXvXvXvXvXvXvXvXvXvXvXvXvXvXvXvXvXvXvXvXvX",
"vXvXvXvXvXvXvXvXvXvXvXvXvXvXvXvXvXvXvXvXvXvXvXvXvXvX. C.qXiX<X% vXvXvXF L.U.W   vXvXvXvXvXvXvXvXvXvXvXvXvXvXvXvXvXvXvXvXvXvXvXvX",
"vXvXvXvXvXvXvXvXvXvXvXvXvXvXvXvXvXvXvXvXvXvXvXvXvXvX  T.iXqXW.; vXvXvX  S -X,XS o vXvXvXvXvXvXvXvXvXvXvXvXvXvXvXvXvXvXvXvXvXvXvX",
"vXvXvXvXvXvXvXvXvXvXvXvXvXvXvXvXvXvXvXvXvXvXvXvXvXvXX 5XpX4XA.$ vXvXvX  F E.+X(.f   vXvXvXvXvXvXvXvXvXvXvXvXvXvXvXvXvXvXvXvXvXvX",
"vXvXvXvXvXvXvXvXvXvXvXvXvXvXvXvXvXvXvXvXvXvXvXvXvX0 oXyXwXL.$ vXvXvXvXvXO F ,X6XF   vXvXvXvXvXvXvXvXvXvXvXvXvXvXvXvXvXvXvXvXvXvX",
"vXvXvXvXvXvXvXvXvXvXvXvXvXvXvXvXvXvXvXvXvXvXvXvX  o J =X7X7.  vXvXvXvXvX  5 E.0XF   vXvXvXvXvXvXvXvXvXvXvXvXvXvXvXvXvXvXvXvXvXvX",
"vXvXvXvXvXvXvXvXvXvXvXvXvXvXvXvXvXvXvXvXvXvXvX+ > ; + G 8.S   vXvXvXvXvX  0 L.Z.G 4 vXvXvXvXvXvXvXvXvXvXvXvXvXvXvXvXvXvXvXvXvXvX",
"vXvXvXvXvXvXvXvXvXvXvXvXvXvXvXvXvXvXvXvXvXvX. R h.N.x.=     vXvXvXvXvXvX  0 Z.o *.d.. vXvXvXvXvXvXvXvXvXvXvXvXvXvXvXvXvXvXvXvXvX",
"vXvXvXvXvXvXvXvXvXvXvXvXvXvXvXvXvXvXvXvXvX+ B e.).].g.O     vXvXvXvXvXvX    @ T ).[.5.@ vXvXvXvXvXvXvXvXvXvXvXvXvXvXvXvXvXvXvXvX",
"vXvXvXvXvXvXvXvXvXvXvXvXvXvXvXvXvXvXvXvXvX# g.).].[.F.U =   vXvXvXvXvXvX  . m g.].@X].# vXvXvXvXvXvXvXvXvXvXvXvXvXvXvXvXvXvXvXvX",
"vXvXvXvXvXvXvXvXvXvXvXvXvXvXvXvXvXvXvXvXO h v.].[. X].j.u   vXvXvXvXvXvX@ M `.x.c.{.D.@ vXvXvXvXvXvXvXvXvXvXvXvXvXvXvXvXvXvXvXvX",
"vXvXvXvXvXvXvXvXvXvXvXvXvXvXvXvXvXvXvX  s y.x._.].[._.i.u   vXvXvXvXvX  h f.x.x.a.N.G.; vXvXvXvXvXvXvXvXvXvXvXvXvXvXvXvXvXvXvXvX",
"vXvXvXvXvXvXvXvXvXvXvXvXvXvXvXvXvXvXvX  i y.x._. X]._.N.h   vXvXvXvXvX  h f.x.x.x.x.x.a.8   vXvXvXvXvXvXvXvXvXvXvXvXvXvXvXvXvXvX",
"vXvXvXvXvXvXvXvXvXvXvXvXvXvXvXvXvXvX  s %.w.,.x._.[.].}.d   vXvXvXvXvX  h r.e.x.x.k.x.}.8   vXvXvXvXvXvXvXvXvXvXvXvXvXvXvXvXvXvX",
"vXvXvXvXvXvXvXvXvXvXvXvXvXvXvXvXvXvX+ N #.@.<.i.G.].G.v.a   vXvXvXvXvX  h w.=.u.x.v.x.p.b + vXvXvXvXvXvXvXvXvXvXvXvXvXvXvXvXvXvX",
"vXvXvXvXvXvXvXvXvXvXvXvXvXvXvXvX  = b b h U x.x.F._.k.e.u   vXvXvXvXvX  h t.-.#.u.x.p.-.r.N O vXvXvXvXvXvXvXvXvXvXvXvXvXvXvXvXvX",
"vXvXvXvXvXvXvXvXvXvXvXvXvXvXvX  , =.#.#.:.a.x.k.x.x.x.e.i   vXvXvXvXvX  h r.-.-.-.-.>.u._._.5.  vXvXvXvXvXvXvXvXvXvXvXvXvXvXvXvX",
"vXvXvXvXvXvXvXvXvXvXvXvXvXvX  s @.w.i.x.G._.G.x.k.k.k.e.,   vXvXvXvXvX  h w.-.-.=.>.i.x.c.[. X6.% vXvXvXvXvXvXvXvXvXvXvXvXvXvXvX",
"vXvXvXvXvXvXvXvXvXvXvXvXvXvX  B y.u.x._. X X XG.x.x.x.y.i   vXvXvXvXvX  k r.-.-.=.<.a.x.g.x._.$X&.; vXvXvXvXvXvXvXvXvXvXvXvXvXvX",
"vXvXvXvXvXvXvXvXvXvXvXvXvXvX. N f.v.x.a.c.]._.[.F.x.x.w.,   vXvXvXvXvX  s >.-.-.-.-.-.i.x.x.x._.|.Y   vXvXvXvXvXvXvXvXvXvXvXvXvX",
"vXvXvXvXvXvXvXvXvXvXvXvXvX+ @.=.i.x.x.x.x.x.x._.G.h.x.> . vXvXvXvXvXvXvX. u w.w.>.w.w.w.g.N.c.N.}.T   vXvXvXvXvXvXvXvXvXvXvXvXvX",
"vXvXvXvXvXvXvXvXvXvXvXvX  = r.r.w.g.N.N.N.N.N.'.`.N.u.+ vXvXvXvXvXvXvXvX  . , , , , > > 7 p p p a ;   vXvXvXvXvXvXvXvXvXvXvXvXvX",
"vXvXvXvXvXvXvXvXvXvXvXvX  O v b k b Y Y Y Y Y U Y U j O vXvXvXvXvXvXvXvXvX                            vXvXvXvXvXvXvXvXvXvXvXvXvX",
"vXvXvXvXvXvXvXvXvXvXvXvXvX                            vXvXvXvXvXvXvXvXvXvXvXvXvXvXvXvXvXvXvXvXvXvXvXvXvXvXvXvXvXvXvXvXvXvXvXvXvX"
};
