/* XPM */
static char *result[] = {
/* columns rows colors chars-per-pixel */
"64 64 224 2 ",
"   c #000000",
".  c #01050B",
"X  c #03090C",
"o  c #020B13",
"O  c #010D1A",
"+  c #050B10",
"@  c #0A1A1D",
"#  c #071418",
"$  c #09100E",
"%  c #271510",
"&  c #3F231A",
"*  c #000E20",
"=  c #021324",
"-  c #03162A",
";  c #041B2C",
":  c #081D22",
">  c #031B34",
",  c #021C3A",
"<  c #061B37",
"1  c #0D2328",
"2  c #112729",
"3  c #062334",
"4  c #092939",
"5  c #132B33",
"6  c #133439",
"7  c #2D283B",
"8  c #5C3833",
"9  c #68433B",
"0  c #001E45",
"q  c #042444",
"w  c #062B42",
"e  c #032549",
"r  c #052B4A",
"t  c #0A354C",
"y  c #1A3E41",
"u  c #143C44",
"i  c #042B53",
"p  c #042D5A",
"a  c #002457",
"s  c #06335E",
"d  c #093756",
"f  c #14395C",
"g  c #263554",
"h  c #3B3B5A",
"j  c #27364D",
"k  c #053463",
"l  c #06386B",
"z  c #063C73",
"x  c #053D7A",
"c  c #043575",
"v  c #022C63",
"b  c #722B68",
"n  c #1C4449",
"m  c #1C4E55",
"M  c #144F57",
"N  c #1E5156",
"B  c #275C5D",
"V  c #364344",
"C  c #0B456A",
"Z  c #1B5C64",
"A  c #094473",
"S  c #0B4974",
"D  c #0A4C7E",
"F  c #07447A",
"G  c #105474",
"H  c #10577B",
"J  c #164C72",
"K  c #265A68",
"L  c #2E527A",
"P  c #196672",
"I  c #236B7A",
"U  c #28717B",
"Y  c #327477",
"T  c #266266",
"R  c #7A5249",
"E  c #4D5D6D",
"W  c #426968",
"Q  c #88442B",
"!  c #BA0B58",
"~  c #8B2368",
"^  c #996248",
"/  c #996357",
"(  c #A96447",
")  c #A96F53",
"_  c #AD6B4C",
"`  c #B28368",
"'  c #CA9870",
"]  c #EB996C",
"[  c #DCA87A",
"{  c #F2AC7B",
"}  c #003B8B",
"|  c #044284",
" . c #05468B",
".. c #0A4B8A",
"X. c #084B89",
"o. c #095488",
"O. c #074A94",
"+. c #084D95",
"@. c #054C9A",
"#. c #0A5296",
"$. c #09529A",
"%. c #0B5998",
"&. c #155C95",
"*. c #185C8B",
"=. c #225B81",
"-. c #14658D",
";. c #0E619A",
":. c #166997",
">. c #0C6E94",
",. c #276E89",
"<. c #2A7988",
"1. c #337C8B",
"2. c #307499",
"3. c #0954A3",
"4. c #0B5AA4",
"5. c #0A5BAC",
"6. c #0755A9",
"7. c #095CB2",
"8. c #0D62A4",
"9. c #0D64AA",
"0. c #0F6BAE",
"q. c #106CAD",
"w. c #1769A3",
"e. c #1776AC",
"r. c #0F6CB3",
"t. c #0C66B7",
"y. c #106EB1",
"u. c #1273B4",
"i. c #1174BA",
"p. c #147BBC",
"a. c #1578B6",
"s. c #0E72BA",
"d. c #2279A6",
"f. c #665F8A",
"g. c #4F7592",
"h. c #6D759B",
"j. c #127CC3",
"k. c #1175C0",
"l. c #0F73C6",
"z. c #298596",
"x. c #398B9A",
"c. c #3D909A",
"v. c #3A8280",
"b. c #1884BE",
"n. c #1A85BA",
"m. c #0883B4",
"M. c #2A8BA5",
"N. c #2C94A8",
"B. c #3997AA",
"V. c #2285B5",
"C. c #389BB2",
"Z. c #2F9BBD",
"A. c #3CA7BB",
"S. c #39A7BA",
"D. c #468E99",
"F. c #668C90",
"G. c #5994A9",
"H. c #5596B3",
"J. c #42A6B8",
"K. c #45A3A4",
"L. c #1986C1",
"P. c #1B8BC3",
"I. c #1787CB",
"U. c #198BCB",
"Y. c #1584C6",
"T. c #1E92C6",
"R. c #1E94C9",
"E. c #1F99CB",
"W. c #168BD5",
"Q. c #1C97D6",
"!. c #2396CA",
"~. c #209CD1",
"^. c #29A7CB",
"/. c #3AADC0",
"(. c #31A3C6",
"). c #3DB5CB",
"_. c #3DB4C9",
"`. c #22A2DB",
"'. c #3ABCDA",
"]. c #1B9DE9",
"[. c #22A8E4",
"{. c #3BBEE5",
"}. c #43B0C5",
"|. c #42B5CA",
" X c #40BDD3",
".X c #45AEC3",
"XX c #70AFD2",
"oX c #4DC2CB",
"OX c #43C4D9",
"+X c #48C6D5",
"@X c #55D1D7",
"#X c #53CDD7",
"$X c #43CCE3",
"%X c #46D4EA",
"&X c #58DBE6",
"*X c #4ADAF1",
"=X c #47D7F0",
"-X c #52DFF0",
";X c #74D6E1",
":X c #5CE3EB",
">X c #55E8F8",
",X c #60E3E8",
"<X c #63EDF2",
"1X c #65F1F5",
"2X c #6DFDFF",
"3X c #68F6F8",
"4X c #74FFFF",
"5X c #87868C",
"6X c #C7A489",
"7X c #EAB989",
"8X c #F3B98B",
"9X c #EFC191",
"0X c #FBC897",
"qX c #FEC18D",
"wX c #FFD5A0",
"eX c #8EBDC2",
"rX c #9DCBD2",
"tX c #B8CFD1",
"yX c #89D1E9",
"uX c #B2D2E2",
"iX c #A8FFFF",
"pX c #FFF9D6",
"aX c #D2ECE3",
"sX c None",
/* pixels */
"sXsXsXsXsXsXsXsXsXsXsXsXsXsXsXsXsXsXsXsXsXsXsXsXsXsXsXsXsXsXsXsXsXsXsXsXsXsXsXsXsXsXsXsXsXsXsXsXsXsXsXsXsXsXsXsXsXsXsXsXsXsXsXsX",
"sXsXsXsXsXsXsXsXsXsXsXsXsXsXsXsXsXsXsXsXsXsXsXsXsXsXsXsXsXsXsXsXsXsXsXsXsXsXsXsXsXsXsXsXsXsXsXsXsXsXsXsXsXsXsXsXsXsXsXsXsXsXsXsX",
"sXsXsXsXsXsXsXsXsXsXsXsXsXsXsXsXsXsXsXsXsXsXsXsXsXsXsXsXsXsXsXsXsXsXsXsXsXsXsXsXsXsXsXsXsXsXsXsXsXsXsXsXsXsXsXsXsXsXsXsXsXsXsXsX",
"sXsXsXsXsXsXsXsXsXsXsXsXsXsXsXsXsXsXsXsXsXsXsXsXsXsXsXsXsXsXsXsXsXsXsXsXsXsXsXsXsXsXsXsXsXsXsXsXsXsXsXsXsXsXsXsXsXsXsXsXsXsXsXsX",
"sXsXsXsXsXsXsXsXsXsXsXsXsXsXsXsXsXsXsXsXsXsXsXsXsXsXsXsXsXsXsXsXsXsXsXsXsXsXsXsXsXsXsXsXsXsXsXsXsXsXsXsXsXsXsXsXsXsXsXsXsXsXsXsX",
"sXsXsXsXsXsXsXsXsXsXsXsXsXsXsXsXsXsXsXsXsXsXsXsXsXsXsXsXsXsXsXsXsXsXsXsXsXsXsXsXsXsXsXsXsXsXsXsXsXsXsXsXsXsXsXsXsXsXsXsXsXsXsXsX",
"sXsXsXsXsXsXsXsXsXsXsXsXsXsXsXsXsXsXsXsXsXsXsXsXsXsXsXsXsXsXsXsXsXsXsXsXsXsXsXsXsXsXsXsXsXsXsXsXsXsXsXsXsXsXsXsXsXsXsXsXsXsXsXsX",
"sXsXsXsXsXsXsXsXsXsXsXsXsXsXsXsXsXsXsXsXsXsXsXsXsXsXsXsXsXsXsXsXsXsXsXsXsXsXsXsXsXsXsXsXsXsXsXsXsXsXsXsXsXsXsXsXsXsXsXsXsXsXsXsX",
"sXsXsXsXsXsXsXsXsXsXsXsXsXsXsXsXsXsXsXsXsXsXsXsXsXsXsXsXsXsXsXsXsXsXsXsXsXsXsXsXsXsXsXsXsXsXsXsXsXsXsXsXsXsXsXsXsXsXsXsXsXsXsXsX",
"sXsXsXsXsXsXsXsXsXsXsXsXsXsXsXsXsXsXsXsXsXsXsXsXsXsXsXsXsXsXsXsXsXsXsXsXsXsXsXsXsXsXsXsXsXsXsXsXsXsXsXsXsXsXsXsXsXsXsXsXsXsXsXsX",
"sXsXsXsXsXsXsXsXsXsXsXsXsXsXsXsXsXsXsXsXsXsXsXsXsXsXsXsXsXsXsXsXsXsXsXsXsXsXsXsXsXsXsXsXsXsXsXsXsXsXsXsXsXsXsXsXsXsXsXsXsXsXsXsX",
"sXsXsXsXsXsXsXsXsXsXsXsXsXsXsXsXsXsXsXsXsXsXsXsXsXsXsXsXsXsXsXsXsXsXsXsXsXsXsXsXsXsXsXsXsXsXsXsXsXsXsXsXsXsXsXsXsXsXsXsXsXsXsXsX",
"sXsXsXsXsXsXsXsXsXsXsXsXsXsXsXsXsXsXsXsXsXsXsXsXsXsXsXsXsXsXsXsXsXsXsX          sXsXsXsXsXsXsXsXsXsXsXsXsXsXsXsXsXsXsXsXsXsXsXsX",
"sXsXsXsXsXsXsXsXsXsXsXsXsXsXsXsXsXsXsXsXsXsXsXsXsXsXsXsXsXsXsXsXsXsXX y m T Y B   sXsXsXsXsXsXsXsXsXsXsXsXsXsXsXsXsXsXsXsXsXsXsX",
"sXsXsXsXsXsXsXsXsXsXsXsXsXsXsXsXsXsXsXsXsXsXsXsXsXsXsXsXsXsXsXsX# @ u A.'.-X2X<Xn 2 @ sXsXsXsXsXsXsXsXsXsXsXsXsXsXsXsXsXsXsXsXsX",
"sXsXsXsXsXsXsXsXsXsXsXsXsXsXsXsXsXsXsXsXsXsXsXsXsXsXsXsXsXsXsX  Y V.y.!.!.M.C.OX&X3XD.  sXsXsXsXsXsXsXsXsXsXsXsXsXsXsXsXsXsXsXsX",
"sXsXsXsXsXsXsXsXsXsXsXsXsXsXsXsXsXsXsXsXsXsXsXsXsXsXsXsXsXsX$ j e.U.R.T.^.uXtXN.$X2X1XK.# sXsXsXsXsXsXsXsXsXsXsXsXsXsXsXsXsXsXsX",
"sXsXsXsXsXsXsXsXsXsXsXsXsXsXsXsXsXsXsXsXsXsXsXsXsXsXsXsXsX  @ w.0.p.P.R.^.yXuXG.z.K.,X#X@ sXsXsXsXsXsXsXsXsXsXsXsXsXsXsXsXsXsXsX",
"sXsXsXsXsXsXsXsXsXsXsXsXsXsXsXsXsXsXsXsXsXsXsXsXsXsXsXsXsXX r i.u.y.a.P.L.m.!.XXL ,.C.,.X sXsXsXsXsXsXsXsXsXsXsXsXsXsXsXsXsXsXsX",
"sXsXsXsXsXsXsXsXsXsXsXsXsXsXsXsXsXsXsXsXsXsXsXsXsXsXsXsX  i 3.+.y.u.y.u.y.Y.T.T.!.!.U.;..     sXsXsXsXsXsXsXsXsXsXsXsXsXsXsXsXsX",
"sXsXsXsXsXsXsXsXsXsXsXsXsXsXsXsXsXsXsXsXsXsXsXsXsXsXsXsX  s 6.}  .$.8.u.i.j.L.p.b.*.2.&XeXV   sXsXsXsXsXsXsXsXsXsXsXsXsXsXsXsXsX",
"sXsXsXsXsXsXsXsXsXsXsXsXsXsXsXsXsXsXsXsXsXsXsXsXsXsXsXsX  < w.(.V.%.@.9...} | %.4.=.c.3XiXW   sXsXsXsXsXsXsXsXsXsXsXsXsXsXsXsXsX",
"sXsXsXsXsXsXsXsXsXsXsXsXsXsXsXsXsXsXsXsXsXsXsXsXsXsXsXsX  5 D.;X&XV.} | f m f q x w.C.).*Xm   sXsXsXsXsXsXsXsXsXsXsXsXsXsXsXsXsX",
"sXsXsXsXsXsXsXsXsXsXsXsXsXsXsXsXsXsXsXsXsXsXsXsXsXsXsXsX  Z g.~ ;X^.c s E eXF.  e | :.B.8.,   sXsXsXsXsXsXsXsXsXsXsXsXsXsXsXsXsX",
"sXsXsXsXsXsXsXsXsXsXsXsXsXsXsXsXsXsXsXsXsXsXsXsXsXsXsXsX  P h.! XXm.j R 5XrXG.- R f } &.> . sXsXsXsXsXsXsXsXsXsXsXsXsXsXsXsXsXsX",
"sXsXsXsXsXsXsXsXsXsXsXsXsXsXsXsXsXsXsXsXsXsXsXsXsXsXsXsX  M f.! G.>.7 ( 6XaXXXc ( ( h 0   sXsXsXsXsXsXsXsXsXsXsXsXsXsXsXsXsXsXsX",
"sXsXsXsXsXsXsXsXsXsXsXsXsXsXsXsXsXsXsXsXsXsXsXsXsXsXsXsX  1 h b 1.D g ( 7XpXtXg.` { ^   sXsXsXsXsXsXsXsXsXsXsXsXsXsXsXsXsXsXsXsX",
"sXsXsXsXsXsXsXsXsXsXsXsXsXsXsXsXsXsXsXsXsXsXsXsXsXsXsXsXsX  : K B  .L ( 7X0X8X8X7XwX`   sXsXsXsXsXsXsXsXsXsXsXsXsXsXsXsXsXsXsXsX",
"sXsXsXsXsXsXsXsXsXsXsXsXsXsXsXsXsXsXsXsXsXsXsXsXsXsXsXsX      . F 7...h ) 8X7X_ 8X0X^   sXsXsXsXsXsXsXsXsXsXsXsXsXsXsXsXsXsXsXsX",
"sXsXsXsXsXsXsXsXsXsXsXsXsXsXsXsXsXsXsXsXsXsXsXsXsXsXsX  B v.U M 0 0 a  ./ ] 8X' 8X) & sXsXsXsXsXsXsXsXsXsXsXsXsXsXsXsXsXsXsXsXsX",
"sXsXsXsXsXsXsXsXsXsXsXsXsXsXsXsXsXsXsXsXsXsXsXsXsXsXsX6 ,X4X3X$X6 @ 3 z 8 Q ) ' ) % sXsXsXsXsXsXsXsXsXsXsXsXsXsXsXsXsXsXsXsXsXsX",
"sXsXsXsXsXsXsXsXsXsXsXsXsXsXsXsXsXsXsXsXsXsXsXsXsX  y 3X3X@X).'.OX}.K             sXsXsXsXsXsX    sXsXsXsXsXsXsXsXsXsXsXsXsXsXsX",
"sXsXsXsXsXsXsXsXsXsXsXsXsXsXsXsXsXsXsXsXsXsXsXsX  n +X2X@X=XN.1 oX3XoXz.M.<.I K   sXsXsXsXsX3 %.        sXsXsXsXsXsXsXsXsXsXsXsX",
"sXsXsXsXsXsXsXsXsXsXsXsXsXsXsXsXsXsXsXsXsXsXsX  n e.{.:X*Xz.5 6 @X4X1X:X=X|..X_.,.@ sXsXsXw C C i J G t . sXsXsXsXsXsXsXsXsXsXsX",
"sXsXsXsXsXsXsXsXsXsXsXsXsXsXsXsXsXsXsXsXsXsXsX3 b.W.e.N.C.6 5 }.,X1X1X1X+X1.<. X*XU : sX  %.H   x a.U.y.o sXsXsXsXsXsXsXsXsXsXsX",
"sXsXsXsXsXsXsXsXsXsXsXsXsXsXsXsXsXsXsXsXsX  ; u.T.~.e.p   n A.OX:X1X1X,XJ.2 @ B.).%X1.    l l   i i o.q.o sXsXsXsXsXsXsXsXsXsXsX",
"sXsXsXsXsXsXsXsXsXsXsXsXsXsXsXsXsXsXsXsXsX  ; j.i.T.n.c     B =XOX&X<X+X}.1 : J.C.+X!.v   o r ;.n.n.u.| X sXsXsXsXsXsXsXsXsXsXsX",
"sXsXsXsXsXsXsXsXsXsXsXsXsXsXsXsXsXsXsXsXsX  - 8.s.p.b.y.G C r Z S.-X#XC.K $ $ N x.C.a.w.A X ; s.-.-.q.4.o sXsXsXsXsXsXsXsXsXsXsX",
"sXsXsXsXsXsXsXsXsXsXsXsXsXsXsXsXsXsXsXsXsX  = +.8.y.p.E.`.].D   M.'.Z.,.  sXsX  K &.@.y.I.3 = 3.z a F H X sXsXsXsXsXsXsXsXsXsXsX",
"sXsXsXsXsXsXsXsXsXsXsXsXsXsXsXsXsXsXsXsXsX  = $.O.q.R.T.T.Y.S . o.j.r. .O sXsXsX  p 3.$.i.3 ; p.u.t.p   sXsXsXsXsXsXsXsXsXsXsXsX",
"sXsXsXsXsXsXsXsXsXsXsXsXsXsXsXsXsXsXsXsXsX  - 3.9.p.!.T.I.d 4 w.; S Q.8..     sXsXo e 7.t.> o | F i.D   sXsXsXsXsXsXsXsXsXsXsXsX",
"sXsXsXsXsXsXsXsXsXsXsXsXsXsXsXsXsXsXsXsXsXsXo e 8.R.T.b.l.O : Q.  M W.$.I <.u sXsXsX. e e o   - * r 4 sXsXsXsXsXsXsXsXsXsXsXsXsX",
"sXsXsXsXsXsXsXsXsXsXsXsXsXsXsXsXsXsXsXsXsXsXsX  X.U.L.9.F , e D > F r.:.).-XS.4 sXsXsX              sXsXsXsXsXsXsXsXsXsXsXsXsXsX",
"sXsXsXsXsXsXsXsXsXsXsXsXsXsXsXsXsXsXsXsXsXsXsX  c 0.r.... i z   x @.&.x.x.S.OX_.1 sXsXsXsXsXsXsXsXsXsXsXsXsXsXsXsXsXsXsXsXsXsXsX",
"sXsXsXsXsXsXsXsXsXsXsXsXsXsXsXsXsXsXsXsXsXsXsXsXo l t.@.    O   O O # 1 x.C.A.OX/.5   sXsXsXsXsXsXsXsXsXsXsXsXsXsXsXsXsXsXsXsXsX",
"sXsXsXsXsXsXsXsXsXsXsXsXsXsXsXsXsXsXsXsXsXsXsXsX  . , e I 6   sXsXsXsXsX6 1.J.A.%XS.m   sXsXsXsXsXsXsXsXsXsXsXsXsXsXsXsXsXsXsXsX",
"sXsXsXsXsXsXsXsXsXsXsXsXsXsXsXsXsXsXsXsXsXsXsX- > 3 #   OXI   sXsXsXsXsX  6 1.D._.A.I 4 sXsXsXsXsXsXsXsXsXsXsXsXsXsXsXsXsXsXsXsX",
"sXsXsXsXsXsXsXsXsXsXsXsXsXsXsXsXsXsXsXsXsX  - 3.s.Q.-.. C.Z   sXsXsXsXsXsX  5 B.B.1 w T.: sXsXsXsXsXsXsXsXsXsXsXsXsXsXsXsXsXsXsX",
"sXsXsXsXsXsXsXsXsXsXsXsXsXsXsXsXsXsXsXsX  , #.r.L.`.:.  @ $ sXsXsXsXsXsXsXsXsX@ $ d u.E.n.4   sXsXsXsXsXsXsXsXsXsXsXsXsXsXsXsXsX",
"sXsXsXsXsXsXsXsXsXsXsXsXsXsXsXsXsXsXsX  ,  .i.b.T.`.:.    sXsXsXsXsXsXsXsXsXsX  w 8.U.E.[.t   sXsXsXsXsXsXsXsXsXsXsXsXsXsXsXsXsX",
"sXsXsXsXsXsXsXsXsXsXsXsXsXsXsXsXsXsXsX> +.k.b.T.T.Q.-.    sXsXsXsXsXsXsXsXsXo , r.j.u.P.`.t   sXsXsXsXsXsXsXsXsXsXsXsXsXsXsXsXsX",
"sXsXsXsXsXsXsXsXsXsXsXsXsXsXsXsXsX  - $.r.b.E.T.T.U.D   sXsXsXsXsXsXsXsXsX  ; 6.r.u.u.u.E.t   sXsXsXsXsXsXsXsXsXsXsXsXsXsXsXsXsX",
"sXsXsXsXsXsXsXsXsXsXsXsXsXsXsXsX  , O.+.9.b.E.P.E.W.o.  sXsXsXsXsXsXsXsXsX  = 3.y.u.u.u.Y.w   sXsXsXsXsXsXsXsXsXsXsXsXsXsXsXsXsX",
"sXsXsXsXsXsXsXsXsXsXsXsXsXsXsX  e  .5.8.0.b.!.!.b.q.s   sXsXsXsXsXsXsXsX  > z $.u.u.u.u.j.3   sXsXsXsXsXsXsXsXsXsXsXsXsXsXsXsXsX",
"sXsXsXsXsXsXsXsXsXsXsXsXsXsXsXO F  .X.u.y.p.P.b.j.A *   sXsXsXsXsXsXsXsX  k 7.+.8.y.u.u.r.s O sXsXsXsXsXsXsXsXsXsXsXsXsXsXsXsXsX",
"sXsXsXsXsXsXsXsXsXsXsXsXsX  = l k i A u.u.u.y.y.p.t   sXsXsXsXsXsXsXsXsX  p 3.+.O.8.u.0.#.5.z X sXsXsXsXsXsXsXsXsXsXsXsXsXsXsXsX",
"sXsXsXsXsXsXsXsXsXsXsXsX  < O...| #.q.y.u.u.u.u...-   sXsXsXsXsXsXsXsXsX  p 3.+.+.+.$.#.9.b.R.:.  sXsXsXsXsXsXsXsXsXsXsXsXsXsXsX",
"sXsXsXsXsXsXsXsXsXsXsX  e | 3.9.u.L.P.b.u.y.y.$.< . sXsXsXsXsXsXsXsXsXsX  p 4.+.+.O.$.9.u.a.R.E.-.@ sXsXsXsXsXsXsXsXsXsXsXsXsXsX",
"sXsXsXsXsXsXsXsXsXsXsX  x 7.4.u.P.T.E.!.b.a.y.#.O sXsXsXsXsXsXsXsXsXsXsX  s 5.+.+.+.%.0.u.0.u.P.[.H = sXsXsXsXsXsXsXsXsXsXsXsXsX",
"sXsXsXsXsXsXsXsXsXsXsXX z 0.p.u.q.p.T.P.T.p.u.u.: sXsXsXsXsXsXsXsXsXsXsX  i @.$.+.@.O.+.0.u.u.u.P.Q.S   sXsXsXsXsXsXsXsXsXsXsXsX",
"sXsXsXsXsXsXsXsXsXsXO | O.8.u.u.u.u.u.u.P.L.u.u.= sXsXsXsXsXsXsXsXsXsXsXsX. q 3.3.3.$.3.3.s.j.k.j.W.D   sXsXsXsXsXsXsXsXsXsXsXsX",
"sXsXsXsXsXsXsXsXsXsX= 6.5.6.r.j.j.j.j.j.I.I.j.5.=   sXsXsXsXsXsXsXsXsXsXsX  . , , < , < > 4 w w q r ;   sXsXsXsXsXsXsXsXsXsXsXsX",
"sXsXsXsXsXsXsXsXsXsXo k l p k S S S S S A S A p o sXsXsXsXsXsXsXsXsXsXsXsXsX                            sXsXsXsXsXsXsXsXsXsXsXsX",
"sXsXsXsXsXsXsXsXsXsX                            sXsXsXsXsXsXsXsXsXsXsXsXsXsXsXsXsXsXsXsXsXsXsXsXsXsXsXsXsXsXsXsXsXsXsXsXsXsXsXsX"
};
