/* XPM */
static char *result[] = {
/* columns rows colors chars-per-pixel */
"64 64 225 2 ",
"   c #000000",
".  c #00050A",
"X  c #020A0D",
"o  c #0B130F",
"O  c #020B13",
"+  c #010E1B",
"@  c #010611",
"#  c #04121B",
"$  c #0B1C1B",
"%  c #071316",
"&  c #120C0C",
"*  c #0C201E",
"=  c #010C27",
"-  c #021324",
";  c #061D26",
":  c #02142A",
">  c #051C2B",
",  c #0D1F22",
"<  c #031B33",
"1  c #021C3B",
"2  c #00173D",
"3  c #131E20",
"4  c #0D282E",
"5  c #0C2328",
"6  c #12292A",
"7  c #062538",
"8  c #122B36",
"9  c #163639",
"0  c #291711",
"q  c #560436",
"w  c #6E053D",
"e  c #693822",
"r  c #70433C",
"t  c #664B38",
"y  c #062A42",
"u  c #062746",
"i  c #09324A",
"p  c #042B54",
"a  c #042E5B",
"s  c #00275B",
"d  c #08395C",
"f  c #083656",
"g  c #153D43",
"h  c #27324D",
"j  c #012F67",
"k  c #053363",
"l  c #04376C",
"z  c #073B66",
"x  c #153A6D",
"c  c #043A73",
"v  c #053975",
"b  c #493E49",
"n  c #1A4449",
"m  c #0E4259",
"M  c #1A4E59",
"N  c #1C545C",
"B  c #295859",
"V  c #0B4468",
"C  c #1D4764",
"Z  c #1D5768",
"A  c #094373",
"S  c #0B4973",
"D  c #0A477B",
"F  c #174C79",
"G  c #0E527A",
"H  c #175676",
"J  c #244E70",
"K  c #1E6376",
"L  c #256974",
"P  c #367277",
"I  c #306A71",
"U  c #5B484F",
"Y  c #775854",
"T  c #74615F",
"R  c #535579",
"E  c #625A73",
"W  c #75717D",
"Q  c #9F002F",
"!  c #8B4E39",
"~  c #A25637",
"^  c #BF653B",
"/  c #9E0341",
"(  c #855540",
")  c #8B6659",
"_  c #BA7052",
"`  c #B06445",
"'  c #AE7E61",
"]  c #BB805C",
"[  c #B98D68",
"{  c #DE935F",
"}  c #D28C66",
"|  c #E99869",
" . c #DDA078",
".. c #FDAA74",
"X. c #EAA87E",
"o. c #074485",
"O. c #05458C",
"+. c #08498A",
"@. c #0D5383",
"#. c #0B528A",
"$. c #0E5A8C",
"%. c #074A93",
"&. c #084D95",
"*. c #084F9A",
"=. c #034898",
"-. c #095196",
";. c #09539B",
":. c #065A99",
">. c #165C96",
",. c #125D84",
"<. c #215F93",
"1. c #0F639C",
"2. c #166897",
"3. c #17729B",
"4. c #297786",
"5. c #337786",
"6. c #307696",
"7. c #0954A3",
"8. c #0B5CA2",
"9. c #0A5BAB",
"0. c #075AA3",
"q. c #095EB4",
"w. c #0D62A6",
"e. c #0D64AC",
"r. c #0F69AC",
"t. c #116CAC",
"y. c #1369A5",
"u. c #1777AB",
"i. c #0D66B3",
"p. c #0E6BB4",
"a. c #0E6AB8",
"s. c #106EB2",
"d. c #0D74B8",
"f. c #1273B4",
"g. c #1379B5",
"h. c #1274BC",
"j. c #157BB9",
"k. c #187EB6",
"l. c #0D7AAE",
"z. c #227BB8",
"x. c #137CC4",
"c. c #1174C3",
"v. c #127DD0",
"b. c #8E7D87",
"n. c #9572A6",
"m. c #2B8597",
"M. c #398C9B",
"N. c #348397",
"B. c #368081",
"V. c #1884BE",
"C. c #1885BB",
"Z. c #108EB5",
"A. c #2B88A2",
"S. c #3C95A4",
"D. c #3796A9",
"F. c #2886B8",
"G. c #2E9CBD",
"H. c #3094AD",
"J. c #3CA3B5",
"K. c #3AA7BB",
"L. c #3BA0AE",
"P. c #5E819F",
"I. c #4683B9",
"U. c #44AEBE",
"Y. c #43A6B5",
"T. c #4EA4A7",
"R. c #1986C1",
"E. c #1B8BC3",
"W. c #1585CD",
"Q. c #1889CB",
"!. c #1D91C6",
"~. c #1E95C9",
"^. c #1893C8",
"/. c #1689D4",
"(. c #1B93D4",
"). c #1B98D9",
"_. c #269ACC",
"`. c #3397CA",
"'. c #209CD3",
"]. c #3093CC",
"[. c #2DA5CD",
"{. c #38A8C7",
"}. c #3EB9CD",
"|. c #3BB2C7",
" X c #22A1DB",
".X c #36B4D6",
"XX c #1C9AE1",
"oX c #22A9E7",
"OX c #45B8C9",
"+X c #46AED0",
"@X c #6CBCE5",
"#X c #75B2C7",
"$X c #4CCDDB",
"%X c #45C6D7",
"&X c #51CBD4",
"*X c #44CEE5",
"=X c #4AD8EC",
"-X c #52D7E7",
";X c #4BDFF6",
":X c #7BD5EB",
">X c #5BE4EB",
",X c #5DE6F1",
"<X c #58E5F3",
"1X c #4DE1F7",
"2X c #62E6E8",
"3X c #63EDF2",
"4X c #67F1F5",
"5X c #6AF4F5",
"6X c #6CF6FA",
"7X c #67F8FC",
"8X c #72FFFF",
"9X c #AAA79C",
"0X c #8B97BC",
"qX c #F9BA8B",
"wX c #C3A6A1",
"eX c #EFC091",
"rX c #F5C694",
"tX c #FFD39E",
"yX c #FFEBBB",
"uX c #8AB0D5",
"iX c #8FC8E0",
"pX c #ACCBEA",
"aX c #8FF8F9",
"sX c #FFFDFC",
"dX c None",
/* pixels */
"dXdXdXdXdXdXdXdXdXdXdXdXdXdXdXdXdXdXdXdXdXdXdXdXdXdXdXdXdXdXdXdXdXdXdXdXdXdXdXdXdXdXdXdXdXdXdXdXdXdXdXdXdXdXdXdXdXdXdXdXdXdXdXdX",
"dXdXdXdXdXdXdXdXdXdXdXdXdXdXdXdXdXdXdXdXdXdXdXdXdXdXdXdXdXdXdXdXdXdXdXdXdXdXdXdXdXdXdXdXdXdXdXdXdXdXdXdXdXdXdXdXdXdXdXdXdXdXdXdX",
"dXdXdXdXdXdXdXdXdXdXdXdXdXdXdXdXdXdXdXdXdXdXdXdXdXdXdXdXdXdXdXdXdXdXdXdXdXdXdXdXdXdXdXdXdXdXdXdXdXdXdXdXdXdXdXdXdXdXdXdXdXdXdXdX",
"dXdXdXdXdXdXdXdXdXdXdXdXdXdXdXdXdXdXdXdXdXdXdXdXdXdXdXdXdXdXdXdXdXdXdXdXdXdXdXdXdXdXdXdXdXdXdXdXdXdXdXdXdXdXdXdXdXdXdXdXdXdXdXdX",
"dXdXdXdXdXdXdXdXdXdXdXdXdXdXdXdXdXdXdXdXdXdXdXdXdXdXdXdXdXdXdXdXdXdXdXdXdXdXdXdXdXdXdXdXdXdXdXdXdXdXdXdXdXdXdXdXdXdXdXdXdXdXdXdX",
"dXdXdXdXdXdXdXdXdXdXdXdXdXdXdXdXdXdXdXdXdXdXdXdXdXdXdXdXdXdXdXdXdXdXdXdXdXdXdXdXdXdXdXdXdXdXdXdXdXdXdXdXdXdXdXdXdXdXdXdXdXdXdXdX",
"dXdXdXdXdXdXdXdXdXdXdXdXdXdXdXdXdXdXdXdXdXdXdXdXdXdXdXdXdXdXdXdXdXdXdXdXdXdXdXdXdXdXdXdXdXdXdXdXdXdXdXdXdXdXdXdXdXdXdXdXdXdXdXdX",
"dXdXdXdXdXdXdXdXdXdXdXdXdXdXdXdXdXdXdXdXdXdXdXdXdXdXdXdXdXdXdXdXdXdXdXdXdXdXdXdXdXdXdXdXdXdXdXdXdXdXdXdXdXdXdXdXdXdXdXdXdXdXdXdX",
"dXdXdXdXdXdXdXdXdXdXdXdXdXdXdXdXdXdXdXdXdXdXdXdXdXdXdXdXdXdXdXdXdXdXdXdXdXdXdXdXdXdXdXdXdXdXdXdXdXdXdXdXdXdXdXdXdXdXdXdXdXdXdXdX",
"dXdXdXdXdXdXdXdXdXdXdXdXdXdXdXdXdXdXdXdXdXdXdXdXdXdXdXdXdXdXdXdXdXdXdXdXdXdXdXdXdXdXdXdXdXdXdXdXdXdXdXdXdXdXdXdXdXdXdXdXdXdXdXdX",
"dXdXdXdXdXdXdXdXdXdXdXdXdXdXdXdXdXdXdXdXdXdXdXdXdXdXdXdXdXdXdXdXdXdXdXdXdXdXdXdXdXdXdXdXdXdXdXdXdXdXdXdXdXdXdXdXdXdXdXdXdXdXdXdX",
"dXdXdXdXdXdXdXdXdXdXdXdXdXdXdXdXdXdXdXdXdXdXdXdXdXdXdXdXdXdXdXdXdXdXdXdXdXdXdXdXdXdXdXdXdXdXdXdXdXdXdXdXdXdXdXdXdXdXdXdXdXdXdXdX",
"dXdXdXdXdXdXdXdXdXdXdXdXdXdXdXdXdXdXdXdXdXdXdXdXdXdXdXdXdXdXdXdXdXdXdX        dXdXdXdXdXdXdXdXdXdXdXdXdXdXdXdXdXdXdXdXdXdXdXdXdX",
"dXdXdXdXdXdXdXdXdXdXdXdXdXdXdXdXdXdXdXdXdXdXdXdXdXdXdXdXdXdXdXdXdXdX3 M B I P n dXdXdXdXdXdXdXdXdXdXdXdXdXdXdXdXdXdXdXdXdXdXdXdX",
"dXdXdXdXdXdXdXdXdXdXdXdXdXdXdXdXdXdXdXdXdXdXdXdXdXdXdXdXdXdXdXdX3 O C {..X,X8X&X6 6 o dXdXdXdXdXdXdXdXdXdXdXdXdXdXdXdXdXdXdXdXdX",
"dXdXdXdXdXdXdXdXdXdXdXdXdXdXdXdXdXdXdXdXdXdXdXdXdXdXdXdXdXdXdX6 M.>.O.&.-.N.K.$X2X4XB   dXdXdXdXdXdXdXdXdXdXdXdXdXdXdXdXdXdXdXdX",
"dXdXdXdXdXdXdXdXdXdXdXdXdXdXdXdXdXdXdXdXdXdXdXdXdXdXdXdXdX  3 C 1.e.f.g.f.C.F.U.-X8X2X5.  dXdXdXdXdXdXdXdXdXdXdXdXdXdXdXdXdXdXdX",
"dXdXdXdXdXdXdXdXdXdXdXdXdXdXdXdXdXdXdXdXdXdXdXdXdXdXdXdXdX  y <.7.g.E._.+X`.6.5.J.OX2XT.  dXdXdXdXdXdXdXdXdXdXdXdXdXdXdXdXdXdXdX",
"dXdXdXdXdXdXdXdXdXdXdXdXdXdXdXdXdXdXdXdXdXdXdXdXdXdXdXdXdXO a 9.g.E.^.`.uXpXP.H D.m.A.Z   dXdXdXdXdXdXdXdXdXdXdXdXdXdXdXdXdXdXdX",
"dXdXdXdXdXdXdXdXdXdXdXdXdXdXdXdXdXdXdXdXdXdXdXdXdXdXdXdX  v *.;.f.E.R.].uXsXiXZ.!.g.9.k     dXdXdXdXdXdXdXdXdXdXdXdXdXdXdXdXdXdX",
"dXdXdXdXdXdXdXdXdXdXdXdXdXdXdXdXdXdXdXdXdXdXdXdXdXdXdXdX  v =.&.g.E.'.'.`.pX:Xg.<.OX:X#XL O dXdXdXdXdXdXdXdXdXdXdXdXdXdXdXdXdXdX",
"dXdXdXdXdXdXdXdXdXdXdXdXdXdXdXdXdXdXdXdXdXdXdXdXdXdXdXdX  m._.y.w.R.l.:.:.<.h.u.I &XaXaX5.% dXdXdXdXdXdXdXdXdXdXdXdXdXdXdXdXdXdX",
"dXdXdXdXdXdXdXdXdXdXdXdXdXdXdXdXdXdXdXdXdXdXdXdXdXdXdXdX  T.4X{.O.7.V h h h D u.H.K.&XU.C X dXdXdXdXdXdXdXdXdXdXdXdXdXdXdXdXdXdX",
"dXdXdXdXdXdXdXdXdXdXdXdXdXdXdXdXdXdXdXdXdXdXdXdXdXdXdXdX  w #X;X&.j b ` } } U v h.D.5.J %.+ dXdXdXdXdXdXdXdXdXdXdXdXdXdXdXdXdXdX",
"dXdXdXdXdXdXdXdXdXdXdXdXdXdXdXdXdXdXdXdXdXdXdXdXdXdXdXdX  Q n..Xz U T T ~ ^ ~ b c *.0.v - dXdXdXdXdXdXdXdXdXdXdXdXdXdXdXdXdXdXdX",
"dXdXdXdXdXdXdXdXdXdXdXdXdXdXdXdXdXdXdXdXdXdXdXdXdXdXdXdX  / n.H.p ! ' 9XwXR Y ` U E J 2 dXdXdXdXdXdXdXdXdXdXdXdXdXdXdXdXdXdXdXdX",
"dXdXdXdXdXdXdXdXdXdXdXdXdXdXdXdXdXdXdXdXdXdXdXdXdXdXdXdX  q R 4.p e | yXsXF.W | { ..e   dXdXdXdXdXdXdXdXdXdXdXdXdXdXdXdXdXdXdXdX",
"dXdXdXdXdXdXdXdXdXdXdXdXdXdXdXdXdXdXdXdXdXdXdXdXdXdXdXdXdX  9 F a r } tXeXeXqXqXeXtXY   dXdXdXdXdXdXdXdXdXdXdXdXdXdXdXdXdXdXdXdX",
"dXdXdXdXdXdXdXdXdXdXdXdXdXdXdXdXdXdXdXdXdXdXdXdXdXdXdXdXdXdX  - 7.x ) ..rX_ _  .tXqXe   dXdXdX      dXdXdXdXdXdXdXdXdXdXdXdXdXdX",
"dXdXdXdXdXdXdXdXdXdXdXdXdXdXdXdXdXdXdXdXdXdXdXdXdXdXdXdXdXdX5 M 2 = h b. ._ } qXX.( 0 dXdXdX> z u d # dXdXdXdXdXdXdXdXdXdXdXdXdX",
"dXdXdXdXdXdXdXdXdXdXdXdXdXdXdXdXdXdXdXdXdXdXdXdXdXdXdXdX4 9 D.%X, $ s x e ~ [ [ !   dXdXdX; #.c.i.W.z O dXdXdXdXdXdXdXdXdXdXdXdX",
"dXdXdXdXdXdXdXdXdXdXdXdXdXdXdXdXdXdXdXdX              4 }.,X5X>X}.J.B &           dXdXdX  C.s.8.!.j.e.k   dXdXdXdXdXdXdXdXdXdXdX",
"dXdXdXdXdXdXdXdXdXdXdXdXdXdXdXdXdXdXdX    3.d   1.  B >X<X7X,X=X,X2XOXm.m.m.4.4.m.X       u.(.C.j.-.g.g.j . dXdXdXdXdXdXdXdXdXdX",
"dXdXdXdXdXdXdXdXdXdXdXdXdXdXdXdXdXdX5 H d m C V V f N T.6X7XM.L 5X7X,X<X<X=X+X}.*X4.$ O G y 2./.e.s.u.c.p.# dXdXdXdXdXdXdXdXdXdX",
"dXdXdXdXdXdXdXdXdXdXdXdXdXdXdXdXdX- G ).W.7 f @.  y.p o ,X}.; o 4X4X3X6X5X%Xm.4.OX1XH 7 u.5 f #.l V.s.;.@.O dXdXdXdXdXdXdXdXdXdX",
"dXdXdXdXdXdXdXdXdXdXdXdXdXdXdXdX  $.p.;.!.W.d     1.f 5 }.4   9 3X7X3X3X2XU.4 o M.%XE.s   y.f   . v c.G   dXdXdXdXdXdXdXdXdXdXdX",
"dXdXdXdXdXdXdXdXdXdXdXdXdXdXdXdX  c h.C.k.i.1   o.9.p . $ . 9 T.$X,X6X3X%Xg dXdX5 S.F.=.@.7   - $.< > + dXdXdXdXdXdXdXdXdXdXdXdX",
"dXdXdXdXdXdXdXdXdXdXdXdXdXdXdXdX  D W.V.;.f.@.2 p ;.p . 2   y H.J.&X>X-XL.% dXdXdX9 F q.r.d m #.a.O   dXdXdXdXdXdXdXdXdXdXdXdXdX",
"dXdXdXdXdXdXdXdXdXdXdXdXdXdXdXdX  V r.e.8.C.W.+.  a 7 . l : s e.m.G.[.G.6.$ dXdXdX  2 +.=.h.v.e.j @ dXdXdXdXdXdXdXdXdXdXdXdXdXdX",
"dXdXdXdXdXdXdXdXdXdXdXdXdXdXdXdXdX  1 e.!.;.e.$.    dXdX  c p.f.p.f.f.i.O.- dXdXdXdX  : &.&.7.k   dXdXdXdXdXdXdXdXdXdXdXdXdXdXdX",
"dXdXdXdXdXdXdXdXdXdXdXdXdXdXdXdXdXdX. 1 e.v.D #   dXdXdX  Y.`.=.g.R.!.Q.t.@     dXdXdXdX# - + O dXdXdXdXdXdXdXdXdXdXdXdXdXdXdXdX",
"dXdXdXdXdXdXdXdXdXdXdXdXdXdXdXdXdXdXdX  1 d ; dXdXdXdX% K 2X$Xu.8.j.E.j.8.,.4.n   dXdXdXdXdXdXdXdXdXdXdXdXdXdXdXdXdXdXdXdXdXdXdX",
"dXdXdXdXdXdXdXdXdXdXdXdXdXdXdXdXdXdXdXdX    dXdXdXdX  4 -X7X>XG.=.0.p.w.2.|.1X{.8 dXdXdXdXdXdXdXdXdXdXdXdXdXdXdXdXdXdXdXdXdXdXdX",
"dXdXdXdXdXdXdXdXdXdXdXdXdXdXdXdXdXdXdXdXdXdXdXdXdXdX. 9 3X7X-XK.%.O.O.>.M.M.J.%X}.4 dXdXdXdXdXdXdXdXdXdXdXdXdXdXdXdXdXdXdXdXdXdX",
"dXdXdXdXdXdXdXdXdXdXdXdXdXdXdXdXdXdXdXdXdXdXdXdXdX  M -X4X*X=XL.# + + # , N.J.J.%X|.9   dXdXdXdXdXdXdXdXdXdXdXdXdXdXdXdXdXdXdXdX",
"dXdXdXdXdXdXdXdXdXdXdXdXdXdXdXdXdXdXdXdXdXdXdXdX    * 4.<X*Xm.g dXdXdXdXdX8 5.Y.K.*X|.Z   dXdXdXdXdXdXdXdXdXdXdXdXdXdXdXdXdXdXdX",
"dXdXdXdXdXdXdXdXdXdXdXdXdXdXdXdXdXdXdXdXdXdXdXdX- < 7 4 m.*XZ   dXdXdXdXdX  8 5.S.OX|.L 7 dXdXdXdXdXdXdXdXdXdXdXdXdXdXdXdXdXdXdX",
"dXdXdXdXdXdXdXdXdXdXdXdXdXdXdXdXdXdXdXdXdXdX  - ;.p.).3.  A.L   dXdXdXdXdXdXdX5 M.D.6 < ~.4 dXdXdXdXdXdXdXdXdXdXdXdXdXdXdXdXdXdX",
"dXdXdXdXdXdXdXdXdXdXdXdXdXdXdXdXdXdXdXdXdX  : &.p.R. X3.  $ % dXdXdXdXdXdXdXdXdX$ o i l.~.F.i   dXdXdXdXdXdXdXdXdXdXdXdXdXdXdXdX",
"dXdXdXdXdXdXdXdXdXdXdXdXdXdXdXdXdXdXdXdX  1 o.h.V.!.'.3.      dXdXdXdXdXdXdXdXdX  y :.Q.~.oXm   dXdXdXdXdXdXdXdXdXdXdXdXdXdXdXdX",
"dXdXdXdXdXdXdXdXdXdXdXdXdXdXdXdXdXdXdXdX> +.h.R.~.E.).2.    dXdXdXdXdXdXdXdXdXdX< t.x.f.C. Xm   dXdXdXdXdXdXdXdXdXdXdXdXdXdXdXdX",
"dXdXdXdXdXdXdXdXdXdXdXdXdXdXdXdXdXdX  - *.p.R.!.!._.Q.#.  dXdXdXdXdXdXdXdXdX  - 7.s.g.s.f.(.d   dXdXdXdXdXdXdXdXdXdXdXdXdXdXdXdX",
"dXdXdXdXdXdXdXdXdXdXdXdXdXdXdXdXdX  2 &.&.e.V.!.E.~.(.#.  dXdXdXdXdXdXdXdXdX  + 7.s.f.f.f.x.i   dXdXdXdXdXdXdXdXdXdXdXdXdXdXdXdX",
"dXdXdXdXdXdXdXdXdXdXdXdXdXdXdXdX  7 o.9.w.e.V._.~.C.r.d   dXdXdXdXdXdXdXdXdX< c &.s.g.s.s.x.y   dXdXdXdXdXdXdXdXdXdXdXdXdXdXdXdX",
"dXdXdXdXdXdXdXdXdXdXdXdXdXdXdXdX+ c O.+.f.f.g.E.C.W.D -   dXdXdXdXdXdXdXdX  a q.*.8.s.g.f.s.k + dXdXdXdXdXdXdXdXdXdXdXdXdXdXdXdX",
"dXdXdXdXdXdXdXdXdXdXdXdXdXdX. # k k f v t.g.l.s.f.h.f   dXdXdXdXdXdXdXdXdX  p 7.&.O.8.f.p.-.9.A X dXdXdXdXdXdXdXdXdXdXdXdXdXdXdX",
"dXdXdXdXdXdXdXdXdXdXdXdXdX  : &.O.o.-.y.s.f.s.f.g.#.<   dXdXdXdXdXdXdXdXdX  p 7.&.&.-.*.&.e.R.!.3.. dXdXdXdXdXdXdXdXdXdXdXdXdXdX",
"dXdXdXdXdXdXdXdXdXdXdXdX  u o.7.e.g.V.Q.C.f.p.f.7.1 . dXdXdXdXdXdXdXdXdXdX  p 7.&.*.%.-.w.f.g.E._.3.- dXdXdXdXdXdXdXdXdXdXdXdXdX",
"dXdXdXdXdXdXdXdXdXdXdXdX  l q.8.f.C.!._.~.C.g.p.;.# dXdXdXdXdXdXdXdXdXdXdX  p 9.&.&.&.;.r.g.p.f.E.oX,.: dXdXdXdXdXdXdXdXdXdXdXdX",
"dXdXdXdXdXdXdXdXdXdXdXdX. l i.g.f.r.g.!.E.~.V.p.g.;   dXdXdXdXdXdXdXdXdXdX  p *.-.&.&.&.&.r.f.f.f.E.(.@.  dXdXdXdXdXdXdXdXdXdXdX",
"dXdXdXdXdXdXdXdXdXdXdXO o.&.8.h.s.s.f.f.g.E.V.d.h.>   dXdXdXdXdXdXdXdXdXdXdX. 1 7.7.7.7.;.7.s.x.j.x./.@.  dXdXdXdXdXdXdXdXdXdXdX",
"dXdXdXdXdXdXdXdXdXdXdX+ 7.9.9.s.x.W.x.x.x.Q.W.x.i.:   dXdXdXdXdXdXdXdXdXdXdX  . 1 1 < < 1 2 7 y y y i >   dXdXdXdXdXdXdXdXdXdXdX",
"dXdXdXdXdXdXdXdXdXdXdXO a k a k S S S S A A S A k O dXdXdXdXdXdXdXdXdXdXdXdXdX                            dXdXdXdXdXdXdXdXdXdXdX",
"dXdXdXdXdXdXdXdXdXdXdX                            dXdXdXdXdXdXdXdXdXdXdXdXdXdXdXdXdXdXdXdXdXdXdXdXdXdXdXdXdXdXdXdXdXdXdXdXdXdXdX"
};
