/* XPM */
static char *result[] = {
/* columns rows colors chars-per-pixel */
"64 64 228 2 ",
"   c #000000",
".  c #01050A",
"X  c #030A0D",
"o  c #030807",
"O  c #020B13",
"+  c #010D1A",
"@  c #000711",
"#  c #03131C",
"$  c #0B1B1C",
"%  c #061315",
"&  c #131D1A",
"*  c #0D0D0C",
"=  c #24140F",
"-  c #102019",
";  c #000C22",
":  c #000828",
">  c #021423",
",  c #02162C",
"<  c #041B2B",
"1  c #061B26",
"2  c #031B34",
"3  c #021C3A",
"4  c #011736",
"5  c #0D2325",
"6  c #0C242B",
"7  c #112A2A",
"8  c #122123",
"9  c #0E2D32",
"0  c #072639",
"q  c #16353B",
"w  c #0F3036",
"e  c #58331C",
"r  c #5B063A",
"t  c #543531",
"y  c #733620",
"u  c #5D4A38",
"i  c #7B4A3C",
"p  c #011D42",
"a  c #042444",
"s  c #062A42",
"d  c #052A4A",
"f  c #0A354B",
"g  c #153B46",
"h  c #042D5B",
"j  c #062A54",
"k  c #06335E",
"l  c #093559",
"z  c #093B5D",
"x  c #0A3553",
"c  c #1B395A",
"v  c #132C41",
"b  c #022D61",
"n  c #053463",
"m  c #043569",
"M  c #053C74",
"N  c #043977",
"B  c #193A69",
"V  c #2C3758",
"C  c #740543",
"Z  c #4D3F4B",
"A  c #1C4344",
"S  c #1A4E57",
"D  c #0E455F",
"F  c #215558",
"G  c #2B4F57",
"H  c #2E645D",
"J  c #0B4469",
"K  c #1B4863",
"L  c #1D5666",
"P  c #0A4573",
"I  c #0B4973",
"U  c #0A497C",
"Y  c #0D537E",
"T  c #165779",
"R  c #1B4F72",
"E  c #23466A",
"W  c #324A61",
"Q  c #1E677C",
"!  c #26656B",
"~  c #266B7A",
"^  c #347377",
"/  c #30717A",
"(  c #5A5A7F",
")  c #615A74",
"_  c #726569",
"`  c #584853",
"'  c #A70034",
"]  c #8B4E38",
"[  c #A60446",
"{  c #956A5A",
"}  c #B97756",
"|  c #BB6F51",
" . c #877270",
".. c #BA8C67",
"X. c #C48058",
"o. c #D99668",
"O. c #D08F6B",
"+. c #E49368",
"@. c #DEA27A",
"#. c #F3A876",
"$. c #064283",
"%. c #06468C",
"&. c #084C88",
"*. c #0A588B",
"=. c #064A94",
"-. c #084D95",
";. c #044897",
":. c #0A5297",
">. c #09539B",
",. c #08589D",
"<. c #165B96",
"1. c #115482",
"2. c #14658C",
"3. c #166B97",
"4. c #166D95",
"5. c #286886",
"6. c #2C7C8C",
"7. c #277683",
"8. c #337988",
"9. c #346E97",
"0. c #0954A3",
"q. c #0C5CA4",
"w. c #095BAC",
"e. c #085AA5",
"r. c #0A5DB2",
"t. c #0D62A4",
"y. c #0D64AC",
"u. c #0F6AAD",
"i. c #106CAB",
"p. c #1569A5",
"a. c #1675AA",
"s. c #0D65B1",
"d. c #0F6BB3",
"f. c #0961B9",
"g. c #106EB2",
"h. c #1273B3",
"j. c #1378B7",
"k. c #1274BB",
"l. c #157BBA",
"z. c #0B76AE",
"x. c #217AB4",
"c. c #577B99",
"v. c #4978AA",
"b. c #1075C3",
"n. c #137CC4",
"m. c #127ECE",
"M. c #8773A5",
"N. c #2A8497",
"B. c #388B9B",
"V. c #388D94",
"C. c #1884BE",
"Z. c #1883B5",
"A. c #0D8CB4",
"S. c #2A8BA5",
"D. c #328BA4",
"F. c #3997A9",
"G. c #2B88BD",
"H. c #2E9ABD",
"J. c #3E9FB2",
"K. c #2C92AE",
"L. c #3BA7B8",
"P. c #7F98A0",
"I. c #42A8BA",
"U. c #49B3BD",
"Y. c #4DACA7",
"T. c #62ADB5",
"R. c #1A86C1",
"E. c #1A8BC3",
"W. c #1685CC",
"Q. c #1888CA",
"!. c #1D91C6",
"~. c #1E94C9",
"^. c #1793C8",
"/. c #188CD5",
"(. c #1D97D5",
"). c #289AC9",
"_. c #3499CD",
"`. c #39ABC3",
"'. c #3CB3C9",
"]. c #22A2DC",
"[. c #30B4D1",
"{. c #1C9BE3",
"}. c #22A8E4",
"|. c #44B8C9",
" X c #48A4D3",
".X c #43BED4",
"XX c #63B9E4",
"oX c #71AFC4",
"OX c #47C7DB",
"+X c #50D1DB",
"@X c #4ED2DA",
"#X c #62E0DE",
"$X c #44CCE3",
"%X c #49CEE0",
"&X c #4AD7EA",
"*X c #54DDE9",
"=X c #4ADDF5",
"-X c #7ED4EB",
";X c #5CE5EC",
":X c #55E4F4",
">X c #5CE9F4",
",X c #4DE2F7",
"<X c #61E5EA",
"1X c #65EBEB",
"2X c #63ECF3",
"3X c #66F1F4",
"4X c #6AF3F6",
"5X c #65F5FB",
"6X c #6BF6F9",
"7X c #6AFAFC",
"8X c #72FFFF",
"9X c #948086",
"0X c #A0A19A",
"qX c #9384B2",
"wX c #94B5BF",
"eX c #FDB688",
"rX c #F1C191",
"tX c #F9CC99",
"yX c #F9C793",
"uX c #FFE8B9",
"iX c #85BEC7",
"pX c #8DADD0",
"aX c #82C1DD",
"sX c #B0D2EB",
"dX c #8FF6F7",
"fX c #FDF7F5",
"gX c #D0D7C8",
"hX c None",
/* pixels */
"hXhXhXhXhXhXhXhXhXhXhXhXhXhXhXhXhXhXhXhXhXhXhXhXhXhXhXhXhXhXhXhXhXhXhXhXhXhXhXhXhXhXhXhXhXhXhXhXhXhXhXhXhXhXhXhXhXhXhXhXhXhXhXhX",
"hXhXhXhXhXhXhXhXhXhXhXhXhXhXhXhXhXhXhXhXhXhXhXhXhXhXhXhXhXhXhXhXhXhXhXhXhXhXhXhXhXhXhXhXhXhXhXhXhXhXhXhXhXhXhXhXhXhXhXhXhXhXhXhX",
"hXhXhXhXhXhXhXhXhXhXhXhXhXhXhXhXhXhXhXhXhXhXhXhXhXhXhXhXhXhXhXhXhXhXhXhXhXhXhXhXhXhXhXhXhXhXhXhXhXhXhXhXhXhXhXhXhXhXhXhXhXhXhXhX",
"hXhXhXhXhXhXhXhXhXhXhXhXhXhXhXhXhXhXhXhXhXhXhXhXhXhXhXhXhXhXhXhXhXhXhXhXhXhXhXhXhXhXhXhXhXhXhXhXhXhXhXhXhXhXhXhXhXhXhXhXhXhXhXhX",
"hXhXhXhXhXhXhXhXhXhXhXhXhXhXhXhXhXhXhXhXhXhXhXhXhXhXhXhXhXhXhXhXhXhXhXhXhXhXhXhXhXhXhXhXhXhXhXhXhXhXhXhXhXhXhXhXhXhXhXhXhXhXhXhX",
"hXhXhXhXhXhXhXhXhXhXhXhXhXhXhXhXhXhXhXhXhXhXhXhXhXhXhXhXhXhXhXhXhXhXhXhXhXhXhXhXhXhXhXhXhXhXhXhXhXhXhXhXhXhXhXhXhXhXhXhXhXhXhXhX",
"hXhXhXhXhXhXhXhXhXhXhXhXhXhXhXhXhXhXhXhXhXhXhXhXhXhXhXhXhXhXhXhXhXhXhXhXhXhXhXhXhXhXhXhXhXhXhXhXhXhXhXhXhXhXhXhXhXhXhXhXhXhXhXhX",
"hXhXhXhXhXhXhXhXhXhXhXhXhXhXhXhXhXhXhXhXhXhXhXhXhXhXhXhXhXhXhXhXhXhXhXhXhXhXhXhXhXhXhXhXhXhXhXhXhXhXhXhXhXhXhXhXhXhXhXhXhXhXhXhX",
"hXhXhXhXhXhXhXhXhXhXhXhXhXhXhXhXhXhXhXhXhXhXhXhXhXhXhXhXhXhXhXhXhXhXhXhXhXhXhXhXhXhXhXhXhXhXhXhXhXhXhXhXhXhXhXhXhXhXhXhXhXhXhXhX",
"hXhXhXhXhXhXhXhXhXhXhXhXhXhXhXhXhXhXhXhXhXhXhXhXhXhXhXhXhXhXhXhXhXhXhXhXhXhXhXhXhXhXhXhXhXhXhXhXhXhXhXhXhXhXhXhXhXhXhXhXhXhXhXhX",
"hXhXhXhXhXhXhXhXhXhXhXhXhXhXhXhXhXhXhXhXhXhXhXhXhXhXhXhXhXhXhXhXhXhXhXhXhXhXhXhXhXhXhXhXhXhXhXhXhXhXhXhXhXhXhXhXhXhXhXhXhXhXhXhX",
"hXhXhXhXhXhXhXhXhXhXhXhXhXhXhXhXhXhXhXhXhXhXhXhXhXhXhXhXhXhXhXhXhXhXhXhXhXhXhXhXhXhXhXhXhXhXhXhXhXhXhXhXhXhXhXhXhXhXhXhXhXhXhXhX",
"hXhXhXhXhXhXhXhXhXhXhXhXhXhXhXhXhXhXhXhXhXhXhXhXhXhXhXhXhXhXhXhXhXhXhX        hXhXhXhXhXhXhXhXhXhXhXhXhXhXhXhXhXhXhXhXhXhXhXhXhX",
"hXhXhXhXhXhXhXhXhXhXhXhXhXhXhXhXhXhXhXhXhXhXhXhXhXhXhXhXhXhXhXhXhXhX8 S F ! ^ q hXhXhXhXhXhXhXhXhXhXhXhXhXhXhXhXhXhXhXhXhXhXhXhX",
"hXhXhXhXhXhXhXhXhXhXhXhXhXhXhXhXhXhXhXhXhXhXhXhXhXhXhXhXhXhXhXhX$ + L `.OX2X8XU.7 7 * hXhXhXhXhXhXhXhXhXhXhXhXhXhXhXhXhXhXhXhXhX",
"hXhXhXhXhXhXhXhXhXhXhXhXhXhXhXhXhXhXhXhXhXhXhXhXhXhXhXhXhXhX  7 B.<.%.-.>.B.|.OX<X4XF   hXhXhXhXhXhXhXhXhXhXhXhXhXhXhXhXhXhXhXhX",
"hXhXhXhXhXhXhXhXhXhXhXhXhXhXhXhXhXhXhXhXhXhXhXhXhXhXhXhXhX  8 E p.y.h.j.z.j.S.|.;X6X<X^   hXhXhXhXhXhXhXhXhXhXhXhXhXhXhXhXhXhXhX",
"hXhXhXhXhXhXhXhXhXhXhXhXhXhXhXhXhXhXhXhXhXhXhXhXhXhXhXhXhX  v 3.0.k.^._. X X9.8.L.OX1XV.  hXhXhXhXhXhXhXhXhXhXhXhXhXhXhXhXhXhXhX",
"hXhXhXhXhXhXhXhXhXhXhXhXhXhXhXhXhXhXhXhXhXhXhXhXhXhXhXhXhXO b w.j.E.^._.pXsXc.T D.N.S.K   hXhXhXhXhXhXhXhXhXhXhXhXhXhXhXhXhXhXhX",
"hXhXhXhXhXhXhXhXhXhXhXhXhXhXhXhXhXhXhXhXhXhXhXhXhXhXhXhX. M >.>.h.E.^._.pXfXaXA.!.j.w.h     hXhXhXhXhXhXhXhXhXhXhXhXhXhXhXhXhXhX",
"hXhXhXhXhXhXhXhXhXhXhXhXhXhXhXhXhXhXhXhXhXhXhXhXhXhXhXhX. N ;.-.j.!.~.(. XsXXXz.~ .XaXoX! O hXhXhXhXhXhXhXhXhXhXhXhXhXhXhXhXhXhX",
"hXhXhXhXhXhXhXhXhXhXhXhXhXhXhXhXhXhXhXhXhXhXhXhXhXhXhXhXo S.).p.t.R.z.*.&.9.R.x.^ +XdXdX/ O hXhXhXhXhXhXhXhXhXhXhXhXhXhXhXhXhXhX",
"hXhXhXhXhXhXhXhXhXhXhXhXhXhXhXhXhXhXhXhXhXhXhXhXhXhXhXhXo T.2X`.%.e.I c c 3 N a.F.I.%XU.c X hXhXhXhXhXhXhXhXhXhXhXhXhXhXhXhXhXhX",
"hXhXhXhXhXhXhXhXhXhXhXhXhXhXhXhXhXhXhXhXhXhXhXhXhXhXhXhX  C pX&X%.h E 0XiX& ; %.k.F.8.R %.O hXhXhXhXhXhXhXhXhXhXhXhXhXhXhXhXhXhX",
"hXhXhXhXhXhXhXhXhXhXhXhXhXhXhXhXhXhXhXhXhXhXhXhXhXhXhXhX  ' qX[.m t  .pXiXx t Z M :.q.M ; hXhXhXhXhXhXhXhXhXhXhXhXhXhXhXhXhXhXhX",
"hXhXhXhXhXhXhXhXhXhXhXhXhXhXhXhXhXhXhXhXhXhXhXhXhXhXhXhXo [ M.S.j ] O.gXsX-._ X.` ) E 4 hXhXhXhXhXhXhXhXhXhXhXhXhXhXhXhXhXhXhXhX",
"hXhXhXhXhXhXhXhXhXhXhXhXhXhXhXhXhXhXhXhXhXhXhXhXhXhXhXhX  r ( 4.l i o.uXfX9.0XyX+.#.e   hXhXhXhXhXhXhXhXhXhXhXhXhXhXhXhXhXhXhXhX",
"hXhXhXhXhXhXhXhXhXhXhXhXhXhXhXhXhXhXhXhXhXhXhXhXhXhXhXhXhX  q R l i o.tXrXrXrXeXrXtXu   hXhXhXhXhXhXhXhXhXhXhXhXhXhXhXhXhXhXhXhX",
"hXhXhXhXhXhXhXhXhXhXhXhXhXhXhXhXhXhXhXhXhXhXhXhXhXhXhXhXhXhX  , :.B { #.yX} } @.tXeXt   hXhXhX      hXhXhXhXhXhXhXhXhXhXhXhXhXhX",
"hXhXhXhXhXhXhXhXhXhXhXhXhXhXhXhXhXhXhXhXhXhXhXhXhXhXhXhXhXhX9 S p , V 9Xo.| O.eX@.i = hXhXhX0 n a z % hXhXhXhXhXhXhXhXhXhXhXhXhX",
"hXhXhXhXhXhXhXhXhXhXhXhXhXhXhXhXhXhXhXhXhXhXhXhXhXhXhXhX9 w L.|.& $ j B y ] ....]   hXhXhX1 *.b.d.W.z @ hXhXhXhXhXhXhXhXhXhXhXhX",
"hXhXhXhXhXhXhXhXhXhXhXhXhXhXhXhXhXhXhXhX              w OX;X4X*X'.J.G * o         hXhXhX% Z.s.q.~.j.w.h   hXhXhXhXhXhXhXhXhXhXhX",
"hXhXhXhXhXhXhXhXhXhXhXhXhXhXhXhXhXhXhX    4.f . 3.  H ;X>X6X>X=X2X<XU.N.N.S.7.7.N.        j./.C.j.-.l.j.h . hXhXhXhXhXhXhXhXhXhX",
"hXhXhXhXhXhXhXhXhXhXhXhXhXhXhXhXhXhX6 T l D J J J l L Y.6X5XN./ 6X6X>X:X:X&X'.|.$X7.% % Y 0 3./.y.h.a.l.y.O hXhXhXhXhXhXhXhXhXhX",
"hXhXhXhXhXhXhXhXhXhXhXhXhXhXhXhXhX1 1.{.Q.6 z U   u.a - >X`.# - 6X3X2X6X1XOX6.6.|.=XK p a.1 x &.M C.d.>.Y X hXhXhXhXhXhXhXhXhXhX",
"hXhXhXhXhXhXhXhXhXhXhXhXhXhXhXhX  *.y.0.!.W.x   o t.d 7 |.5   A 5X3X2X2X<XI.6 $ F.OXR.j o i.f   X $.b.I   hXhXhXhXhXhXhXhXhXhXhX",
"hXhXhXhXhXhXhXhXhXhXhXhXhXhXhXhX  M l.E.l.s., . &.e.d o 1   A F.OX2X6X5X.Xq hXhX7 J.x.-.Y <   < *., < + hXhXhXhXhXhXhXhXhXhXhXhX",
"hXhXhXhXhXhXhXhXhXhXhXhXhXhXhXhX  &.W.l.>.j.U 3 h >.a . 4   g G.L.@X;X@XF.X hXhX  q 1.r.y.z z *.s.o   hXhXhXhXhXhXhXhXhXhXhXhXhX",
"hXhXhXhXhXhXhXhXhXhXhXhXhXhXhXhX  J i.y.q.Z.m.U   n 4 O N ; b y.D.H.).H.9.% hXhXhX  3 %.>.b.m.y.h . hXhXhXhXhXhXhXhXhXhXhXhXhXhX",
"hXhXhXhXhXhXhXhXhXhXhXhXhXhXhXhXhX  p s.E.,.s.1.    hXhXo N s.h.g.h.j.d.$.O hXhXhXhX  , >.-.0.h   hXhXhXhXhXhXhXhXhXhXhXhXhXhXhX",
"hXhXhXhXhXhXhXhXhXhXhXhXhXhXhXhXhXhX. a y.m.I #   hXhXhX  U.).;.j.R.!.Q.t..     hXhXhXhX# + > O hXhXhXhXhXhXhXhXhXhXhXhXhXhXhXhX",
"hXhXhXhXhXhXhXhXhXhXhXhXhXhXhXhXhXhXhX. p l > hXhXhXhX$ ~ 1X@X3.q.Z.^.j.0.Q 7.g hXhXhXhXhXhXhXhXhXhXhXhXhXhXhXhXhXhXhXhXhXhXhXhX",
"hXhXhXhXhXhXhXhXhXhXhXhXhXhXhXhXhXhXhXhX    hXhXhXhX  w ,X5X;X).=.w.s.t.p.|.=XJ.9 hXhXhXhXhXhXhXhXhXhXhXhXhXhXhXhXhXhXhXhXhXhXhX",
"hXhXhXhXhXhXhXhXhXhXhXhXhXhXhXhXhXhXhXhXhXhXhXhXhXhX  A 4X4X*XK.%.%.%.<.B.B.L.$X'.5 hXhXhXhXhXhXhXhXhXhXhXhXhXhXhXhXhXhXhXhXhXhX",
"hXhXhXhXhXhXhXhXhXhXhXhXhXhXhXhXhXhXhXhXhXhXhXhXhX  L %X3X@X&XK.+ + + # 5 B.J.L..X`.w   hXhXhXhXhXhXhXhXhXhXhXhXhXhXhXhXhXhXhXhX",
"hXhXhXhXhXhXhXhXhXhXhXhXhXhXhXhXhXhXhXhXhXhXhXhX    5 V.:X$XN.q hXhXhXhXhXq 8.J.L.$X`.S   hXhXhXhXhXhXhXhXhXhXhXhXhXhXhXhXhXhXhX",
"hXhXhXhXhXhXhXhXhXhXhXhXhXhXhXhXhXhXhXhXhXhXhXhX, 2 0 w N.&XF   hXhXhXhXhX  q V.F.|.L.~ 0 hXhXhXhXhXhXhXhXhXhXhXhXhXhXhXhXhXhXhX",
"hXhXhXhXhXhXhXhXhXhXhXhXhXhXhXhXhXhXhXhXhXhX. , e.d.(.2.  F.L   hXhXhXhXhXhX  6 F.F.8 s ~.1 hXhXhXhXhXhXhXhXhXhXhXhXhXhXhXhXhXhX",
"hXhXhXhXhXhXhXhXhXhXhXhXhXhXhXhXhXhXhXhXhX  3 -.d.R.].4.  $ O hXhXhXhXhXhXhXhXhX$ X x j.).Z.0   hXhXhXhXhXhXhXhXhXhXhXhXhXhXhXhX",
"hXhXhXhXhXhXhXhXhXhXhXhXhXhXhXhXhXhXhXhX  3 &.k.C.!.].4.    hXhXhXhXhXhXhXhXhXhX  s t.Q.~.}.x   hXhXhXhXhXhXhXhXhXhXhXhXhXhXhXhX",
"hXhXhXhXhXhXhXhXhXhXhXhXhXhXhXhXhXhXhXhX2 -.k.C.~.!.(.2.    hXhXhXhXhXhXhXhXhX@ 0 g.n.j.!.(.f   hXhXhXhXhXhXhXhXhXhXhXhXhXhXhXhX",
"hXhXhXhXhXhXhXhXhXhXhXhXhXhXhXhXhXhX. , >.d.R.~.!.!.Q.U   hXhXhXhXhXhXhXhXhX  , e.d.j.g.h.(.f   hXhXhXhXhXhXhXhXhXhXhXhXhXhXhXhX",
"hXhXhXhXhXhXhXhXhXhXhXhXhXhXhXhXhX  3 =.=.y.C.!.!.~./.1.  hXhXhXhXhXhXhXhXhX  > e.g.h.g.h.n.s   hXhXhXhXhXhXhXhXhXhXhXhXhXhXhXhX",
"hXhXhXhXhXhXhXhXhXhXhXhXhXhXhXhX  d %.w.t.u.C.).~.C.i.k   hXhXhXhXhXhXhXhX  2 M >.h.h.h.h.n.0   hXhXhXhXhXhXhXhXhXhXhXhXhXhXhXhX",
"hXhXhXhXhXhXhXhXhXhXhXhXhXhXhXhX% M %.%.j.h.j.E.C.n.P ;   hXhXhXhXhXhXhXhX  n r.:.q.h.h.h.d.k + hXhXhXhXhXhXhXhXhXhXhXhXhXhXhXhX",
"hXhXhXhXhXhXhXhXhXhXhXhXhXhX. > m k h P h.h.h.d.h.k.f   hXhXhXhXhXhXhXhXhX  h 0.-.=.t.h.u.-.w.M X hXhXhXhXhXhXhXhXhXhXhXhXhXhXhX",
"hXhXhXhXhXhXhXhXhXhXhXhXhX  3 -.&.%.:.u.u.h.h.h.h.&.,   hXhXhXhXhXhXhXhXhX  h 0.-.-.-.:.:.t.R.!.4.  hXhXhXhXhXhXhXhXhXhXhXhXhXhX",
"hXhXhXhXhXhXhXhXhXhXhXhX  a $.0.y.j.C.E.C.h.h.d.>.3 o hXhXhXhXhXhXhXhXhXhX  h e.-.-.=.>.y.h.l.~.).2.# hXhXhXhXhXhXhXhXhXhXhXhXhX",
"hXhXhXhXhXhXhXhXhXhXhXhX  N r.t.j.C.~.).~.Z.j.d.:.O hXhXhXhXhXhXhXhXhXhXhX  k w.-.-.=.>.i.h.g.h.^.}.Y 1 hXhXhXhXhXhXhXhXhXhXhXhX",
"hXhXhXhXhXhXhXhXhXhXhXhXX M s.j.g.d.l.E.E.~.C.h.a.1 hXhXhXhXhXhXhXhXhXhXhX  j >.:.-.-.=.:.i.h.g.j.E./.I   hXhXhXhXhXhXhXhXhXhXhX",
"hXhXhXhXhXhXhXhXhXhXhX+ $.=.q.l.h.h.h.h.j.E.C.k.g.> hXhXhXhXhXhXhXhXhXhXhXhX. a e.0.0.0.0.0.h.n.n.n./.U   hXhXhXhXhXhXhXhXhXhXhX",
"hXhXhXhXhXhXhXhXhXhX  > w.w.w.g.n.n.n.n.n.W.W.n.w.>   hXhXhXhXhXhXhXhXhXhXhX  . 3 3 2 3 3 4 0 s s s d 1   hXhXhXhXhXhXhXhXhXhXhX",
"hXhXhXhXhXhXhXhXhXhX  O k n h n I I I I I P I P h O hXhXhXhXhXhXhXhXhXhXhXhXhX                            hXhXhXhXhXhXhXhXhXhXhX",
"hXhXhXhXhXhXhXhXhXhXhX                            hXhXhXhXhXhXhXhXhXhXhXhXhXhXhXhXhXhXhXhXhXhXhXhXhXhXhXhXhXhXhXhXhXhXhXhXhXhXhX"
};
