/* XPM */
static char *result[] = {
/* columns rows colors chars-per-pixel */
"64 64 231 2 ",
"   c #000101",
".  c #00050A",
"X  c #030A0D",
"o  c #090807",
"O  c #020B13",
"+  c #010E1C",
"@  c #000614",
"#  c #071214",
"$  c #03141D",
"%  c #0A191B",
"&  c #0B1817",
"*  c #170B08",
"=  c #2A000C",
"-  c #011124",
";  c #02142B",
":  c #051B2D",
">  c #091E24",
",  c #031B34",
"<  c #021C3A",
"1  c #0C1130",
"2  c #0B2227",
"3  c #04233C",
"4  c #092939",
"5  c #132E33",
"6  c #182A36",
"7  c #143136",
"8  c #163A3E",
"9  c #112729",
"0  c #302A3E",
"q  c #582E21",
"w  c #5F3633",
"e  c #4B1539",
"r  c #011D45",
"t  c #042344",
"y  c #062A44",
"u  c #02254A",
"i  c #062B4C",
"p  c #09334A",
"a  c #143B45",
"s  c #042A54",
"d  c #042E5B",
"f  c #05315E",
"g  c #093657",
"h  c #15395F",
"j  c #252B4A",
"k  c #2C3650",
"l  c #012E63",
"z  c #053262",
"x  c #043569",
"c  c #063B6D",
"v  c #073A67",
"b  c #053A78",
"n  c #002F71",
"m  c #19444A",
"M  c #1D4950",
"N  c #145258",
"B  c #254D58",
"V  c #22555B",
"C  c #3D465C",
"Z  c #08426C",
"A  c #174C6D",
"S  c #094473",
"D  c #0B4973",
"F  c #07417E",
"G  c #0A4879",
"H  c #175A7B",
"J  c #0C566F",
"K  c #255A66",
"L  c #325C79",
"P  c #1E616F",
"I  c #2B6668",
"U  c #2B717C",
"Y  c #2B6B74",
"T  c #52596E",
"R  c #765148",
"E  c #8D4325",
"W  c #821E60",
"Q  c #8F5D4B",
"!  c #AC6344",
"~  c #B26C4D",
"^  c #C97B53",
"/  c #BF825F",
"(  c #BA8364",
")  c #C3815D",
"_  c #CC8663",
"`  c #CB9369",
"'  c #E99A70",
"]  c #F3B17C",
"[  c #023C82",
"{  c #064384",
"}  c #0A4C83",
"|  c #054488",
" . c #094B8C",
".. c #084788",
"X. c #0C5484",
"o. c #0C548B",
"O. c #07588D",
"+. c #155988",
"@. c #074A93",
"#. c #084D95",
"$. c #034695",
"%. c #0A5394",
"&. c #09539D",
"*. c #0B5A9E",
"=. c #095C96",
"-. c #135C98",
";. c #205F83",
":. c #156386",
">. c #0E659C",
",. c #17689A",
"<. c #07668C",
"1. c #2B7586",
"2. c #317B8A",
"3. c #2E7B93",
"4. c #306B8B",
"5. c #0954A1",
"6. c #0A5BA2",
"7. c #0B5CAA",
"8. c #0651A4",
"9. c #095DB5",
"0. c #0E63A4",
"q. c #0C63AC",
"w. c #0D69AC",
"e. c #116DAE",
"r. c #1069A6",
"t. c #1475A7",
"y. c #0C65B3",
"u. c #0E69B6",
"i. c #106EB1",
"p. c #0C73B2",
"a. c #1273B4",
"s. c #1479B6",
"d. c #1172BA",
"f. c #157CBC",
"g. c #2E7AA7",
"h. c #487992",
"j. c #186DC0",
"k. c #127BC2",
"l. c #1477C4",
"z. c #0F71C4",
"x. c #2E808D",
"c. c #2D8698",
"v. c #368897",
"b. c #3D9499",
"n. c #1C84B3",
"m. c #1984BE",
"M. c #1986BB",
"N. c #2882A7",
"B. c #378EA8",
"V. c #3C99AB",
"C. c #3698AA",
"Z. c #278BB8",
"A. c #2591BB",
"S. c #399EB1",
"D. c #39A5B8",
"F. c #5A859C",
"G. c #618589",
"H. c #5698A8",
"J. c #429DAE",
"K. c #43A3AD",
"L. c #42A8B5",
"P. c #45B2B7",
"I. c #1986C1",
"U. c #1B8CC3",
"Y. c #1582C9",
"T. c #1A8DCB",
"R. c #1589C7",
"E. c #1D91C6",
"W. c #1E95CA",
"Q. c #1C98CC",
"!. c #178AD2",
"~. c #1C94D3",
"^. c #0F89C0",
"/. c #228CC8",
"(. c #2198CC",
"). c #3296C9",
"_. c #3AAAC7",
"`. c #3EB5C9",
"'. c #3BB3C6",
"]. c #27A2D6",
"[. c #33A2D4",
"{. c #3CBBD3",
"}. c #2EA1C8",
"|. c #22A7E3",
" X c #43B8C8",
".X c #4EAAD1",
"XX c #6DB5D0",
"oX c #4390EF",
"OX c #73B9E1",
"+X c #4F98CA",
"@X c #53C3C6",
"#X c #47C8DA",
"$X c #54CBD5",
"%X c #4DD1DE",
"&X c #57D4DA",
"*X c #49D4E9",
"=X c #53D9E8",
"-X c #4ADAF1",
";X c #51D7EC",
":X c #59E1EB",
">X c #4FE6FF",
",X c #5BE9F4",
"<X c #59E6F3",
"1X c #5EF4FF",
"2X c #63ECF1",
"3X c #67F1F5",
"4X c #6DFDFE",
"5X c #67F5F9",
"6X c #70FFFF",
"7X c #67EEED",
"8X c #85868C",
"9X c #B99180",
"0X c #CEA987",
"qX c #E7B586",
"wX c #F8BE8E",
"eX c #EBBF93",
"rX c #E8C298",
"tX c #F9C998",
"yX c #FFC48A",
"uX c #90B5CA",
"iX c #A2BCDF",
"pX c #9ECCD3",
"aX c #B6C8DE",
"sX c #8AE1F5",
"dX c #A2FFFF",
"fX c #B2D4EE",
"gX c #FFFAD9",
"hX c #C5D2E8",
"jX c #CFEAE3",
"kX c #F1F8FC",
"lX c None",
/* pixels */
"lXlXlXlXlXlXlXlXlXlXlXlXlXlXlXlXlXlXlXlXlXlXlXlXlXlXlXlXlXlXlXlXlXlXlXlXlXlXlXlXlXlXlXlXlXlXlXlXlXlXlXlXlXlXlXlXlXlXlXlXlXlXlXlX",
"lXlXlXlXlXlXlXlXlXlXlXlXlXlXlXlXlXlXlXlXlXlXlXlXlXlXlXlXlXlXlXlXlXlXlXlXlXlXlXlXlXlXlXlXlXlXlXlXlXlXlXlXlXlXlXlXlXlXlXlXlXlXlXlX",
"lXlXlXlXlXlXlXlXlXlXlXlXlXlXlXlXlXlXlXlXlXlXlXlXlXlXlXlXlXlXlXlXlXlXlXlXlXlXlXlXlXlXlXlXlXlXlXlXlXlXlXlXlXlXlXlXlXlXlXlXlXlXlXlX",
"lXlXlXlXlXlXlXlXlXlXlXlXlXlXlXlXlXlXlXlXlXlXlXlXlXlXlXlXlXlXlXlXlXlXlXlXlXlXlXlXlXlXlXlXlXlXlXlXlXlXlXlXlXlXlXlXlXlXlXlXlXlXlXlX",
"lXlXlXlXlXlXlXlXlXlXlXlXlXlXlXlXlXlXlXlXlXlXlXlXlXlXlXlXlXlX          lXlXlXlXlXlXlXlXlXlXlXlXlXlXlXlXlXlXlXlXlXlXlXlXlXlXlXlXlX",
"lXlXlXlXlXlXlXlXlXlXlXlXlXlXlXlXlXlXlXlXlXlXlXlXlXlXlXlXlXlX7 M V I I & lXlXlXlXlXlXlXlXlXlXlXlXlXlXlXlXlXlXlXlXlXlXlXlXlXlXlXlX",
"lXlXlXlXlXlXlXlXlXlXlXlXlXlXlXlXlXlXlXlXlXlXlXlXlXlXlXo & $ 3._.*X4X4XU 9 % lXlXlXlXlXO > O lXlXlXlXlXlXlXlXlXlXlXlXlXlXlXlXlXlX",
"lXlXlXlXlXlXlXlXlXlXlXlXlXlXlXlXlXlXlXlXlXlXlXlXlXlX  V N.{ #.@.,.K. X&X7X@XX lXlXlX  H ~.o.  lXlXlXlXlXlXlXlXlXlXlXlXlXlXlXlXlX",
"lXlXlXlXlXlXlXlXlXlXlXlXlXlXlXlXlXlXlXlXlXlXlXlXlXo 6 H e.y.s.i.p.n.C.#X1X4X@X8   O H T.a.S X.: lXlXlXlXlXlXlXlXlXlXlXlXlXlXlXlX",
"lXlXlXlXlXlXlXlXlXlXlXlXlXlXlXlXlXlXlXlXlXlXlXlXlXo A -.q.M.E.[..X).Y v. X$X2XM   % Q.a.S } z.,   lXlXlXlXlXlXlXlXlXlXlXlXlXlXlX",
"lXlXlXlXlXlXlXlXlXlXlXlXlXlXlXlXlXlXlXlXlXlXlXlXlX+ [ y.m.E.E..XiXuXL 4.B.c.B.5   O o.S } d.#.< X lXlXlXlXlXlXlXlXlXlXlXlXlXlXlX",
"lXlXlXlXlXlXlXlXlXlXlXlXlXlXlXlXlXlX        lXlX; #.@.0.f.E.R.+XhXkX).^.E.R.Q.4     X G d. .f ..f   lXlXlXlXlXlXlXlXlXlXlXlXlXlX",
"lXlXlXlXlXlXlXlXlXlXlXlXlXlXlXlXlX  ; , u c #   - y.$.5.m.Q.Q.(.OXfX[.+.c.<XsXH.m     S 7.z ..{ 3   lXlXlXlXlXlXlXlXlXlXlXlXlXlX",
"lXlXlXlXlXlXlXlXlXlXlXlXlXlXlXlX@ u } >.=.b O 4 g f ,.s.f.I.>.O.-.g.(.1.v.3XdXXXa   u s z F { ..u   lXlXlXlXlXlXlXlXlXlXlXlXlXlX",
"lXlXlXlXlXlXlXlXlXlXlXlXlXlXlX  - &.q.W.M.v   :.,.  P.[.7.*.g h h r t.Z.S. X&XB.6 . { + + ..x { s   lXlXlXlXlXlXlXlXlXlXlXlXlXlX",
"lXlXlXlXlXlXlXlXlXlXlXlXlXlXlX  O f s o.T.M.X Z X.o &X[.b f T uXG.o u i.}.v.L Z.:.        + #.3   lXlXlXlXlXlXlXlXlXlXlXlXlXlXlX",
"lXlXlXlXlXlXlXlXlXlXlXlXlXlX  <  .0.>.} g 4 X.d.b o  XN.j R 8XpXH., w k >.E./.J >   d b ,   + .   lXlXlXlXlXlXlXlXlXlXlXlXlXlXlX",
"lXlXlXlXlXlXlXlXlXlXlXlXlXlX  u %.o.u.0.u   g c 1 e J.<.j ! 0XjXXXb ( Q T F.:.$ . s &.9.{ i t O   lXlXlXlXlXlXlXlXlXlXlXlXlXlXlX",
"lXlXlXlXlXlXlXlXlXlXlXlXlXlX  < c v b u.o.  .   = W h.J j ! ] gXaX4.rX] ' ^ *   < 7.#.@.e.f.%.; lXlXlXlXlXlXlXlXlXlXlXlXlXlXlXlX",
"lXlXlXlXlXlXlXlXlXlXlXlXlXlX  u y.e.v ..c   F u   O B c k ! qXtXwXeXrXtXtX` *   , 8.@.q.k.>.O lXlXlXlXlXlXlXlXlXlXlXlXlXlXlXlXlX",
"lXlXlXlXlXlXlXlXlXlXlXlXlXlX  < @.7.w.g - c q.&.u     z #.C _ tXqX~ ^ eXtX` * N g.$.$.e.k.#.. lXlXlXlXlXlXlXlXlXlXlXlXlXlXlXlXlX",
"lXlXlXlXlXlXlXlXlXlXlXlXlXlXlXO t | z.2 . u.I.d.x   7 i r 1 T ( _ ~ qXwX~ q B _.{.-.5.y.%.r   lXlXlXlXlXlXlXlXlXlXlXlXlXlXlXlXlX",
"lXlXlXlXlXlXlXlXlXlXlXlXlXlXlXlX. y b < t f.(.k.d . K.I % % n k E ~ ` ^ q 2 {.*XP.v.G { t   lXlXlXlXlXlXlXlXlXlXlXlXlXlXlXlXlXlX",
"lXlXlXlXlXlXlXlXlXlXlXlXlXlXlXlXlX    s 7.s./.T.c o $X=X X2.#   .     . 6 S.{.D.V.v.O     lXlXlXlXlXlXlXlXlXlXlXlXlXlXlXlXlXlXlX",
"lXlXlXlXlXlXlXlXlXlXlXlXlXlXlXlXlXlX  f y.5.s.l.x   D.<X#X_.c.C.P.L.L.S.N 7 D.K 9 > lXlXlXlXlXlXlXlXlXlXlXlXlXlXlXlXlXlXlXlXlXlX",
"lXlXlXlXlXlXlXlXlXlXlXlXlXlXlXlXlXlXlX; c 8.u.b t K S.`.`.#X<X5X4X4X4X4Xx.  m &   lXlXlXlXlXlXlXlXlXlXlXlXlXlXlXlXlXlXlXlXlXlXlX",
"lXlXlXlXlXlXlXlXlXlXlXlXlXlXlXlXlXlXlXlX+ b { @ & v.1.Y x. X=X7X2X2X2X6XK.&   lXlXlXlXlXlXlXlXlXlXlXlXlXlXlXlXlXlXlXlXlXlXlXlXlX",
"lXlXlXlXlXlXlXlXlXlXlXlXlXlXlXlXlXlXlXlXlX              5 V.`.=X2X2X2X5X&X2.O lXlXlXlXlXlXlXlXlXlXlXlXlXlXlXlXlXlXlXlXlXlXlXlXlX",
"lXlXlXlXlXlXlXlXlXlXlXlXlXlXlXlXlXlXlXlXlXlXlXlXlXlXlX  5 L.V.$X5X2X2X3X,XS.# lXlXlXlXlXlXlXlXlXlXlXlXlXlXlXlXlXlXlXlXlXlXlXlXlX",
"lXlXlXlXlXlXlXlXlXlXlXlXlXlXlXlXlXlXlXlXlXlXlXlXlXlXlXlX$ V 2.$X5X2X2X3X,XD.# lXlXlXlXlXlXlXlXlXlXlXlXlXlXlXlXlXlXlXlXlXlXlXlXlX",
"lXlXlXlXlXlXlXlXlXlXlXlXlXlXlXlXlXlXlXlXlXlXlXlXlXlXlXlXlX  2.$X3X2X2X3X<XD.# lXlXlXlXlXlXlXlXlXlXlXlXlXlXlXlXlXlXlXlXlXlXlXlXlX",
"lXlXlXlXlXlXlXlXlXlXlXlXlXlXlXlXlXlXlXlXlXlXlXlXlXlXlXlXlXX 2._.%X3X2X3X<XD.# lXlXlXlXlXlXlXlXlXlXlXlXlXlXlXlXlXlXlXlXlXlXlXlXlX",
"lXlXlXlXlXlXlXlXlXlXlXlXlXlXlXlXlXlXlXlXlXlXlXlXlXlXlXlXlX  g 3. X%X%X%X#Xv.# lXlXlXlXlXlXlXlXlXlXlXlXlXlXlXlXlXlXlXlXlXlXlXlXlX",
"lXlXlXlXlXlXlXlXlXlXlXlXlXlXlXlXlXlXlXlXlXlXlXlXlXlXlXlXlX. l +.g.A.A.A.N.+.X lXlXlXlXlXlXlXlXlXlXlXlXlXlXlXlXlXlXlXlXlXlXlXlXlX",
"lXlXlXlXlXlXlXlXlXlXlXlXlXlXlXlXlXlXlXlXlXlXlXlXlXlXlXlXlX. ..8.&.p.p.f.d.| O lXlXlXlXlXlXlXlXlXlXlXlXlXlXlXlXlXlXlXlXlXlXlXlXlX",
"lXlXlXlXlXlXlXlXlXlXlXlXlXlXlXlXlXlXlXlXlXlXlXlXlXlXlXlXlX. b w.m.R.R.oXoX>.O lXlXlXlXlXlXlXlXlXlXlXlXlXlXlXlXlXlXlXlXlXlXlXlXlX",
"lXlXlXlXlXlXlXlXlXlXlXlXlXlXlXlXlXlXlXlXlXlXlXlXlXlXlXlX. r [ q.I.W.W.T.j.| @ lXlXlXlXlXlXlXlXlXlXlXlXlXlXlXlXlXlXlXlXlXlXlXlXlX",
"lXlXlXlXlXlXlXlXlXlXlXlXlXlXlXlXlXlXlXlXlXlXlXlXlXlXlX  4 N.Z.6.y.W.T.q.*.;.X lXlXlXlXlXlXlXlXlXlXlXlXlXlXlXlXlXlXlXlXlXlXlXlXlX",
"lXlXlXlXlXlXlXlXlXlXlXlXlXlXlXlXlXlXlXlXlXlXlXlXlXlXlX  8 *X=XZ...X.X. .g.b.# lXlXlXlXlXlXlXlXlXlXlXlXlXlXlXlXlXlXlXlXlXlXlXlXlX",
"lXlXlXlXlXlXlXlXlXlXlXlXlXlXlXlXlXlXlXlXlXlXlXlXlXlXlX  a %X3X$XV     K #XD.& lXlXlXlXlXlXlXlXlXlXlXlXlXlXlXlXlXlXlXlXlXlXlXlXlX",
"lXlXlXlXlXlXlXlXlXlXlXlXlXlXlXlXlXlXlXlXlXlXlXlXlXlX  a V.2X4XU # lX  2.>XD.. lXlXlXlXlXlXlXlXlXlXlXlXlXlXlXlXlXlXlXlXlXlXlXlXlX",
"lXlXlXlXlXlXlXlXlXlXlXlXlXlXlXlXlXlXlXlXlXlXlXlXlXlX  I ;X5X,XM   lXlX8 3.D.1.& lXlXlXlXlXlXlXlXlXlXlXlXlXlXlXlXlXlXlXlXlXlXlXlX",
"lXlXlXlXlXlXlXlXlXlXlXlXlXlXlXlXlXlXlXlXlXlXlXlXlXlX  U ,X2X#Xa   lXlX  > L.*XY & lXlXlXlXlXlXlXlXlXlXlXlXlXlXlXlXlXlXlXlXlXlXlX",
"lXlXlXlXlXlXlXlXlXlXlXlXlXlXlXlXlXlXlXlXlXlXlXlXlXlX. b.6X:XK.7   lXlX  5 V.`. XK   lXlXlXlXlXlXlXlXlXlXlXlXlXlXlXlXlXlXlXlXlXlX",
"lXlXlXlXlXlXlXlXlXlXlXlXlXlXlXlXlXlXlXlXlXlXlXlXlXX c.,X5X`.7 lXlXlXlXlXlX5 '.-XU   lXlXlXlXlXlXlXlXlXlXlXlXlXlXlXlXlXlXlXlXlXlX",
"lXlXlXlXlXlXlXlXlXlXlXlXlXlXlXlXlXlXlXlXlXlXlXlX    m K.=XS.X lXlXlXlXlXlX. v.>Xx.  lXlXlXlXlXlXlXlXlXlXlXlXlXlXlXlXlXlXlXlXlXlX",
"lXlXlXlXlXlXlXlXlXlXlXlXlXlXlXlXlXlXlXlXlXlXlXO , , - a 1.K X lXlXlXlXlXlX# v.V.P 4 lXlXlXlXlXlXlXlXlXlXlXlXlXlXlXlXlXlXlXlXlXlX",
"lXlXlXlXlXlXlXlXlXlXlXlXlXlXlXlXlXlXlXlXlXlX. d y.f.Y.y     lXlXlXlXlXlXlXO x.9 p E.$ lXlXlXlXlXlXlXlXlXlXlXlXlXlXlXlXlXlXlXlXlX",
"lXlXlXlXlXlXlXlXlXlXlXlXlXlXlXlXlXlXlXlXlX  l 6.f.U.k.3     lXlXlXlXlXlXlX  X g s.W.n.4   lXlXlXlXlXlXlXlXlXlXlXlXlXlXlXlXlXlXlX",
"lXlXlXlXlXlXlXlXlXlXlXlXlXlXlXlXlXlXlXlXlX  o.Y.U.W.T.o.<   lXlXlXlXlXlXlX  i 0.T.W.|.p   lXlXlXlXlXlXlXlXlXlXlXlXlXlXlXlXlXlXlX",
"lXlXlXlXlXlXlXlXlXlXlXlXlXlXlXlXlXlXlXlXlX< >.T.W.E.(.k.x   lXlXlXlXlXlXO t a.k.s.U.].4   lXlXlXlXlXlXlXlXlXlXlXlXlXlXlXlXlXlXlX",
"lXlXlXlXlXlXlXlXlXlXlXlXlXlXlXlXlXlXlX  ; 6.u.M.E./.(.d.l   lXlXlXlXlX  < 7.i.a.i.a.Q.p . lXlXlXlXlXlXlXlXlXlXlXlXlXlXlXlXlXlXlX",
"lXlXlXlXlXlXlXlXlXlXlXlXlXlXlXlXlXlXlX  - 5.i.M.(.M.E.Y.D   lXlXlXlXlX  , 8.a.s.i.i.s.a.g   lXlXlXlXlXlXlXlXlXlXlXlXlXlXlXlXlXlX",
"lXlXlXlXlXlXlXlXlXlXlXlXlXlXlXlXlXlXlX, F &.&.e.M.(.(.~.G   lXlXlXlXlX  , 5.*.e.a.a.i.!.D   lXlXlXlXlXlXlXlXlXlXlXlXlXlXlXlXlXlX",
"lXlXlXlXlXlXlXlXlXlXlXlXlXlXlXlXlXlXO f #.F #.q.f.W.M.k.D   lXlXlXlXlX  , 5.$.*.i.a.a.d.G - lXlXlXlXlXlXlXlXlXlXlXlXlXlXlXlXlXlX",
"lXlXlXlXlXlXlXlXlXlXlXlXlXlXlXlXlXO s x g z 0.s.s.E.s.q.l   lXlXlXlXlX  , &.#.@.6.a.i.&.8. .$ lXlXlXlXlXlXlXlXlXlXlXlXlXlXlXlXlX",
"lXlXlXlXlXlXlXlXlXlXlXlXlXlXlXlXO ..@.{ @.0.e.a.a.a.a.y.z   lXlXlXlXlX  < &.#.@.#.&.#.6.f./.M.2 lXlXlXlXlXlXlXlXlXlXlXlXlXlXlXlX",
"lXlXlXlXlXlXlXlXlXlXlXlXlXlXlX, b &.7.a.M.U.U.s.u.i.s.y.z   lXlXlXlXlX  , &.#.#.@.#.0.e.s.U.].t.4   lXlXlXlXlXlXlXlXlXlXlXlXlXlX",
"lXlXlXlXlXlXlXlXlXlXlXlXlXlX  s 9.6.e.m.E.W.W.M.a.a.a.y.x   lXlXlXlXlX  , 7.#.#.@.&.w.a.i.a.M.|.t.2 lXlXlXlXlXlXlXlXlXlXlXlXlXlX",
"lXlXlXlXlXlXlXlXlXlXlXlXlXlX. s 7.s.a.u.s.T.M.W.M.i.s.6.d   lXlXlXlXlX  , $.&.#.#.@.@.0.a.a.e.m.~.0.X lXlXlXlXlXlXlXlXlXlXlXlXlX",
"lXlXlXlXlXlXlXlXlXlXlXlXlX  c #.&.s.a.a.i.a.a.U.U.a.k.g . lXlXlXlXlXlXlXlX- @.7.8.&.8.&.w.k.k.f.!.0.X lXlXlXlXlXlXlXlXlXlXlXlXlX",
"lXlXlXlXlXlXlXlXlXlXlXlXlX  @.9.7.y.k.k.k.k.k.Y.T.k.z.3   lXlXlXlXlXlXlXlX  : < < , , , 3 y t y i 3 . lXlXlXlXlXlXlXlXlXlXlXlXlX",
"lXlXlXlXlXlXlXlXlXlXlXlXlX  u c d d D D D D D D D D x - lXlXlXlXlXlXlXlXlX                            lXlXlXlXlXlXlXlXlXlXlXlXlX",
"lXlXlXlXlXlXlXlXlXlXlXlXlX                            lXlXlXlXlXlXlXlXlXlXlXlXlXlXlXlXlXlXlXlXlXlXlXlXlXlXlXlXlXlXlXlXlXlXlXlXlX"
};
