/* XPM */
static char *result[] = {
/* columns rows colors chars-per-pixel */
"64 64 229 2 ",
"   c #000101",
".  c #01050A",
"X  c #040B0C",
"o  c #020B12",
"O  c #010C1C",
"+  c #051114",
"@  c #091519",
"#  c #091718",
"$  c #09110E",
"%  c #3A1A10",
"&  c #010F22",
"*  c #021223",
"=  c #01142A",
"-  c #081A26",
";  c #031C35",
":  c #021D3A",
">  c #021730",
",  c #14162C",
"<  c #09202A",
"1  c #12292C",
"2  c #052135",
"3  c #04233D",
"4  c #0A2637",
"5  c #143439",
"6  c #2C2A28",
"7  c #552416",
"8  c #5B3835",
"9  c #011F47",
"0  c #032444",
"q  c #062A43",
"w  c #04274B",
"e  c #1A2946",
"r  c #0A3345",
"t  c #183A46",
"y  c #002453",
"u  c #042A54",
"i  c #032E5C",
"p  c #00275E",
"a  c #0B3C54",
"s  c #05325D",
"d  c #093756",
"f  c #133A56",
"g  c #273B4D",
"h  c #243552",
"j  c #053463",
"k  c #053669",
"l  c #073A68",
"z  c #053C73",
"x  c #063F7D",
"c  c #003677",
"v  c #032E64",
"b  c #533D42",
"n  c #1B4A57",
"m  c #144250",
"M  c #255C5D",
"N  c #204D56",
"B  c #09436C",
"V  c #0B4764",
"C  c #1E5568",
"Z  c #0A4772",
"A  c #0C4A73",
"S  c #07417E",
"D  c #0A4A7B",
"F  c #125B7C",
"G  c #175477",
"H  c #144C6B",
"J  c #255C63",
"K  c #255D6A",
"L  c #295B76",
"P  c #2A666C",
"I  c #236D7B",
"U  c #296977",
"Y  c #24717E",
"T  c #326F7D",
"R  c #424358",
"E  c #63494B",
"W  c #725C5F",
"Q  c #696474",
"!  c #995134",
"~  c #894F31",
"^  c #AE5A36",
"/  c #9B5B44",
"(  c #8C5E46",
")  c #996C4F",
"_  c #B46D4D",
"`  c #AB6A4E",
"'  c #C47959",
"]  c #C7744D",
"[  c #C07C60",
"{  c #B98360",
"}  c #CA845A",
"|  c #C99974",
" . c #CF8F69",
".. c #EE9B6E",
"X. c #F8A26D",
"o. c #003F84",
"O. c #074485",
"+. c #064589",
"@. c #0A4B87",
"#. c #0C5283",
"$. c #0B558D",
"%. c #0F5C89",
"&. c #074A93",
"*. c #084D94",
"=. c #054997",
"-. c #0A5495",
";. c #09529C",
":. c #095E97",
">. c #185891",
",. c #0E629C",
"<. c #046298",
"1. c #1D6394",
"2. c #146996",
"3. c #19718E",
"4. c #277585",
"5. c #337D8C",
"6. c #347984",
"7. c #287094",
"8. c #0954A2",
"9. c #0B5BA3",
"0. c #0A5BAA",
"q. c #0556A5",
"w. c #0A5DB4",
"e. c #0E63A4",
"r. c #0D63AC",
"t. c #0F6BAE",
"y. c #0F68A7",
"u. c #126BA3",
"i. c #106CAD",
"p. c #176AA7",
"a. c #1879A8",
"s. c #0D65B3",
"d. c #0F6CB3",
"f. c #0F68BA",
"g. c #106FB1",
"h. c #0A75B6",
"j. c #1273B4",
"k. c #157BB5",
"l. c #1074BA",
"z. c #157CBB",
"x. c #1E7DB0",
"c. c #227FAD",
"v. c #5D7C95",
"b. c #606F83",
"n. c #127CC4",
"m. c #1677C5",
"M. c #0F6FC2",
"N. c #817484",
"B. c #36818D",
"V. c #3E8D8C",
"C. c #2D8796",
"Z. c #308C9F",
"A. c #1582BD",
"S. c #1985BD",
"D. c #1C8ABB",
"F. c #158ABA",
"G. c #3289A7",
"H. c #3598AB",
"J. c #2590B8",
"K. c #399CB6",
"L. c #2A89B5",
"P. c #3CA5B6",
"I. c #45819E",
"U. c #4590A3",
"Y. c #48A9AE",
"T. c #43A7B4",
"R. c #47B1B7",
"E. c #7193B2",
"W. c #1582C7",
"Q. c #1987C0",
"!. c #1B8CC3",
"~. c #1584CA",
"^. c #188BCC",
"/. c #1D92C6",
"(. c #1E94C9",
"). c #1E99CC",
"_. c #198ED3",
"`. c #1C96D5",
"'. c #2199CA",
"]. c #2493C9",
"[. c #219DD6",
"{. c #2A90CE",
"}. c #3CACC4",
"|. c #3DB4C8",
" X c #2CAAD7",
".X c #1C9DE3",
"XX c #2B88E0",
"oX c #23ACE8",
"OX c #4F9ACF",
"+X c #49BBC8",
"@X c #43BDD2",
"#X c #43A2D0",
"$X c #76A7D1",
"%X c #4F92F8",
"&X c #4DC2CE",
"*X c #45C5DA",
"=X c #47C7D8",
"-X c #4BD1DD",
";X c #59D4DA",
":X c #52C0C6",
">X c #60DCDF",
",X c #4BD4E7",
"<X c #55DCEA",
"1X c #49DAF2",
"2X c #4DD5EA",
"3X c #5AE3EE",
"4X c #53E3F3",
"5X c #59E9F7",
"6X c #5EF5FF",
"7X c #64E9EC",
"8X c #64EDF1",
"9X c #66F0F4",
"0X c #66F4FB",
"qX c #6BFEFF",
"wX c #69F5F9",
"eX c #72F2FB",
"rX c #C5A69B",
"tX c #EEB286",
"yX c #ECC093",
"uX c #F8C794",
"iX c #FFD49F",
"pX c #FFD8A8",
"aX c #81CBDE",
"sX c #8CC7EA",
"dX c #A5C8E9",
"fX c #B9DCEB",
"gX c #8FFDFC",
"hX c #F9F7FA",
"jX c None",
/* pixels */
"jXjXjXjXjXjXjXjXjXjXjXjXjXjXjXjXjXjXjX      jXjXjXjXjXjXjXjXjXjXjXjXjXjXjXjX@ D j o jXjXjXjXjXjXjXjXjXjXjXjXjXjXjXjXjXjXjXjXjXjX",
"jXjXjXjXjXjXjXjXjXjXjXjXjXjXjXjXjXjX  & q a 4 jXjXjXjXjXjXjXjXjXjXjXjXjXjX; %._.M.w . jXjXjXjXjXjXjXjXjXjXjXjXjXjXjXjXjXjXjXjXjX",
"jXjXjXjXjXjXjXjXjXjXjXjXjXjXjXjXjXX > Z e..X3.  + jXjXjXjXjXjXjXjXjXjXjX  B ^.^.g.$.3   jXjXjXjXjXjXjXjXjXjXjXjXjXjXjXjXjXjXjXjX",
"jXjXjXjXjXjXjXjXjXjXjXjXjXjXjXjX. d W.D.l e.#.. a.a   jXjXjXjXjXjXjXjX      d n.j k.G   jXjXjXjXjXjXjXjXjXjXjXjXjXjXjXjXjXjXjXjX",
"jXjXjXjXjXjXjXjXjXjXjXjXjXjXjXjX  ; e.^.a.,.0   A.a   jXjXjXjX          %.u.d = O.W.2.= . jXjXjXjXjXjXjXjXjXjXjXjXjXjXjXjXjXjXjX",
"jXjXjXjXjXjXjXjXjXjXjXjXjXjXjXjX> j @.$.`.A * s s.q   jXjXjX$ m n M P P F %.d 3 i @.-.k . jXjXjXjXjXjXjXjXjXjXjXjXjXjXjXjXjXjXjX",
"jXjXjXjXjXjXjXjXjXjXjXjXjXjXjX. x l.,.j e.> @ g.*.: . jX+ @ t K.|.4XqX>X1 $ a ,.  = O.S . jXjXjXjXjXjXjXjXjXjXjXjXjXjXjXjXjXjXjX",
"jXjXjXjXjXjXjXjXjXjXjXjXjXjXjX  w +.r.u.Z O . . . j y   6.1.+.*.;.7.R.=X>X7XB..   l *.w . jXjXjXjXjXjXjXjXjXjXjXjXjXjXjXjXjXjXjX",
"jXjXjXjXjXjXjXjXjXjXjXjXjXjXjX. z x z r.g.2 . u   O ; g >.t.i.k.h.k.J.P.,XqX7XI.X ; @.S X jXjXjXjXjXjXjXjXjXjXjXjXjXjXjXjXjXjXjX",
"jXjXjXjXjXjXjXjXjXjXjXjXjXjXjX. z @.z z D 2 w s.u   @ 1.;.d.!.'.#X#XG.T H.+X7X:X$ 3 O.u   jXjXjXjXjXjXjXjXjXjXjXjXjXjXjXjXjXjXjX",
"jXjXjXjXjXjXjXjXjXjXjXjXjXjXjX  ; S &.u   = $.g.f.= O q.j.!./.].$XdXE.C Z.G.G.4.  j u   jXjXjXjXjXjXjXjXjXjXjXjXjXjXjXjXjXjXjXjX",
"jXjXjXjXjXjXjXjXjXjXjXjXjXjXjXjX. ; @.&.. w 8.*.l.; O 0.i.S./.].$XhXfXA.(.!.).p..   . jXjXjXjXjXjXjXjXjXjXjXjXjXjXjXjXjXjXjXjXjX",
"jXjXjXjXjXjXjXjXjXjXjXjXjXjXjXjXjX. * = = z 8.e.!.u.u 2 e.^.'.[.{.dXsXA.G }.eXaX6.#   jXjXjXjXjXjXjXjXjXjXjXjXjXjXjXjXjXjXjXjXjX",
"jXjXjXjXjXjXjXjXjXjXjXjXjXjXjXjXjX    = k -.i.S.].`.Z   :._.z.<.<.1.L./.L R.gXgXU.<   jXjXjXjXjXjXjXjXjXjXjXjXjXjXjXjXjXjXjXjXjX",
"jXjXjXjXjXjXjXjXjXjXjXjXjXjXjXjXjXjXo j &.s.A.'.(._.B   >.m.#.e h e Z D.H.P.*X&X4.*   jXjXjXjXjXjXjXjXjXjXjXjXjXjXjXjXjXjXjXjXjX",
"jXjXjXjXjXjXjXjXjXjXjXjXjXjXjXjXjXjXjXX x s.A.(.(.^.B   @.o.g ! [ ` b z !.K.6.L ].r   jXjXjXjXjXjXjXjXjXjXjXjXjXjXjXjXjXjXjXjXjX",
"jXjXjXjXjXjXjXjXjXjXjXjXjXjXjXjXjXjXjX. s &.r.A.Q.f.s   i R ( _ ! ^ ! E B h.).a.r o jXjXjXjXjXjXjXjXjXjXjXjXjXjXjXjXjXjXjXjXjXjX",
"jXjXjXjXjXjXjXjXjXjXjXjXjXjXjXjXjXjXjX  * z 0.9.9.q.y   y E ] tXrXQ W } E b.I.V . jXjXjXjXjXjXjXjXjXjXjXjXjXjXjXjXjXjXjXjXjXjXjX",
"jXjXjXjXjXjXjXjXjXjXjXjXjXjXjXjXjXjXjXjX  0 &.*.+.0.A # 0 8 } pXhXOXv.uX....~ . jXjXjXjXjXjXjXjXjXjXjXjXjXjXjXjXjXjXjXjXjXjXjXjX",
"jXjXjXjXjXjXjXjXjXjXjXjXjXjXjXjXjXjXjXjXjX. ; 8.=.J.+X5.o 7  .uXuXuXyXyXyXiX)   jXjXjXjXjXjXjXjXjXjXjXjXjXjXjXjXjXjXjXjXjXjXjXjX",
"jXjXjXjXjXjXjXjXjXjXjXjXjXjXjXjXjXjXjXjXjXjX. 2 L.<X3XH.  , Q X.uX ._ | uXuX(   jXjXjXjXjXjXjXjXjXjXjXjXjXjXjXjXjXjXjXjXjXjXjXjX",
"jXjXjXjXjXjXjXjXjXjXjXjXjXjXjXjXjXjXjXjXjXjXjX  H.9XwX=XP = , N.| ] ' tXtX/ 7   jXjXjXjXjXjXjXjXjXjXjXjXjXjXjXjXjXjXjXjXjXjXjXjX",
"jXjXjXjXjXjXjXjXjXjXjXjXjXjXjXjXjXjXjXjXjXjXjXX J +XwX9X5XJ = c 8 ! } | ` 6 +   jXjXjXjXjXjXjXjXjXjXjXjXjXjXjXjXjXjXjXjXjXjXjXjX",
"jXjXjXjXjXjXjXjXjXjXjXjXjXjXjXjXjXjXjXjXjXjXjXjX. Y 4X9X8X1XY             U U   jXjXjXjXjXjXjXjXjXjXjXjXjXjXjXjXjXjXjXjXjXjXjXjX",
"jXjXjXjXjXjXjXjXjXjXjXjXjXjXjXjXjXjXjXjXjXjXjXjX  K =X,X8X0X;XY.R.Z.3.C.I t -   jXjXjXjXjXjXjXjXjXjXjXjXjXjXjXjXjXjXjXjXjXjXjXjX",
"jXjXjXjXjXjXjXjXjXjXjXjXjXjXjXjXjXjXjXjXjXjXjXjXjX1 U @X8X3X3XqXqX8X4X4X@X<     jXjXjXjXjXjXjXjXjXjXjXjXjXjXjXjXjXjXjXjXjXjXjXjX",
"jXjXjXjXjXjXjXjXjXjXjXjXjXjXjXjXjXjXjXjXjXjXjXjXjXjX@ 5.;X=X=X9X8X8XwX8X2XJ $   jXjXjXjXjXjXjXjXjXjXjXjXjXjXjXjXjXjXjXjXjXjXjXjX",
"jXjXjXjXjXjXjXjXjXjXjXjXjXjXjXjXjXjXjXjXjXjXjXjXjXjXjX$ 5.}.,X8X8X8X7X8X9X&Xn   jXjXjXjXjXjXjXjXjXjXjXjXjXjXjXjXjXjXjXjXjXjXjXjX",
"jXjXjXjXjXjXjXjXjXjXjXjXjXjXjXjXjXjXjXjXjXjXjXjXjXjXjXjX# T +X*X8X8X8X8X9X<XI   jXjXjXjXjXjXjXjXjXjXjXjXjXjXjXjXjXjXjXjXjXjXjXjX",
"jXjXjXjXjXjXjXjXjXjXjXjXjXjXjXjXjXjXjXjXjXjXjXjXjXjXjXjX. t K.*X8X8X8X8X8X4XI   jXjXjXjXjXjXjXjXjXjXjXjXjXjXjXjXjXjXjXjXjXjXjXjX",
"jXjXjXjXjXjXjXjXjXjXjXjXjXjXjXjXjXjXjXjXjXjXjXjXjXjXjXjX  , U &X<X8X8X8X8X4XI   jXjXjXjXjXjXjXjXjXjXjXjXjXjXjXjXjXjXjXjXjXjXjXjX",
"jXjXjXjXjXjXjXjXjXjXjXjXjXjXjXjXjXjXjXjXjXjXjXjXjXjXjXjXjX  5 H.}.<X9X8X8X4XI   jXjXjXjXjXjXjXjXjXjXjXjXjXjXjXjXjXjXjXjXjXjXjXjX",
"jXjXjXjXjXjXjXjXjXjXjXjXjXjXjXjXjXjXjXjXjXjXjXjXjXjXjXjXjX  O G H.Y.R.,X-X+XJ   jXjXjXjXjXjXjXjXjXjXjXjXjXjXjXjXjXjXjXjXjXjXjXjX",
"jXjXjXjXjXjXjXjXjXjXjXjXjXjXjXjXjXjXjXjXjXjXjXjXjXjXjXjXjX  & o.>.7.L.D.D.L.f   jXjXjXjXjXjXjXjXjXjXjXjXjXjXjXjXjXjXjXjXjXjXjXjX",
"jXjXjXjXjXjXjXjXjXjXjXjXjXjXjXjXjXjXjXjXjXjXjXjXjXjXjXjXjX  ; q.=.t.h.j.m.s.i   jXjXjXjXjXjXjXjXjXjXjXjXjXjXjXjXjXjXjXjXjXjXjXjX",
"jXjXjXjXjXjXjXjXjXjXjXjXjXjXjXjXjXjXjXjXjXjXjXjXjXjXjXjXjX  ; 9.t.!./.].%XXXB   jXjXjXjXjXjXjXjXjXjXjXjXjXjXjXjXjXjXjXjXjXjXjXjX",
"jXjXjXjXjXjXjXjXjXjXjXjXjXjXjXjXjXjXjXjXjXjXjXjXjXjXjXjX  O p =.g.!.'.].m.f.u   jXjXjXjXjXjXjXjXjXjXjXjXjXjXjXjXjXjXjXjXjXjXjXjX",
"jXjXjXjXjXjXjXjXjXjXjXjXjXjXjXjXjXjXjXjXjXjXjXjXjXjXjXjX  H J.x.8.l.`.~.9.p.n   jXjXjXjXjXjXjXjXjXjXjXjXjXjXjXjXjXjXjXjXjXjXjXjX",
"jXjXjXjXjXjXjXjXjXjXjXjXjXjXjXjXjXjXjXjXjXjXjXjXjXjXjXjX  4.4X=Xp.#.#.#.-.K.P   jXjXjXjXjXjXjXjXjXjXjXjXjXjXjXjXjXjXjXjXjXjXjXjX",
"jXjXjXjXjXjXjXjXjXjXjXjXjXjXjXjXjXjXjXjXjXjXjXjXjXjXjXjX. 4.5X8XT.1   + 5.-X4.  jXjXjXjXjXjXjXjXjXjXjXjXjXjXjXjXjXjXjXjXjXjXjXjX",
"jXjXjXjXjXjXjXjXjXjXjXjXjXjXjXjXjXjXjXjXjXjXjXjXjXjXjXX K +XqX;X5 jXjX+ P.1XY   jXjXjXjXjXjXjXjXjXjXjXjXjXjXjXjXjXjXjXjXjXjXjXjX",
"jXjXjXjXjXjXjXjXjXjXjXjXjXjXjXjXjXjXjXjXjXjXjXjXjXjXjXo H.8X0X+XX jXjX@ H.1XI   jXjXjXjXjXjXjXjXjXjXjXjXjXjXjXjXjXjXjXjXjXjXjXjX",
"jXjXjXjXjXjXjXjXjXjXjXjXjXjXjXjXjXjXjXjXjXjXjXjXjXjXjXX P.0X5XH.+ jXjX$ B.*XC.- jXjXjXjXjXjXjXjXjXjXjXjXjXjXjXjXjXjXjXjXjXjXjXjX",
"jXjXjXjXjXjXjXjXjXjXjXjXjXjXjXjXjXjXjXjXjXjXjXjXjXjXjX# ;XqX;X6.o jXjX$ 6.+X@X5.X jXjXjXjXjXjXjXjXjXjXjXjXjXjXjXjXjXjXjXjXjXjXjX",
"jXjXjXjXjXjXjXjXjXjXjXjXjXjXjXjXjXjXjXjXjXjXjXjXjX  5 =XwX6XC.@ jXjXjXjX# Z.1XH.o jXjXjXjXjXjXjXjXjXjXjXjXjXjXjXjXjXjXjXjXjXjXjX",
"jXjXjXjXjXjXjXjXjXjXjXjXjXjXjXjXjXjXjXjXjXjXjXjXjX  + J M P.4.  jXjXjXjX  P 1X|.  jXjXjXjXjXjXjXjXjXjXjXjXjXjXjXjXjXjXjXjXjXjXjX",
"jXjXjXjXjXjXjXjXjXjXjXjXjXjXjXjXjXjXjXjXjXjXjXjXjXo = O O n N   jXjXjXjX  P K.4.r X jXjXjXjXjXjXjXjXjXjXjXjXjXjXjXjXjXjXjXjXjXjX",
"jXjXjXjXjXjXjXjXjXjXjXjXjXjXjXjXjXjXjXjXjXjXjXjX. v s.z.W.3     jXjXjXjX  U M . ].a . jXjXjXjXjXjXjXjXjXjXjXjXjXjXjXjXjXjXjXjXjX",
"jXjXjXjXjXjXjXjXjXjXjXjXjXjXjXjXjXjXjXjXjXjXjX. k ;.n./.n.2   jXjXjXjXjX  X 4 e././.V   jXjXjXjXjXjXjXjXjXjXjXjXjXjXjXjXjXjXjXjX",
"jXjXjXjXjXjXjXjXjXjXjXjXjXjXjXjXjXjXjXjXjXjXjX  -.W.!.'.!.#.; jXjXjXjXjX  2 -.W./.oXF   jXjXjXjXjXjXjXjXjXjXjXjXjXjXjXjXjXjXjXjX",
"jXjXjXjXjXjXjXjXjXjXjXjXjXjXjXjXjXjXjXjXjXjX. : u.^.(./.'.M.v   jXjXjXjX= :.~.j.S.[.G   jXjXjXjXjXjXjXjXjXjXjXjXjXjXjXjXjXjXjXjX",
"jXjXjXjXjXjXjXjXjXjXjXjXjXjXjXjXjXjXjXjXjX  > 0.i.S././.(.l.i   jXjXjXo +.g.j.j.d.`.F . jXjXjXjXjXjXjXjXjXjXjXjXjXjXjXjXjXjXjXjX",
"jXjXjXjXjXjXjXjXjXjXjXjXjXjXjXjXjXjXjXjXjX  * 8.g.!.(././.W.B   jXjXjXo +.g.l.j.j.j.j.#.. jXjXjXjXjXjXjXjXjXjXjXjXjXjXjXjXjXjXjX",
"jXjXjXjXjXjXjXjXjXjXjXjXjXjXjXjXjXjXjXjXjX; O.;.-.i.S./.'._.A   jXjXjXo +.0.y.j.g.g.n.u.  jXjXjXjXjXjXjXjXjXjXjXjXjXjXjXjXjXjXjX",
"jXjXjXjXjXjXjXjXjXjXjXjXjXjXjXjXjXjXjXjXo j *.S *.0.z.].!.n.l   jXjXjXo +.*.-.t.j.l.l.-.; . jXjXjXjXjXjXjXjXjXjXjXjXjXjXjXjXjXjX",
"jXjXjXjXjXjXjXjXjXjXjXjXjXjXjXjXjXjXjXX s k i l i.l.k./.j.r.i   jXjXjXo +.;.=.*.t.j.e.-.0.3 . jXjXjXjXjXjXjXjXjXjXjXjXjXjXjXjXjX",
"jXjXjXjXjXjXjXjXjXjXjXjXjXjXjXjXjXjXO +.&.O.&.u.i.j.j.j.j.r.i   jXjXjXo +.;.=.*.-.*.;.j.!.(.m   jXjXjXjXjXjXjXjXjXjXjXjXjXjXjXjX",
"jXjXjXjXjXjXjXjXjXjXjXjXjXjXjXjX  ; x ;.0.j.A.!.!.j.i.g.j.s.i   jXjXjXo +.;.*.*.&.9.g.k.z.[.D.V   jXjXjXjXjXjXjXjXjXjXjXjXjXjXjX",
"jXjXjXjXjXjXjXjXjXjXjXjXjXjXjXjX  i s.9.g.S.].(.'.S.j.j.j.s.j   jXjXjXo &.q.*.*.&.9.j.g.g.k.[./.q o jXjXjXjXjXjXjXjXjXjXjXjXjXjX",
"jXjXjXjXjXjXjXjXjXjXjXjXjXjXjXjXX i 0.j.j.i.k.!.!./.Q.j.j.0.u   jXjXjXo x ;.*.*.*.&.8.j.j.g.z.^.W.2   jXjXjXjXjXjXjXjXjXjXjXjXjX",
"jXjXjXjXjXjXjXjXjXjXjXjXjXjXjX. z &.9.j.j.j.j.j.j.!.!.g.n.d . jXjXjXjXjX. z w.;.8.;.8.0.l.n.n.n.~.3   jXjXjXjXjXjXjXjXjXjXjXjXjX",
"jXjXjXjXjXjXjXjXjXjXjXjXjXjXjX. &.w.8.s.n.W.n.n.n.W.^.n.f.3   jXjXjXjXjX  * 0 ; : ; ; ; q q q q q o   jXjXjXjXjXjXjXjXjXjXjXjXjX",
"jXjXjXjXjXjXjXjXjXjXjXjXjXjXjX  u k i i Z A Z Z A Z Z Z k O jXjXjXjXjXjX                            jXjXjXjXjXjXjXjXjXjXjXjXjXjX",
"jXjXjXjXjXjXjXjXjXjXjXjXjXjXjX                            jXjXjXjXjXjXjXjXjXjXjXjXjXjXjXjXjXjXjXjXjXjXjXjXjXjXjXjXjXjXjXjXjXjXjX"
};
