/* XPM */
static char *result[] = {
/* columns rows colors chars-per-pixel */
"64 64 228 2 ",
"   c #000000",
".  c #01060B",
"X  c #040B0D",
"o  c #090A09",
"O  c #16050C",
"+  c #020C14",
"@  c #010D1A",
"#  c #000412",
"$  c #03111C",
"%  c #0B1A1B",
"&  c #071518",
"*  c #24010D",
"=  c #331B0A",
"-  c #33221A",
";  c #000B21",
":  c #021323",
">  c #02162B",
",  c #041C2B",
"<  c #081C23",
"1  c #031C34",
"2  c #011536",
"3  c #0B252C",
"4  c #142A2B",
"5  c #062437",
"6  c #14363B",
"7  c #143436",
"8  c #102F35",
"9  c #362C21",
"0  c #663A2A",
"q  c #001C43",
"w  c #042343",
"e  c #062B43",
"r  c #03244B",
"t  c #062B4A",
"y  c #1A2C4A",
"u  c #0C3345",
"i  c #163B49",
"p  c #042B54",
"a  c #042C5B",
"s  c #083654",
"d  c #06335D",
"f  c #093B5B",
"g  c #073257",
"h  c #1A3856",
"j  c #142C57",
"k  c #26364A",
"l  c #273B54",
"z  c #252D46",
"x  c #033363",
"c  c #063968",
"v  c #053A73",
"b  c #043C79",
"n  c #173A64",
"m  c #233E60",
"M  c #661047",
"N  c #1C4247",
"B  c #184A57",
"V  c #1F5358",
"C  c #244F4D",
"Z  c #255659",
"A  c #0A446A",
"S  c #0D4C6D",
"D  c #0D4561",
"F  c #1D5B67",
"G  c #0C4A73",
"H  c #09467A",
"J  c #115475",
"K  c #125A7B",
"L  c #124F76",
"P  c #215A64",
"I  c #225672",
"U  c #1E6A77",
"Y  c #2D6C6D",
"T  c #266A75",
"R  c #336B71",
"E  c #5C4C5C",
"W  c #6C4943",
"Q  c #4E5070",
"!  c #813B20",
"~  c #96563F",
"^  c #A15A3D",
"/  c #85145B",
"(  c #B90652",
")  c #935A46",
"_  c #9C6349",
"`  c #BB7A5C",
"'  c #B06B4E",
"]  c #C67A5A",
"[  c #C6754E",
"{  c #BB8B67",
"}  c #C0805F",
"|  c #C78967",
" . c #D48C64",
".. c #D29570",
"X. c #E9996A",
"o. c #E49C74",
"O. c #E1A77B",
"+. c #013C87",
"@. c #003D91",
"#. c #06458B",
"$. c #074888",
"%. c #0B528D",
"&. c #0D5281",
"*. c #074A93",
"=. c #084D95",
"-. c #054A97",
";. c #0A5395",
":. c #09539B",
">. c #075A99",
",. c #155D9B",
"<. c #19538B",
"1. c #0F6497",
"2. c #1A6B99",
"3. c #0E6D8E",
"4. c #266A85",
"5. c #287684",
"6. c #267899",
"7. c #2F708F",
"8. c #0954A2",
"9. c #0B5AA3",
"0. c #0B5CAB",
"q. c #0859A9",
"w. c #0A5BB0",
"e. c #0D63A5",
"r. c #0E65AB",
"t. c #0F6AAD",
"y. c #0C6DA5",
"u. c #1165A4",
"i. c #106DAC",
"p. c #1569A7",
"a. c #1776AA",
"s. c #0F6CB3",
"d. c #0C66B7",
"f. c #106EB1",
"g. c #106FBB",
"h. c #1272B3",
"j. c #157AB7",
"k. c #1275BA",
"l. c #147BBB",
"z. c #1C73B2",
"x. c #0D78B5",
"c. c #2174A6",
"v. c #486B88",
"b. c #137CC4",
"n. c #127CCB",
"m. c #1177C2",
"M. c #0F70C1",
"N. c #3E878A",
"B. c #2A8799",
"V. c #358695",
"C. c #368C98",
"Z. c #3D939A",
"A. c #1680BC",
"S. c #1A84BC",
"D. c #1987B5",
"F. c #169CBA",
"G. c #2884AB",
"H. c #348DA7",
"J. c #3D9BAC",
"K. c #3795A7",
"L. c #2791BC",
"P. c #359AB5",
"I. c #2A8DAD",
"U. c #3BA5B5",
"Y. c #41ABBC",
"T. c #4DB8BC",
"R. c #61A5B7",
"E. c #6A8CB2",
"W. c #1986C2",
"Q. c #1B8BC3",
"!. c #1688C9",
"~. c #1D92C6",
"^. c #1E94CA",
"/. c #1D99CF",
"(. c #168AD4",
"). c #1E98D4",
"_. c #0A88C0",
"`. c #2099CA",
"'. c #219DD4",
"]. c #3B96CC",
"[. c #2EA3C6",
"{. c #3AABC9",
"}. c #3CB1C5",
"|. c #3FB7CB",
" X c #3BBCD4",
".X c #22A4DD",
"XX c #1D9EE9",
"oX c #1EA0E0",
"OX c #21A3E0",
"+X c #489ACA",
"@X c #48A8D8",
"#X c #59ADD6",
"$X c #44B4C7",
"%X c #78A7C8",
"&X c #43C4DA",
"*X c #47C4D4",
"=X c #4FD2DE",
"-X c #57D4D7",
";X c #52C8D4",
":X c #77C9D7",
">X c #78D7DE",
",X c #45CCE4",
"<X c #4FCEE4",
"1X c #49D4E8",
"2X c #56DBE5",
"3X c #4ADCF4",
"4X c #5BE4EB",
"5X c #57E7F5",
"6X c #5EF4FC",
"7X c #4CE1F9",
"8X c #61E9EF",
"9X c #64EDF2",
"0X c #6DFEFE",
"qX c #69F4F7",
"wX c #71FFFF",
"eX c #A68883",
"rX c #EBB88A",
"tX c #F6BE8F",
"yX c #FCC18B",
"uX c #F0C090",
"iX c #FCC996",
"pX c #9EB8DC",
"aX c #A3C0DE",
"sX c #B0CCE7",
"dX c #9EFFFF",
"fX c #86D2E9",
"gX c white",
"hX c None",
/* pixels */
"hXhXhXhXhXhXhXhXhXhXhXhXhXhXhXhXhXhXhXhXhXhXhXhXhXhXhXhXhXhXhXhXhXhXhXhXhXhXhXhXhXhXhXhXhXhXhXhXhXhXhXhXhXhXhXhXhXhXhXhXhXhXhXhX",
"hXhXhXhXhXhXhXhXhXhXhXhXhXhXhXhXhXhXhXhXhXhXhXhXhXhXhXhXhXhXhXhXhXhXhXhXhXhXhXhXhXhXhXhXhXhXhXhXhXhXhXhXhXhXhXhXhXhXhXhXhXhXhXhX",
"hXhXhXhXhXhXhXhXhXhXhXhXhXhXhXhXhXhXhXhXhXhXhXhXhXhXhXhXhXhXhXhXhXhXhXhXhXhXhXhXhXhXhXhXhXhXhXhXhXhXhXhXhXhXhXhXhXhXhXhXhXhXhXhX",
"hXhXhXhXhXhXhXhXhXhXhXhXhXhXhXhXhXhXhXhXhXhXhXhXhXhXhXhXhXhXhXhXhXhXhXhXhXhXhXhXhXhXhXhXhXhXhXhXhXhXhXhXhXhXhXhXhXhXhXhXhXhXhXhX",
"hXhXhXhXhXhXhXhXhXhXhXhXhXhXhXhXhXhXhXhXhXhXhXhXhXhXhXhXhXhXhXhXhXhXhXhXhXhXhXhXhXhXhXhXhXhXhXhXhXhXhXhXhXhXhXhXhXhXhXhXhXhXhXhX",
"hXhXhXhXhXhXhXhXhXhXhXhXhXhXhXhXhXhXhXhXhXhXhXhXhXhXhXhXhXhXhXhXhXhXhXhXhXhXhXhXhXhXhXhXhXhXhXhXhXhXhXhXhXhXhXhXhXhXhXhXhXhXhXhX",
"hXhXhXhXhXhXhXhXhXhXhXhXhXhXhXhXhXhXhXhXhXhXhXhXhXhXhXhXhXhXhXhXhXhXhXhXhXhXhXhXhXhXhXhXhXhXhXhXhXhXhXhXhXhXhXhXhXhXhXhXhXhXhXhX",
"hXhXhXhXhXhXhXhXhXhXhXhXhXhXhXhXhXhXhXhXhXhXhXhXhXhXhXhXhXhXhXhXhXhXhXhXhXhXhXhXhXhXhXhXhXhXhXhXhXhXhXhXhXhXhXhXhXhXhXhXhXhXhXhX",
"hXhXhXhXhXhXhXhXhXhXhXhXhXhXhXhXhXhXhXhXhXhXhXhXhXhXhXhXhXhXhXhXhXhXhXhXhXhXhXhXhXhXhXhXhXhXhXhXhXhXhXhXhXhXhXhXhXhXhXhXhXhXhXhX",
"hXhXhXhXhXhXhXhXhXhXhXhXhXhXhXhXhXhXhXhXhXhXhXhXhXhXhXhXhXhXhXhXhXhXhXhXhXhXhXhXhXhXhXhXhXhXhXhXhXhXhXhXhXhXhXhXhXhXhXhXhXhXhXhX",
"hXhXhXhXhXhXhXhXhXhXhXhXhXhXhXhXhXhXhXhXhXhXhXhXhXhXhXhXhXhXhXhXhXhXhXhXhXhXhXhXhXhXhXhXhXhXhXhXhXhXhXhXhXhXhXhXhXhXhXhXhXhXhXhX",
"hXhXhXhXhXhXhXhXhXhXhXhXhXhXhXhXhXhXhXhXhXhXhXhXhXhXhXhXhXhXhXhXhXhXhXhXhXhXhXhXhXhXhXhXhXhXhXhXhXhXhXhXhXhXhXhXhXhXhXhXhXhXhXhX",
"hXhXhXhXhXhXhXhXhXhXhXhXhXhXhXhXhXhXhXhXhXhXhXhXhXhXhXhXhXhXhXhXhXhXhX        hXhXhXhXhXhXhXhXhXhXhXhXhXhXhXhXhXhXhXhXhXhXhXhXhX",
"hXhXhXhXhXhXhXhXhXhXhXhXhXhXhXhXhXhXhXhXhXhXhXhXhXhXhXhXhXhXhXhXhXhX4 V P Y Y 4 hXhXhXhXhXhXhXhXhXhXhXhXhXhXhXhXhXhXhXhXhXhXhXhX",
"hXhXhXhXhXhXhXhXhXhXhXhXhXhXhXhXhXhXhXhXhXhXhXhXhXhXhXhXhXhXhXX % + 4.{.,XqXwXZ.4 4 hXhXhXhXhXhXhXhXhXhXhXhXhXhXhXhXhXhXhXhXhXhX",
"hXhXhXhXhXhXhXhXhXhXhXhXhXhXhXhXhXhXhXhXhXhXhXhXhXhXhXhXhXhX  N H.*.*.*.,.Z.$X<X9X4X4 hXhXhXhXhXhXhXhXhXhXhXhXhXhXhXhXhXhXhXhXhX",
"hXhXhXhXhXhXhXhXhXhXhXhXhXhXhXhXhXhXhXhXhXhXhXhXhXhXhXhXhX  4 I t.r.k.x.x.D.P.$X4XwX-XZ   hXhXhXhXhXhXhXhXhXhXhXhXhXhXhXhXhXhXhX",
"hXhXhXhXhXhXhXhXhXhXhXhXhXhXhXhXhXhXhXhXhXhXhXhXhXhXhXhXhX  h ,.q.A.^.{.@X].7.7.Y.;X9XY   hXhXhXhXhXhXhXhXhXhXhXhXhXhXhXhXhXhXhX",
"hXhXhXhXhXhXhXhXhXhXhXhXhXhXhXhXhXhXhXhXhXhXhXhXhXhXhXhXhX@ b d.A.~.Q.+XpXaXv.U K.B.G.i   hXhXhXhXhXhXhXhXhXhXhXhXhXhXhXhXhXhXhX",
"hXhXhXhXhXhXhXhXhXhXhXhXhXhXhXhXhXhXhXhXhXhXhXhXhXhXhXhX@ $.*.9.l.~.S.+XaXgX#X_.Q.i.q.q     hXhXhXhXhXhXhXhXhXhXhXhXhXhXhXhXhXhX",
"hXhXhXhXhXhXhXhXhXhXhXhXhXhXhXhXhXhXhXhXhXhXhXhXhXhXhXhX@ @.@.8.A.~././.#XsX@X1.7.=XfXR.B   hXhXhXhXhXhXhXhXhXhXhXhXhXhXhXhXhXhX",
"hXhXhXhXhXhXhXhXhXhXhXhXhXhXhXhXhXhXhXhXhXhXhXhXhXhXhXhX< [.L.u.r.W.y.>.:.7.!.c.7.8XdX>XP   hXhXhXhXhXhXhXhXhXhXhXhXhXhXhXhXhXhX",
"hXhXhXhXhXhXhXhXhXhXhXhXhXhXhXhXhXhXhXhXhXhXhXhXhXhXhXhX4 :X6XL.#.e.f z k j %.z.J.}.-XJ.y   hXhXhXhXhXhXhXhXhXhXhXhXhXhXhXhXhXhX",
"hXhXhXhXhXhXhXhXhXhXhXhXhXhXhXhXhXhXhXhXhXhXhXhXhXhXhXhXO / :X X+.d W '  .] C $.j.H.R <.b   hXhXhXhXhXhXhXhXhXhXhXhXhXhXhXhXhXhX",
"hXhXhXhXhXhXhXhXhXhXhXhXhXhXhXhXhXhXhXhXhXhXhXhXhXhXhXhX* ( %XF.j W ' o.yXuX_ l $.>.9.x ; hXhXhXhXhXhXhXhXhXhXhXhXhXhXhXhXhXhXhX",
"hXhXhXhXhXhXhXhXhXhXhXhXhXhXhXhXhXhXhXhXhXhXhXhXhXhXhXhX* ( E.3.y ^ ] | | | [ ) E Q n : hXhXhXhXhXhXhXhXhXhXhXhXhXhXhXhXhXhXhXhX",
"hXhXhXhXhXhXhXhXhXhXhXhXhXhXhXhXhXhXhXhXhXhXhXhXhXhXhXhXO M v.3.y ~  .` _ _ | o.X.X.= hXhXhXhXhXhXhXhXhXhXhXhXhXhXhXhXhXhXhXhXhX",
"hXhXhXhXhXhXhXhXhXhXhXhXhXhXhXhXhXhXhXhXhXhXhXhXhXhXhXhXhX  k S k ) O.iXtXtXtXrXiXuX9 hXhXhXhXhXhXhXhXhXhXhXhXhXhXhXhXhXhXhXhXhX",
"hXhXhXhXhXhXhXhXhXhXhXhXhXhXhXhXhXhXhXhXhXhXhXhXhXhXhXhXhXhX  r -.m ` tXrX' { rXiXo.-   hXhX        hXhXhXhXhXhXhXhXhXhXhXhXhXhX",
"hXhXhXhXhXhXhXhXhXhXhXhXhXhXhXhXhXhXhXhXhXhXhXhXhXhXhXhXhXhXi D q # Q eX..' o.tX..0 O hXhXhXe g r s . hXhXhXhXhXhXhXhXhXhXhXhXhX",
"hXhXhXhXhXhXhXhXhXhXhXhXhXhXhXhXhXhXhXhXhXhXhXhXhXhXhXX 8 7 *XZ.% % x l ! _ { ` 0   hXhXhX3 e.M.g.b.e . hXhXhXhXhXhXhXhXhXhXhXhX",
"hXhXhXhXhXhXhXhXhXhXhXhXhXhXhXhXhXhXhXhX              B 1X9XqX2X{.K.k o           hXhX  5 ^.9.i.~.f.0.1   hXhXhXhXhXhXhXhXhXhXhX",
"hXhXhXhXhXhXhXhXhXhXhXhXhXhXhXhXhXhXhX  X a.% 1 %.  N.9X9XqX5X2X8X2XY.6.B.B.U B.T .     $ (.Q.S.f.=.W.p.r   hXhXhXhXhXhXhXhXhXhX",
"hXhXhXhXhXhXhXhXhXhXhXhXhXhXhXhXhXhXu J f D A A A f Y T.0X5XU Z.wXqX4X5X5X,X$X&X XP   5 J u j.b.r.h.f.n.%.  hXhXhXhXhXhXhXhXhXhX",
"hXhXhXhXhXhXhXhXhXhXhXhXhXhXhXhXhX, 2.XXf.& &.s   b.# C 6XH.  C wX9X9XqX8X$X5.V.,X,Xu f 3.& A $.H Q.0.,.A   hXhXhXhXhXhXhXhXhXhX",
"hXhXhXhXhXhXhXhXhXhXhXhXhXhXhXhX$ y.8.r./.l.1   < f.: V U..   Y 0X8X8XqX2XK.X 7 Y.|.z.2 : h.,   : =.m.s   hXhXhXhXhXhXhXhXhXhXhX",
"hXhXhXhXhXhXhXhXhXhXhXhXhXhXhXhX+ *.j.Q.j.9.# : :.:.> X %   Z P.1X9XqX6XU.< hXo N Y.u.:.S @   u &.: , + hXhXhXhXhXhXhXhXhXhXhXhX",
"hXhXhXhXhXhXhXhXhXhXhXhXhXhXhXhX+ 9.!.h.:.h.c 1 x 8.> @ 2 . S P.Y.2X2X<X5.  hXhX. N %.d.:.s D r.;.    hXhXhXhXhXhXhXhXhXhXhXhXhX",
"hXhXhXhXhXhXhXhXhXhXhXhXhXhXhXhX+ L i.r.u.S.n.p   c @ > x ; b p.K.[.[.P.I   hXhXhX  p $.q.b.n.:.r   hXhXhXhXhXhXhXhXhXhXhXhXhXhX",
"hXhXhXhXhXhXhXhXhXhXhXhXhXhXhXhXhX  a k.W.:.g.A     hXhX@ =.s.k.f.f.k.f.v   hXhXhXhX  r :.*.8.w   hXhXhXhXhXhXhXhXhXhXhXhXhXhXhX",
"hXhXhXhXhXhXhXhXhXhXhXhXhXhXhXhXhXhX+ g M.m.s @   hXhXhX& =Xz.-.l.Q.Q.!.&.    hXhXhXhX. : @ : . hXhXhXhXhXhXhXhXhXhXhXhXhXhXhXhX",
"hXhXhXhXhXhXhXhXhXhXhXhXhXhXhXhXhXhXhX# r d X hXhXhXhX3 V.qX$X1.e.W.Q.g.>.4.5.3 hXhXhXhXhXhXhXhXhXhXhXhXhXhXhXhXhXhXhXhXhXhXhXhX",
"hXhXhXhXhXhXhXhXhXhXhXhXhXhXhXhXhXhXhXhX    hXhXhXhX  F 6X9X4XD.-.r.f.9.c.$X7XB.3 hXhXhXhXhXhXhXhXhXhXhXhXhXhXhXhXhXhXhXhXhXhXhX",
"hXhXhXhXhXhXhXhXhXhXhXhXhXhXhXhXhXhXhXhXhXhXhXhXhXhX. Y 0X8X=XG.+.#.#.2.Z.C.$X,XK.X hXhXhXhXhXhXhXhXhXhXhXhXhXhXhXhXhXhXhXhXhXhX",
"hXhXhXhXhXhXhXhXhXhXhXhXhXhXhXhXhXhXhXhXhXhXhXhXhX  5.4X9X*X3X5.@ @ @ & 6 J.K.$X&XK.+ hXhXhXhXhXhXhXhXhXhXhXhXhXhXhXhXhXhXhXhXhX",
"hXhXhXhXhXhXhXhXhXhXhXhXhXhXhXhXhXhXhXhXhXhXhXhX    7 J.5X X5.4 hXhXhXhXo i V.Y.}.,XU.6 hXhXhXhXhXhXhXhXhXhXhXhXhXhXhXhXhXhXhXhX",
"hXhXhXhXhXhXhXhXhXhXhXhXhXhXhXhXhXhXhXhXhXhXhX. > 1 , N P.,X3   hXhXhXhXhX  C V.U.|.U.F 3 hXhXhXhXhXhXhXhXhXhXhXhXhXhXhXhXhXhXhX",
"hXhXhXhXhXhXhXhXhXhXhXhXhXhXhXhXhXhXhXhXhXhX. w w.x.oXD X }.6   hXhXhXhXhXhX  i J.V.X S D.. hXhXhXhXhXhXhXhXhXhXhXhXhXhXhXhXhXhX",
"hXhXhXhXhXhXhXhXhXhXhXhXhXhXhXhXhXhXhXhXhX  r :.k.Q.OXS   3 hXhXhXhXhXhXhXhXhXX % X A W.^.a.< hXhXhXhXhXhXhXhXhXhXhXhXhXhXhXhXhX",
"hXhXhXhXhXhXhXhXhXhXhXhXhXhXhXhXhXhXhXhX  r :.l.Q.~..XJ     hXhXhXhXhXhXhXhXhXhX  d t.!.[.).,   hXhXhXhXhXhXhXhXhXhXhXhXhXhXhXhX",
"hXhXhXhXhXhXhXhXhXhXhXhXhXhXhXhXhXhXhX. w q.k.Q.`.~.).S     hXhXhXhXhXhXhXhXhX+ g b.x.j.!.~.3 hXhXhXhXhXhXhXhXhXhXhXhXhXhXhXhXhX",
"hXhXhXhXhXhXhXhXhXhXhXhXhXhXhXhXhXhX. w 0.h.W.~.L.~.!.c   hXhXhXhXhXhXhXhXhX  r r.h.h.s.l.~., hXhXhXhXhXhXhXhXhXhXhXhXhXhXhXhXhX",
"hXhXhXhXhXhXhXhXhXhXhXhXhXhXhXhXhX  p *.:.f.S.`.~.~.!.c   hXhXhXhXhXhXhXhXhX  w w.k.h.i.k.h.< hXhXhXhXhXhXhXhXhXhXhXhXhXhXhXhXhX",
"hXhXhXhXhXhXhXhXhXhXhXhXhXhXhXhX  a *.0.r.f.W.`.~.l.r.e   hXhXhXhXhXhXhXhX  w b 9.h.k.f.k.f.& hXhXhXhXhXhXhXhXhXhXhXhXhXhXhXhXhX",
"hXhXhXhXhXhXhXhXhXhXhXhXhXhXhX. > $.$.;.j.h.l.Q.S.k.x @   hXhXhXhXhXhXhXhX  H q.;.r.h.h.k.e.r . hXhXhXhXhXhXhXhXhXhXhXhXhXhXhXhX",
"hXhXhXhXhXhXhXhXhXhXhXhXhXhX. > c d p H l.f.k.f.x.s.,   hXhXhXhXhXhXhXhXhX  b 8.*.*.t.h.r.=.0.g . hXhXhXhXhXhXhXhXhXhXhXhXhXhXhX",
"hXhXhXhXhXhXhXhXhXhXhXhXhX  p =.#.#.>.i.f.k.f.k.i.H @   hXhXhXhXhXhXhXhXhX  v 8.=.=.:.=.:.i.W.`.K   hXhXhXhXhXhXhXhXhXhXhXhXhXhX",
"hXhXhXhXhXhXhXhXhXhXhXhX. p #.q.t.j.W.Q.l.i.f.f.$.: . hXhXhXhXhXhXhXhXhXhX  v 8.=.=.*.:.i.h.l.).~.J . hXhXhXhXhXhXhXhXhXhXhXhXhX",
"hXhXhXhXhXhXhXhXhXhXhXhX. =.q.u.j.Q.~.`.~.j.k.s.H   hXhXhXhXhXhXhXhXhXhXhX  H 8.=.=.*.9.f.k.t.h./.'.D @ hXhXhXhXhXhXhXhXhXhXhXhX",
"hXhXhXhXhXhXhXhXhXhXhXhX@ #.i.k.h.s.S.Q.~.`.j.l.1.. hXhXhXhXhXhXhXhXhXhXhX  c :.;.=.=.*.:.f.k.i.j.Q.(.s   hXhXhXhXhXhXhXhXhXhXhX",
"hXhXhXhXhXhXhXhXhXhX  > *.=.r.k.f.f.k.h.l.~.l.g.1.. hXhXhXhXhXhXhXhXhXhXhXhX. a w.8.8.8.:.q.k.b.b.b.(.f   hXhXhXhXhXhXhXhXhXhXhX",
"hXhXhXhXhXhXhXhXhXhX  w d.8.0.g.!.b.b.b.b.!.!.n.%.. hXhXhXhXhXhXhXhXhXhXhXhX  @ w 1 1 2 1 2 5 e e 5 t :   hXhXhXhXhXhXhXhXhXhXhX",
"hXhXhXhXhXhXhXhXhXhX  : c x a c G G G G G G G G r . hXhXhXhXhXhXhXhXhXhXhXhXhX                          hXhXhXhXhXhXhXhXhXhXhXhX",
"hXhXhXhXhXhXhXhXhXhX                              hXhXhXhXhXhXhXhXhXhXhXhXhXhXhXhXhXhXhXhXhXhXhXhXhXhXhXhXhXhXhXhXhXhXhXhXhXhXhX"
};
