/* XPM */
static char *result[] = {
/* columns rows colors chars-per-pixel */
"64 64 222 2 ",
"   c #000000",
".  c #01060A",
"X  c #03090B",
"o  c #080705",
"O  c #010B14",
"+  c #010E1C",
"@  c #000615",
"#  c #071112",
"$  c #02111D",
"%  c #0B1B1D",
"&  c #091519",
"*  c #010F20",
"=  c #021424",
"-  c #0A1C22",
";  c #02152A",
":  c #041A2D",
">  c #061D27",
",  c #031C36",
"<  c #031E3A",
"1  c #001634",
"2  c #0C2328",
"3  c #122A2D",
"4  c #03203E",
"5  c #092B3D",
"6  c #092533",
"7  c #122A31",
"8  c #183437",
"9  c #0A363A",
"0  c #45261C",
"q  c #53332B",
"w  c #021E43",
"e  c #001F49",
"r  c #042343",
"t  c #062A42",
"y  c #03264B",
"u  c #0B3647",
"i  c #163D44",
"p  c #042A52",
"a  c #042E5A",
"s  c #012552",
"d  c #05305D",
"f  c #08375A",
"g  c #1A3A5E",
"h  c #14294E",
"j  c #273854",
"k  c #3E3D4F",
"l  c #002F67",
"z  c #053565",
"x  c #053669",
"c  c #093B68",
"v  c #063B73",
"b  c #023877",
"n  c #4B3942",
"m  c #6E2461",
"M  c #1A434A",
"N  c #1A4B52",
"B  c #124853",
"V  c #214F52",
"C  c #0B4264",
"Z  c #0A446C",
"A  c #185567",
"S  c #094572",
"D  c #0B4A74",
"F  c #05427E",
"G  c #09467A",
"H  c #115677",
"J  c #1B4263",
"K  c #2A5A67",
"L  c #324E63",
"P  c #29656B",
"I  c #266777",
"U  c #2B737F",
"Y  c #317273",
"T  c #494457",
"R  c #6A4742",
"E  c #7A5C60",
"W  c #506264",
"Q  c #8F4D34",
"!  c #B80754",
"~  c #851A61",
"^  c #87544A",
"/  c #A9684A",
"(  c #BA7C5B",
")  c #A0715C",
"_  c #947D79",
"`  c #BD8262",
"'  c #C59A75",
"]  c #D2946E",
"[  c #E78F62",
"{  c #DEA273",
"}  c #F2A46F",
"|  c #003D86",
" . c #064583",
".. c #0A4B82",
"X. c #04448B",
"o. c #08498D",
"O. c #154D86",
"+. c #0B5389",
"@. c #074A93",
"#. c #084D95",
"$. c #064C98",
"%. c #09529B",
"&. c #0B5693",
"*. c #155D98",
"=. c #1B5C8C",
"-. c #176588",
";. c #0E619B",
":. c #166899",
">. c #296685",
",. c #297E8C",
"<. c #287681",
"1. c #337685",
"2. c #317191",
"3. c #034DA2",
"4. c #0954A2",
"5. c #0C5BA0",
"6. c #0A5CAA",
"7. c #0757A8",
"8. c #0B5CB3",
"9. c #0D63A6",
"0. c #0D64AB",
"q. c #0F6BAD",
"w. c #0F68A7",
"e. c #116DAC",
"r. c #176AAB",
"t. c #1776A8",
"y. c #0C64B4",
"u. c #0E6BB3",
"i. c #0E6CBC",
"p. c #106FB1",
"a. c #1173B3",
"s. c #1478B5",
"d. c #1175BA",
"f. c #167EBC",
"g. c #0F77BB",
"h. c #3F71A3",
"j. c #506D8C",
"k. c #6F7CA4",
"l. c #127CC2",
"z. c #127AC6",
"x. c #0F71C1",
"c. c #0B829C",
"v. c #3C8184",
"b. c #2D899B",
"n. c #368798",
"m. c #2B808F",
"M. c #1782BD",
"N. c #1985BE",
"B. c #1B82B2",
"V. c #1182B7",
"C. c #2E86A8",
"Z. c #338CA4",
"A. c #3D9BAD",
"S. c #3797A8",
"D. c #2A94B9",
"F. c #389DB7",
"G. c #258CB3",
"H. c #3AA4B5",
"J. c #619B99",
"K. c #4E8BA5",
"L. c #7199B8",
"P. c #43A8B9",
"I. c #4AB5BA",
"U. c #76ADB7",
"Y. c #1582C5",
"T. c #1B8CC3",
"R. c #1584CA",
"E. c #198AC9",
"W. c #1E92C6",
"Q. c #1E94CA",
"!. c #178BD2",
"~. c #1B95D5",
"^. c #2397C6",
"/. c #219FD6",
"(. c #1BA3C5",
"). c #27A3C8",
"_. c #38AAC5",
"`. c #3CB2C6",
"'. c #3DB9CE",
"]. c #3DB5CA",
"[. c #3EBCD4",
"{. c #1A98E3",
"}. c #1EA1E6",
"|. c #29B0E9",
" X c #44B6CA",
".X c #43BCD3",
"XX c #78B0D1",
"oX c #3BC4DA",
"OX c #45C7DA",
"+X c #58D5DB",
"@X c #55CAD0",
"#X c #45CEE4",
"$X c #4CCBE2",
"%X c #49D6EB",
"&X c #56DBE6",
"*X c #4CDDF3",
"=X c #71C9E1",
"-X c #5BE1EB",
";X c #4DE0F5",
":X c #58E6F4",
">X c #62E5EB",
",X c #65EEF3",
"<X c #6AFDFF",
"1X c #67F4F9",
"2X c #74FFFF",
"3X c #70C9D5",
"4X c #88A8AF",
"5X c #DFAF81",
"6X c #F8B485",
"7X c #EDB788",
"8X c #F8C997",
"9X c #F7C897",
"0X c #99BFC8",
"qX c #8BCAD3",
"wX c #9FCEE7",
"eX c #A4FFFF",
"rX c #AFD3E9",
"tX c #D0DDDD",
"yX c #D1E1D4",
"uX c #FFF0C5",
"iX c #E4E5E9",
"pX c None",
/* pixels */
"pXpXpXpXpXpXpXpXpXpXpXpXpXpXpXpXpXpXpXpXpXpXpXpXpXpXpXpXpXpXpXpXpXpXpXpXpXpXpXpXpXpXpXpXpXpXpXpXpXpXpXpXpXpXpXpXpXpXpXpXpXpXpXpX",
"pXpXpXpXpXpXpXpXpXpXpXpXpXpXpXpXpXpXpXpXpXpXpXpXpXpXpXpXpXpXpXpXpXpXpXpXpXpXpXpXpXpXpXpXpXpXpXpXpXpXpXpXpXpXpXpXpXpXpXpXpXpXpXpX",
"pXpXpXpXpXpXpXpXpXpXpXpXpXpXpXpXpXpXpXpXpXpXpXpXpXpXpXpXpXpXpXpXpXpXpXpXpXpXpXpXpXpXpXpXpXpXpXpXpXpXpXpXpXpXpXpXpXpXpXpXpXpXpXpX",
"pXpXpXpXpXpXpXpXpXpXpXpXpXpXpXpXpXpXpXpXpXpXpXpXpXpXpXpXpXpXpXpXpXpXpXpXpXpXpXpXpXpXpXpXpXpXpXpXpXpXpXpXpXpXpXpXpXpXpXpXpXpXpXpX",
"pXpXpXpXpXpXpXpXpXpXpXpXpXpXpXpXpXpXpXpXpXpXpXpXpXpXpXpXpXpXpXpXpXpXpXpXpXpXpXpXpXpXpXpXpXpXpXpXpXpXpXpXpXpXpXpXpXpXpXpXpXpXpXpX",
"pXpXpXpXpXpXpXpXpXpXpXpXpXpXpXpXpXpXpXpXpXpXpXpXpXpXpXpXpXpXpXpXpXpXpXpXpXpXpXpXpXpXpXpXpXpXpXpXpXpXpXpXpXpXpXpXpXpXpXpXpXpXpXpX",
"pXpXpXpXpXpXpXpXpXpXpXpXpXpXpXpXpXpXpXpXpXpXpXpXpXpXpXpXpXpXpXpXpXpXpXpXpXpXpXpXpXpXpXpXpXpXpXpXpXpXpXpXpXpXpXpXpXpXpXpXpXpXpXpX",
"pXpXpXpXpXpXpXpXpXpXpXpXpXpXpXpXpXpXpXpXpXpXpXpXpXpXpXpXpXpXpXpXpXpXpXpXpXpXpXpXpXpXpXpXpXpXpXpXpXpXpXpXpXpXpXpXpXpXpXpXpXpXpXpX",
"pXpXpXpXpXpXpXpXpXpXpXpXpXpXpXpXpXpXpXpXpXpXpXpXpXpXpXpXpXpXpXpXpXpXpXpXpXpXpXpXpXpXpXpXpXpXpXpXpXpXpXpXpXpXpXpXpXpXpXpXpXpXpXpX",
"pXpXpXpXpXpXpXpXpXpXpXpXpXpXpXpXpXpXpXpXpXpXpXpXpXpXpXpXpXpXpXpXpXpXpXpXpXpXpXpXpXpXpXpXpXpXpXpXpXpXpXpXpXpXpXpXpXpXpXpXpXpXpXpX",
"pXpXpXpXpXpXpXpXpXpXpXpXpXpXpXpXpXpXpXpXpXpXpXpXpXpXpXpXpXpXpXpXpXpXpXpXpXpXpXpXpXpXpXpXpXpXpXpXpXpXpXpXpXpXpXpXpXpXpXpXpXpXpXpX",
"pXpXpXpXpXpXpXpXpXpXpXpXpXpXpXpXpXpXpXpXpXpXpXpXpXpXpXpXpXpXpXpXpXpXpXpXpXpXpXpXpXpXpXpXpXpXpXpXpXpXpXpXpXpXpXpXpXpXpXpXpXpXpXpX",
"pXpXpXpXpXpXpXpXpXpXpXpXpXpXpXpXpXpXpXpXpXpXpXpXpXpXpXpXpXpXpXpXpXpXpXpX          pXpXpXpXpXpXpXpXpXpXpXpXpXpXpXpXpXpXpXpXpXpXpX",
"pXpXpXpXpXpXpXpXpXpXpXpXpXpXpXpXpXpXpXpXpXpXpXpXpXpXpXpXpXpXpXpXpXpXpX  8 N K Y P # pXpXpXpXpXpXpXpXpXpXpXpXpXpXpXpXpXpXpXpXpXpX",
"pXpXpXpXpXpXpXpXpXpXpXpXpXpXpXpXpXpXpXpXpXpXpXpXpXpXpXpXpXpXpXpXpXX % 6 S.[.%X<X<XP 3 % pXpXpXpXpXpXpXpXpXpXpXpXpXpXpXpXpXpXpXpX",
"pXpXpXpXpXpXpXpXpXpXpXpXpXpXpXpXpXpXpXpXpXpXpXpXpXpXpXpXpXpXpXpX  P C.p.W.Q.G.S..X&X,XI.o pXpXpXpXpXpXpXpXpXpXpXpXpXpXpXpXpXpXpX",
"pXpXpXpXpXpXpXpXpXpXpXpXpXpXpXpXpXpXpXpXpXpXpXpXpXpXpXpXpXpXpXX 8 -.Q.Q.~.(.qXtXA.oX1X<XI.8 pXpXpXpXpXpXpXpXpXpXpXpXpXpXpXpXpXpX",
"pXpXpXpXpXpXpXpXpXpXpXpXpXpXpXpXpXpXpXpXpXpXpXpXpXpXpXpXpXpXpXo >.a.g.Y.Q.(.=XrXL.,.A.+X>X8   pXpXpXpXpXpXpXpXpXpXpXpXpXpXpXpXpX",
"pXpXpXpXpXpXpXpXpXpXpXpXpXpXpXpXpXpXpXpXpXpXpXpXpXpXpXpXpXpXpX, 0.d.p.a.Y.T.V.E.XX2.I Z.Z.-   pXpXpXpXpXpXpXpXpXpXpXpXpXpXpXpXpX",
"pXpXpXpXpXpXpXpXpXpXpXpXpXpXpXpXpXpXpXpXpXpXpXpXpXpXpXpXpX  < %.$.0.s.a.p.p.f.Q.W.T.Q.T.a.;     pXpXpXpXpXpXpXpXpXpXpXpXpXpXpXpX",
"pXpXpXpXpXpXpXpXpXpXpXpXpXpXpXpXpXpXpXpXpXpXpXpXpXpXpXpXpX  w 7.| | %.5.a.d.f.M.l.Y.:.>.OXqXW   pXpXpXpXpXpXpXpXpXpXpXpXpXpXpXpX",
"pXpXpXpXpXpXpXpXpXpXpXpXpXpXpXpXpXpXpXpXpXpXpXpXpXpXpXpXpX  : -.).^.*.#.0.&. . .+.7.=.v.-XeXJ.  pXpXpXpXpXpXpXpXpXpXpXpXpXpXpXpX",
"pXpXpXpXpXpXpXpXpXpXpXpXpXpXpXpXpXpXpXpXpXpXpXpXpXpXpXpXpX  % 1.3X>X^.X.X.c j J w l w.A.P.;XU   pXpXpXpXpXpXpXpXpXpXpXpXpXpXpXpX",
"pXpXpXpXpXpXpXpXpXpXpXpXpXpXpXpXpXpXpXpXpXpXpXpXpXpXpXpXpX  i K.~ XX#X| z L 4XU.o 1 | *.S.r.s   pXpXpXpXpXpXpXpXpXpXpXpXpXpXpXpX",
"pXpXpXpXpXpXpXpXpXpXpXpXpXpXpXpXpXpXpXpXpXpXpXpXpXpXpXpXpX  B K.! 4X(.p R ` 3XXX4 q T b 0.y @ pXpXpXpXpXpXpXpXpXpXpXpXpXpXpXpXpX",
"pXpXpXpXpXpXpXpXpXpXpXpXpXpXpXpXpXpXpXpXpXpXpXpXpXpXpXpXpX  9 j.! k.t.h Q ] yXwXX.^ / T s . pXpXpXpXpXpXpXpXpXpXpXpXpXpXpXpXpXpX",
"pXpXpXpXpXpXpXpXpXpXpXpXpXpXpXpXpXpXpXpXpXpXpXpXpXpXpXpXpX  % j m j.-.g Q { uXiXh._ } ( o pXpXpXpXpXpXpXpXpXpXpXpXpXpXpXpXpXpXpX",
"pXpXpXpXpXpXpXpXpXpXpXpXpXpXpXpXpXpXpXpXpXpXpXpXpXpXpXpXpXpXpXX J L O.O.^ { 9X7X9X9X8X' o pXpXpXpXpXpXpXpXpXpXpXpXpXpXpXpXpXpXpX",
"pXpXpXpXpXpXpXpXpXpXpXpXpXpXpXpXpXpXpXpXpXpXpXpXpXpXpXpXpXpX      c 8.$.j ) 6X7X/ 5X8X( o pXpXpXpXpXpXpXpXpXpXpXpXpXpXpXpXpXpXpX",
"pXpXpXpXpXpXpXpXpXpXpXpXpXpXpXpXpXpXpXpXpXpXpXpXpXpXpXpXpXM v.U A r w y  .E [ { ] 6X` q   pXpXpXpXpXpXpXpXpXpXpXpXpXpXpXpXpXpXpX",
"pXpXpXpXpXpXpXpXpXpXpXpXpXpXpXpXpXpXpXpXpXpXpXpXpXpXpXpX7 @X2X1X;XK % % v n Q / ' ( 0   pXpXpXpX2 6 O pXpXpXpXpXpXpXpXpXpXpXpXpX",
"pXpXpXpXpXpXpXpXpXpXpXpXpXpXpXpXpXpXpXpXpXpXpXpXpXpXpX% +X2X+X].'.oX`.1..             pXpXpXpX> T.!.f   pXpXpXpXpXpXpXpXpXpXpXpX",
"pXpXpXpXpXpXpXpXpXpXpXpXpXpXpXpXpXpXpXpXpXpXpXpXpXpX7 I.1X&X#X X% A.1X@Xb.b.m.I I X pXpXpX  u B.E.....H   pXpXpXpXpXpXpXpXpXpXpX",
"pXpXpXpXpXpXpXpXpXpXpXpXpXpXpXpXpXpXpXpXpXpXpXpXpXu B.|.&X*XF.i 3 I.2X1X:X*XOXP..Xm.7 pXpX  C {.G G q.&.  pXpXpXpXpXpXpXpXpXpXpX",
"pXpXpXpXpXpXpXpXpXpXpXpXpXpXpXpXpXpXpXpXpXpXpXpX= H t...G.H.N o S.-X1X,X<XOXb.U `.;Xb.2 pX- f +.c 9.0.x ; pXpXpXpXpXpXpXpXpXpXpX",
"pXpXpXpXpXpXpXpXpXpXpXpXpXpXpXpXpXpXpXpXpXpXpXO #.4   @ a @ # >.`.-X,X,X,X Xi o n.].#XS.  &.C X e.6.b x $.=   pXpXpXpXpXpXpXpXpX",
"pXpXpXpXpXpXpXpXpXpXpXpXpXpXpXpXpXpXpXpXpXpX> ;.M.t.:.D +   3 A.'.OX&X,X+X.XM o S.K.OXH.   .d   6.G v o.c O   pXpXpXpXpXpXpXpXpX",
"pXpXpXpXpXpXpXpXpXpXpXpXpXpXpXpXpXpXpXpXpX; ..~.Q./.}.s.    i I.P.`.OX&XH.I 2 o M n.F.t.C , r a r v  .F  .+   pXpXpXpXpXpXpXpXpX",
"pXpXpXpXpXpXpXpXpXpXpXpXpXpXpXpXpXpXpXpX  z z.Q.W.Q.s.D 5 O 7 ,.2.F._.).C.& pXpX  V -.3.x.t r x   p F x v = pXpXpXpXpXpXpXpXpXpX",
"pXpXpXpXpXpXpXpXpXpXpXpXpXpXpXpXpXpXpXpX  Z !.W.Q.E.f . T.u @ x @.0.a.u.%.;   pXpX  w %.@.l.C       p  .  pXpXpXpXpXpXpXpXpXpXpX",
"pXpXpXpXpXpXpXpXpXpXpXpXpXpXpXpXpXpXpXpX  S !.W.f.x.p   Y.5 @ @.@.0.M.T.d.=     pXpX. < %.y.%.X.X.= X + pXpXpXpXpXpXpXpXpXpXpXpX",
"pXpXpXpXpXpXpXpXpXpXpXpXpXpXpXpXpXpXpXpX  c z.N.0.a w z p ; s 3.$.%.a.M.6.=.<.N   pXpX  r r y p p O   pXpXpXpXpXpXpXpXpXpXpXpXpX",
"pXpXpXpXpXpXpXpXpXpXpXpXpXpXpXpXpXpXpXpX  w #.u.7.O + v   5 =.*.%.$.4.q.:._.*X'.i . pXpX            pXpXpXpXpXpXpXpXpXpXpXpXpXpX",
"pXpXpXpXpXpXpXpXpXpXpXpXpXpXpXpXpXpXpXpXpX  : %.%.<     o P P.Z.#.X.X.&.n.n.A.OXoXi o pXpXpXpXpXpXpXpXpXpXpXpXpXpXpXpXpXpXpXpXpX",
"pXpXpXpXpXpXpXpXpXpXpXpXpXpXpXpXpXpXpXpXpXpX  + + z y   I H.%XH.> + + + % 1.P.A.OX'.N   pXpXpXpXpXpXpXpXpXpXpXpXpXpXpXpXpXpXpXpX",
"pXpXpXpXpXpXpXpXpXpXpXpXpXpXpXpXpXpXpXpXpXpXpXpX  + @ o `.*XS.N     pXpXpX3 I P.A.#X].P   pXpXpXpXpXpXpXpXpXpXpXpXpXpXpXpXpXpXpX",
"pXpXpXpXpXpXpXpXpXpXpXpXpXpXpXpXpXpXpXpXpXpXpXpX= = 6 u ,.#X<.    pXpXpXpXpX2 1.Z. XH.m.5 X pXpXpXpXpXpXpXpXpXpXpXpXpXpXpXpXpXpX",
"pXpXpXpXpXpXpXpXpXpXpXpXpXpXpXpXpXpXpXpXpXpXpX+ o.u.!.B.  ,.m.  pXpXpXpXpXpXpXO n.A.M $ Q.u . pXpXpXpXpXpXpXpXpXpXpXpXpXpXpXpXpX",
"pXpXpXpXpXpXpXpXpXpXpXpXpXpXpXpXpXpXpXpXpXpX= X.9.Y./.s.. & & pXpXpXpXpXpXpXpXpX& # 5 e.Q.W.B   pXpXpXpXpXpXpXpXpXpXpXpXpXpXpXpX",
"pXpXpXpXpXpXpXpXpXpXpXpXpXpXpXpXpXpXpXpXpX; b i.M.^./.B.#     pXpXpXpXpXpXpXpXpX  6 &.R.W.}.H   pXpXpXpXpXpXpXpXpXpXpXpXpXpXpXpX",
"pXpXpXpXpXpXpXpXpXpXpXpXpXpXpXpXpXpXpXpX= F x.M.W.W.^.t.O   pXpXpXpXpXpXpXpXpXpX; ;.R.a.N./.D   pXpXpXpXpXpXpXpXpXpXpXpXpXpXpXpX",
"pXpXpXpXpXpXpXpXpXpXpXpXpXpXpXpXpXpXpX+ X.u.M.^.W.W.E.;.O pXpXpXpXpXpXpXpXpXpX+ #.u.a.p.p.~.A   pXpXpXpXpXpXpXpXpXpXpXpXpXpXpXpX",
"pXpXpXpXpXpXpXpXpXpXpXpXpXpXpXpXpXpX=  .@.9.M.W.W.W.!.9.X pXpXpXpXpXpXpXpXpXpX. o.u.a.a.p.R.c   pXpXpXpXpXpXpXpXpXpXpXpXpXpXpXpX",
"pXpXpXpXpXpXpXpXpXpXpXpXpXpXpXpX  ,  .7.6.w.M.Q.W.T.p.S X pXpXpXpXpXpXpXpXpX= x @.q.s.a.d.z.f   pXpXpXpXpXpXpXpXpXpXpXpXpXpXpXpX",
"pXpXpXpXpXpXpXpXpXpXpXpXpXpXpXpXO z #. .q.a.s.T.N.Y.+.;   pXpXpXpXpXpXpXpX  r 8.#.5.p.a.d.p.S * pXpXpXpXpXpXpXpXpXpXpXpXpXpXpXpX",
"pXpXpXpXpXpXpXpXpXpXpXpXpXpXpXO d z a c w.s.p.p.a.l.C   pXpXpXpXpXpXpXpXpX  r 4.#.@.5.a.p.%.7...O pXpXpXpXpXpXpXpXpXpXpXpXpXpXpX",
"pXpXpXpXpXpXpXpXpXpXpXpXpXpX= X.o.X.o.w.u.a.a.a.d.&.4   pXpXpXpXpXpXpXpXpX  r 4.#.#.#.%.#.9.f.T.B.& pXpXpXpXpXpXpXpXpXpXpXpXpXpX",
"pXpXpXpXpXpXpXpXpXpXpXpX  , b %.0.a.M.T.N.a.p.p.0.y . pXpXpXpXpXpXpXpXpXpX  < 4.#.#.@.#.9.p.s.T./.t.6 pXpXpXpXpXpXpXpXpXpXpXpXpX",
"pXpXpXpXpXpXpXpXpXpXpXpX  a y.5.a.N.W.W.^.N.s.p.6.1   pXpXpXpXpXpXpXpXpXpX  r 7.#.#.@.%.r.a.e.p.N.}.:.: pXpXpXpXpXpXpXpXpXpXpXpX",
"pXpXpXpXpXpXpXpXpXpXpXpX. a y.s.a.e.s.W.T.Q.N.p.l.5   pXpXpXpXpXpXpXpXpXpX  < $.#.#.#.@.@.0.d.a.s.N.~.*.  pXpXpXpXpXpXpXpXpXpXpX",
"pXpXpXpXpXpXpXpXpXpXpX. v @.5.s.a.p.a.a.a.T.T.p.l.t   pXpXpXpXpXpXpXpXpXpXpXpX; $.6.4.4.4.%.u.l.f.l.!.;.  pXpXpXpXpXpXpXpXpXpXpX",
"pXpXpXpXpXpXpXpXpXpXpX. #.8.7.y.l.Y.l.z.z.R.E.l.i.4   pXpXpXpXpXpXpXpXpXpXpXpX  , < , , , 1 4 t t 5 y 6   pXpXpXpXpXpXpXpXpXpXpX",
"pXpXpXpXpXpXpXpXpXpXpX  p c z a S D D D D S D S z = pXpXpXpXpXpXpXpXpXpXpXpXpX                            pXpXpXpXpXpXpXpXpXpXpX",
"pXpXpXpXpXpXpXpXpXpXpX                            pXpXpXpXpXpXpXpXpXpXpXpXpXpXpXpXpXpXpXpXpXpXpXpXpXpXpXpXpXpXpXpXpXpXpXpXpXpXpX"
};
