/* XPM */
static char *result[] = {
/* columns rows colors chars-per-pixel */
"64 64 221 2 ",
"   c #000001",
".  c #00060C",
"X  c #02090D",
"o  c #010A14",
"O  c #010E1C",
"+  c #090B13",
"@  c #1C0815",
"#  c #02131C",
"$  c #0B1A1C",
"%  c #091417",
"&  c #08100F",
"*  c #27050A",
"=  c #2D1308",
"-  c #010F21",
";  c #021323",
":  c #0B1C22",
">  c #041B2B",
",  c #031826",
"<  c #031C35",
"1  c #021C3B",
"2  c #011635",
"3  c #082227",
"4  c #122829",
"5  c #04223E",
"6  c #072535",
"7  c #122837",
"8  c #143339",
"9  c #582414",
"0  c #473027",
"q  c #71462F",
"w  c #011D44",
"e  c #032244",
"r  c #062A43",
"t  c #03264B",
"y  c #052B4A",
"u  c #1E2E4B",
"i  c #08344B",
"p  c #163644",
"a  c #042B54",
"s  c #042E5A",
"d  c #05315B",
"f  c #093753",
"g  c #1B3D5C",
"h  c #203651",
"j  c #002C6C",
"k  c #043363",
"l  c #05356B",
"z  c #053A6C",
"x  c #093E6B",
"c  c #053A73",
"v  c #053E7B",
"b  c #043778",
"n  c #1B3D60",
"m  c #243F67",
"M  c #1C434B",
"N  c #0E445D",
"B  c #1D4A53",
"V  c #174C56",
"C  c #1C5057",
"Z  c #24555B",
"A  c #204A4F",
"S  c #09426B",
"D  c #0D4968",
"F  c #194B6C",
"G  c #1C5A66",
"H  c #0A4473",
"J  c #0B4A74",
"K  c #05407C",
"L  c #08437B",
"P  c #145778",
"I  c #164871",
"U  c #265768",
"Y  c #23506F",
"T  c #28656A",
"R  c #2A6B79",
"E  c #356376",
"W  c #306D6D",
"Q  c #5B4A55",
"!  c #7A5944",
"~  c #765758",
"^  c #474B67",
"/  c #405E70",
"(  c #5E6570",
")  c #96553C",
"_  c #844F3E",
"`  c #A25A3D",
"'  c #8D125B",
"]  c #B6034C",
"[  c #955740",
"{  c #BA7959",
"}  c #A87761",
"|  c #C87958",
" . c #D49F77",
".. c #D98F6A",
"X. c #E59066",
"o. c #DDA678",
"O. c #F0B079",
"+. c #003D88",
"@. c #054384",
"#. c #06458B",
"$. c #05498D",
"%. c #0A4B88",
"&. c #0D5584",
"*. c #0D588C",
"=. c #064A93",
"-. c #084D94",
";. c #034B9A",
":. c #084F99",
">. c #064792",
",. c #0B5295",
"<. c #09539B",
"1. c #0B5998",
"2. c #16528D",
"3. c #15678B",
"4. c #0E6299",
"5. c #166F98",
"6. c #116F93",
"7. c #25688D",
"8. c #2D7883",
"9. c #317D89",
"0. c #3A6987",
"q. c #0954A3",
"w. c #0B5BA3",
"e. c #0A5BAA",
"r. c #0452A6",
"t. c #0A5DB2",
"y. c #0C64AB",
"u. c #0F6BAD",
"i. c #0E64A4",
"p. c #106DAD",
"a. c #1568A5",
"s. c #177AAA",
"d. c #0D65B2",
"f. c #0E6AB3",
"g. c #0C68BB",
"h. c #106FB1",
"j. c #0F71B6",
"k. c #1273B3",
"l. c #1376B9",
"z. c #147BBB",
"x. c #1779B6",
"c. c #207FAE",
"v. c #7C5386",
"b. c #5A7E9D",
"n. c #0F74C8",
"m. c #137CC4",
"M. c #137BC7",
"N. c #0E6FC1",
"B. c #2F899C",
"V. c #368899",
"C. c #36949D",
"Z. c #1781BD",
"A. c #1983BD",
"S. c #1689B6",
"D. c #2B83A8",
"F. c #378EA5",
"G. c #3995A7",
"H. c #2A96B9",
"J. c #359CB3",
"K. c #268AB7",
"L. c #3CA6BA",
"P. c #428E95",
"I. c #5A9BA9",
"U. c #7295A9",
"Y. c #45ABB6",
"T. c #52BABA",
"R. c #66A6B5",
"E. c #1481C3",
"W. c #1B8CC3",
"Q. c #1583CB",
"!. c #198BC9",
"~. c #1E91C6",
"^. c #1D94CA",
"/. c #1D9DC7",
"(. c #1588D7",
"). c #1D98D6",
"_. c #0787C1",
"`. c #2099CB",
"'. c #209CD3",
"]. c #35A7C6",
"[. c #3DB5CA",
"{. c #3CBAD4",
"}. c #33AED3",
"|. c #1A9AEA",
" X c #23ACEA",
".X c #42B7C8",
"XX c #41BCD1",
"oX c #7DB5C6",
"OX c #67B5DA",
"+X c #39C1E2",
"@X c #49C8DB",
"#X c #56D6DD",
"$X c #51CBDC",
"%X c #73D1DD",
"&X c #45CCE3",
"*X c #4CD5E4",
"=X c #49D5EA",
"-X c #52D4E2",
";X c #4ADCF5",
":X c #76D8E2",
">X c #5CE5EC",
",X c #58E7F6",
"<X c #64EEF3",
"1X c #6CFCFE",
"2X c #66F5F9",
"3X c #6AF4F6",
"4X c #9F8C88",
"5X c #DFA984",
"6X c #EEB385",
"7X c #F2B88A",
"8X c #FBC995",
"9X c #FCD09C",
"0X c #FFD6A0",
"qX c #9EC1C3",
"wX c #A2CCD6",
"eX c #9DFFFF",
"rX c #97D0EA",
"tX c #E8DFD5",
"yX c #FFEFC0",
"uX c #F4FAEE",
"iX c None",
/* pixels */
"iXiXiXiXiXiXiXiXiXiXiXiXiXiXiXiXiXiXiXiXiXiXiXiXiXiXiXiXiXiXiXiXiXiXiXiXiXiXiXiXiXiXiXiXiXiXiXiXiXiXiXiXiXiXiXiXiXiXiXiXiXiXiXiX",
"iXiXiXiXiXiXiXiXiXiXiXiXiXiXiXiXiXiXiXiXiXiXiXiXiXiXiXiXiXiXiXiXiXiXiXiXiXiXiXiXiXiXiXiXiXiXiXiXiXiXiXiXiXiXiXiXiXiXiXiXiXiXiXiX",
"iXiXiXiXiXiXiXiXiXiXiXiXiXiXiXiXiXiXiXiXiXiXiXiXiXiXiXiXiXiXiXiXiXiXiXiXiXiXiXiXiXiXiXiXiXiXiXiXiXiXiXiXiXiXiXiXiXiXiXiXiXiXiXiX",
"iXiXiXiXiXiXiXiXiXiXiXiXiXiXiXiXiXiXiXiXiXiXiXiXiXiXiXiXiXiXiXiXiXiXiXiXiXiXiXiXiXiXiXiXiXiXiXiXiXiXiXiXiXiXiXiXiXiXiXiXiXiXiXiX",
"iXiXiXiXiXiXiXiXiXiXiXiXiXiXiXiXiXiXiXiXiXiXiXiXiXiXiXiXiXiXiXiXiXiXiXiXiXiXiXiXiXiXiXiXiXiXiXiXiXiXiXiXiXiXiXiXiXiXiXiXiXiXiXiX",
"iXiXiXiXiXiXiXiXiXiXiXiXiXiXiXiXiXiXiXiXiXiXiXiXiXiXiXiXiXiXiXiXiXiXiXiXiXiXiXiXiXiXiXiXiXiXiXiXiXiXiXiXiXiXiXiXiXiXiXiXiXiXiXiX",
"iXiXiXiXiXiXiXiXiXiXiXiXiXiXiXiXiXiXiXiXiXiXiXiXiXiXiXiXiXiXiXiXiXiXiXiXiXiXiXiXiXiXiXiXiXiXiXiXiXiXiXiXiXiXiXiXiXiXiXiXiXiXiXiX",
"iXiXiXiXiXiXiXiXiXiXiXiXiXiXiXiXiXiXiXiXiXiXiXiXiXiXiXiXiXiXiXiXiXiXiXiXiXiXiXiXiXiXiXiXiXiXiXiXiXiXiXiXiXiXiXiXiXiXiXiXiXiXiXiX",
"iXiXiXiXiXiXiXiXiXiXiXiXiXiXiXiXiXiXiXiXiXiXiXiXiXiXiXiXiXiXiXiXiXiXiXiXiXiXiXiXiXiXiXiXiXiXiXiXiXiXiXiXiXiXiXiXiXiXiXiXiXiXiXiX",
"iXiXiXiXiXiXiXiXiXiXiXiXiXiXiXiXiXiXiXiXiXiXiXiXiXiXiXiXiXiXiXiXiXiXiXiXiXiXiXiXiXiXiXiXiXiXiXiXiXiXiXiXiXiXiXiXiXiXiXiXiXiXiXiX",
"iXiXiXiXiXiXiXiXiXiXiXiXiXiXiXiXiXiXiXiXiXiXiXiXiXiXiXiXiXiXiXiXiXiXiXiXiXiXiXiXiXiXiXiXiXiXiXiXiXiXiXiXiXiXiXiXiXiXiXiXiXiXiXiX",
"iXiXiXiXiXiXiXiXiXiXiXiXiXiXiXiXiXiXiXiXiXiXiXiXiXiXiXiXiXiXiXiX          iXiXiXiXiXiXiXiXiXiXiXiXiXiXiXiXiXiXiXiXiXiXiXiXiXiXiX",
"iXiXiXiXiXiXiXiXiXiXiXiXiXiXiXiXiXiXiXiXiXiXiXiXiXiXiXiXiXiX    M 9.G.Y.T.A     iXiXiXiXiXiXiXiXiXiXiXiXiXiXiXiXiXiXiXiXiXiXiXiX",
"iXiXiXiXiXiXiXiXiXiXiXiXiXiXiXiXiXiXiXiXiXiXiXiXiXiXiXiXiX$ M y c.{.{.*X2XY.W T   iXiXiXiXiXiXiXiXiXiXiXiXiXiXiXiXiXiXiXiXiXiXiX",
"iXiXiXiXiXiXiXiXiXiXiXiXiXiXiXiXiXiXiXiXiXiXiXiXiXiXiXiX. Z ].E.W.~.H.I.L.*X1X1XZ & iXiXiXiXiXiXiXiXiXiXiXiXiXiXiXiXiXiXiXiXiXiX",
"iXiXiXiXiXiXiXiXiXiXiXiXiXiXiXiXiXiXiXiXiXiXiXiXiXiXiX  u 7.z.~.W./.:XuXR.J.*X<X1XW   iXiXiXiXiXiXiXiXiXiXiXiXiXiXiXiXiXiXiXiXiX",
"iXiXiXiXiXiXiXiXiXiXiXiXiXiXiXiXiXiXiXiXiXiXiXiXiXiXiX  P z.j.z.!./.}.OX0.B.&X@X,XT   iXiXiXiXiXiXiXiXiXiXiXiXiXiXiXiXiXiXiXiXiX",
"iXiXiXiXiXiXiXiXiXiXiXiXiXiXiXiXiXiXiXiXiXiXiXiXiXiX. 2 $.g.k.k.z.Z.Z.Z.F E G.L.XXC   iXiXiXiXiXiXiXiXiXiXiXiXiXiXiXiXiXiXiXiXiX",
"iXiXiXiXiXiXiXiXiXiXiXiXiXiXiXiXiXiXiXiXiXiXiXiXiXiX, k.a.w.p.u.h.f.x.W.7.F Y F.F.p   iXiXiXiXiXiXiXiXiXiXiXiXiXiXiXiXiXiXiXiXiX",
"iXiXiXiXiXiXiXiXiXiXiXiXiXiXiXiXiXiXiXiXiXiXiXiXiXiX7 >X*Xc.>.-.u.l.k.k.k.p.h.p.e.e     iXiXiXiXiXiXiXiXiXiXiXiXiXiXiXiXiXiXiXiX",
"iXiXiXiXiXiXiXiXiXiXiXiXiXiXiXiXiXiXiXiXiXiXiXiXiXiX@ v.:X}.+.:.K d c q.t.%.7.-XrXY.V   iXiXiX    iXiXiXiXiXiXiXiXiXiXiXiXiXiXiX",
"iXiXiXiXiXiXiXiXiXiXiXiXiXiXiXiXiXiXiXiXiXiXiXiXiXiX* ] oX}.+.v N / 0.@.b F P.<XeX%XU   iXiX. N N # iXiXiXiXiXiXiXiXiXiXiXiXiXiX",
"iXiXiXiXiXiXiXiXiXiXiXiXiXiXiXiXiXiXiXiXiXiXiXiXiXiX* ] R.E.b h ( qXoX5 w P J.[.#XF.7   iX% D ).(.S # iXiXiXiXiXiXiXiXiXiXiXiXiX",
"iXiXiXiXiXiXiXiXiXiXiXiXiXiXiXiXiXiXiXiXiXiXiXiXiXiX@ ' b.6.u ) 4XwXU.  < +.4.F.E I e     F ).h.=.z.3.  iXiXiXiXiXiXiXiXiXiXiXiX",
"iXiXiXiXiXiXiXiXiXiXiXiXiXiXiXiXiXiXiXiXiXiXiXiXiXiX+ ^ E S u ) o.tXrXb ~ ^ c S z <       J (.<.x.^.k.k   iXiXiXiXiXiXiXiXiXiXiX",
"iXiXiXiXiXiXiXiXiXiXiXiXiXiXiXiXiXiXiXiXiXiXiXiXiXiX  3 I #.m ` O.yXtX4X5X} Q Q 7 1 <   1 r x h.z.4.,.g.k O iXiXiXiXiXiXiXiXiXiX",
"iXiXiXiXiXiXiXiXiXiXiXiXiXiXiXiXiXiXiXiXiXiXiXiXiXo > , s ;.2.!  .O.o.O.8X6XX...= 1 s   <.d ; *.>.l x i.g.e   iXiXiXiXiXiXiXiXiX",
"iXiXiXiXiXiXiXiXiXiXiXiXiXiXiXiXiXiXiXiXiXiXiXiX  i Q.~., 1 ;.k } { _ ) o.8X6X..=       4.j.l   e #.%.d :.e   iXiXiXiXiXiXiXiXiX",
"iXiXiXiXiXiXiXiXiXiXiXiXiXiXiXiXiXiXiXiXiXiXiX  P a.e.E.S.f ; o _ | ..8X9X9X{ =   + g c , O ; < . 5 >.>.5 o iXiXiXiXiXiXiXiXiXiX",
"iXiXiXiXiXiXiXiXiXiXiXiXiXiXiXiXiXiXiXiXiXiX  e x.).i.1.|.F     = 9 q q ! q 0 i G 9.D.e.d i x @.5 # 5 y   iXiXiXiXiXiXiXiXiXiXiX",
"iXiXiXiXiXiXiXiXiXiXiXiXiXiXiXiXiXiXiXiXiXo 5 e.1.k.Z.q.*.f ;   % 3 # o # o 6 L.@X*X].+.h.M.j.>.k O     iXiXiXiXiXiXiXiXiXiXiXiX",
"iXiXiXiXiXiXiXiXiXiXiXiXiXiXiXiXiXiXiXiX  1 e.k.H l w.k.; e v   B.&X.XF.G.R U C.V..XJ.d @.q.%.s X     iXiXiXiXiXiXiXiXiXiXiXiXiX",
"iXiXiXiXiXiXiXiXiXiXiXiXiXiXiXiXiXiXiXiX  w t.x @.%.d # &.y : T.>X,X,X@XC : $ 3 U P..X9.2.w - o iXiXiXiXiXiXiXiXiXiXiXiXiXiXiXiX",
"iXiXiXiXiXiXiXiXiXiXiXiXiXiXiXiXiXiXiXiXi f e v >.s ; t a i V.,X1X1X#XG X iXiXiX$ p B B < . iXiXiXiXiXiXiXiXiXiXiXiXiXiXiXiXiXiX",
"iXiXiXiXiXiXiXiXiXiXiXiXiXiXiXiXiXiXiX  a.&.o c s . X L # T =X[.-X1XY.  iXiXiXiX          iXiXiXiXiXiXiXiXiXiXiXiXiXiXiXiXiXiXiX",
"iXiXiXiXiXiXiXiXiXiXiXiXiXiXiXiXiXiXiX  &.N.v           R G.G.[.XX@XB.  iXiXiXiXiXiXiXiXiXiXiXiXiXiXiXiXiXiXiXiXiXiXiXiXiXiXiXiX",
"iXiXiXiXiXiXiXiXiXiXiXiXiXiXiXiXiXiXiX  L g.q.@.#   o z ,.a.s.x.x.x.H   iXiXiXiXiXiXiXiXiXiXiXiXiXiXiXiXiXiXiXiXiXiXiXiXiXiXiXiX",
"iXiXiXiXiXiXiXiXiXiXiXiXiXiXiXiXiXiXiXiX2 y t s O   - :.r.i.l.Z.E.l.>.w X iXiXiXiXiXiXiXiXiXiXiXiXiXiXiXiXiXiXiXiXiXiXiXiXiXiXiX",
"iXiXiXiXiXiXiXiXiXiXiXiXiXiXiXiXiXiXiXiX        iXiXO 2.A.k.u.W.`.x.h.h.,   iXiXiXiXiXiXiXiXiXiXiXiXiXiXiXiXiXiXiXiXiXiXiXiXiXiX",
"iXiXiXiXiXiXiXiXiXiXiXiXiXiXiXiXiXiXiXiXiXiXiXiXiXiX$ F.@XK.=.f.k.<.a.XX8   iXiXiXiXiXiXiXiXiXiXiXiXiXiXiXiXiXiXiXiXiXiXiXiXiXiX",
"iXiXiXiXiXiXiXiXiXiXiXiXiXiXiXiXiXiXiXiXiXiXiXiXiXiX% L.>X*XH.e.r.a.L.XXC.8   iXiXiXiXiXiXiXiXiXiXiXiXiXiXiXiXiXiXiXiXiXiXiXiXiX",
"iXiXiXiXiXiXiXiXiXiXiXiXiXiXiXiXiXiXiXiXiXiXiXiXiX: R -X1X>XG.e w p T XX=XV   iXiXiXiXiXiXiXiXiXiXiXiXiXiXiXiXiXiXiXiXiXiXiXiXiX",
"iXiXiXiXiXiXiXiXiXiXiXiXiXiXiXiXiXiXiXiXiXiXiXiX  M $X<X2XY.M       : [.=XR $ iXiXiXiXiXiXiXiXiXiXiXiXiXiXiXiXiXiXiXiXiXiXiXiXiX",
"iXiXiXiXiXiXiXiXiXiXiXiXiXiXiXiXiXiXiXiXiXiXiXiX  G =X<X;XG   iXiXiX: V.[.@XR   iXiXiXiXiXiXiXiXiXiXiXiXiXiXiXiXiXiXiXiXiXiXiXiX",
"iXiXiXiXiXiXiXiXiXiXiXiXiXiXiXiXiXiXiXiXiXiXiX  U L.*X3X$XB   iXiXiXiX$ G.;XB.  iXiXiXiXiXiXiXiXiXiXiXiXiXiXiXiXiXiXiXiXiXiXiXiX",
"iXiXiXiXiXiXiXiXiXiXiXiXiXiXiXiXiXiXiXiXiXiX    4 8.@X*XR : iXiXiXiXiX  V.=XL.U   iXiXiXiXiXiXiXiXiXiXiXiXiXiXiXiXiXiXiXiXiXiXiX",
"iXiXiXiXiXiXiXiXiXiXiXiXiXiXiXiXiXiXiXiXiX. > < > 7 9.[.3 iXiXiXiXiXiX  M J.[.8.p # iXiXiXiXiXiXiXiXiXiXiXiXiXiXiXiXiXiXiXiXiXiX",
"iXiXiXiXiXiXiXiXiXiXiXiXiXiXiXiXiXiXiXiX  e t.l.Q.s & V.4   iXiXiXiXiXiX  R J.  S.P . iXiXiXiXiXiXiXiXiXiXiXiXiXiXiXiXiXiXiXiXiX",
"iXiXiXiXiXiXiXiXiXiXiXiXiXiXiXiXiXiXiX  a <.l.W.m.:.t &     iXiXiXiXiXiX  T V.  5.'.P   iXiXiXiXiXiXiXiXiXiXiXiXiXiXiXiXiXiXiXiX",
"iXiXiXiXiXiXiXiXiXiXiXiXiXiXiXiXiXiXiX  L M.W.`.W.h.+.w .   iXiXiXiXiXiX  % 8 S S. X5.  iXiXiXiXiXiXiXiXiXiXiXiXiXiXiXiXiXiXiXiX",
"iXiXiXiXiXiXiXiXiXiXiXiXiXiXiXiXiXiXiX, *.!.`.~./.k.>.$.;   iXiXiXiXiXiX; , y M.!.'.s.< iXiXiXiXiXiXiXiXiXiXiXiXiXiXiXiXiXiXiXiX",
"iXiXiXiXiXiXiXiXiXiXiXiXiXiXiXiXiXiXO -.h.Z.~.W.^.k.>.@.#   iXiXiXiXiX  c g.z.k.h.Z.^.k., iXiXiXiXiXiXiXiXiXiXiXiXiXiXiXiXiXiXiX",
"iXiXiXiXiXiXiXiXiXiXiXiXiXiXiXiXiXiX. >.f.A.`.S.^.A.y.=.;   iXiXiXiXiX  c h.l.k.h.k.m.k.& iXiXiXiXiXiXiXiXiXiXiXiXiXiXiXiXiXiXiX",
"iXiXiXiXiXiXiXiXiXiXiXiXiXiXiXiXiX- c :.<.p.A.~.^.^.4.< . iXiXiXiXiXiX  c e.w.w.h.k.k.p.&.> iXiXiXiXiXiXiXiXiXiXiXiXiXiXiXiXiXiX",
"iXiXiXiXiXiXiXiXiXiXiXiXiXiXiXiXX a :.L -.w.l.~.W.m.%.  iXiXiXiXiXiXiX  L q.>.>.w.h.k.k.M.c O iXiXiXiXiXiXiXiXiXiXiXiXiXiXiXiXiX",
"iXiXiXiXiXiXiXiXiXiXiXiXiXiXiX. t z d d 4.l.l.~.z.d.c   iXiXiXiXiXiXiX  l <.,.-.>.w.k.h.<.e.L X iXiXiXiXiXiXiXiXiXiXiXiXiXiXiXiX",
"iXiXiXiXiXiXiXiXiXiXiXiXiXiX. v =.#.$.i.p.k.k.k.l.d.b   iXiXiXiXiXiXiXiXo s q.-.-.:.<.<.i.Z.~.s.o iXiXiXiXiXiXiXiXiXiXiXiXiXiXiX",
"iXiXiXiXiXiXiXiXiXiXiXiXiX, l -.w.k.Z.W.E.x.u.h.k.h.c . iXiXiXiXiXiXiXiX  e q.-.-.>.-.i.h.z.~.'.5.: iXiXiXiXiXiXiXiXiXiXiXiXiXiX",
"iXiXiXiXiXiXiXiXiXiXiXiX  1 t.q.u.Z.~.~.`.A.x.h.k.g.v   iXiXiXiXiXiXiXiX  a e.:.-.-.<.p.k.k.k.A. X3.> iXiXiXiXiXiXiXiXiXiXiXiXiX",
"iXiXiXiXiXiXiXiXiXiXiXiX. e w.k.k.h.k.W.~.~.~.k.x.y.l   iXiXiXiXiXiXiXiX  e :.-.-.-.-.-.y.k.k.f.A.(.&.  iXiXiXiXiXiXiXiXiXiXiXiX",
"iXiXiXiXiXiXiXiXiXiXiX  s =.<.h.l.f.k.k.k.A.~.k.M.S X iXiXiXiXiXiXiXiXiXiX. < q.q.q.q.q.q.h.m.m.E.(.&.  iXiXiXiXiXiXiXiXiXiXiXiX",
"iXiXiXiXiXiXiXiXiXiXiX  v g.q.t.l.Q.m.M.m.Q.!.M.n.d   iXiXiXiXiXiXiXiXiXiX    < 1 < < < 2 5 r r r i 3   iXiXiXiXiXiXiXiXiXiXiXiX",
"iXiXiXiXiXiXiXiXiXiXiX  e l k d S J J J J H H J x 2   iXiXiXiXiXiXiXiXiXiXiX                            iXiXiXiXiXiXiXiXiXiXiXiX",
"iXiXiXiXiXiXiXiXiXiXiX                              iXiXiXiXiXiXiXiXiXiXiXiXiXiXiXiXiXiXiXiXiXiXiXiXiXiXiXiXiXiXiXiXiXiXiXiXiXiX"
};
