/* XPM */
static char *result[] = {
/* columns rows colors chars-per-pixel */
"64 64 223 2 ",
"   c #000001",
".  c #01060B",
"X  c #030A0C",
"o  c #080D0A",
"O  c #010B14",
"+  c #010E1C",
"@  c #000616",
"#  c #04121C",
"$  c #0C1B1C",
"%  c #091514",
"&  c #151B1D",
"*  c #0C201D",
"=  c #021323",
"-  c #051922",
";  c #061A27",
":  c #031C34",
">  c #021D3B",
",  c #011637",
"<  c #000B20",
"1  c #0B2227",
"2  c #142C2B",
"3  c #04233D",
"4  c #092733",
"5  c #132C33",
"6  c #15393D",
"7  c #0F303B",
"8  c #291711",
"9  c #6B3C26",
"0  c #543435",
"q  c #664B38",
"w  c #001B44",
"e  c #001E54",
"r  c #042245",
"t  c #062A43",
"y  c #04254A",
"u  c #062B4D",
"i  c #0A344E",
"p  c #193944",
"a  c #042B55",
"s  c #042D5B",
"d  c #092B54",
"f  c #0B3A56",
"g  c #06335B",
"h  c #093A5A",
"j  c #083657",
"k  c #24334D",
"l  c #273856",
"z  c #38384D",
"x  c #002D65",
"c  c #053363",
"v  c #05356A",
"b  c #063B6D",
"n  c #083B63",
"m  c #1F3D67",
"M  c #073E75",
"N  c #063E7A",
"B  c #093D77",
"V  c #093576",
"C  c #4C3251",
"Z  c #6E3C73",
"A  c #1B434B",
"S  c #1B454B",
"D  c #184956",
"F  c #1C545B",
"G  c #23565C",
"H  c #0F4964",
"J  c #0B4869",
"K  c #104E6A",
"L  c #1E5869",
"P  c #094572",
"I  c #0B4A74",
"U  c #08487B",
"Y  c #05437C",
"T  c #0E547C",
"R  c #145475",
"E  c #275568",
"W  c #2D5C75",
"Q  c #244D72",
"!  c #1A6873",
"~  c #2A666A",
"^  c #266B77",
"/  c #29717B",
"(  c #337677",
")  c #534752",
"_  c #74524B",
"`  c #494863",
"'  c #686468",
"]  c #98573F",
"[  c #8C4B34",
"{  c #BD5F35",
"}  c #B0623F",
"|  c #883C77",
" . c #AE286D",
".. c #8A5641",
"X. c #90695D",
"o. c #B8724F",
"O. c #8E487E",
"+. c #C3764C",
"@. c #C07555",
"#. c #B48562",
"$. c #DC9972",
"%. c #D09069",
"&. c #E8A57B",
"*. c #FBA777",
"=. c #003D8C",
"-. c #05458A",
";. c #084A8A",
":. c #064786",
">. c #0A568A",
",. c #054B94",
"<. c #084C94",
"1. c #064C98",
"2. c #09549C",
"3. c #0A5899",
"4. c #105291",
"5. c #13638C",
"6. c #17739D",
"7. c #12669A",
"8. c #287581",
"9. c #2A7C9A",
"0. c #2B7592",
"q. c #0954A2",
"w. c #0B5CA4",
"e. c #0B5CAB",
"r. c #0856A6",
"t. c #095BB0",
"y. c #014BA3",
"u. c #0D62A5",
"i. c #0E65A9",
"p. c #0F6AAD",
"a. c #106CAC",
"s. c #146AA5",
"d. c #1876AA",
"f. c #0B62B2",
"g. c #0E6CB3",
"h. c #0C66BC",
"j. c #106FB1",
"k. c #1172B3",
"l. c #1579B6",
"z. c #1275BA",
"x. c #157CBA",
"c. c #1A78B4",
"v. c #2579A8",
"b. c #6A4D81",
"n. c #416188",
"m. c #717086",
"M. c #137CC3",
"N. c #1079CB",
"B. c #0D70C6",
"V. c #8C4780",
"C. c #25848E",
"Z. c #2C8C9C",
"A. c #358798",
"S. c #3A898E",
"D. c #1985BC",
"F. c #1A85BB",
"G. c #0082BE",
"H. c #368DA4",
"J. c #3798AA",
"K. c #2486B3",
"L. c #389AB4",
"P. c #2A95AA",
"I. c #3BA3B5",
"U. c #38A6B9",
"Y. c #4694A3",
"T. c #6A94BA",
"R. c #43ABBA",
"E. c #52ABB8",
"W. c #1482C2",
"Q. c #1B8CC3",
"!. c #1583CA",
"~. c #1A8DCB",
"^. c #1886C5",
"/. c #1D92C6",
"(. c #1E94CA",
"). c #1F99C8",
"_. c #1688D2",
"`. c #1C97D6",
"'. c #2096C9",
"]. c #219DD3",
"[. c #3CAEC3",
"{. c #3DB1C6",
"}. c #3CB3CC",
"|. c #3EBACE",
" X c #21A2DC",
".X c #33AED2",
"XX c #3EB9D1",
"oX c #2EA8CD",
"OX c #1997E6",
"+X c #1FA0E0",
"@X c #44B1CE",
"#X c #3FC3D9",
"$X c #3FC5E2",
"%X c #46C4D6",
"&X c #49C9DB",
"*X c #4DCAD3",
"=X c #6BD3DF",
"-X c #44CCE3",
";X c #43C9E5",
":X c #55DBE6",
">X c #49DBF4",
",X c #46D2EB",
"<X c #5CE5ED",
"1X c #58E6F2",
"2X c #53EBFB",
"3X c #63E6E9",
"4X c #63EDF2",
"5X c #6DFEFF",
"6X c #68F4F6",
"7X c #78F1F5",
"8X c #A19B8D",
"9X c #87B3B7",
"0X c #BEADA5",
"qX c #F8BC8D",
"wX c #EFC091",
"eX c #F7C895",
"rX c #FFD39E",
"tX c #8AB6D6",
"yX c #A1D9EF",
"uX c #9FFFFF",
"iX c #CFE6E8",
"pX c #FFFFF2",
"aX c None",
/* pixels */
"aXaXaXaXaXaXaXaXaXaXaXaXaXaXaXaXaXaXaXaXaXaXaXaXaXaXaXaXaXaXaXaXaXaXaXaXaXaXaXaXaXaXaXaXaXaXaXaXaXaXaXaXaXaXaXaXaXaXaXaXaXaXaXaX",
"aXaXaXaXaXaXaXaXaXaXaXaXaXaXaXaXaXaXaXaXaXaXaXaXaXaXaXaXaXaXaXaXaXaXaXaXaXaXaXaXaXaXaXaXaXaXaXaXaXaXaXaXaXaXaXaXaXaXaXaXaXaXaXaX",
"aXaXaXaXaXaXaXaXaXaXaXaXaXaXaXaXaXaXaXaXaXaXaXaXaXaXaXaXaXaXaXaXaXaXaXaXaXaXaXaXaXaXaXaXaXaXaXaXaXaXaXaXaXaXaXaXaXaXaXaXaXaXaXaX",
"aXaXaXaXaXaXaXaXaXaXaXaXaXaXaXaXaXaXaXaXaXaXaXaXaXaXaXaXaXaXaXaXaXaXaXaXaXaXaXaXaXaXaXaXaXaXaXaXaXaXaXaXaXaXaXaXaXaXaXaXaXaXaXaX",
"aXaXaXaXaXaXaXaXaXaXaXaXaXaXaXaXaXaXaXaXaXaXaXaXaXaXaXaXaXaXaXaXaXaXaXaXaXaXaXaXaXaXaXaXaXaXaXaXaXaXaXaXaXaXaXaXaXaXaXaXaXaXaXaX",
"aXaXaXaXaXaXaXaXaXaXaXaXaXaXaXaXaXaXaXaXaXaXaXaXaXaXaXaXaXaXaXaXaXaXaXaXaXaXaXaXaXaXaXaXaXaXaXaXaXaXaXaXaXaXaXaXaXaXaXaXaXaXaXaX",
"aXaXaXaXaXaXaXaXaXaXaXaXaXaXaXaXaXaXaXaXaXaXaXaXaXaXaXaXaXaXaXaXaXaXaXaXaXaXaXaXaXaXaXaXaXaXaXaXaXaXaXaXaXaXaXaXaXaXaXaXaXaXaXaX",
"aXaXaXaXaXaXaXaXaXaXaXaXaXaXaXaXaXaXaXaXaXaXaXaXaXaXaXaXaXaXaXaXaXaXaXaXaXaXaXaXaXaXaXaXaXaXaXaXaXaXaXaXaXaXaXaXaXaXaXaXaXaXaXaX",
"aXaXaXaXaXaXaXaXaXaXaXaXaXaXaXaXaXaXaXaXaXaXaXaXaXaXaXaXaXaXaXaXaXaXaXaXaXaXaXaXaXaXaXaXaXaXaXaXaXaXaXaXaXaXaXaXaXaXaXaXaXaXaXaX",
"aXaXaXaXaXaXaXaXaXaXaXaXaXaXaXaXaXaXaXaXaXaXaXaXaXaXaXaXaXaXaXaXaXaXaXaXaXaXaXaXaXaXaXaXaXaXaXaXaXaXaXaXaXaXaXaXaXaXaXaXaXaXaXaX",
"aXaXaXaXaXaXaXaXaXaXaXaXaXaXaXaXaXaXaXaXaXaXaXaXaXaXaXaXaXaXaXaXaXaXaXaXaXaXaXaXaXaXaXaXaXaXaXaXaXaXaXaXaXaXaXaXaXaXaXaXaXaXaXaX",
"aXaXaXaXaXaXaXaXaXaXaXaXaXaXaXaXaXaXaXaXaXaXaXaXaXaXaXaXaXaXaXaXaXaXaXaXaXaXaXaXaXaXaXaXaXaXaXaXaXaXaXaXaXaXaXaXaXaXaXaXaXaXaXaX",
"aXaXaXaXaXaXaXaXaXaXaXaXaXaXaXaXaXaXaXaXaXaXaXaXaXaXaXaXaXaXaXaXaXaXaXaX        aXaXaXaXaXaXaXaXaXaXaXaXaXaXaXaXaXaXaXaXaXaXaXaX",
"aXaXaXaXaXaXaXaXaXaXaXaXaXaXaXaXaXaXaXaXaXaXaXaXaXaXaXaXaXaXaXaXaXaXaX$ S F ~ ( S aXaXaXaXaXaXaXaXaXaXaXaXaXaXaXaXaXaXaXaXaXaXaX",
"aXaXaXaXaXaXaXaXaXaXaXaXaXaXaXaXaXaXaXaXaXaXaXaXaXaXaXaXaXaXaXaXaX$ # E @X$X1X5X*X2 2 o aXaXaXaXaXaXaXaXaXaXaXaXaXaXaXaXaXaXaXaX",
"aXaXaXaXaXaXaXaXaXaXaXaXaXaXaXaXaXaXaXaXaXaXaXaXaXaXaXaXaXaXaXaX$ A.d.x.(./.Z.U.*X3X4XG   aXaXaXaXaXaXaXaXaXaXaXaXaXaXaXaXaXaXaX",
"aXaXaXaXaXaXaXaXaXaXaXaXaXaXaXaXaXaXaXaXaXaXaXaXaXaXaXaXaXaX  & F F.~.~./.@XiXtXP.1X5X3XS.  aXaXaXaXaXaXaXaXaXaXaXaXaXaXaXaXaXaX",
"aXaXaXaXaXaXaXaXaXaXaXaXaXaXaXaXaXaXaXaXaXaXaXaXaXaXaXaXaXaX  p v.g.D.Q.).[.yXtXY.A.R.3XY.  aXaXaXaXaXaXaXaXaXaXaXaXaXaXaXaXaXaX",
"aXaXaXaXaXaXaXaXaXaXaXaXaXaXaXaXaXaXaXaXaXaXaXaXaXaXaXaXaXaXO b B.k.a.D.D.Q.G.@XT.Q 9.L.E   aXaXaXaXaXaXaXaXaXaXaXaXaXaXaXaXaXaX",
"aXaXaXaXaXaXaXaXaXaXaXaXaXaXaXaXaXaXaXaXaXaXaXaXaXaXaXaXaX  b 2.2.k.k.k.k.k.Q.(./.Q.'.~.I     aXaXaXaXaXaXaXaXaXaXaXaXaXaXaXaXaX",
"aXaXaXaXaXaXaXaXaXaXaXaXaXaXaXaXaXaXaXaXaXaXaXaXaXaXaXaXaX  N y.=.1.1.s.z.x.M.W.M.D.T L.=X9X& aXaXaXaXaXaXaXaXaXaXaXaXaXaXaXaXaX",
"aXaXaXaXaXaXaXaXaXaXaXaXaXaXaXaXaXaXaXaXaXaXaXaXaXaXaXaXaX  d K.oXd.<.q.w.>.:.:.,.u.^ R.5XuX2 aXaXaXaXaXaXaXaXaXaXaXaXaXaXaXaXaX",
"aXaXaXaXaXaXaXaXaXaXaXaXaXaXaXaXaXaXaXaXaXaXaXaXaXaXaXaXaX  p E.7X&Xs.=.B k z z m -.9.L.%X%X1 aXaXaXaXaXaXaXaXaXaXaXaXaXaXaXaXaX",
"aXaXaXaXaXaXaXaXaXaXaXaXaXaXaXaXaXaXaXaXaXaXaXaXaXaXaXaXaX  8.b.O.1Xc.V l ..o.%.X.s -.v.H.<.+ aXaXaXaXaXaXaXaXaXaXaXaXaXaXaXaXaX",
"aXaXaXaXaXaXaXaXaXaXaXaXaXaXaXaXaXaXaXaXaXaXaXaXaXaXaXaXaX  C.O. .&X>.z _ ' ] { } _ a y.>.< aXaXaXaXaXaXaXaXaXaXaXaXaXaXaXaXaXaX",
"aXaXaXaXaXaXaXaXaXaXaXaXaXaXaXaXaXaXaXaXaXaXaXaXaXaXaXaXaX  ! |  .U.J 0 o.8X0X' ) } _ l , aXaXaXaXaXaXaXaXaXaXaXaXaXaXaXaXaXaXaX",
"aXaXaXaXaXaXaXaXaXaXaXaXaXaXaXaXaXaXaXaXaXaXaXaXaXaXaXaXaX  p C Z 0.P C @.rXpX=Xn.$.*.q   aXaXaXaXaXaXaXaXaXaXaXaXaXaXaXaXaXaXaX",
"aXaXaXaXaXaXaXaXaXaXaXaXaXaXaXaXaXaXaXaXaXaXaXaXaXaXaXaXaXaX  7 W E ,.` +.qXqXqXwXwXeXq   aXaXaXaXaXaXaXaXaXaXaXaXaXaXaXaXaXaXaX",
"aXaXaXaXaXaXaXaXaXaXaXaXaXaXaXaXaXaXaXaXaXaXaXaXaXaXaXaXaX      ; 4.t.B ) $.qX%.o.eXqXq   aXaXaXaXaXaXaXaXaXaXaXaXaXaXaXaXaXaXaX",
"aXaXaXaXaXaXaXaXaXaXaXaXaXaXaXaXaXaXaXaXaXaXaXaXaXaXaXaX. ( ( / f w w x 4.+.*.$.$.qX..8 aXaXaXaXaXaXaXaXaXaXaXaXaXaXaXaXaXaXaXaX",
"aXaXaXaXaXaXaXaXaXaXaXaXaXaXaXaXaXaXaXaXaXaXaXaXaXaXaX% ~ 5X5X6XU.1 $ y m 9 [ #.%...  aXaXaXaXaXaXaXaXaXaXaXaXaXaXaXaXaXaXaXaXaX",
"aXaXaXaXaXaXaXaXaXaXaXaXaXaXaXaXaXaXaXaXaXaXaXaXaXaX  ( 5X4X%X}.%X@XR.p             aXaXaXaXaX      aXaXaXaXaXaXaXaXaXaXaXaXaXaX",
"aXaXaXaXaXaXaXaXaXaXaXaXaXaXaXaXaXaXaXaXaXaXaXaXaX  ^ :X6X%X>XL 6 4X1XR.Z.Z./ / A   aXaXaXaX  n T       aXaXaXaXaXaXaXaXaXaXaXaX",
"aXaXaXaXaXaXaXaXaXaXaXaXaXaXaXaXaXaXaXaXaXaXaXaX. H K.,X1X$X^ 1 G 6X5X6X>X-X@X@XI.L   aXaX. j J n d K K 3 aXaXaXaXaXaXaXaXaXaXaX",
"aXaXaXaXaXaXaXaXaXaXaXaXaXaXaXaXaXaXaXaXaXaXaXO f  XW.d.L.Z.1 F &X4X4X7X4XU./ Z.-X-XD o aX. j.t   2.x.`.>.  aXaXaXaXaXaXaXaXaXaX",
"aXaXaXaXaXaXaXaXaXaXaXaXaXaXaXaXaXaXaXaXaXaX  j ^./.`.7.:   ~ @X&X4X4X6X:XA.o A R.XX,XE   . :.r . c s i.>.  aXaXaXaXaXaXaXaXaXaX",
"aXaXaXaXaXaXaXaXaXaXaXaXaXaXaXaXaXaXaXaXaXaX  f !.l.).k.e   o 8.>X%X4X1X@XY.X S R.J.&XK.w   + n a.F.F.j.c   aXaXaXaXaXaXaXaXaXaX",
"aXaXaXaXaXaXaXaXaXaXaXaXaXaXaXaXaXaXaXaXaXaX  u g.j.x.M.s.K h i / |.:X&XA.S X 1 ~ L.K.x.w.j   g z.5.5.k.U   aXaXaXaXaXaXaXaXaXaX",
"aXaXaXaXaXaXaXaXaXaXaXaXaXaXaXaXaXaXaXaXaXaX  r q.i.k.D.]. XOXw   .X.XL.L   aXaX% / ,.r.x.x.O u 2.v s ;.J   aXaXaXaXaXaXaXaXaXaX",
"aXaXaXaXaXaXaXaXaXaXaXaXaXaXaXaXaXaXaXaXaXaX  r q.1.D.'.(.Q.W.t # k.l.f.v   aXaXaX  M 1.w.p.X f M.k.w.>   aXaXaXaXaXaXaXaXaXaXaX",
"aXaXaXaXaXaXaXaXaXaXaXaXaXaXaXaXaXaXaXaXaXaX  y f.p.Q.'.Q.x.3 D 5.- 6.`.I     aXaXaX# v h.2.O > U :.N.i   aXaXaXaXaXaXaXaXaXaXaX",
"aXaXaXaXaXaXaXaXaXaXaXaXaXaXaXaXaXaXaXaXaXaXaX+ c z.~.'.M.i.  K l.  5.N.3.^ / 1 aXaXaX# a > . . = = i ; aXaXaXaXaXaXaXaXaXaXaXaX",
"aXaXaXaXaXaXaXaXaXaXaXaXaXaXaXaXaXaXaXaXaXaXaXaXO a.Q.x.2.v , h P ; 3.u.v.%X>XC.1 aXaXaX              aXaXaXaXaXaXaXaXaXaXaXaXaX",
"aXaXaXaXaXaXaXaXaXaXaXaXaXaXaXaXaXaXaXaXaXaXaXaX= -.g.f.v   B r . <.,.7.Y.A.@X,XZ.. aXaXaXaXaXaXaXaXaXaXaXaXaXaXaXaXaXaXaXaXaXaX",
"aXaXaXaXaXaXaXaXaXaXaXaXaXaXaXaXaXaXaXaXaXaXaXaXaX+ :.B.M   O X   = + # p R.H.@X%XP.o aXaXaXaXaXaXaXaXaXaXaXaXaXaXaXaXaXaXaXaXaX",
"aXaXaXaXaXaXaXaXaXaXaXaXaXaXaXaXaXaXaXaXaXaXaXaX    @ r j ^ %   aXaXaXaXo p A.R.@X-XP.5 aXaXaXaXaXaXaXaXaXaXaXaXaXaXaXaXaXaXaXaX",
"aXaXaXaXaXaXaXaXaXaXaXaXaXaXaXaXaXaXaXaXaXaXaX. : : 4   2 >X6 aXaXaXaXaXaX  F A.I.{.U.L 4 aXaXaXaXaXaXaXaXaXaXaXaXaXaXaXaXaXaXaX",
"aXaXaXaXaXaXaXaXaXaXaXaXaXaXaXaXaXaXaXaXaXaX. a f.l.`.H $ [.5 aXaXaXaXaXaXaX  S Y.A.X R K.  aXaXaXaXaXaXaXaXaXaXaXaXaXaXaXaXaXaX",
"aXaXaXaXaXaXaXaXaXaXaXaXaXaXaXaXaXaXaXaXaX  a 2.z.~.+XH . $ aXaXaXaXaXaXaXaXaXX $ o P ^.'.6.# aXaXaXaXaXaXaXaXaXaXaXaXaXaXaXaXaX",
"aXaXaXaXaXaXaXaXaXaXaXaXaXaXaXaXaXaXaXaX  a 2.x.Q./. XH     aXaXaXaXaXaXaXaXaXaX  n g./. X(.- aXaXaXaXaXaXaXaXaXaXaXaXaXaXaXaXaX",
"aXaXaXaXaXaXaXaXaXaXaXaXaXaXaXaXaXaXaX. y e.x.Q.'.Q.`.H     aXaXaXaXaXaXaXaXaXO g !.k.x.(.F.- aXaXaXaXaXaXaXaXaXaXaXaXaXaXaXaXaX",
"aXaXaXaXaXaXaXaXaXaXaXaXaXaXaXaXaXaX. y e.k.Q.(././.!.j   aXaXaXaXaXaXaXaXaX  a f.k.k.a.^.F.- aXaXaXaXaXaXaXaXaXaXaXaXaXaXaXaXaX",
"aXaXaXaXaXaXaXaXaXaXaXaXaXaXaXaXaX  s 1.2.a.Q./././.~.g   aXaXaXaXaXaXaXaXaX  y f.k.k.k.z.j.# aXaXaXaXaXaXaXaXaXaXaXaXaXaXaXaXaX",
"aXaXaXaXaXaXaXaXaXaXaXaXaXaXaXaX. s <.e.i.k.Q.'./.x.u.r   aXaXaXaXaXaXaXaX  y N w.k.j.k.l.a.O aXaXaXaXaXaXaXaXaXaXaXaXaXaXaXaXaX",
"aXaXaXaXaXaXaXaXaXaXaXaXaXaXaX. : ;.Y 3.l.k.x.Q.^.k.g O   aXaXaXaXaXaXaXaX  -.r.3.p.k.k.k.w.r . aXaXaXaXaXaXaXaXaXaXaXaXaXaXaXaX",
"aXaXaXaXaXaXaXaXaXaXaXaXaXaX. : M g d ;.z.k.k.j.k.a.- aXaXaXaXaXaXaXaXaXaX. M 2.,.<.p.k.i.<.e.u . aXaXaXaXaXaXaXaXaXaXaXaXaXaXaX",
"aXaXaXaXaXaXaXaXaXaXaXaXaX  s <.-.-.3.a.j.k.j.z.s.M O   aXaXaXaXaXaXaXaXaX  N q.4.1.<.1.3.j.^./.R   aXaXaXaXaXaXaXaXaXaXaXaXaXaX",
"aXaXaXaXaXaXaXaXaXaXaXaXX s -.w.a.l.^.Q.x.j.k.j.:.+ . aXaXaXaXaXaXaXaXaXaX. M q.<.1.<.3.p.c.F.`.D.R   aXaXaXaXaXaXaXaXaXaXaXaXaX",
"aXaXaXaXaXaXaXaXaXaXaXaXO 2.e.u.x.Q.'.'.'.l.k.g.M   aXaXaXaXaXaXaXaXaXaXaX. Y r.1.<.<.w.g.k.p.l.].].f O aXaXaXaXaXaXaXaXaXaXaXaX",
"aXaXaXaXaXaXaXaXaXaXaXaX= -.j.z.k.j.D.~.Q.'.l.M.>.  aXaXaXaXaXaXaXaXaXaXaX. v 2.1.1.<.-.2.k.k.j.x./._.u   aXaXaXaXaXaXaXaXaXaXaX",
"aXaXaXaXaXaXaXaXaXaX  > <.<.p.z.k.j.k.k.l.(.k.M.5.  aXaXaXaXaXaXaXaXaXaXaXaX. c t.q.q.q.q.w.z.M.x.M._.i   aXaXaXaXaXaXaXaXaXaXaX",
"aXaXaXaXaXaXaXaXaXaX  y t.e.e.z.!.M.M.M.M.~.!.N.;.. aXaXaXaXaXaXaXaXaXaXaXaX  + 3 : : > : : 3 t t t t #   aXaXaXaXaXaXaXaXaXaXaX",
"aXaXaXaXaXaXaXaXaXaX  = v c s v I I I I I P I P y   aXaXaXaXaXaXaXaXaXaXaXaX                            aXaXaXaXaXaXaXaXaXaXaXaX",
"aXaXaXaXaXaXaXaXaXaX                              aXaXaXaXaXaXaXaXaXaXaXaXaXaXaXaXaXaXaXaXaXaXaXaXaXaXaXaXaXaXaXaXaXaXaXaXaXaXaX"
};
