/* XPM */
static char *result[] = {
/* columns rows colors chars-per-pixel */
"64 64 226 2 ",
"   c #000101",
".  c #01050B",
"X  c #03090C",
"o  c #000314",
"O  c #020B13",
"+  c #010C1A",
"@  c #03121C",
"#  c #091617",
"$  c #101F1A",
"%  c #361C13",
"&  c #3D1008",
"*  c #392118",
"=  c #020B21",
"-  c #021425",
";  c #02152A",
":  c #041A2A",
">  c #051B21",
",  c #021B35",
"<  c #031E3B",
"1  c #021732",
"2  c #092429",
"3  c #122426",
"4  c #04243D",
"5  c #0A2734",
"6  c #16363A",
"7  c #1E2433",
"8  c #491D0F",
"9  c #592918",
"0  c #5E3527",
"q  c #613938",
"w  c #6A3928",
"e  c #6E4336",
"r  c #011A42",
"t  c #032243",
"y  c #062B44",
"u  c #042C4C",
"i  c #06254A",
"p  c #0B344C",
"a  c #183D46",
"s  c #042C54",
"d  c #042D5B",
"f  c #04315B",
"g  c #0A3857",
"h  c #16314A",
"j  c #2D374E",
"k  c #002A68",
"l  c #053463",
"z  c #05366C",
"x  c #06396D",
"c  c #073C63",
"v  c #063B73",
"b  c #053C7B",
"n  c #023477",
"m  c #493F4C",
"M  c #623F45",
"N  c #1B434A",
"B  c #1B4246",
"V  c #184954",
"C  c #1C545E",
"Z  c #254958",
"A  c #285856",
"S  c #214D46",
"D  c #0A446C",
"F  c #0D4561",
"G  c #0B4572",
"H  c #0B4A74",
"J  c #06427E",
"K  c #08457C",
"L  c #124D7B",
"P  c #16567A",
"I  c #1C5E6A",
"U  c #245C67",
"Y  c #1C667E",
"T  c #2A6B77",
"R  c #326E70",
"E  c #5E4F55",
"W  c #53516D",
"Q  c #5C6979",
"!  c #64626F",
"~  c #6D4B51",
"^  c #9B5D46",
"/  c #A75B40",
"(  c #A56346",
")  c #BB7C5B",
"_  c #B07054",
"`  c #C6714C",
"'  c #C37E60",
"]  c #B8805F",
"[  c #B38567",
"{  c #D58758",
"}  c #CD885C",
"|  c #C98A64",
" . c #DC9D76",
".. c #D2936D",
"X. c #E59569",
"o. c #E49A73",
"O. c #E8A67C",
"+. c #003D8A",
"@. c #074383",
"#. c #07458A",
"$. c #074A8D",
"%. c #084A8E",
"&. c #085288",
"*. c #1D5B88",
"=. c #064B94",
"-. c #084D95",
";. c #084E98",
":. c #01489D",
">. c #0B5392",
",. c #04509D",
"<. c #09529B",
"1. c #0C5B9E",
"2. c #075A94",
"3. c #1A5F9A",
"4. c #186689",
"5. c #0E619A",
"6. c #14659C",
"7. c #17729A",
"8. c #337C85",
"9. c #2C778E",
"0. c #0954A3",
"q. c #0B5BA5",
"w. c #0A5CAB",
"e. c #0655A5",
"r. c #0B58A9",
"t. c #0D63A5",
"y. c #0D65AC",
"u. c #0F6AAD",
"i. c #136AA7",
"p. c #1674A8",
"a. c #0D66B2",
"s. c #0E6AB2",
"d. c #0C67BC",
"f. c #106EB1",
"g. c #1273B4",
"h. c #1479B6",
"j. c #1275BA",
"k. c #157DBB",
"l. c #197CB5",
"z. c #0E77BA",
"x. c #485883",
"c. c #4276A0",
"v. c #576C96",
"b. c #137DC3",
"n. c #127BC7",
"m. c #0E70C7",
"M. c #297BD5",
"N. c #2E8A9A",
"B. c #388E94",
"V. c #38939A",
"C. c #31868F",
"Z. c #1681BD",
"A. c #1884BB",
"S. c #2E92A5",
"D. c #3392A3",
"F. c #3997A8",
"G. c #379BB7",
"H. c #2980AA",
"J. c #3CA7BA",
"K. c #42918C",
"L. c #4C90A8",
"P. c #46ABB5",
"I. c #49A9AC",
"U. c #61A4B4",
"Y. c #1986C1",
"T. c #1B8CC3",
"R. c #1583C9",
"E. c #1A8CCA",
"W. c #1787CA",
"Q. c #1D92C6",
"!. c #1E94CA",
"~. c #1D99C6",
"^. c #168CD9",
"/. c #1E98D5",
"(. c #078CC5",
"). c #2098CA",
"_. c #2495C8",
"`. c #2E9EC9",
"'. c #37AAC2",
"]. c #3DB8CE",
"[. c #39B2CA",
"{. c #22A2DC",
"}. c #35A6D1",
"|. c #3DBAD8",
" X c #20A1CF",
".X c #3285E4",
"XX c #1FA5EA",
"oX c #428FC8",
"OX c #42B5CA",
"+X c #50AECB",
"@X c #4493ED",
"#X c #77B8E2",
"$X c #3FC0D6",
"%X c #47C6D7",
"&X c #54C9D4",
"*X c #55C9CD",
"=X c #66C7D6",
"-X c #49CCE2",
";X c #4CD3E4",
":X c #46D2E9",
">X c #58DDE6",
",X c #4ADDF5",
"<X c #77D0E6",
"1X c #5BE3EC",
"2X c #58E0E7",
"3X c #5BE9F4",
"4X c #58E3F1",
"5X c #59F3FF",
"6X c #62E8ED",
"7X c #64ECF1",
"8X c #66F0F4",
"9X c #66FCFF",
"0X c #68F6FA",
"qX c #72FFFF",
"wX c #62F2EF",
"eX c #F1BB8D",
"rX c #F6B689",
"tX c #F2C392",
"yX c #FACB99",
"uX c #FBCC95",
"iX c #FED39E",
"pX c #F9C18E",
"aX c #82DFF8",
"sX c #9FFFFF",
"dX c #FDFCFA",
"fX c None",
/* pixels */
"fXfXfXfXfXfXfXfXfXfXfXfXfXfXfXfXfXfXfXfXfXfXfXfXfXfXfXfXfXfXfXfXfXfXfXfX    fXfXfXfXfXfXfXfXfXfXfXfXfXfXfXfXfXfXfXfXfXfXfXfXfXfX",
"fXfXfXfXfXfXfXfXfXfXfXfXfXfXfXfXfXfXfXfXfXfXfXfXfXfXfXfXfXfXfXfXfXfXfX> g y . fXfXfXfXfXfXfXfXfXfXfXfXfXfXfXfXfXfXfXfXfXfXfXfXfX",
"fXfXfXfXfXfXfXfXfXfXfXfXfXfXfXfXfXfXfXfXfXfXfXfXfXfXfXfXfXfXfXfXfXfX  F XXn.y X fXfXfXfXfXfXfXfXfXfXfXfXfXfXfXfXfXfXfXfXfXfXfXfX",
"fXfXfXfXfXfXfXfXfXfXfXfXfXfXfXfXfXfXfXfXfXfXfXfXfXfXfXfXfXfX  .       p R.e.Y.V   fXfXfXfXfXfXfXfXfXfXfXfXfXfXfXfXfXfXfXfXfXfXfX",
"fXfXfXfXfXfXfXfXfXfXfXfXfXfXfXfXfXfXfXfXfXfXfXfXfXfXfXfX    S R B.I.I.U = o g.j.t   fXfXfXfXfXfXfXfXfXfXfXfXfXfXfXfXfXfXfXfXfXfX",
"fXfXfXfXfXfXfXfXfXfXfXfXfXfXfXfXfXfXfXfXfXfXfXfXfXfXfX# a < *._.}.>X9XP.A A g >.w.< . fXfXfXfXfXfXfXfXfXfXfXfXfXfXfXfXfXfXfXfXfX",
"fXfXfXfXfXfXfXfXfXfXfXfXfXfXfXfX+   O + fXfXfXfXfXfXX Z G.r.;.-.3.L.OX-X9X0X6 , s.e.-   fXfXfXfXfXfXfXfXfXfXfXfXfXfXfXfXfXfXfXfX",
"fXfXfXfXfXfXfXfXfXfXfXfXfXfX  y i.  4.4.  fXfXfXfX  6 P <.i.b.).=XdX+X(. X~.z.y + <.;   fXfXfXfXfXfXfXfXfXfXfXfXfXfXfXfXfXfXfXfX",
"fXfXfXfXfXfXfXfXfXfXfXfXfX  D H 5 &.F g x     fXfX  g t.u.T.!. X|.<X#Xc.*.&XaXU.N : fXfXfXfXfXfXfXfXfXfXfXfXfXfXfXfXfXfXfXfXfXfX",
"fXfXfXfXfXfXfXfXfXfXfXfXfX  p D y H + o c g >   fX, +.y.k.Y.T.h.2.2.oXc.8.>XsXaXU   fXfXfXfXfXfXfXfXfXfXfXfXfXfXfXfXfXfXfXfXfXfX",
"fXfXfXfXfXfXfXfXfXfXfXfX  + O u 5.+     : /.p   + ;.<.0.f.u.u.L h h =.p.F.'.>XG.h   fXfXfXfXfXfXfXfXfXfXfXfXfXfXfXfXfXfXfXfXfXfX",
"fXfXfXfXfXfXfXfXfXfXfXfXO 5.n.F . $.; - w.b.5   O $.<.-.<.,.n j / | j n i.F.R *.b   fXfXfXfXfXfXfXfXfXfXfXfXfXfXfXfXfXfXfXfXfXfX",
"fXfXfXfXfXfXfXfXfXfXfXfXO >.m.t.D 4 .   - - d ,   ;.:.+.@.v m ^ ` / ..v.k ,.,.l ;   fXfXfXfXfXfXfXfXfXfXfXfXfXfXfXfXfXfXfXfXfXfX",
"fXfXfXfXfXfXfXfXfXfXfXfXX #.d K s.  . ; ; 4 >.>.4 t l.}.6.f e { rX) ..[ Q W x.7     fXfXfXfXfXfXfXfXfXfXfXfXfXfXfXfXfXfXfXfXfXfX",
"fXfXfXfXfXfXfXfXfXfXfXfXO =.< ; v O t $.a.b.k.W.i.o K.8X[.l q } yXyX_ ..iXX.` 9   fXfXfXfXfXfXfXfXfXfXfXfXfXfXfXfXfXfXfXfXfXfXfX",
"fXfXfXfXfXfXfXfXfXfXfXfX. #.r.s   i J q.h.T.T._.T.p.# R 1Xc q } eXeXeXtXtXtXo.w   fXfXfXfXfXfXfXfXfXfXfXfXfXfXfXfXfXfXfXfXfXfXfX",
"fXfXfXfXfXfXfXfXfXfXfXfXfX- $.$.i @.;.q.k.h.T.).!./.. S ,X$.M } yXtX] _  .tXO.e   fXfXfXfXfXfXfXfXfXfXfXfXfXfXfXfXfXfXfXfXfXfXfX",
"fXfXfXfXfXfXfXfXfXfXfXfXfXfX, s i @.<.q.y.s.Z.A.Y.T.c p Y ,.~ { iXtX| ) O.tXo.0   fXfXfXfXfXfXfXfXfXfXfXfXfXfXfXfXfXfXfXfXfXfXfX",
"fXfXfXfXfXfXfXfXfXfXfXfXfXfXfX    4 x @.=.u.f.u.u.u.d.r   =.W ) tXtXyXyXtXeX( %   fXfXfXfXfXfXfXfXfXfXfXfXfXfXfXfXfXfXfXfXfXfXfX",
"fXfXfXfXfXfXfXfXfXfXfXfXfXfXfXfXfX    - x <.<.-.-.-.0.r   -.n E X.tXtXtXrX..%     fXfXfXfXfXfXfXfXfXfXfXfXfXfXfXfXfXfXfXfXfXfXfX",
"fXfXfXfXfXfXfXfXfXfXfXfXfXfXfXfXfXfXfX  + - s -.e.:.}.=XK.o   i v.) o.rX| * U a   fXfXfXfXfXfXfXfXfXfXfXfXfXfXfXfXfXfXfXfXfXfXfX",
"fXfXfXfXfXfXfXfXfXfXfXfXfXfXfXfXfXfXfXfX    O t s s OXqX0XR U u , & 9 w 8   N.T   fXfXfXfXfXfXfXfXfXfXfXfXfXfXfXfXfXfXfXfXfXfXfX",
"fXfXfXfXfXfXfXfXfXfXfXfXfXfXfXfXfXfXfXfXfXfX        I OX7X0X5XC.3 2 @ @ @ 2 T N   fXfXfXfXfXfXfXfXfXfXfXfXfXfXfXfXfXfXfXfXfXfXfX",
"fXfXfXfXfXfXfXfXfXfXfXfXfXfXfXfXfXfXfXfXfXfXfXfXfXfXX a P.].>X8X6X6X7X&X].OX5     fXfXfXfXfXfXfXfXfXfXfXfXfXfXfXfXfXfXfXfXfXfXfX",
"fXfXfXfXfXfXfXfXfXfXfXfXfXfXfXfXfXfXfXfXfXfXfXfXfXfXfXX a F.7X7X;X8X0X7X3X7XJ.a   fXfXfXfXfXfXfXfXfXfXfXfXfXfXfXfXfXfXfXfXfXfXfX",
"fXfXfXfXfXfXfXfXfXfXfXfXfXfXfXfXfXfXfXfXfXfXfXfXfXfXfXfX  N P.-X%X7X8X7X8X8X9XT   fXfXfXfXfXfXfXfXfXfXfXfXfXfXfXfXfXfXfXfXfXfXfX",
"fXfXfXfXfXfXfXfXfXfXfXfXfXfXfXfXfXfXfXfXfXfXfXfXfXfXfXfXfX  a F.%X>X6X7X7X7X9XV.2 fXfXfXfXfXfXfXfXfXfXfXfXfXfXfXfXfXfXfXfXfXfXfX",
"fXfXfXfXfXfXfXfXfXfXfXfXfXfXfXfXfXfXfXfXfXfXfXfXfXfXfXfXfXfX  a J.[.2X8X7X7X8X1XN.  fXfXfXfXfXfXfXfXfXfXfXfXfXfXfXfXfXfXfXfXfXfX",
"fXfXfXfXfXfXfXfXfXfXfXfXfXfXfXfXfXfXfXfXfXfXfXfXfXfXfXfXfXfX  3 C.].1XwX7X7X8X3XS.. fXfXfXfXfXfXfXfXfXfXfXfXfXfXfXfXfXfXfXfXfXfX",
"fXfXfXfXfXfXfXfXfXfXfXfXfXfXfXfXfXfXfXfXfXfXfXfXfXfXfXfXfXfXfXX a J.;X1X8X8X8X3XD.  fXfXfXfXfXfXfXfXfXfXfXfXfXfXfXfXfXfXfXfXfXfX",
"fXfXfXfXfXfXfXfXfXfXfXfXfXfXfXfXfXfXfXfXfXfXfXfXfXfXfXfXfXfXfXfXO 8.J.%X>X1X3X>XN.  fXfXfXfXfXfXfXfXfXfXfXfXfXfXfXfXfXfXfXfXfXfX",
"fXfXfXfXfXfXfXfXfXfXfXfXfXfXfXfXfXfXfXfXfXfXfXfXfXfXfXfXfXfXfXfXo s 9.L.F.].$XOXT   fXfXfXfXfXfXfXfXfXfXfXfXfXfXfXfXfXfXfXfXfXfX",
"fXfXfXfXfXfXfXfXfXfXfXfXfXfXfXfXfXfXfXfXfXfXfXfXfXfXfXfXfXfXfXfXO +.>.6.l.l.A.f.G   fXfXfXfXfXfXfXfXfXfXfXfXfXfXfXfXfXfXfXfXfXfX",
"fXfXfXfXfXfXfXfXfXfXfXfXfXfXfXfXfXfXfXfXfXfXfXfXfXfXfXfXfXfXfXfXO =.e.u.k.h.M.M.J   fXfXfXfXfXfXfXfXfXfXfXfXfXfXfXfXfXfXfXfXfXfX",
"fXfXfXfXfXfXfXfXfXfXfXfXfXfXfXfXfXfXfXfXfXfXfXfXfXfXfXfXfXfXfX. - #.f.Y.~.Q.@X.X&.  fXfXfXfXfXfXfXfXfXfXfXfXfXfXfXfXfXfXfXfXfXfX",
"fXfXfXfXfXfXfXfXfXfXfXfXfXfXfXfXfXfXfXfXfXfXfXfXfXfXfXfXfXfX  - x -.y.b._._.h.y.v   fXfXfXfXfXfXfXfXfXfXfXfXfXfXfXfXfXfXfXfXfXfX",
"fXfXfXfXfXfXfXfXfXfXfXfXfXfXfXfXfXfXfXfXfXfXfXfXfXfXfXfXfXfX  V [.G.1.t.W.R.e.i.T   fXfXfXfXfXfXfXfXfXfXfXfXfXfXfXfXfXfXfXfXfXfX",
"fXfXfXfXfXfXfXfXfXfXfXfXfXfXfXfXfXfXfXfXfXfXfXfXfXfXfXfXfXfX  V ,X>X'.L g s P G.B.  fXfXfXfXfXfXfXfXfXfXfXfXfXfXfXfXfXfXfXfXfXfX",
"fXfXfXfXfXfXfXfXfXfXfXfXfXfXfXfXfXfXfXfXfXfXfXfXfXfXfXfXfXfX# T 4X0XI.6     T ;XG.  fXfXfXfXfXfXfXfXfXfXfXfXfXfXfXfXfXfXfXfXfXfX",
"fXfXfXfXfXfXfXfXfXfXfXfXfXfXfXfXfXfXfXfXfXfXfXfXfXfXfXfXfX  I %X9X8X6 fXfX. N.,XD.  fXfXfXfXfXfXfXfXfXfXfXfXfXfXfXfXfXfXfXfXfXfX",
"fXfXfXfXfXfXfXfXfXfXfXfXfXfXfXfXfXfXfXfXfXfXfXfXfXfXfXfXfX  9.4X8X-X6 fXfX  T -XD.  fXfXfXfXfXfXfXfXfXfXfXfXfXfXfXfXfXfXfXfXfXfX",
"fXfXfXfXfXfXfXfXfXfXfXfXfXfXfXfXfXfXfXfXfXfXfXfXfXfXfXfXfX  V.0X7X[.5   fX  T %XJ.V # fXfXfXfXfXfXfXfXfXfXfXfXfXfXfXfXfXfXfXfXfX",
"fXfXfXfXfXfXfXfXfXfXfXfXfXfXfXfXfXfXfXfXfXfXfXfXfXfXfXfXfX6 *XqX&XT # fXfX  C F.-XP.3   fXfXfXfXfXfXfXfXfXfXfXfXfXfXfXfXfXfXfXfX",
"fXfXfXfXfXfXfXfXfXfXfXfXfXfXfXfXfXfXfXfXfXfXfXfXfXfXfXfX> '.1X3XS.. fXfXfXfX  C :X%X5   fXfXfXfXfXfXfXfXfXfXfXfXfXfXfXfXfXfXfXfX",
"fXfXfXfXfXfXfXfXfXfXfXfXfXfXfXfXfXfXfXfXfXfXfXfXfXfXfXfX  # $ T D.  fXfXfXfX  N ].:X3 fXfXfXfXfXfXfXfXfXfXfXfXfXfXfXfXfXfXfXfXfX",
"fXfXfXfXfXfXfXfXfXfXfXfXfXfXfXfXfXfXfXfXfXfXfXfXfXfXfXO d u f p 6   fXfXfXfX  Z F.N P 5 fXfXfXfXfXfXfXfXfXfXfXfXfXfXfXfXfXfXfXfX",
"fXfXfXfXfXfXfXfXfXfXfXfXfXfXfXfXfXfXfXfXfXfXfXfXfXfX+ l d.W.^.c     fXfXfXfX  6 U + Y.p.2 fXfXfXfXfXfXfXfXfXfXfXfXfXfXfXfXfXfXfX",
"fXfXfXfXfXfXfXfXfXfXfXfXfXfXfXfXfXfXfXfXfXfXfXfXfX  x s.k.Q.E.D . fXfXfXfXfX    - f.E.{.7.  fXfXfXfXfXfXfXfXfXfXfXfXfXfXfXfXfXfX",
"fXfXfXfXfXfXfXfXfXfXfXfXfXfXfXfXfXfXfXfXfXfXfXfXfX  G W.Q.Q.!.i.l   fXfXfXfX  4 y.g.T.{.7.  fXfXfXfXfXfXfXfXfXfXfXfXfXfXfXfXfXfX",
"fXfXfXfXfXfXfXfXfXfXfXfXfXfXfXfXfXfXfXfXfXfXfXfX. s 1.E.).T.).b.+.  fXfXfX  t &.R.g.h./.7.  fXfXfXfXfXfXfXfXfXfXfXfXfXfXfXfXfXfX",
"fXfXfXfXfXfXfXfXfXfXfXfXfXfXfXfXfXfXfXfXfXfXfXfX+ ;.s.Z.!.Q.).b.K   fXfXfX  b d.g.g.u.Y.p.5 fXfXfXfXfXfXfXfXfXfXfXfXfXfXfXfXfXfX",
"fXfXfXfXfXfXfXfXfXfXfXfXfXfXfXfXfXfXfXfXfXfXfXfXO #.y.Z.Q.Q.Q.E.>.. fXfXfX  x a.g.f.g.f.j.g.:   fXfXfXfXfXfXfXfXfXfXfXfXfXfXfXfX",
"fXfXfXfXfXfXfXfXfXfXfXfXfXfXfXfXfXfXfXfXfXfXfXfX. #.s.Y.!.Q.!.E.4.  fXfXfX  z a.h.g.g.f.j.g.: fXfXfXfXfXfXfXfXfXfXfXfXfXfXfXfXfX",
"fXfXfXfXfXfXfXfXfXfXfXfXfXfXfXfXfXfXfXfXfXfXfX+ v -.<.i.A.T.!.!.2.. fXfXfX  x q.t.g.g.f.j.h.@ fXfXfXfXfXfXfXfXfXfXfXfXfXfXfXfXfX",
"fXfXfXfXfXfXfXfXfXfXfXfXfXfXfXfXfXfXfXfXfXfXO u -.@.$.q.k.Q.T.b.&.. fXfXfX  v 0.>.t.g.g.g.t.u . fXfXfXfXfXfXfXfXfXfXfXfXfXfXfXfX",
"fXfXfXfXfXfXfXfXfXfXfXfXfXfXfXfXfXfXfXfXfX. i x f f 5.j.g.T.k.a.b   fXfXfX  x e.=.=.u.g.y.;.w.f X fXfXfXfXfXfXfXfXfXfXfXfXfXfXfX",
"fXfXfXfXfXfXfXfXfXfXfXfXfXfXfXfXfXfXfXfX  b =.@.$.t.u.g.f.h.h.y.b   fXfXfX  x 0.-.-.;.-.<.f.Y.!.P   fXfXfXfXfXfXfXfXfXfXfXfXfXfX",
"fXfXfXfXfXfXfXfXfXfXfXfXfXfXfXfXfXfXfX- x ;.w.f.Z.Y.Y.h.f.f.g.s.v . fXfXfX  x 0.-.-.=.<.u.g.l./.~.P . fXfXfXfXfXfXfXfXfXfXfXfXfX",
"fXfXfXfXfXfXfXfXfXfXfXfXfXfXfXfXfXfX  , w.0.u.Z.Q._._.T.j.g.g.d.K . fXfXfX  b w.-.-.=.1.f.g.f.g.!.{.F @ fXfXfXfXfXfXfXfXfXfXfXfX",
"fXfXfXfXfXfXfXfXfXfXfXfXfXfXfXfXfXfX. r q.g.g.f.g.Y.T._.T.g.h.y.x   fXfXfX  l <.;.-.-.=.<.f.g.f.k.T.^.g   fXfXfXfXfXfXfXfXfXfXfX",
"fXfXfXfXfXfXfXfXfXfXfXfXfXfXfXfXfX  s =.<.g.g.g.g.g.g.A.T.g.b.H X fXfXfXfXfXX d w.0.0.0.<.0.g.b.b.b.^.g   fXfXfXfXfXfXfXfXfXfXfX",
"fXfXfXfXfXfXfXfXfXfXfXfXfXfXfXfXfX  v m.e.w.b.n.b.b.b.R.E.R.m.f   fXfXfXfXfX  O 4 , , , < , t y 4 y u @   fXfXfXfXfXfXfXfXfXfXfX",
"fXfXfXfXfXfXfXfXfXfXfXfXfXfXfXfXfX  4 z l d D H H H H G G H x 1   fXfXfXfXfXfX                          fXfXfXfXfXfXfXfXfXfXfXfX",
"fXfXfXfXfXfXfXfXfXfXfXfXfXfXfXfXfX                              fXfXfXfXfXfXfXfXfXfXfXfXfXfXfXfXfXfXfXfXfXfXfXfXfXfXfXfXfXfXfXfX"
};
