/* XPM */
static char *result[] = {
/* columns rows colors chars-per-pixel */
"64 64 239 2 ",
"   c #000102",
".  c #00050C",
"X  c #030A0C",
"o  c #0A0708",
"O  c #000413",
"+  c #020B13",
"@  c #010D1A",
"#  c #00061A",
"$  c #041114",
"%  c #091212",
"&  c #03131D",
"*  c #0B1B1B",
"=  c #17100D",
"-  c #2A1B13",
";  c #281913",
":  c #010D24",
">  c #000720",
",  c #021322",
"<  c #02152B",
"1  c #031A2C",
"2  c #091C24",
"3  c #031B31",
"4  c #031D39",
"5  c #111B20",
"6  c #0A262B",
"7  c #052234",
"8  c #05243B",
"9  c #0A2B36",
"0  c #162C34",
"q  c #073739",
"w  c #13343B",
"e  c #16383C",
"r  c #122828",
"t  c #262E39",
"y  c #2E3A3D",
"u  c #2C2017",
"i  c #5A3132",
"p  c #622818",
"a  c #1F413E",
"s  c #011E44",
"d  c #042344",
"f  c #052A44",
"g  c #04264B",
"h  c #052B4D",
"j  c #092D48",
"k  c #142348",
"l  c #0A3448",
"z  c #163944",
"x  c #052D5B",
"c  c #032953",
"v  c #093653",
"b  c #06325C",
"n  c #08395A",
"m  c #083757",
"M  c #173B5E",
"N  c #2C354D",
"B  c #053363",
"V  c #05366D",
"C  c #083C67",
"Z  c #133965",
"A  c #053B72",
"S  c #023E7A",
"D  c #003371",
"F  c #002A6F",
"G  c #283566",
"H  c #5D3A43",
"J  c #66366C",
"K  c #1A434A",
"L  c #164149",
"P  c #0C4257",
"I  c #1A4C5C",
"U  c #1B545A",
"Y  c #224D58",
"T  c #24585B",
"R  c #2C484C",
"E  c #0A436B",
"W  c #0A466A",
"Q  c #195B68",
"!  c #09467A",
"~  c #145778",
"^  c #124B69",
"/  c #255A64",
"(  c #30506A",
")  c #27646B",
"_  c #29697A",
"`  c #2F717D",
"'  c #504651",
"]  c #6F514E",
"[  c #406B67",
"{  c #864B36",
"}  c #AC145D",
"|  c #C0125B",
" . c #8E5A44",
".. c #9D6C56",
"X. c #B17152",
"o. c #84407D",
"O. c #C77346",
"+. c #E0875E",
"@. c #CA9370",
"#. c #E39D68",
"$. c #E9A67A",
"%. c #F5A878",
"&. c #D3A073",
"*. c #003D90",
"=. c #064383",
"-. c #05458B",
";. c #084A87",
":. c #0D5485",
">. c #0B538D",
",. c #0E598B",
"<. c #145885",
"1. c #064A92",
"2. c #084C94",
"3. c #084E9A",
"4. c #064E9B",
"5. c #0A5395",
"6. c #09529C",
"7. c #0B5A9D",
"8. c #0E5C93",
"9. c #155F91",
"0. c #146689",
"q. c #0D609D",
"w. c #16689A",
"e. c #16779B",
"r. c #286883",
"t. c #297584",
"y. c #337C89",
"u. c #2B7793",
"i. c #0955A3",
"p. c #0B5CA3",
"a. c #0B5DAB",
"s. c #0754A9",
"d. c #0A5DB4",
"f. c #0E64A4",
"g. c #0D63A9",
"h. c #0F6AAC",
"j. c #0F68A6",
"k. c #106AA4",
"l. c #106DAD",
"z. c #1066A3",
"x. c #1774A7",
"c. c #0E6BB3",
"v. c #0B65B9",
"b. c #116EB2",
"n. c #0E77BA",
"m. c #1273B4",
"M. c #157AB5",
"N. c #1174BA",
"B. c #147BBC",
"V. c #1C7AB5",
"C. c #2378A7",
"Z. c #2668B3",
"A. c #255A97",
"S. c #576F88",
"D. c #6F758D",
"F. c #0E76C3",
"G. c #137CC2",
"H. c #1278C3",
"J. c #894F85",
"K. c #896593",
"L. c #38858D",
"P. c #348897",
"I. c #34909B",
"U. c #1B83B4",
"Y. c #1681BE",
"T. c #1984BD",
"R. c #1B89BB",
"E. c #178AB2",
"W. c #3898AA",
"Q. c #379BB6",
"!. c #2990B3",
"~. c #3BA6B8",
"^. c #3FA1A9",
"/. c #418E96",
"(. c #6A909D",
"). c #409CAE",
"_. c #6892B5",
"`. c #42A6B8",
"'. c #52B8B8",
"]. c #50ACB7",
"[. c #69A8B3",
"{. c #1B8CC3",
"}. c #1584CC",
"|. c #1B8DCC",
" X c #1787C5",
".X c #1E92C6",
"XX c #1D94CB",
"oX c #1B96CB",
"OX c #168AD6",
"+X c #1C96D5",
"@X c #1F9DD8",
"#X c #219ACC",
"$X c #2696C8",
"%X c #209DD5",
"&X c #2E99C7",
"*X c #2CABCC",
"=X c #38AAC5",
"-X c #22A3DB",
";X c #37BBD5",
":X c #3CBCCE",
">X c #1D9CE1",
",X c #24A9E5",
"<X c #44B6C8",
"1X c #40BBD1",
"2X c #48A8C2",
"3X c #72B3D4",
"4X c #3FC5DC",
"5X c #42C4DB",
"6X c #49C9D9",
"7X c #5BD5DB",
"8X c #54CBD1",
"9X c #44CCE2",
"0X c #48CCE0",
"qX c #45D2EA",
"wX c #4BD5E8",
"eX c #5ADCE4",
"rX c #5AE2EC",
"tX c #55E8F8",
"yX c #63E5EC",
"uX c #63ECF1",
"iX c #6CFBFE",
"pX c #67F4F9",
"aX c #71FBFA",
"sX c #75D6E0",
"dX c #9AA8A7",
"fX c #D2AE8C",
"gX c #D6B89B",
"hX c #F5BB87",
"jX c #ECB787",
"kX c #F8CC98",
"lX c #FBD3A6",
"zX c #87B2C9",
"xX c #92C7D0",
"cX c #90F0F2",
"vX c #A7D8E8",
"bX c #F0F0D2",
"nX c #D3DDE0",
"mX c #EAEDE9",
"MX c None",
/* pixels */
"MXMXMXMXMXMXMXMXMXMXMXMXMXMXMXMXMXMXMXMXMXMXMXMXMXMXMXMXMXMXMXMXMXMXMXMXMXMXMXMXMXMXMXMXMXMXMXMXMXMXMXMXMXMXMXMXMXMXMXMXMXMXMXMX",
"MXMXMXMXMXMXMXMXMXMXMXMXMXMXMXMXMXMXMXMXMXMXMXMXMXMXMXMXMXMXMXMXMXMXMXMX% 0 w a K R r MXMXMXMXMXMXMXMXMXMXMXMXMXMXMXMXMXMXMXMXMX",
"MXMXMXMXMXMXMXMXMXMXMXMXMXMXMXMXMXMXMXMXMXMXMXMXMXMXMXMXMXMXMXMXMXo   o Y Q.~.6XrXiX/.% X o MXMXMXMXMXMXMXMXMXMXMXMXMXMXMXMXMXMX",
"MXMXMXMXMXMXMXMXMXMXMXMXMXMXMXMXMXMXMXMXMXMXMXMXMXMXMXMXMXMXMXMXo a I W w.*X*X*X:XtX8XI./.) % MXMXMXMXMXMXMXMXMXMXMXMXMXMXMXMXMX",
"MXMXMXMXMXMXMXMXMXMXMXMXMXMXMXMXMXMXMXMXMXMXMXMXMXMXMXMXMXMXMX  5 t.!. X{.oX@X`.[.2X0XpXaX7XT % MXMXMXMXMXMXMXMXMXMXMXMXMXMXMXMX",
"MXMXMXMXMXMXMXMXMXMXMXMXMXMXMXMXMXMXMXMXMXMXMXMXMXMXMXMXMXMX  5 Y C.|.+XXX X*XvXnX[.Q.wXpXaXyX) % MXMXMXMXMXMXMXMXMXMXMXMXMXMXMX",
"MXMXMXMXMXMXMXMXMXMXMXMXMXMXMXMXMXMXMXMXMXMXMXMXMXMXMXMXMXMX  z C.c.m.T.{.oX*XsXvXzX/.P.`.7XaXL.X MXMXMXMXMXMXMXMXMXMXMXMXMXMXMX",
"MXMXMXMXMXMXMXMXMXMXMXMXMXMXMXMXMXMXMXMXMXMXMXMXMXMXMXMXMXMXX n N.N.m.m.T..X{. X|.3X_.( r.W.Q.Y   MXMXMXMXMXMXMXMXMXMXMXMXMXMXMX",
"MXMXMXMXMXMXMXMXMXMXMXMXMXMXMXMXMXMXMXMXMXMXMXMXMXMXMXMXMX> x 2.a.b.m.m.M.B.M.Y. X*X&XC.!.R.V.h     MXMXMXMXMXMXMXMXMXMXMXMXMXMX",
"MXMXMXMXMXMXMXMXMXMXMXMXMXMXMXMXMXMXMXMXMXMXMXMXMXMXMXMX  3 -.s.-.i.g.l.h.m.m.G. XoX X{.U.U.$Xu.y *   MXMXMXMXMXMXMXMXMXMXMXMXMX",
"MXMXMXMXMXMXMXMXMXMXMXMXMXMXMXMXMXMXMXMXMXMXMXMXMXMXMXMX  3 1.s.*.4.2.6.g.m.b.m.n.m.H.m.<.r.6XcXdXR   MXMXMXMXMXMXMXMXMXMXMXMXMX",
"MXMXMXMXMXMXMXMXMXMXMXMXMXMXMXMXMXMXMXMXMXMXMXMXMXMXMXMX  # Z !.;X!.w.1.i.f.1.S S ;.7.p.r.L.0XcXcX[   MXMXMXMXMXMXMXMXMXMXMXMXMX",
"MXMXMXMXMXMXMXMXMXMXMXMXMXMXMXMXMXMXMXMXMXMXMXMXMXMXMXMX  + Y 2XyXeX&X6.-.=.x n Z j c *.w.W.`.tX8XY   MXMXMXMXMXMXMXMXMXMXMXMXMX",
"MXMXMXMXMXMXMXMXMXMXMXMXMXMXMXMXMXMXMXMXMXMXMXMXMXMXMXMX  6 ` D.K.sX4Xq.F B H dX(.t O c 1.C.W.&XC.8   MXMXMXMXMXMXMXMXMXMXMXMXMX",
"MXMXMXMXMXMXMXMXMXMXMXMXMXMXMXMXMXMXMXMXMXMXMXMXMXMXMXMX  q y.J.} 3X;X,.k ' D.xXxXR . N Z 1.x.9.c # MXMXMXMXMXMXMXMXMXMXMXMXMXMX",
"MXMXMXMXMXMXMXMXMXMXMXMXMXMXMXMXMXMXMXMXMXMXMXMXMXMXMXMX  q y.J.| _.E.W i ..dXxX3X) t { H D 4.x O MXMXMXMXMXMXMXMXMXMXMXMXMXMXMX",
"MXMXMXMXMXMXMXMXMXMXMXMXMXMXMXMXMXMXMXMXMXMXMXMXMXMXMXMX  6 _ o.} _.e.b i X.fXbXnXZ.G X.X.] k # MXMXMXMXMXMXMXMXMXMXMXMXMXMXMXMX",
"MXMXMXMXMXMXMXMXMXMXMXMXMXMXMXMXMXMXMXMXMXMXMXMXMXMXMXMXMX$ z J J S.0.Z H O.hXbXmX_.[ @.%.X.;   MXMXMXMXMXMXMXMXMXMXMXMXMXMXMXMX",
"MXMXMXMXMXMXMXMXMXMXMXMXMXMXMXMXMXMXMXMXMXMXMXMXMXMXMXMXMXMXX 0 ( ( <.-.' O.jXlXlXgXfXkXkX&.u   MXMXMXMXMXMXMXMXMXMXMXMXMXMXMXMX",
"MXMXMXMXMXMXMXMXMXMXMXMXMXMXMXMXMXMXMXMXMXMXMXMXMXMXMXMXMX    X w ^ 6.3.( ] &.hXjX$.$.kXkX@.-   MXMXMXMXMXMXMXMXMXMXMXMXMXMXMXMX",
"MXMXMXMXMXMXMXMXMXMXMXMXMXMXMXMXMXMXMXMXMXMXMXMXMXMXMXMXX X % X & V 6.1.D G ..%.jXX.X.jX$. .;   MXMXMXMXMXMXMXMXMXMXMXMXMXMXMXMX",
"MXMXMXMXMXMXMXMXMXMXMXMXMXMXMXMXMXMXMXMXMXMXMXMXMXMXMXX ) ].8X^._ 1 # # F A...+.jXjXhXjX .u MXMXMXMXMXMXMXMXMXMXMXMXMXMXMXMXMXMX",
"MXMXMXMXMXMXMXMXMXMXMXMXMXMXMXMXMXMXMXMXMXMXMXMXMXMXX T 8XaXiXtX6XQ 0 6 s k p p { ..X. .-   MXMXMXMXMXMXMXMXMXMXMXMXMXMXMXMXMXMX",
"MXMXMXMXMXMXMXMXMXMXMXMXMXMXMXMXMXMXMXMXMXMXMXMXMX% T 7XaXpXwX4X:X~.~.y.0 o o o = = = = MXMXMXMXMXMXMX@ .   MXMXMXMXMXMXMXMXMXMX",
"MXMXMXMXMXMXMXMXMXMXMXMXMXMXMXMXMXMXMXMXMXMXMXMX$ U <XaXtXwX:Xt.U 6XpXeXL.U ~ ^ P v 6   MXMXMXMXMXMX& W 8         MXMXMXMXMXMXMX",
"MXMXMXMXMXMXMXMXMXMXMXMXMXMXMXMXMXMXMXMXMXMXMX  l ~.tXyX6X4XW.q % '.aXiXrXqX4X4X~.2Xy.6 . MXMXMXMX& j j.E , & * & MXMXMXMXMXMXMX",
"MXMXMXMXMXMXMXMXMXMXMXMXMXMXMXMXMXMXMXMXMXMX  P x. X*XwXtX!.6 2 L.7XpXpXuXrX4X~.Q.<X4XW.e   MXMX& W :.2 s >.M.U.8.7   MXMXMXMXMX",
"MXMXMXMXMXMXMXMXMXMXMXMXMXMXMXMXMXMXMXMXMX+ d e.@X}.x.u.y.T K ` <XrXpXuXpXrX:XL./ P.9X9XI.L MX  1 5.7.. > A f.M.G.j     MXMXMXMX",
"MXMXMXMXMXMXMXMXMXMXMXMXMXMXMXMXMXMXMXMX  7 z.|.@XoXw.x $ * / =XwXrXuXuXpXrX`.a X ) <X5XqXQ.9   @ B ! , 7 C ! 8.N.f .   MXMXMXMX",
"MXMXMXMXMXMXMXMXMXMXMXMXMXMXMXMXMXMXMXMX  8 N.}.{.XXM.F .   0 I.qX6XrXuXrX6X`.w   / `.`.6X1X:.:   @ g W w.x.x.j.6.7     MXMXMXMX",
"MXMXMXMXMXMXMXMXMXMXMXMXMXMXMXMXMXMXMXMX  3 f.c.N. XB.g.n 7 , L W.~.0XrX6XW.` 0 o K y.).~.$XF.! 1   & c. XU.R.M.i.4     MXMXMXMX",
"MXMXMXMXMXMXMXMXMXMXMXMXMXMXMXMXMXMXMXMX  1 ;.c.m.m.V.{.R.{.k.f * I.wX6X<X` 6 MXMX  e I.C.6.h.G.8.1 + -.;.b b >.m.f     MXMXMXMX",
"MXMXMXMXMXMXMXMXMXMXMXMXMXMXMXMXMXMXMXMX  < -.i.g.m.{.#X@X,X}.x X e.,X*Xx.^ O MXMXMX% K <.s.i.H.g.7 @ 7.g.>.A B n ,   MXMXMXMXMX",
"MXMXMXMXMXMXMXMXMXMXMXMXMXMXMXMXMXMXMXMX  < 2.4.p.U.#X.X+XXXw.j 2 W l.n.c.A     MXMXMX+ d 1.4.F.g.7 @ q.N.N.a.B X MXMXMXMXMXMXMX",
"MXMXMXMXMXMXMXMXMXMXMXMXMXMXMXMXMXMXMXMX  3 2.a.b.{.oX.X|.,.8 P w.7 m Y.OX! #     MXMXMXO 4 =.F.2.1 X C ! 7.N.!   MXMXMXMXMXMXMX",
"MXMXMXMXMXMXMXMXMXMXMXMXMXMXMXMXMXMXMXMXMX@ h 5.Y.XX{. XOXb   P +XX * x.OX5.I U z $ MXMXMX  d A c @   < , 8 E v   MXMXMXMXMXMXMX",
"MXMXMXMXMXMXMXMXMXMXMXMXMXMXMXMXMXMXMXMXMXMX  C B.@X{.b.v.x # n k., 9 q.v.7.=XwX~.z   MXMXMX                    MXMXMXMXMXMXMXMX",
"MXMXMXMXMXMXMXMXMXMXMXMXMXMXMXMXMXMXMXMXMXMX  x b.}.m.6.h s x b d b -.g.V.W.~.5X9X~.L   MXMXMXMXMXMXMXMXMXMXMXMXMXMXMXMXMXMXMXMX",
"MXMXMXMXMXMXMXMXMXMXMXMXMXMXMXMXMXMXMXMXMXMX  4 =.b.N.3.+ + x d X x *.A / y.W.`.:XqXQ.e X MXMXMXMXMXMXMXMXMXMXMXMXMXMXMXMXMXMXMX",
"MXMXMXMXMXMXMXMXMXMXMXMXMXMXMXMXMXMXMXMXMXMXMX  3 *.v.1.:   + +   @ : : + e y.).W.:XqX~.K   MXMXMXMXMXMXMXMXMXMXMXMXMXMXMXMXMXMX",
"MXMXMXMXMXMXMXMXMXMXMXMXMXMXMXMXMXMXMXMXMXMXMX    : g h Q z $   MX      MXX K t.).Q.1XwX~.Q X MXMXMXMXMXMXMXMXMXMXMXMXMXMXMXMXMX",
"MXMXMXMXMXMXMXMXMXMXMXMXMXMXMXMXMXMXMXMXMXMX+ @ & +     ~.Q.w   MXMXMXMXMXMXo e L.W.`.5X4XI.q   MXMXMXMXMXMXMXMXMXMXMXMXMXMXMXMX",
"MXMXMXMXMXMXMXMXMXMXMXMXMXMXMXMXMXMXMXMXMXO B ! 8.0.l   ~.~.z   MXMXMXMXMXMXMXX 0 y.2X~.) w 0.v o MXMXMXMXMXMXMXMXMXMXMXMXMXMXMX",
"MXMXMXMXMXMXMXMXMXMXMXMXMXMXMXMXMXMXMXMX@ x i.F.>X-X~   Q ) 6 MXMXMXMXMXMXMXMXMX  z ` / 6 f .XV.l + MXMXMXMXMXMXMXMXMXMXMXMXMXMX",
"MXMXMXMXMXMXMXMXMXMXMXMXMXMXMXMXMXMXMX+ B a.b. X-X@X~   % + MXMXMXMXMXMXMXMXMXMXMXX X + n m.XX,XU.9   MXMXMXMXMXMXMXMXMXMXMXMXMX",
"MXMXMXMXMXMXMXMXMXMXMXMXMXMXMXMXMXMX# x 6.F.T.R.-XoX~       MXMXMXMXMXMXMXMXMXMXMX  + v z.}.{.,X{.l   MXMXMXMXMXMXMXMXMXMXMXMXMX",
"MXMXMXMXMXMXMXMXMXMXMXMXMXMXMXMXMX+ x p.n.T.$X{.@X.X~       MXMXMXMXMXMXMXMXMXMXMX. v m.G.m.U.-XU.l   MXMXMXMXMXMXMXMXMXMXMXMXMX",
"MXMXMXMXMXMXMXMXMXMXMXMXMXMXMXMX+ B i.N. X.X.X.X+XB.E   MXMXMXMXMXMXMXMXMXMXMXMX. h 6.N.H.m.m.+XU.l   MXMXMXMXMXMXMXMXMXMXMXMXMX",
"MXMXMXMXMXMXMXMXMXMXMXMXMXMXMX, x 2.g.M.{.XX{.$X+XH.E   MXMXMXMXMXMXMXMXMXMXMX  . A v.N.m.b.b.}.M.j   MXMXMXMXMXMXMXMXMXMXMXMXMX",
"MXMXMXMXMXMXMXMXMXMXMXMXMXMX+ B s.3.p.m.{.XX.X.XoXM.C   MXMXMXMXMXMXMXMXMXMXMXMX@ V a.m.m.m.b.G.k.9   MXMXMXMXMXMXMXMXMXMXMXMXMX",
"MXMXMXMXMXMXMXMXMXMXMXMXMX, V 6.a.g.h.m.{.#X#X.XM.>.d   MXMXMXMXMXMXMXMXMXMX  3 V -.p.m.M.b.l.}.k.7   MXMXMXMXMXMXMXMXMXMXMXMXMX",
"MXMXMXMXMXMXMXMXMXMXMXMX  s ! -.;.l.m.m.Y.R.T.}.h.b +   MXMXMXMXMXMXMXMXMXMX. d i.i.5.g.m.M.m.H.p.h # MXMXMXMXMXMXMXMXMXMXMXMXMX",
"MXMXMXMXMXMXMXMXMXMXMX. 4 B B B A k.N.m.m.m.m.}.8.3   MXMXMXMXMXMXMXMXMXMXMX. h 6.i.1.3.g.m.m.z.7.1.B & MXMXMXMXMXMXMXMXMXMXMXMX",
"MXMXMXMXMXMXMXMXMXMX, b =.=.V ! ,.h.m.m.b.b.b.h.C &   MXMXMXMXMXMXMXMXMXMXMX  d 2.i.1.1.6.p.p.7.a.B.m.~ 2 MXMXMXMXMXMXMXMXMXMXMX",
"MXMXMXMXMXMXMXMXMX@ b i.p.6.p.b.B.M.m.m.m.m.m.;.4 .   MXMXMXMXMXMXMXMXMXMXMXX d 2.i.2.2.2.2.2.p.m.{.%X,X~ & MXMXMXMXMXMXMXMXMXMX",
"MXMXMXMXMXMXMX  @ V -.3.a.m. X{.{.{.M.b.b.h.i.g + MXMXMXMXMXMXMXMXMXMXMXMXMX  d 2.i.2.2.1.5.g.m.m.m.T.#XoX0.& MXMXMXMXMXMXMXMXMX",
"MXMXMXMXMXMXMX  , ;.a.p.b.B.{.$XoX#X{.M.M.b.p.8   MXMXMXMXMXMXMXMXMXMXMXMXMX. h s.i.1.2.2.5.p.b.m.m.m.Y.-X.X^ < MXMXMXMXMXMXMXMX",
"MXMXMXMXMXMXMX  1 -.v.m.m.b.m.Y..X.X.X{.M.m.N.j o MXMXMXMXMXMXMXMXMXMXMXMXMX  s 1.i.6.6.6.3.3.g.N.M.N.N.|.>X}.E   MXMXMXMXMXMXMX",
"MXMXMXMXMXMXMX4 A 1.g.B.M.c.l.m.M.M.{..XB.m.H.v . MXMXMXMXMXMXMXMXMXMXMXMXMXMX@ d =.s.i.i.3.3.i.a.m.N.N.M.OXOX:.  MXMXMXMXMXMXMX",
"MXMXMXMXMXMX@ V d.i.p.b.n.M.N.m.c.c. X{. XN.N.h   MXMXMXMXMXMXMXMXMXMXMXMXMXMXMX  g ! A A A A V A ;.,.,.:.8.,.v   MXMXMXMXMXMXMX",
"MXMXMXMXMXMX+ B d.i.6.p.N.H.H.N.B.H.B.G.G.N.d.d   MXMXMXMXMXMXMXMXMXMXMXMXMXMXMX  . + + . + + . . + + + + @ X .   MXMXMXMXMXMXMX",
"MXMXMXMXMXMX. 3 h g g g v n n n n n n n n b g , MXMXMXMXMXMXMXMXMXMXMXMXMXMXMXMXMX  MXMXMXMXMXMXMXMXMXMXMXMXMXMXMXMXMXMXMXMXMXMX",
"MXMXMXMXMXMX    . . . . . . . X . X . . . . .   MXMXMXMXMXMXMXMXMXMXMXMXMXMXMXMXMXMXMXMXMXMXMXMXMXMXMXMXMXMXMXMXMXMXMXMXMXMXMXMX",
"MXMXMXMXMXMX                                  MXMXMXMXMXMXMXMXMXMXMXMXMXMXMXMXMXMXMXMXMXMXMXMXMXMXMXMXMXMXMXMXMXMXMXMXMXMXMXMXMX"
};
