/* XPM */
static char *result[] = {
/* columns rows colors chars-per-pixel */
"64 64 219 2 ",
"   c #001B47",
".  c #02244D",
"X  c #002352",
"o  c #042C55",
"O  c #052F5A",
"+  c #05315C",
"@  c #08345B",
"#  c #012C64",
"$  c #002E6C",
"%  c #00276C",
"&  c #053463",
"*  c #063965",
"=  c #0C3C64",
"-  c #04356A",
";  c #063B6D",
":  c #093763",
">  c #053B74",
",  c #063E7A",
"<  c #003178",
"1  c #0E466D",
"2  c #10456A",
"3  c #184D6D",
"4  c #094474",
"5  c #07417D",
"6  c #0A4B7F",
"7  c #084578",
"8  c #124E75",
"9  c #1E5A75",
"0  c #16557B",
"q  c #18516F",
"w  c #384579",
"e  c #525474",
"r  c #775C69",
"t  c #7C7A79",
"y  c #D41650",
"u  c #90576F",
"i  c #916D69",
"p  c #AD7968",
"a  c #C07658",
"s  c #8C817F",
"d  c #FD9A5C",
"f  c #C78968",
"g  c #CB9979",
"h  c #D9926B",
"j  c #F89D66",
"k  c #E79565",
"l  c #DEA67A",
"z  c #ECA676",
"x  c #F6A973",
"c  c #F6AD70",
"v  c #043E84",
"b  c #023E8B",
"n  c #143982",
"m  c #074283",
"M  c #05448C",
"N  c #074A8D",
"B  c #084A8D",
"V  c #0A4A84",
"C  c #0C548B",
"Z  c #0E5183",
"A  c #175786",
"S  c #044691",
"D  c #064B94",
"F  c #084D95",
"G  c #00459D",
"H  c #064D9A",
"J  c #084E99",
"K  c #0B5393",
"L  c #0C5992",
"P  c #04529C",
"I  c #09539B",
"U  c #0C5B9D",
"Y  c #045095",
"T  c #125191",
"R  c #284C83",
"E  c #275687",
"W  c #3F5381",
"Q  c #0D619E",
"!  c #166699",
"~  c #16729E",
"^  c #256984",
"/  c #297087",
"(  c #2B7B96",
")  c #317E90",
"_  c #0954A2",
"`  c #0C5CA3",
"'  c #055AA7",
"]  c #0D62A5",
"[  c #0563AB",
"{  c #0D65AA",
"}  c #0E6AAD",
"|  c #0F69A7",
" . c #126AA5",
".. c #116CAC",
"X. c #1466A4",
"o. c #1372AD",
"O. c #1E7BAA",
"+. c #1973A5",
"@. c #006DB4",
"#. c #0E6CB1",
"$. c #0068B6",
"%. c #106EB1",
"&. c #0D72B4",
"*. c #0576BB",
"=. c #1273B4",
"-. c #1579B6",
";. c #197CB4",
":. c #1276BB",
">. c #147BBB",
",. c #1A7FB9",
"<. c #2677A9",
"1. c #3678A6",
"2. c #4E5F81",
"3. c #4E6D8D",
"4. c #6A7688",
"5. c #6177A4",
"6. c #087CC1",
"7. c #975781",
"8. c #8C6C98",
"9. c #A4759F",
"0. c #388A9B",
"q. c #348498",
"w. c #368899",
"e. c #1682BD",
"r. c #1A83BC",
"t. c #1B88BA",
"y. c #1F82B2",
"u. c #0E81BB",
"i. c #2B88A8",
"p. c #348DA6",
"a. c #2D91AC",
"s. c #3B92A1",
"d. c #3896AA",
"f. c #2288B9",
"g. c #2491BE",
"h. c #2B95BB",
"j. c #359EB5",
"k. c #3BA4B7",
"l. c #758E9C",
"z. c #429DAA",
"x. c #4B89AE",
"c. c #7599AC",
"v. c #43A4AF",
"b. c #42A9B6",
"n. c #43AEBB",
"m. c #1582C3",
"M. c #1987C1",
"N. c #1B8BC3",
"B. c #1A8DCA",
"V. c #138EC1",
"C. c #0E9BC9",
"Z. c #1E91C6",
"A. c #1E94C9",
"S. c #1F98CE",
"D. c #288DC4",
"F. c #2494C2",
"G. c #2A9AC3",
"H. c #2096C9",
"J. c #219ACC",
"K. c #2D9EC8",
"L. c #2698C4",
"P. c #2DA1C4",
"I. c #2CA5CA",
"U. c #2FA9CE",
"Y. c #33A6C4",
"T. c #33A5CC",
"R. c #33ABCC",
"E. c #3BADC5",
"W. c #3AB3CD",
"Q. c #37B3CB",
"!. c #22A7D9",
"~. c #34B2D2",
"^. c #3BB6D2",
"/. c #3EBFD7",
"(. c #4285C6",
"). c #42BBCD",
"_. c #41B5C4",
"`. c #42BED2",
"'. c #44BDDA",
"]. c #3CC3D7",
"[. c #2EC3E2",
"{. c #43C3D4",
"}. c #4AC9D6",
"|. c #43C5DA",
" X c #46CBDB",
".X c #4BCBDC",
"XX c #48C8DA",
"oX c #4FD5DE",
"OX c #50D3DD",
"+X c #4DC0C7",
"@X c #71CED8",
"#X c #56DCE3",
"$X c #56D8E5",
"%X c #4ED0E2",
"&X c #5BE2EB",
"*X c #5FE4E7",
"=X c #5BE5F0",
"-X c #63ECED",
";X c #60E5ED",
":X c #65EDF2",
">X c #69E9F3",
",X c #6FFEFC",
"<X c #69F6F7",
"1X c #75FFFC",
"2X c #889BB0",
"3X c #B0BFB3",
"4X c #CCB293",
"5X c #F4BC89",
"6X c #E9BC8F",
"7X c #FAC48B",
"8X c #F7C895",
"9X c #E9C091",
"0X c #FFE8BB",
"qX c #91C0CF",
"wX c #8FC4D2",
"eX c #A2D8E5",
"rX c #F4E9CF",
"tX c #DAF4FB",
"yX c None",
/* pixels */
"yXyXyXyXyXyXyXyXyXyXyXyXyXyXyXyXyXyXyXyXyXyXyXyXyXyXyXyXyXyXyXyXyXyXyXyXyXyXyXyXyXyXyXyXyXyXyXyXyXyXyXyXyXyXyXyXyXyXyXyXyXyXyXyX",
"yXyXyXyXyXyXyXyXyXyXyXyXyXyXyXyXyXyXyXyXyXyXyXyXyXyXyXyXyXyXyXyXyXyXyXyXyXyXyXyXyXyXyXyXyXyXyXyXyXyXyXyXyXyXyXyXyXyXyXyXyXyXyXyX",
"yXyXyXyXyXyXyXyXyXyXyXyXyXyXyXyXyXyXyXyXyXyXyXyXyXyXyXyXyXyXyXyXyXyXyXyXyXyXyXyXyXyXyXyXyXyXyXyXyXyXyXyXyXyXyXyXyXyXyXyXyXyXyXyX",
"yXyXyXyXyXyXyXyXyXyXyXyXyXyXyXyXyXyXyXyXyXyXyXyXyXyXyXyXyXyXyXyXyXyXyXyXyXyXyXyXyXyXyXyXyXyXyXyXyXyXyXyXyXyXyXyXyXyXyXyXyXyXyXyX",
"yXyXyXyXyXyXyXyXyXyXyXyXyXyXyXyXyXyXyXyXyXyXyXyXyXyXyXyXyXyXyXyXyXyXyXyXyXyXyXyXyXyXyXyXyXyXyXyXyXyXyXyXyXyXyXyXyXyXyXyXyXyXyXyX",
"yXyXyXyXyXyXyXyXyXyXyXyXyXyXyXyXyXyXyXyXyXyXyXyXyXyXyXyXyXyXyXyXyXyXyXyX-.;.,.,.,.r.-.yXyXyXyXyXyXyXyXyXyXyXyXyXyXyXyXyXyXyXyXyX",
"yXyXyXyXyXyXyXyXyXyXyXyXyXyXyXyXyXyXyXyXyXyXyXyXyXyXyXyXyXyXyXyXyXyXyXyXy.G.T.T.T.T.D.yXyXyXyXyXyXyXyXyXyXyXyXyXyXyXyXyXyXyXyXyX",
"yXyXyXyXyXyXyXyXyXyXyXyXyXyXyXyXyXyXyXyXyXyXyXyXyXyXyXyXyXyXyXyXyX-.#.=.G..X;X>X:X<X.X,.} =.yXyXyXyXyXyXyXyXyXyXyXyXyXyXyXyXyXyX",
"yXyXyXyXyXyXyXyXyXyXyXyXyXyXyXyXyXyXyXyXyXyXyXyXyXyXyXyXyXyXyXyX-.K.K.t.A.U.~.|.&X<X:X.X).F.%.yXyXyXyXyXyXyXyXyXyXyXyXyXyXyXyXyX",
"yXyXyXyXyXyXyXyXyXyXyXyXyXyXyXyXyXyXyXyXyXyXyXyXyXyXyXyXyXyXyX%.-.Y.R.H.N.N.M.F.Q.$X:X-XoXW.h.-.yXyXyXyXyXyXyXyXyXyXyXyXyXyXyXyX",
"yXyXyXyXyXyXyXyXyXyXyXyXyXyXyXyXyXyXyXyXyXyXyXyXyXyXyXyXyXyX%.%.=.F.J.H.V.N.M.M.A.^.}.}.{.`.).h.=.yXyXyXyXyXyXyXyXyXyXyXyXyXyXyX",
"yXyXyXyXyXyXyXyXyXyXyXyXyXyXyXyXyXyXyXyXyXyXyXyXyXyXyXyXyX..] { >.N.N.Z.Z.Z.Z.Z.Z.F.P.I.I.K.L.;.{ ..yXyXyXyXyXyXyXyXyXyXyXyXyXyX",
"yXyXyXyXyXyXyXyXyXyXyXyXyXyXyXyXyXyXyXyXyXyXyXyXyXyXyXyX:.] D J } e.Z.A.A.Z.A.A.Z.Z.Z.B.Z.Z.r.,.,.=.%.yXyXyXyXyXyXyXyXyXyXyXyXyX",
"yXyXyXyXyXyXyXyXyXyXyXyXyXyXyXyXyXyXyXyXyXyXyXyXyXyXyXyX:.{ S b P } e.A.H.Z.Z.Z.A.A.M.&.g.^..X$X.XD.} yXyXyXyXyXyXyXyXyXyXyXyXyX",
"yXyXyXyXyXyXyXyXyXyXyXyXyXyXyXyXyXyXyXyXyXyXyXyXyXyXyXyX=.%.o.,.t.t.r.t.M.e.>.&.&.-.| ] g.oX<X1X>XK.' yXyXyXyXyXyXyXyXyXyXyXyXyX",
"yXyXyXyXyXyXyXyXyXyXyXyXyXyXyXyXyXyXyXyXyXyXyXyXyXyXyXyX{ ;.W.$X;X.Xh.-.#.} I F Y I S D f. X-X,X;XG.[ yXyXyXyXyXyXyXyXyXyXyXyXyX",
"yXyXyXyXyXyXyXyXyXyXyXyXyXyXyXyXyXyXyXyXyXyXyXyXyXyXyXyX{ V.).2X9.@XQ.[ G P A 3.x.<.' b ' M.|.*X%XF.{ yXyXyXyXyXyXyXyXyXyXyXyXyX",
"yXyXyXyXyXyXyXyXyXyXyXyXyXyXyXyXyXyXyXyXyXyXyXyXyXyXyXyX{ C.).u y wX].Q n 2.t 3XeXD.G w w E h.^.T.r.#.yXyXyXyXyXyXyXyXyXyXyXyXyX",
"yXyXyXyXyXyXyXyXyXyXyXyXyXyXyXyXyXyXyXyXyXyXyXyXyXyXyXyX{ C.R.7.y wX[.Q e f z rXtX(.9 i a i 1.*.-.yXyXyXyXyXyXyXyXyXyXyXyXyXyXyX",
"yXyXyXyXyXyXyXyXyXyXyXyXyXyXyXyXyXyXyXyXyXyXyXyXyXyXyXyXyXm.g.5.8.@X!.C u d 7X0XrX2Xs z j 4X1.[ yXyXyXyXyXyXyXyXyXyXyXyXyXyXyXyX",
"yXyXyXyXyXyXyXyXyXyXyXyXyXyXyXyXyXyXyXyXyXyXyXyXyXyXyXyXyXyX#.F.].].u.K r k 5X8X5X5X8X7X7X4X1.@.yXyXyXyXyXyXyXyXyXyXyXyXyXyXyXyX",
"yXyXyXyXyXyXyXyXyXyXyXyXyXyXyXyXyXyXyXyXyXyXyXyXyXyXyXyXyX' ' &.u.+.P T i j 5X8X6Xh l 8X5Xf 1.*.yXyXyXyXyXyXyXyXyXyXyXyXyXyXyXyX",
"yXyXyXyXyXyXyXyXyXyXyXyXyXyXyXyXyXyXyXyXyXyXyXyXyXyXyXyXr.K.T.F.;.I G I 2.p z 7X8Xx j x f 4.<.yXyXyXyXyXyXyXyXyXyXyXyXyXyXyXyXyX",
"yXyXyXyXyXyXyXyXyXyXyXyXyXyXyXyXyXyXyXyXyXyXyXyXyXyXyX-.'.:X-XOXY.-.{ [ _ W p z 6X6Xz f 4...yXyXyXyXyXyXyXyXyXyXyXyXyXyXyXyXyXyX",
"yXyXyXyXyXyXyXyXyXyXyXyXyXyXyXyXyXyXyXyXyXyXyXyXyXyXf.'.:X,X-XOX{.T.j.<.[ _ 3.4.c.c.l.4.X.yXyXyXyXyXyXyX=.yXyXyXyXyXyXyXyXyXyXyX",
"yXyXyXyXyXyXyXyXyXyXyXyXyXyXyXyXyXyXyXyXyXyXyXyXyX-.~.,X<X$XR.P.Q. X_.v.i.u.6.*.@.@.@.*.yXyXyXyXyXyXyX%.=.=.yXyXyXyXyXyXyXyXyXyX",
"yXyXyXyXyXyXyXyXyXyXyXyXyXyXyXyXyXyXyXyXyXyXyXyX=.Y.#X,X*X^.-.[ r..X>X;XW.Y.~.P.d.d.O.#.yXyXyXyXyXyX-.=.=.:.6.,.=.yXyXyXyXyXyXyX",
"yXyXyXyXyXyXyXyXyXyXyXyXyXyXyXyXyXyXyXyXyXyXyX=.M.R.E.d.Y.G.t.;.L.#X,X<X=XOX_.i.9 q.p.G.^.yXyXyX%.] ] =.U m 7 L =.6 @ yXyXyXyXyX",
"yXyXyXyXyXyXyXyXyXyXyXyXyXyXyXyXyXyXyXyXyXyX=.,.S.J.~ + B X.q.k.|.&X:X<X<X*Xb.9 : / b.W.XXW.-.} ..` I =.L * * C %.V & yXyXyXyXyX",
"yXyXyXyXyXyXyXyXyXyXyXyXyXyXyXyXyXyXyXyXyX=.=.-.N.N.X.% # : q d.oX X#X:X=X}.z.3 o / v.b.+XW.X.` } ..{ =.o.+.~  .` 4 + + yXyXyXyX",
"yXyXyXyXyXyXyXyXyXyXyXyXyXyXyXyXyXyXyXyX=...| { =.e.,.{ Z O X A j.Q..X&X}.j.) 8 * 9 q.s.j.g.Q _ %.-.=.{ o.t.t. .v & + + yXyXyXyX",
"yXyXyXyXyXyXyXyXyXyXyXyXyXyXyXyXyXyXyXyX=.{ I ] =.=.>.N.H.+.*   8 j. X.Xn.) 2 - > + 9 0.<.I { =.=.=.} I 4 & @ & & + + + yXyXyXyX",
"yXyXyXyXyXyXyXyXyXyXyXyXyXyXyXyXyXyXyXyX=.| F D ` -.N.A.!.y.; X 5 ! f.F.<.A o # < < 2 9 T H ` } =.=.%.#.] C 5 - o + + yXyXyXyXyX",
"yXyXyXyXyXyXyXyXyXyXyXyXyXyXyXyXyXyXyXyX=.{ F M ] t.J.A.!.+.* # H H { =.{ m # ; m v - O > M D ` &.:.=.{  .X.F > + yXyXyXyXyXyXyX",
"yXyXyXyXyXyXyXyXyXyXyXyXyXyXyXyXyXyXyXyX=.] F I o.N.S.Z.B.] & - _ ' -.e.{ b b ! ( B < $ & > M H ` =. .7 4 4 ; - + yXyXyXyXyXyXyX",
"yXyXyXyXyXyXyXyXyXyXyXyXyXyXyXyXyXyXyXyXyX..` ` =.M.t.;.] V > m P { >.,.] F ! p.b.i.Q Y > O > , m K Z o . . o O + yXyXyXyXyXyXyX",
"yXyXyXyXyXyXyXyXyXyXyXyXyXyXyXyXyXyXyXyXyXyX=.I I | #.F - & M I F F D D S T p.b.`.{.Y.:.D > & + O O + + + O & O yXyXyXyXyXyXyXyX",
"yXyXyXyXyXyXyXyXyXyXyXyXyXyXyXyXyXyXyXyXyXyXyX6 - F ' H O X - , > ; > - $ 0 s.v.b.{.].U.=.I yXyXyXyXyXyXyXyXyXyXyXyXyXyXyXyXyXyX",
"yXyXyXyXyXyXyXyXyXyXyXyXyXyXyXyXyXyXyXyXyXyXyXC ; > m m 8 1 @ o o + O o o = ^ 0.z.k.{.{.I.e.yXyXyXyXyXyXyXyXyXyXyXyXyXyXyXyXyXyX",
"yXyXyXyXyXyXyXyXyXyXyXyXyXyXyXyXyXyXyXyXyXyX=.=.U - X * a.a.2   yXyXyXyXyXyX& ^ 0.s.k.{.|.R.,.yXyXyXyXyXyXyXyXyXyXyXyXyXyXyXyXyX",
"yXyXyXyXyXyXyXyXyXyXyXyXyXyXyXyXyXyXyXyXyX..` %.=.! 7 Z /.Q.0   yXyXyXyXyXyXyX= ^ w.z.b.Y.L.r.:.yXyXyXyXyXyXyXyXyXyXyXyXyXyXyXyX",
"yXyXyXyXyXyXyXyXyXyXyXyXyXyXyXyXyXyXyXyX%.] F ` ,.A.M.=.T.a.1 yXyXyXyXyXyXyXyXyX@ / s.p.O.=.N.t.=.yXyXyXyXyXyXyXyXyXyXyXyXyXyXyX",
"yXyXyXyXyXyXyXyXyXyXyXyXyXyXyXyXyXyXyX=.` I ` =.N.S.B.=.! 1 yXyXyXyXyXyXyXyXyXyXyX@ A +.=.&.N.A.M.-.=.yXyXyXyXyXyXyXyXyXyXyXyXyX",
"yXyXyXyXyXyXyXyXyXyXyXyXyXyXyXyXyXyX%.` I ' ,.N.H.H.B.=.; . yXyXyXyXyXyXyXyXyXyXyX. > | :.-.t.J.A.,.%.yXyXyXyXyXyXyXyXyXyXyXyXyX",
"yXyXyXyXyXyXyXyXyXyXyXyXyXyXyXyXyX-.` D ` ,.N.Z.H.H.M.%.4 o yXyXyXyXyXyXyXyXyXyXyXo 4 ..=.:.M.J.N.,.#.yXyXyXyXyXyXyXyXyXyXyXyXyX",
"yXyXyXyXyXyXyXyXyXyXyXyXyXyXyXyX%.` I ] ;.Z.A.A.H.r.] 6 - yXyXyXyXyXyXyXyXyXyXyXO - K %.:.=.>.,.>.-.=.yXyXyXyXyXyXyXyXyXyXyXyXyX",
"yXyXyXyXyXyXyXyXyXyXyXyXyXyXyX%.| I ` -.N.J.A.Z.A.6.C o yXyXyXyXyXyXyXyXyXyXyX+ * M ` %.-.%.%.=.=.=.=.yXyXyXyXyXyXyXyXyXyXyXyXyX",
"yXyXyXyXyXyXyXyXyXyXyXyX=.=.%.` I | } -.N.A.Z.r.>.=.K o yXyXyXyXyXyXyXyXyXyX+ > B J ` %.=.=.%.%.#.%.=.yXyXyXyXyXyXyXyXyXyXyXyXyX",
"yXyXyXyXyXyXyXyXyXyXyXyX} ] ` J D ` ..=.,.e.r.>...L 7 + yXyXyXyXyXyXyXyXyXyX+ 5 J J F Q %.:.-...` ` ] yXyXyXyXyXyXyXyXyXyXyXyXyX",
"yXyXyXyXyXyXyXyXyXyX=...I B F F F F ` %.=.=.%.6.X.; . yXyXyXyXyXyXyXyXyXyXyXO , J J F F ] =.=.] F D U %.yXyXyXyXyXyXyXyXyXyXyXyX",
"yXyXyXyXyXyXyXyXyX>...I D b M I { ` } =.=.%.#.m...; . yXyXyXyXyXyXyXyXyXyXyX+ ; F J F F I I I I ] ;.e.M.-.=.yXyXyXyXyXyXyXyXyXyX",
"yXyXyXyXyXyXyXyX>.%.I D J U X.=.e.,.-.%...=.=.=.L * yXyXyXyXyXyXyXyXyXyXyXyXO , I I F F F F I { =.M.Z.H.M.m.=.yXyXyXyXyXyXyXyXyX",
"yXyXyXyXyXyXyXL %.I D J ] :.M.F.N.D.6.=.=.=.:.Z : yXyXyXyXyXyXyXyXyXyXyXyXyX+ , F J J F F I { %.=.>.e.Z.H.A.>.L yXyXyXyXyXyXyXyX",
"yXyXyXyXyXyXyXB ` F J X.=.,.M.M.D.,.r.r.-.#.] > o yXyXyXyXyXyXyXyXyXyXyXyXyXyX* , F I J F I ] { { } >.m.M.B.>.L + yXyXyXyXyXyXyX",
"yXyXyXyXyXyX* v H J ` %.=.=.%.%.%.%.6.F.>.' J > O yXyXyXyXyXyXyXyXyXyXyXyXyXyXyX@ , F B B B M m B `  .| ] ....C + yXyXyXyXyXyXyX",
"yXyXyXyXyXyX& m _ J _ ` =.6.:.:.:.,.6.>.} I I , O yXyXyXyXyXyXyXyXyXyXyXyXyXyXO O * - - - * - & & ; ; ; ; > ; * + yXyXyXyXyXyXyX",
"yXyXyXyXyXyX& > m m , 5 C L C L K L L C m 5 m - yXyXyXyXyXyXyXyXyXyXyXyXyXyXyXyX+ + O O O + + + + O O o O o O + + yXyXyXyXyXyXyX",
"yXyXyXyXyXyX+ & & & & & * * * * * * * : & & * + yXyXyXyXyXyXyXyXyXyXyXyXyXyXyXyXyXyXyXyXyXyXyXyXyXyXyXyXyXyXyXyXyXyXyXyXyXyXyXyX",
"yXyXyXyXyXyX+ + @ + + + + + + + + + + @ + + + yXyXyXyXyXyXyXyXyXyXyXyXyXyXyXyXyXyXyXyXyXyXyXyXyXyXyXyXyXyXyXyXyXyXyXyXyXyXyXyXyX",
"yXyXyXyXyXyXyXyXyXyXyXyXyXyXyXyXyXyXyXyXyXyXyXyXyXyXyXyXyXyXyXyXyXyXyXyXyXyXyXyXyXyXyXyXyXyXyXyXyXyXyXyXyXyXyXyXyXyXyXyXyXyXyXyX",
"yXyXyXyXyXyXyXyXyXyXyXyXyXyXyXyXyXyXyXyXyXyXyXyXyXyXyXyXyXyXyXyXyXyXyXyXyXyXyXyXyXyXyXyXyXyXyXyXyXyXyXyXyXyXyXyXyXyXyXyXyXyXyXyX",
"yXyXyXyXyXyXyXyXyXyXyXyXyXyXyXyXyXyXyXyXyXyXyXyXyXyXyXyXyXyXyXyXyXyXyXyXyXyXyXyXyXyXyXyXyXyXyXyXyXyXyXyXyXyXyXyXyXyXyXyXyXyXyXyX",
"yXyXyXyXyXyXyXyXyXyXyXyXyXyXyXyXyXyXyXyXyXyXyXyXyXyXyXyXyXyXyXyXyXyXyXyXyXyXyXyXyXyXyXyXyXyXyXyXyXyXyXyXyXyXyXyXyXyXyXyXyXyXyXyX",
"yXyXyXyXyXyXyXyXyXyXyXyXyXyXyXyXyXyXyXyXyXyXyXyXyXyXyXyXyXyXyXyXyXyXyXyXyXyXyXyXyXyXyXyXyXyXyXyXyXyXyXyXyXyXyXyXyXyXyXyXyXyXyXyX"
};
