/* XPM */
static char *result[] = {
/* columns rows colors chars-per-pixel */
"64 64 108 2 ",
"   c #0C66AE",
".  c #0D69AF",
"X  c #106EAF",
"o  c #0E6DB1",
"O  c #106FB1",
"+  c #0F71B4",
"@  c #1171B2",
"#  c #1579B5",
"$  c #187EB7",
"%  c #1177B8",
"&  c #137CBA",
"*  c #1B81B7",
"=  c #1681BD",
"-  c #1A84BC",
";  c #1E8ABD",
":  c #208CBC",
">  c #2595BE",
",  c #2A99BF",
"<  c #1786C1",
"1  c #1887C0",
"2  c #1A8BC3",
"3  c #1E91C4",
"4  c #1F94C9",
"5  c #2395C4",
"6  c #269AC4",
"7  c #2A9CC3",
"8  c #2197C8",
"9  c #259BC8",
"0  c #289EC8",
"q  c #2EA3C4",
"w  c #2BA3C9",
"e  c #2FA9CA",
"r  c #31A4C5",
"t  c #32A8C7",
"y  c #33ACCB",
"u  c #35B2CD",
"i  c #39B5CD",
"p  c #3DB8CE",
"a  c #36B3D1",
"s  c #38B3D0",
"d  c #33B9D0",
"f  c #3DBBD2",
"g  c #40B9CF",
"h  c #41BDD1",
"j  c #3DC6D7",
"k  c #44C3D3",
"l  c #46C8D6",
"z  c #49C8D5",
"x  c #46C7D8",
"c  c #4DCDDA",
"v  c #51CFDB",
"b  c #4FD1DD",
"n  c #51D2DE",
"m  c #4DCEE2",
"M  c #41D6E1",
"N  c #4ED2E2",
"B  c #46DCE5",
"V  c #4CDCE5",
"C  c #52D3E0",
"Z  c #56DBE5",
"A  c #5ADDE5",
"S  c #56DEE8",
"D  c #5BDFE9",
"F  c #4DE6EC",
"G  c #4BE8EE",
"H  c #54E3EA",
"J  c #5CE4EA",
"K  c #53EAEF",
"L  c #59E9EF",
"P  c #44ECF1",
"I  c #4CEBF0",
"U  c #53EDF1",
"Y  c #5BEEF2",
"T  c #54F1F5",
"R  c #5CF1F4",
"E  c #61E6EB",
"W  c #62E9ED",
"Q  c #62EDF1",
"!  c #6BEDF1",
"~  c #76EEF2",
"^  c #7BEFF2",
"/  c #63F1F4",
"(  c #69F3F5",
")  c #6CF7F9",
"_  c #77F1F4",
"`  c #70FBFC",
"'  c #81EFF3",
"]  c #84F0F4",
"[  c #8DF1F5",
"{  c #92F2F5",
"}  c #95F7F9",
"|  c #99F9F9",
" . c #A2F4F7",
".. c #ADF4F7",
"X. c #B3F5F7",
"o. c #B3F6F9",
"O. c #BAF6F9",
"+. c #C3F7FA",
"@. c #C8F7FA",
"#. c #C1F8FA",
"$. c #CCF8FA",
"%. c #D4F9FB",
"&. c #DBFBFC",
"*. c #E3FCFD",
"=. c #ECFCFD",
"-. c #F4FEFE",
";. c #FFFFFF",
":. c None",
/* pixels */
":.:.:.:.:.:.:.:.:.:.:.:.:.:.:.:.:.:.:.:.:.:.:.:.:.:.:.:.@ @ O @ @ @ @ :.:.:.:.:.:.:.:.:.:.:.:.:.:.:.:.:.:.:.:.:.:.:.:.:.:.:.:.:.",
":.:.:.:.:.:.:.:.:.:.:.:.:.:.:.:.:.:.:.:.:.:.:.:.:.:.:.:.@ @ O O O @ @ :.:.:.:.:.:.:.:.:.:.:.:.:.:.:.:.:.:.:.:.:.:.:.:.:.:.:.:.:.",
":.:.:.:.:.:.:.:.:.:.:.:.:.:.:.:.:.:.:.:.:.:.:.:.:.:.:.@ @ O + @ @ O @ @ :.:.:.:.:.:.:.:.:.:.:.:.:.:.:.:.:.:.:.:.:.:.:.:.:.:.:.:.",
":.:.:.:.:.:.:.:.:.:.:.:.:.:.:.:.:.:.:.:.:.:.:.:.:.:.:.@ O @ & & & @ O @ :.:.:.:.:.:.:.:.:.:.:.:.:.:.:.:.:.:.:.:.:.:.:.:.:.:.:.:.",
":.:.:.:.:.:.:.:.:.:.:.:.:.:.:.:.:.:.:.:.:.:.:.:.:.:.:.@ O # 2 4 1 # O @ :.:.:.:.:.:.:.:.:.:.:.:.:.:.:.:.:.:.:.:.:.:.:.:.:.:.:.:.",
":.:.:.:.:.:.:.:.:.:.:.:.:.:.:.:.:.:.:.:.:.:.:.:.:.:.O @ $ 1 3 2 2 2 $ O O :.:.:.:.:.:.:.:.:.:.:.:.:.:.:.:.:.:.:.:.:.:.:.:.:.:.:.",
":.:.:.:.:.:.:.:.:.:.:.:.:.:.:.:.:.:.:.:.:.:.:.:.:.@ @ @ < 8 0 0 0 8 1 @ O @ :.:.:.:.:.:.:.:.:.:.:.:.:.:.:.:.:.:.:.:.:.:.:.:.:.:.",
":.:.:.:.:.:.:.:.:.:.:.:.:.:.:.:.:.:.:.:.:.:.:.:.:.@ O @ & 9 s k s 9 = O O @ :.:.:.:.:.:.:.:.:.:.:.:.:.:.:.:.:.:.:.:.:.:.:.:.:.:.",
":.:.:.:.:.:.:.:.:.:.:.:.:.:.:.:.:.:.:.:.:.:.:.:.:.@ O @ & 6 g z f 9 & O O O :.:.:.:.:.:.:.:.:.:.:.:.:.:.:.:.:.:.:.:.:.:.:.:.:.:.",
":.:.:.:.:.:.:.:.:.:.:.:.:.:.:.:.:.:.:.:.:.:.:.:.:.@ @ O = 6 p k i 9 < @ O @ :.:.:.:.:.:.:.:.:.:.:.:.:.:.:.:.:.:.:.:.:.:.:.:.:.:.",
":.:.:.:.:.:.:.:.:.:.:.:.:.:.:.:.:.:.:.:.:.:.:.:.:.@ O @ & 9 p g s 9 & O O @ :.:.:.:.:.:.:.:.:.:.:.:.:.:.:.:.:.:.:.:.:.:.:.:.:.:.",
":.:.:.:.:.:.:.:.:.:.:.:.:.:.:.:.:.:.:.:.:.:.:.:.:.@ O + = 8 p k s 0 = @ O @ :.:.:.:.:.:.:.:.:.:.:.:.:.:.:.:.:.:.:.:.:.:.:.:.:.:.",
":.:.:.:.:.:.:.:.:.:.:.:.:.:.:.:.:.:.:.:.:.:.:.:.:.@ @ @ & 8 f k i 9 & @ @ @ :.:.:.:.:.:.:.:.:.:.:.:.:.:.:.:.:.:.:.:.:.:.:.:.:.:.",
":.:.:.:.:.:.:.:.:.:.:.:.:.:.:.:.:.:.:.:.:.:.:.:.:.@ O @ & 5 s k i 8 & O O @ :.:.:.:.:.:.:.:.:.:.:.:.:.:.:.:.:.:.:.:.:.:.:.:.:.:.",
":.:.:.:.:.:.:.:.:.:.:.:.:.:.:.:.:.:.:.:.:.:.:.:.:.@ O @ ; w i p i e 2 O O @ :.:.:.:.:.:.:.:.:.:.:.:.:.:.:.:.:.:.:.:.:.:.:.:.:.:.",
":.:.:.:.:.:.:.:.:.:.:.:.:.:.:.:.:.:.:.:.:.:.:.:.@ @ . o 7 h k h h h 7 O . @ @ :.:.:.:.:.:.:.:.:.:.:.:.:.:.:.:.:.:.:.:.:.:.:.:.:.",
":.:.:.:.:.:.:.:.:.:.:.:.:.:.:.:.:.:.:.:.:.:.:.:.O @ . O , z D J Z z 7 o . @ @ :.:.:.:.:.:.:.:.:.:.:.:.:.:.:.:.:.:.:.:.:.:.:.:.:.",
":.:.:.:.:.:.:.:.:.:.:.:.:.:.:.:.:.:.:.:.:.:.:.:.+ @ @ % > k Q ` W l 6 & O @ @ :.:.:.:.:.:.:.:.:.:.:.:.:.:.:.:.:.:.:.:.:.:.:.:.:.",
":.:.:.:.:.:.:.:.:.:.:.:.:.:.:.:.:.:.:.:.:.:.:.:.O O % 2 q l E ) J z w < @ O O :.:.:.:.:.:.:.:.:.:.:.:.:.:.:.:.:.:.:.:.:.:.:.:.:.",
":.:.:.:.:.:.:.:.:.:.:.:.:.:.:.:.:.:.:.:.:.:.:.:.O X % 2 f S Q Q W J f 2 + O @ :.:.:.:.:.:.:.:.:.:.:.:.:.:.:.:.:.:.:.:.:.:.:.:.:.",
":.:.:.:.:.:.:.:.:.:.:.:.:.:.:.:.:.:.:.:.:.:.:.@ o . # 5 m ( ( Q Q ) N 5 + o o @ :.:.:.:.:.:.:.:.:.:.:.:.:.:.:.:.:.:.:.:.:.:.:.:.",
":.:.:.:.:.:.:.:.:.:.:.:.:.:.:.:.:.:.:.:.:.:.@ @ o . * u Z / ! W Q ( A u # o + @ @ :.:.:.:.:.:.:.:.:.:.:.:.:.:.:.:.:.:.:.:.:.:.:.",
":.:.:.:.:.:.:.:.:.:.:.:.:.:.:.:.:.:.:.:.:.:.@ @ + + ; i C Q U G K Q A u - + @ @ @ :.:.:.:.:.:.:.:.:.:.:.:.:.:.:.:.:.:.:.:.:.:.:.",
":.:.:.:.:.:.:.:.:.:.:.:.:.:.:.:.:.:.:.:.:.:.@ . o - w k Z ! _ ^ ~ ! D h w - O . @ :.:.:.:.:.:.:.:.:.:.:.:.:.:.:.:.:.:.:.:.:.:.:.",
":.:.:.:.:.:.:.:.:.:.:.:.:.:.:.:.:.:.:.:.:.:.@ . o 6 l D F ^ +.*.@.^ L Z x > @ . O :.:.:.:.:.:.:.:.:.:.:.:.:.:.:.:.:.:.:.:.:.:.:.",
":.:.:.:.:.:.:.:.:.:.:.:.:.:.:.:.:.:.:.:.:.:.@ o % q n ( P ] *.;.=.^ T R v 7 & o @ :.:.:.:.:.:.:.:.:.:.:.:.:.:.:.:.:.:.:.:.:.:.:.",
":.:.:.:.:.:.:.:.:.:.:.:.:.:.:.:.:.:.:.:.:.@ X & 3 u b W U { *.;.=.[ R L c y 3 & O O :.:.:.:.:.:.:.:.:.:.:.:.:.:.:.:.:.:.:.:.:.:.",
":.:.:.:.:.:.:.:.:.:.:.:.:.:.:.:.:.:.:.:.@ O o * y n L W  .%.;.;.;.&. .W H n u - . o :.:.:.:.:.:.:.:.:.:.:.:.:.:.:.:.:.:.:.:.:.:.",
":.:.:.:.:.:.:.:.:.:.:.:.:.:.:.:.:.:.:.:.:.o . * h J / L @.;.;.;.;.;.#.! U E g *   . :.:.:.:.:.:.:.:.:.:.:.:.:.:.:.:.:.:.:.:.:.:.",
":.:.:.:.:.:.:.:.:.:.:.:.:.:.:.:.:.:.:.:.@ O . - h J R L #.;.;.;.;.;.O.R U J g : o O :.:.:.:.:.:.:.:.:.:.:.:.:.:.:.:.:.:.:.:.:.:.",
":.:.:.:.:.:.:.:.:.:.:.:.:.:.:.:.:.:.:.@ O @ & 5 g D Y L O.-.;.;.;.;.O.L G D p 6 & O O @ @ :.:.:.:.:.:.:.:.:.:.:.:.:.:.:.:.:.:.:.",
":.:.:.:.:.:.:.:.:.:.:.:.:.:.:.:.:.:.@ @ O @ 2 9 f Z ( [ %.;.;.;.;.;.$.[ / Z f w 1 @ O @ @ :.:.:.:.:.:.:.:.:.:.:.:.:.:.:.:.:.:.:.",
":.:.:.:.:.:.:.:.:.:.:.:.:.:.:.:.:.:.@ @ O @ - 6 d V [ =.;.;.;.;.;.;.;.*.[ B d w = @ O O @ :.:.:.:.:.:.:.:.:.:.:.:.:.:.:.:.:.:.:.",
":.:.:.:.:.:.:.:.:.:.:.:.:.:.:.:.:.:.@ @ . # 6 t d B | ;.;.;.;.;.;.;.;.-.} b d e 6 # o @ @ :.:.:.:.:.:.:.:.:.:.:.:.:.:.:.:.:.:.:.",
":.:.:.:.:.:.:.:.:.:.:.:.:.:.:.:.:.:.@ o . # t k j V | -.;.;.;.;.;.;.;.=.{ B l j t # . O @ :.:.:.:.:.:.:.:.:.:.:.:.:.:.:.:.:.:.:.",
":.:.:.:.:.:.:.:.:.:.:.:.:.:.:.:.:.:.@ O . # t v H L { -.;.;.;.;.;.;.;.=.{ F J c t @   @ @ :.:.:.:.:.:.:.:.:.:.:.:.:.:.:.:.:.:.:.",
":.:.:.:.:.:.:.:.:.:.:.:.:.:.:.:.:.:.@ o   # q n R R { -.;.;.;.;.;.;.;.=.[ U / C q @ . O @ :.:.:.:.:.:.:.:.:.:.:.:.:.:.:.:.:.:.:.",
":.:.:.:.:.:.:.:.:.:.:.:.:.:.:.:.:.:.@ o . # r n L Y { -.;.;.;.;.;.;.;.=.[ K Q n q # o O @ :.:.:.:.:.:.:.:.:.:.:.:.:.:.:.:.:.:.:.",
":.:.:.:.:.:.:.:.:.:.:.:.:.:.:.:.:.:.@ @ . # q n L Y [ -.;.;.;.;.;.;.;.=.[ K Q n r @ . o @ :.:.:.:.:.:.:.:.:.:.:.:.:.:.:.:.:.:.:.",
":.:.:.:.:.:.:.:.:.:.:.:.:.:.:.:.:.:.@ o . # r b L Y { -.;.;.;.;.;.;.;.=.{ T L n q @ o @ @ :.:.:.:.:.:.:.:.:.:.:.:.:.:.:.:.:.:.:.",
":.:.:.:.:.:.:.:.:.:.:.:.:.:.:.:.:.:.@ + . # r n L T { -.;.;.;.;.;.;.;.=.[ K Q n r @ . O @ :.:.:.:.:.:.:.:.:.:.:.:.:.:.:.:.:.:.:.",
":.:.:.:.:.:.:.:.:.:.:.:.:.:.:.:.:.:.@ o . # r v L R { -.;.;.;.;.;.;.;.=.[ U Y n q # . O @ :.:.:.:.:.:.:.:.:.:.:.:.:.:.:.:.:.:.:.",
":.:.:.:.:.:.:.:.:.:.:.:.:.:.:.:.:.:.@ X . # r n L K { -.;.;.;.;.;.;.;.=.{ U / n q # . @ @ :.:.:.:.:.:.:.:.:.:.:.:.:.:.:.:.:.:.:.",
":.:.:.:.:.:.:.:.:.:.:.:.:.:.:.:.:.:.@ + . # r v L R { -.;.;.;.;.;.;.;.=.[ K L n q @ . + @ :.:.:.:.:.:.:.:.:.:.:.:.:.:.:.:.:.:.:.",
":.:.:.:.:.:.:.:.:.:.:.:.:.:.:.:.:.:.@ o . # q n L U { -.;.;.;.;.;.;.;.=.[ K W n r @ . @ @ :.:.:.:.:.:.:.:.:.:.:.:.:.:.:.:.:.:.:.",
":.:.:.:.:.:.:.:.:.:.:.:.:.:.:.:.:.:.@ O   # r n L R { -.;.;.;.;.;.;.;.=.[ K Q n q # . @ @ :.:.:.:.:.:.:.:.:.:.:.:.:.:.:.:.:.:.:.",
":.:.:.:.:.:.:.:.:.:.:.:.:.:.:.:.:.:.@ O . # q n L Y { -.;.;.;.;.;.;.;.=.[ U Q n q @ . O @ :.:.:.:.:.:.:.:.:.:.:.:.:.:.:.:.:.:.:.",
":.:.:.:.:.:.:.:.:.:.:.:.:.:.:.:.:.:.@ O . # r n Y Y { ;.;.;.;.;.;.;.;.;.{ U / C r O . O @ :.:.:.:.:.:.:.:.:.:.:.:.:.:.:.:.:.:.:.",
":.:.:.:.:.:.:.:.:.:.:.:.:.:.:.:.:.:.@ @ . # t c H Y ] &.-.;.;.;.;.;.-.%.] K L b r # o O @ :.:.:.:.:.:.:.:.:.:.:.:.:.:.:.:.:.:.:.",
":.:.:.:.:.:.:.:.:.:.:.:.:.:.:.:.:.:.@ o o # y h x A ( ] @.;.;.;.;.;.@.' Q Z l k t @   @ @ :.:.:.:.:.:.:.:.:.:.:.:.:.:.:.:.:.:.:.",
":.:.:.:.:.:.:.:.:.:.:.:.:.:.:.:.:.:.@ o o # w t g Z Y U @.;.;.;.;.;.#.Y G A p u 0 # . O @ :.:.:.:.:.:.:.:.:.:.:.:.:.:.:.:.:.:.:.",
":.:.:.:.:.:.:.:.:.:.:.:.:.:.:.:.:.:.@ @ X @ < 6 h J Y Y O.-.;.;.;.=.X.Q U E h 6 = @ O @ @ :.:.:.:.:.:.:.:.:.:.:.:.:.:.:.:.:.:.:.",
":.:.:.:.:.:.:.:.:.:.:.:.:.:.:.:.:.:.:.:.@ O o ; h E ) Q ~ ..=.;.-...~ Y / E k : o o @ :.:.:.:.:.:.:.:.:.:.:.:.:.:.:.:.:.:.:.:.:.",
":.:.:.:.:.:.:.:.:.:.:.:.:.:.:.:.:.:.:.:.:.O   $ y C W Q G ! ..%.O.! U Q E N y - . o :.:.:.:.:.:.:.:.:.:.:.:.:.:.:.:.:.:.:.:.:.:.",
":.:.:.:.:.:.:.:.:.:.:.:.:.:.:.:.:.:.:.:.:.@ O % 2 y n W Y Q Q ! Q Q R E c t 2 & X @ :.:.:.:.:.:.:.:.:.:.:.:.:.:.:.:.:.:.:.:.:.:.",
":.:.:.:.:.:.:.:.:.:.:.:.:.:.:.:.:.:.:.:.:.:.@ O % 2 a b E ( Q Y R ( W c y 2 & O @ :.:.:.:.:.:.:.:.:.:.:.:.:.:.:.:.:.:.:.:.:.:.:.",
":.:.:.:.:.:.:.:.:.:.:.:.:.:.:.:.:.:.:.:.:.:.@ O o & 5 i n E J J E W C y 3 & @ o @ :.:.:.:.:.:.:.:.:.:.:.:.:.:.:.:.:.:.:.:.:.:.:.",
":.:.:.:.:.:.:.:.:.:.:.:.:.:.:.:.:.:.:.:.:.:.@ @ O o & 2 u l l k k z s 3 @ @ O @ @ :.:.:.:.:.:.:.:.:.:.:.:.:.:.:.:.:.:.:.:.:.:.:.",
":.:.:.:.:.:.:.:.:.:.:.:.:.:.:.:.:.:.:.:.:.:.:.@ O O O & 5 0 w w w w 5 % o O @ @ :.:.:.:.:.:.:.:.:.:.:.:.:.:.:.:.:.:.:.:.:.:.:.:.",
":.:.:.:.:.:.:.:.:.:.:.:.:.:.:.:.:.:.:.:.:.:.:.:.@ O O O & 1 2 2 1 1 & O O @ @ :.:.:.:.:.:.:.:.:.:.:.:.:.:.:.:.:.:.:.:.:.:.:.:.:.",
":.:.:.:.:.:.:.:.:.:.:.:.:.:.:.:.:.:.:.:.:.:.:.:.:.@ @ @ @ # @ @ & @ @ @ O @ :.:.:.:.:.:.:.:.:.:.:.:.:.:.:.:.:.:.:.:.:.:.:.:.:.:.",
":.:.:.:.:.:.:.:.:.:.:.:.:.:.:.:.:.:.:.:.:.:.:.:.:.:.@ @ O O @ @ O O @ @ @ :.:.:.:.:.:.:.:.:.:.:.:.:.:.:.:.:.:.:.:.:.:.:.:.:.:.:.",
":.:.:.:.:.:.:.:.:.:.:.:.:.:.:.:.:.:.:.:.:.:.:.:.:.:.:.:.O @ O O O @ @ :.:.:.:.:.:.:.:.:.:.:.:.:.:.:.:.:.:.:.:.:.:.:.:.:.:.:.:.:.",
":.:.:.:.:.:.:.:.:.:.:.:.:.:.:.:.:.:.:.:.:.:.:.:.:.:.:.:.@ @ @ @ @ @ @ :.:.:.:.:.:.:.:.:.:.:.:.:.:.:.:.:.:.:.:.:.:.:.:.:.:.:.:.:."
};
