/* XPM */
static char *result[] = {
/* columns rows colors chars-per-pixel */
"64 64 45 1 ",
"  c #0F6CAF",
". c #106DAF",
"X c #0F6EB0",
"o c #106EB0",
"O c #1171B2",
"+ c #1479B7",
"@ c #167DBA",
"# c #1781BC",
"$ c #1883BD",
"% c #1A87C0",
"& c #1789C3",
"* c #1B8DC4",
"= c #1D91C6",
"- c #1E94C8",
"; c #2195C6",
": c #259AC7",
"> c #2097CA",
", c #269BC8",
"< c #299EC9",
"1 c #2CA3C9",
"2 c #2FA8CA",
"3 c #34ADCB",
"4 c #37B0CC",
"5 c #3AB5CC",
"6 c #3EB9CD",
"7 c #3FBCD0",
"8 c #41BDCF",
"9 c #41BED1",
"0 c #43C0CF",
"q c #44C2D4",
"w c #47C6D9",
"e c #48C7D8",
"r c #4CCCDB",
"t c #4FD0DD",
"y c #52D5E1",
"u c #56D9E4",
"i c #58DDE7",
"p c #5ADEE8",
"a c #5EE4EB",
"s c #60E7ED",
"d c #62E9EF",
"f c #63EBF0",
"g c #67F1F3",
"h c #69F4F6",
"j c None",
/* pixels */
"jjjjjjjjjjjjjjjjjjjjjjjjjjjjjjjjjjjjjjjjjjjjjjjjjjjjjjjjjjjjjjjj",
"jjjjjjjjjjjjjjjjjjjjjjjjjjjjjjjjjjjjjjjjjjjjjjjjjjjjjjjjjjjjjjjj",
"jjjjjjjjjjjjjjjjjjjjjjjjjjjjjjjjjjjjjjjjjjjjjjjjjjjjjjjjjjjjjjjj",
"jjjjjjjjjjjjjjjjjjjjjjjjjjjjjjjjjjjjjjjjjjjjjjjjjjjjjjjjjjjjjjjj",
"jjjjjjjjjjjjjjjjjjjjjjjjjjjjjjjjjjjjjjjjjjjjjjjjjjjjjjjjjjjjjjjj",
"jjjjjjjjjjjjjjjjjjjjjjjjjjjjjjjjjjjjjjjjjjjjjjjjjjjjjjjjjjjjjjjj",
"jjjjjjjjjjjjjjjjjjjjjjjjjjjjjjjjjjjjjjjjjjjjjjjjjjjjjjjjjjjjjjjj",
"jjjjjjjjjjjjjjjjjjjjjjjjjjjjjjjjjjjjjjjjjjjjjjjjjjjjjjjjjjjjjjjj",
"jjjjjjjjjjjjjjjjjjjjjjjjjjjjjjjjjjjjjjjjjjjjjjjjjjjjjjjjjjjjjjjj",
"jjjjjjjjjjjjjjjjjjjjjjjjjjjjjjjjjjjjjjjjjjjjjjjjjjjjjjjjjjjjjjjj",
"jjjjjjjjjjjjjjjjjjjjjjjjjjjjjjOOOjjjjjjjjjjjjjjjjjjjjjjjjjjjjjjj",
"jjjjjjjjjjjjjjjjjjjjjjjjjjjjjjOOOjjjjjjjjjjjjjjjjjjjjjjjjjjjjjjj",
"jjjjjjjjjjjjjjjjjjjjjjjjjjjjjjOOOjjjjjjjjjjjjjjjjjjjjjjjjjjjjjjj",
"jjjjjjjjjjjjjjjjjjjjjjjjjjjjjOOOOOjjjjjjjjjjjjjjjjjjjjjjjjjjjjjj",
"jjjjjjjjjjjjjjjjjjjjjjjjjjjjOOOOOOOjjjjjjjjjjjjjjjjjjjjjjjjjjjjj",
"jjjjjjjjjjjjjjjjjjjjjjjjjjjOOOOoOOOOjjjjjjjjjjjjjjjjjjjjjjjjjjjj",
"jjjjjjjjjjjjjjjjjjjjjjjjjjOOOOo.ooOOOjjjjjjjjjjjjjjjjjjjjjjjjjjj",
"jjjjjjjjjjjjjjjjjjjjjjjjjOOOoO+++OoOOOjjjjjjjjjjjjjjjjjjjjjjjjjj",
"jjjjjjjjjjjjjjjjjjjjjjjjOOOo.+&=$+ooOoOjjjjjjjjjjjjjjjjjjjjjjjjj",
"jjjjjjjjjjjjjjjjjjjjjjjOOo.o+$;;;$+OoOOOOjjjjjjjjjjjjjjjjjjjjjjj",
"jjjjjjjjjjjjjjjjjjjjOOOOOOO+$-=*=;%+OOOOOOOjjjjjjjjjjjjjjjjjjjjj",
"jjjjjjjjjjjjjjjjjOOOOOX O#*%==*&*=*%&#O.oOOOOOjjjjjjjjjjjjjjjjjj",
"jjjjjjjjjjjjjjjjjOoooo++#*=**=,1,***=*#++Oo.oOjjjjjjjjjjjjjjjjjj",
"jjjjjjjjjjjjjjOOoOOOo+***===*:384:**;**=%+oOOoOoOjjjjjjjjjjjjjjj",
"jjjjjjjjjjjjjOOOoX+#%%===*;313807331;&=-=%##+OooOOjjjjjjjjjjjjjj",
"jjjjjjjjjjjjOoOO+O$=;==;;;2989qqq9q61;;;=*;-#++OoOOjjjjjjjjjjjjj",
"jjjjjjjjjjjOOoo@***=**&155453qpfp9555551*&*=***@ooOOjjjjjjjjjjjj",
"jjjjjjjjjjOOoO@*=*&*,1<355qrrufhdyrrq55311,***=*@oXOOjjjjjjjjjjj",
"jjjjjjjjjOOOO#*==;=;365899tffffffdgdr6q6563;====*@OOOOjjjjjjjjjj",
"jjjjjjjjjOOO#*=*=233588ruiahhgfdfghgauir685433==-*@OoOjjjjjjjjjj",
"jjjjjjjjjo.O*;*;1700qewphhffffffffdfghhpeqq8061==-*OoOjjjjjjjjjj",
"jjjjjjjjOO O$==27756ufsdfffffffffffffffddfu65861==%OoOOOjjjjjjjj",
"jjjjjjjjoo+#*;15659ydhggfffffddfffffdfffggay75652;*$OOOOjjjjjjjj",
"jjjjjjjjoo#=*<8989yfhfdffdfffdgfdfffffffffhfy76q51*=#O.Ojjjjjjjj",
"jjjjjjjjoO%==<899ufgfdfdffdfdfddfffffffffffhfuq67<*-#OoOjjjjjjjj",
"jjjjjjjjoo@=*<49qshfffffdfffffgdffdffffdfgafhdq651&=#O.Ojjjjjjjj",
"jjjjjjjjOo%**<65qaffffdffffdddgdfdffdfffffffgaq85<&-$OoOjjjjjjjj",
"jjjjjjjjoO%*=,89edhfffffffffddddfffffffdfdfghaq671*=$XoOjjjjjjjj",
"jjjjjjjjXo#-=:349ufgfdfdddffdgddfffdfdffdfggfuq63,*=$OXOjjjjjjjj",
"jjjjjjjjoX%*;*;399ufhffffgdfddgddfffffffgagfy992-*=-@XoOjjjjjjjj",
"jjjjjjjjOO+$*&*3959yfhhfggggghgggggghhghhhay0592***$+OOOjjjjjjjj",
"jjjjjjjjOo.O%=;29959ufsddadadasaaddaaaaaagu06962==%O.OOOjjjjjjjj",
"jjjjjjjjjO.O*;*;,678qweeeeeeeeeeeeeeeeeeeeq9951==-&OoOjjjjjjjjjj",
"jjjjjjjjjOOO#*=*;33358566555666666666565665442=*=*#OoOjjjjjjjjjj",
"jjjjjjjjjOOOO@*====;38665777756566556766673-====*@OOOOjjjjjjjjjj",
"jjjjjjjjjjOOOO@##*==<1<1111,11111111111111,==*##@OoOOjjjjjjjjjjj",
"jjjjjjjjjjjOOO..O$**==*=====*===*===*-**==***$OXooOOjjjjjjjjjjjj",
"jjjjjjjjjjjjOOOOOOO+&=*=****=**=*******-*=$@O+OXoOOjjjjjjjjjjjjj",
"jjjjjjjjjjjjjOOOOo O@$$$$#$$$$$#$#$#$#$##%@o oOOOOjjjjjjjjjjjjjj",
"jjjjjjjjjjjjjjjOOOoOOOOOooOOoOOoOOOOOOOoOOooOOOOjjjjjjjjjjjjjjjj",
"jjjjjjjjjjjjjjjjjjOOOOXOOOOoOOXOOOOXOOOOOoOOOjjjjjjjjjjjjjjjjjjj",
"jjjjjjjjjjjjjjjjjjjjjjjjjjjjjjjjjjjjjjjjjjjjjjjjjjjjjjjjjjjjjjjj",
"jjjjjjjjjjjjjjjjjjjjjjjjjjjjjjjjjjjjjjjjjjjjjjjjjjjjjjjjjjjjjjjj",
"jjjjjjjjjjjjjjjjjjjjjjjjjjjjjjjjjjjjjjjjjjjjjjjjjjjjjjjjjjjjjjjj",
"jjjjjjjjjjjjjjjjjjjjjjjjjjjjjjjjjjjjjjjjjjjjjjjjjjjjjjjjjjjjjjjj",
"jjjjjjjjjjjjjjjjjjjjjjjjjjjjjjjjjjjjjjjjjjjjjjjjjjjjjjjjjjjjjjjj",
"jjjjjjjjjjjjjjjjjjjjjjjjjjjjjjjjjjjjjjjjjjjjjjjjjjjjjjjjjjjjjjjj",
"jjjjjjjjjjjjjjjjjjjjjjjjjjjjjjjjjjjjjjjjjjjjjjjjjjjjjjjjjjjjjjjj",
"jjjjjjjjjjjjjjjjjjjjjjjjjjjjjjjjjjjjjjjjjjjjjjjjjjjjjjjjjjjjjjjj",
"jjjjjjjjjjjjjjjjjjjjjjjjjjjjjjjjjjjjjjjjjjjjjjjjjjjjjjjjjjjjjjjj",
"jjjjjjjjjjjjjjjjjjjjjjjjjjjjjjjjjjjjjjjjjjjjjjjjjjjjjjjjjjjjjjjj",
"jjjjjjjjjjjjjjjjjjjjjjjjjjjjjjjjjjjjjjjjjjjjjjjjjjjjjjjjjjjjjjjj",
"jjjjjjjjjjjjjjjjjjjjjjjjjjjjjjjjjjjjjjjjjjjjjjjjjjjjjjjjjjjjjjjj",
"jjjjjjjjjjjjjjjjjjjjjjjjjjjjjjjjjjjjjjjjjjjjjjjjjjjjjjjjjjjjjjjj"
};
