/* XPM */
static char *result[] = {
/* columns rows colors chars-per-pixel */
"64 64 73 1 ",
"  c #0F6CAF",
". c #106DAF",
"X c #0F6DB0",
"o c #106FB0",
"O c #1172B2",
"+ c #1479B7",
"@ c #157CB9",
"# c #1781BC",
"$ c #1984BE",
"% c #1785C1",
"& c #1A87C0",
"* c #1688C2",
"= c #1B8DC4",
"- c #1D91C6",
"; c #1E94C8",
": c #2195C7",
"> c #2499C7",
", c #2096C8",
"< c #269CC9",
"1 c #289EC8",
"2 c #2CA3CA",
"3 c #2FA8CA",
"4 c #33ACCC",
"5 c #37B1CC",
"6 c #3AB5CC",
"7 c #3EBACF",
"8 c #3FBAD0",
"9 c #40BDCF",
"0 c #41BED0",
"q c #44C2D3",
"w c #47C5D8",
"e c #48C7D8",
"r c #46C8D9",
"t c #4BCBDB",
"y c #4DD0DE",
"u c #50D1DF",
"i c #53D5E1",
"p c #56DAE4",
"a c #59DDE7",
"s c #4EE8ED",
"d c #5DE3EA",
"f c #52E9EE",
"g c #5DEAEF",
"h c #4DEBF0",
"j c #54ECF0",
"k c #5DECF1",
"l c #5BF1F4",
"z c #62E6ED",
"x c #61E9EF",
"c c #64EDF1",
"v c #6BECF1",
"b c #74EDF2",
"n c #66F1F4",
"m c #69F3F5",
"M c #71F0F3",
"N c #7FF2F5",
"B c #82EFF3",
"V c #87F0F4",
"C c #8CF0F4",
"Z c #95F2F5",
"A c #9CF2F6",
"S c #ADF4F7",
"D c #B7F5F8",
"F c #BAF6F9",
"G c #C2F7F9",
"H c #C6F8FA",
"J c #CBF8FA",
"K c #D2F9FB",
"L c #E2FBFD",
"P c #EAFCFD",
"I c #F3FEFE",
"U c #FEFFFF",
"Y c None",
/* pixels */
"YYYYYYYYYYYYYYYYYYYYYYYYYYYYYYYYYYYYYYYYYYYYYYYYYYYYYYYYYYYYYYYY",
"YYYYYYYYYYYYYYYYYYYYYYYYYYYYYYYYYYYYYYYYYYYYYYYYYYYYYYYYYYYYYYYY",
"YYYYYYYYYYYYYYYYYYYYYYYYYYYYYYYYYYYYYYYYYYYYYYYYYYYYYYYYYYYYYYYY",
"YYYYYYYYYYYYYYYYYYYYYYYYYYYYYYYYYYYYYYYYYYYYYYYYYYYYYYYYYYYYYYYY",
"YYYYYYYYYYYYYYYYYYYYYYYYYYYYYYYYYYYYYYYYYYYYYYYYYYYYYYYYYYYYYYYY",
"YYYYYYYYYYYYYYYYYYYYYYYYYYYYYYOOOOOYYYYYYYYYYYYYYYYYYYYYYYYYYYYY",
"YYYYYYYYYYYYYYYYYYYYYYYYYYYYYYOooOOYYYYYYYYYYYYYYYYYYYYYYYYYYYYY",
"YYYYYYYYYYYYYYYYYYYYYYYYYYYYYYOOOOOYYYYYYYYYYYYYYYYYYYYYYYYYYYYY",
"YYYYYYYYYYYYYYYYYYYYYYYYYYYYYYO@$OOYYYYYYYYYYYYYYYYYYYYYYYYYYYYY",
"YYYYYYYYYYYYYYYYYYYYYYYYYYYYYYO$-+OYYYYYYYYYYYYYYYYYYYYYYYYYYYYY",
"YYYYYYYYYYYYYYYYYYYYYYYYYYYYOoO&-@ooYYYYYYYYYYYYYYYYYYYYYYYYYYYY",
"YYYYYYYYYYYYYYYYYYYYYYYYYYYYooo@-OooYYYYYYYYYYYYYYYYYYYYYYYYYYYY",
"YYYYYYYYYYYYYYYYYYYYYYYYYYYYooO*=@OOYYYYYYYYYYYYYYYYYYYYYYYYYYYY",
"YYYYYYYYYYYYYYYYYYYYYYYYYYYYo+*=-=$OYYYYYYYYYYYYYYYYYYYYYYYYYYYY",
"YYYYYYYYYYYYYYYYYYYYYYYYYYYYX+-;=;&OoYYYYYYYYYYYYYYYYYYYYYYYYYYY",
"YYYYYYYYYYYYYYYYYYYYYYYYYYYOo+=;-:*OoOYYYYYYYYYYYYYYYYYYYYYYYYYY",
"YYYYYYYYYYYYYYYYYYYYYYYYYYYO O=24>#X.OYYYYYYYYYYYYYYYYYYYYYYYYYY",
"YYYYYYYYYYYYYYYYYYYYYYYYYYOoO+=48<%+OoYYYYYYYYYYYYYYYYYYYYYYYYYY",
"YYYYYYYYYYYYYYYYYYYYYYYYYoOO#*;48<==+ooYYYYYYYYYYYYYYYYYYYYYYYYY",
"YYYYYYYYYYYYYYYYYYYYYYYYoOO@*;25741=*+OoYYYYYYYYYYYYYYYYYYYYYYYY",
"YYYYYYYYYYYYYYYYYYYYYYYOOO@:=<70704,==OOoYYYYYYYYYYYYYYYYYYYYYYY",
"YYYYYYYYYYYYYYYYYYYYYYO O#==26976704:==@ooYYYYYYYYYYYYYYYYYYYYYY",
"YYYYYYYYYYYYYYYYYYYYYo.O@*;<588qw0004,-&+OoYYYYYYYYYYYYYYYYYYYYY",
"YYYYYYYYYYYYYYYYYYYYOoO#=;27878izw6904,-=+ooYYYYYYYYYYYYYYYYYYYY",
"YYYYYYYYYYYYYYYYYYYoOO#=,26q967pct660041-%+ooYYYYYYYYYYYYYYYYYYY",
"YYYYYYYYYYYYYYYYYYOOO@:=,6q8767pcw760003--=+oOYYYYYYYYYYYYYYYYYY",
"YYYYYYYYYYYYYYYYYo.O#==*:5q7756ixq667002====@ooYYYYYYYYYYYYYYYYY",
"YYYYYYYYYYYYYYYYOO.O&;:,269778tdciw768052=;-@ooOYYYYYYYYYYYYYYYY",
"YYYYYYYYYYYYYYYOOOo+&;=200774wdnknp867806>=-#OOOOYYYYYYYYYYYYYYY",
"YYYYYYYYYYYYYYYOOo+&-==400805wgnjma8597q91===#OOOYYYYYYYYYYYYYYY",
"YYYYYYYYYYYYYYYOo.@;,->490660yxVCMar067962:-,=+.oOYYYYYYYYYYYYYY",
"YYYYYYYYYYYYYYOOoo#=;>677868ifmDPCkgw667794--=O.OOOYYYYYYYYYYYYY",
"YYYYYYYYYYYYYYOoO#$=*>6q77qizhfDUNhkat069q4-$-$+OoOYYYYYYYYYYYYY",
"YYYYYYYYYYYYYYOo+=;=-29966tcvkbJUAccmd066q5>=-;$OOOYYYYYYYYYYYYY",
"YYYYYYYYYYYYYOO +=-;366956tnjVGIUKSvkd067775<--$O.OOYYYYYYYYYYYY",
"YYYYYYYYYYYYOOOo+$=:6q967epchZPUUUKbjzi0769q2--#O OOYYYYYYYYYYYY",
"YYYYYYYYYYYYOO.O+--:4q96qdmcsCLUUUHvhcci77772=-$OoOOYYYYYYYYYYYY",
"YYYYYYYYYYYYOOO +$=:4995qdmxsCLUUUHvfcmi76q72=-$O OOYYYYYYYYYYYY",
"YYYYYYYYYYYYO.O +==;4q75qdmcsCLUUUHvjvci76972=-#O OOYYYYYYYYYYYY",
"YYYYYYYYYYYYOOOOO==:4q95qdncsCLUUUHvsmci76972=-$OoOOYYYYYYYYYYYY",
"YYYYYYYYYYYYOOO +==:5q76qdmcsZPUUUJbfccu96q92=-$OXoOYYYYYYYYYYYY",
"YYYYYYYYYYYYOOOo+==:4776qdmcsBKUUIDvfcmi76962--$OoOOYYYYYYYYYYYY",
"YYYYYYYYYYYYOOOo+$:-;366qzmxkcBKISbgxnmp766<--;$OoOOYYYYYYYYYYYY",
"YYYYYYYYYYYYYOooO$-=$>77qixcvjgZJbfcmxat7q4-=-$+OoOOYYYYYYYYYYYY",
"YYYYYYYYYYYYYYOOOo#*-26967ynccgcvxkccdq67q4-==+OoOOYYYYYYYYYYYYY",
"YYYYYYYYYYYYYYOOoo#-;;26970tticmlmzutt7974>-;=+ oOOYYYYYYYYYYYYY",
"YYYYYYYYYYYYYYOOOo@=;-*269976qaxdgu769995:=--$+oOOOYYYYYYYYYYYYY",
"YYYYYYYYYYYYYYYoOOo+=-==<6q767qqqw076794>=--#OOOOYYYYYYYYYYYYYYY",
"YYYYYYYYYYYYYYYYOOX @&:=-24460666699533<=--$O oOYYYYYYYYYYYYYYYY",
"YYYYYYYYYYYYYYYYYOOoO+=-====477776961==-=:$OoOOOYYYYYYYYYYYYYYYY",
"YYYYYYYYYYYYYYYYYYOOOO+O#=;;<<1<1>1<,;;&++OOoOYYYYYYYYYYYYYYYYYY",
"YYYYYYYYYYYYYYYYYYYOOO..O#=&=;------=*&@OooOOOYYYYYYYYYYYYYYYYYY",
"YYYYYYYYYYYYYYYYYYYYYYooOOOO*--===-=@OOOooOYYYYYYYYYYYYYYYYYYYYY",
"YYYYYYYYYYYYYYYYYYYYYYYYOO..+##@@$#@O ooOOYYYYYYYYYYYYYYYYYYYYYY",
"YYYYYYYYYYYYYYYYYYYYYYYYYOOOo .oooo.OOOYYYYYYYYYYYYYYYYYYYYYYYYY",
"YYYYYYYYYYYYYYYYYYYYYYYYYYYYOOOOOOOOOYYYYYYYYYYYYYYYYYYYYYYYYYYY",
"YYYYYYYYYYYYYYYYYYYYYYYYYYYYYYYYYYYYYYYYYYYYYYYYYYYYYYYYYYYYYYYY",
"YYYYYYYYYYYYYYYYYYYYYYYYYYYYYYYYYYYYYYYYYYYYYYYYYYYYYYYYYYYYYYYY",
"YYYYYYYYYYYYYYYYYYYYYYYYYYYYYYYYYYYYYYYYYYYYYYYYYYYYYYYYYYYYYYYY",
"YYYYYYYYYYYYYYYYYYYYYYYYYYYYYYYYYYYYYYYYYYYYYYYYYYYYYYYYYYYYYYYY",
"YYYYYYYYYYYYYYYYYYYYYYYYYYYYYYYYYYYYYYYYYYYYYYYYYYYYYYYYYYYYYYYY",
"YYYYYYYYYYYYYYYYYYYYYYYYYYYYYYYYYYYYYYYYYYYYYYYYYYYYYYYYYYYYYYYY",
"YYYYYYYYYYYYYYYYYYYYYYYYYYYYYYYYYYYYYYYYYYYYYYYYYYYYYYYYYYYYYYYY",
"YYYYYYYYYYYYYYYYYYYYYYYYYYYYYYYYYYYYYYYYYYYYYYYYYYYYYYYYYYYYYYYY"
};
