/* XPM */
static char *result[] = {
/* columns rows colors chars-per-pixel */
"64 64 44 1 ",
"  c #0F6CAF",
". c #106DAF",
"X c #0F6EB0",
"o c #106EB0",
"O c #1172B3",
"+ c #1479B7",
"@ c #167DB9",
"# c #1682BE",
"$ c #1984BE",
"% c #1987C0",
"& c #1788C4",
"* c #1B8CC4",
"= c #1D91C6",
"- c #1E95C8",
"; c #2296C6",
": c #269AC7",
"> c #2197C9",
", c #269DC9",
"< c #299EC8",
"1 c #2CA3CA",
"2 c #30A7CB",
"3 c #33ACCB",
"4 c #37B2CC",
"5 c #3BB5CD",
"6 c #3DBACE",
"7 c #3FBCD0",
"8 c #40BCCF",
"9 c #41BED0",
"0 c #43C1D3",
"q c #48C7D5",
"w c #4AC9DA",
"e c #4FD1DD",
"r c #50D2DF",
"t c #53D5E1",
"y c #54D8E3",
"u c #59DDE7",
"i c #5CE1EA",
"p c #60E6EC",
"a c #61E9EF",
"s c #64ECF1",
"d c #67F0F4",
"f c #69F3F5",
"g c #6EFAFA",
"h c None",
/* pixels */
"hhhhhhhhhhhhhhhhhhhhhhhhhhhhhhhhhhhhhhhhhhhhhhhhhhhhhhhhhhhhhhhh",
"hhhhhhhhhhhhhhhhhhhhhhhhhhhhhhhhhhhhhhhhhhhhhhhhhhhhhhhhhhhhhhhh",
"hhhhhhhhhhhhhhhhhhhhhhhhhhhhhhhhhhhhhhhhhhhhhhhhhhhhhhhhhhhhhhhh",
"hhhhhhhhhhhhhhhhhhhhhhhhhhhhhhhhhhhhhhhhhhhhhhhhhhhhhhhhhhhhhhhh",
"hhhhhhhhhhhhhhhhhhhhhhhhhhhhhhhhhhhhhhhhhhhhhhhhhhhhhhhhhhhhhhhh",
"hhhhhhhhhhhhhhhhhhhhhhhhhhhhhhhhhhhhhhhhhhhhhhhhhhhhhhhhhhhhhhhh",
"hhhhhhhhhhhhhhhhhhhhhhhhhhhhhhhhhhhhhhhhhhhhhhhhhhhhhhhhhhhhhhhh",
"hhhhhhhhhhhhhhhhhhhhhhhhhhhhhhhhhhhhhhhhhhhhhhhhhhhhhhhhhhhhhhhh",
"hhhhhhhhhhhhhhhhhhhhhhhhhhhhhhhhhhhhhhhhhhhhhhhhhhhhhhhhhhhhhhhh",
"hhhhhhhhhhhhhhhhhhhhhhhhhhhhhhhhhhhhhhhhhhhhhhhhhhhhhhhhhhhhhhhh",
"hhhhhhhhhhhhhhhhhhhhhhhhhhhhhhhhhhhhhhhhhhhhhhhhhhhhhhhhhhhhhhhh",
"hhhhhhhhhhhhhhhhhhhhhhhhhhhhhhhhhhhhhhhhhhhhhhhhhhhhhhhhhhhhhhhh",
"hhhhhhhhhhhhhhhhhhhhhhhhhhhhhhhhhhhhhhhhhhhhhhhhhhhhhhhhhhhhhhhh",
"hhhhhhhhhhhhhhhhhhhhhhhhhhhhhhhhhhhhhhhhhhhhhhhhhhhhhhhhhhhhhhhh",
"hhhhhhhhhhhhhhhhhhhhhhhhhhhhhhhhhhhhhhhhhhhhhhhhhhhhhhhhhhhhhhhh",
"hhhhhhhhhhhhhhhhhhhhhhhhhhhhhhhhhhhhhhhhhhhhhhhhhhhhhhhhhhhhhhhh",
"hhhhhhhhhhhhhhhhhhhhhhhhhhhhhhOOOhhhhhhhhhhhhhhhhhhhhhhhhhhhhhhh",
"hhhhhhhhhhhhhhhhhhhhhhhhhhhhhO  ohhhhhhhhhhhhhhhhhhhhhhhhhhhhhhh",
"hhhhhhhhhhhhhhhhhhhhhhhhhhhhoOOOoOOhhhhhhhhhhhhhhhhhhhhhhhhhhhhh",
"hhhhhhhhhhhhhhhhhhhhhhhhhhhhoO@#@O.Ohhhhhhhhhhhhhhhhhhhhhhhhhhhh",
"hhhhhhhhhhhhhhhhhhhhhhhhhhhOX@=>*@Oohhhhhhhhhhhhhhhhhhhhhhhhhhhh",
"hhhhhhhhhhhhhhhhhhhhhhhhOX O#*===%@.ooOhhhhhhhhhhhhhhhhhhhhhhhhh",
"hhhhhhhhhhhhhhhhhhhhhhh X+@@$==&*=%@++o.hhhhhhhhhhhhhhhhhhhhhhhh",
"hhhhhhhhhhhhhhhhhhhoOOOo+$=*==;$===**$+oOOOOhhhhhhhhhhhhhhhhhhhh",
"hhhhhhhhhhhhhhO.oh.O#$#$$===*-141;*=-*%#%%+ooooohhhhhhhhhhhhhhhh",
"hhhhhhhhhhhhhhO+++O+%-=====;-16q61;>==*;=-*+O+++OOhhhhhhhhhhhhhh",
"hhhhhhhhhhhOO X#*%%*==*%&&<545667554:&***=**%**@..oOhhhhhhhhhhhh",
"hhhhhhhhhh.o+@@%>>**&=11<146065446073<<1<=**==>%#++oohhhhhhhhhhh",
"hhhhhhhhhoX+%=====;==<5866666609986676665,*>=*;*=*%+oohhhhhhhhhh",
"hhhhhhhhoo+%=--=**:33499908540yit94570009433:**;>>=%+oohhhhhhhhh",
"hhhhhhhOO+%--=**=>39q966558qqrdgarwq855569093>*==*=>%+oOhhhhhhhh",
"hhhhhhho+%===*=*-486666755waiaasaaapw456958974>**==*=%+.hhhhhhhh",
"hhhhhhh.+====**<3677766wrtusdssasdfsurtw6666863<=*==-=+.Ohhhhhhh",
"hhhhhhO.+*-==*=39875656tsdsssssssasssddt65668802=%==-*+.Ohhhhhhh",
"hhhhhhO +*===*=20777655ydfssssasaassdddy65666803=**==*+.Ohhhhhhh",
"hhhhhhO.+*===*;39757766yddasassssssaaddt66666893=%==-*+XOhhhhhhh",
"hhhhhhO.+*==**=29867755tsdssssssssssaddr65666892=%*=-*+ Ohhhhhhh",
"hhhhhhO.+======;16987777rsfddddddddffar06668071>====-*+ Ohhhhhhh",
"hhhhhho +#=--==%;36999747yaiiiiiuiiipt85688063-**=-==$+ Ohhhhhhh",
"hhhhhhhOO+#=====*=269775700909900990088568062=**===-$OOOhhhhhhhh",
"hhhhhhhhoX+##$;==*>1239076565566976566797311:%=>=%@#+.ohhhhhhhhh",
"hhhhhhhhhOoo.+***==**,5666576655557556676>*===*=*+oooOhhhhhhhhhh",
"hhhhhhhhhhhhoO++@*-===,1,,,,,,,,,,,,,,,,:=*=-*@++Oohhhhhhhhhhhhh",
"hhhhhhhhhhhhhO. O$%%######%#####%@%###%&%%%&%#O. Ohhhhhhhhhhhhhh",
"hhhhhhhhhhhhhhhoo+O+++OO+OOOOOO+OOOOOOOOOO+O+OOohhhhhhhhhhhhhhhh",
"hhhhhhhhhhhhhhhhhhhhhhhhhhhhhhhhhhhhhhhhhhhhhhhhhhhhhhhhhhhhhhhh",
"hhhhhhhhhhhhhhhhhhhhhhhhhhhhhhhhhhhhhhhhhhhhhhhhhhhhhhhhhhhhhhhh",
"hhhhhhhhhhhhhhhhhhhhhhhhhhhhhhhhhhhhhhhhhhhhhhhhhhhhhhhhhhhhhhhh",
"hhhhhhhhhhhhhhhhhhhhhhhhhhhhhhhhhhhhhhhhhhhhhhhhhhhhhhhhhhhhhhhh",
"hhhhhhhhhhhhhhhhhhhhhhhhhhhhhhhhhhhhhhhhhhhhhhhhhhhhhhhhhhhhhhhh",
"hhhhhhhhhhhhhhhhhhhhhhhhhhhhhhhhhhhhhhhhhhhhhhhhhhhhhhhhhhhhhhhh",
"hhhhhhhhhhhhhhhhhhhhhhhhhhhhhhhhhhhhhhhhhhhhhhhhhhhhhhhhhhhhhhhh",
"hhhhhhhhhhhhhhhhhhhhhhhhhhhhhhhhhhhhhhhhhhhhhhhhhhhhhhhhhhhhhhhh",
"hhhhhhhhhhhhhhhhhhhhhhhhhhhhhhhhhhhhhhhhhhhhhhhhhhhhhhhhhhhhhhhh",
"hhhhhhhhhhhhhhhhhhhhhhhhhhhhhhhhhhhhhhhhhhhhhhhhhhhhhhhhhhhhhhhh",
"hhhhhhhhhhhhhhhhhhhhhhhhhhhhhhhhhhhhhhhhhhhhhhhhhhhhhhhhhhhhhhhh",
"hhhhhhhhhhhhhhhhhhhhhhhhhhhhhhhhhhhhhhhhhhhhhhhhhhhhhhhhhhhhhhhh",
"hhhhhhhhhhhhhhhhhhhhhhhhhhhhhhhhhhhhhhhhhhhhhhhhhhhhhhhhhhhhhhhh",
"hhhhhhhhhhhhhhhhhhhhhhhhhhhhhhhhhhhhhhhhhhhhhhhhhhhhhhhhhhhhhhhh",
"hhhhhhhhhhhhhhhhhhhhhhhhhhhhhhhhhhhhhhhhhhhhhhhhhhhhhhhhhhhhhhhh",
"hhhhhhhhhhhhhhhhhhhhhhhhhhhhhhhhhhhhhhhhhhhhhhhhhhhhhhhhhhhhhhhh",
"hhhhhhhhhhhhhhhhhhhhhhhhhhhhhhhhhhhhhhhhhhhhhhhhhhhhhhhhhhhhhhhh",
"hhhhhhhhhhhhhhhhhhhhhhhhhhhhhhhhhhhhhhhhhhhhhhhhhhhhhhhhhhhhhhhh",
"hhhhhhhhhhhhhhhhhhhhhhhhhhhhhhhhhhhhhhhhhhhhhhhhhhhhhhhhhhhhhhhh"
};
