/* XPM */
static char *d8611158968b4021d9f7efadcad4e014zbRWv7ZpB0ZXwNbS[] = {
/* columns rows colors chars-per-pixel */
"64 64 129 2 ",
"   c None",
".  c #110E1B",
"X  c #13161D",
"o  c #151B1E",
"O  c #18221F",
"+  c #1D2B1F",
"@  c #111B21",
"#  c #122426",
"$  c #1A2A23",
"%  c #112F2B",
"&  c #12342D",
"*  c #133A2F",
"=  c #123A30",
"-  c #133D3F",
";  c #203421",
":  c #134434",
">  c #134A37",
",  c #144D3C",
"<  c #1B4B3D",
"1  c #13573C",
"2  c #1E513D",
"3  c #155A3E",
"4  c #264322",
"5  c #2E5425",
"6  c #315C26",
"7  c #235A3C",
"8  c #346627",
"9  c #336328",
"0  c #39732A",
"q  c #3D7B2B",
"w  c #286733",
"e  c #256835",
"r  c #2D6B37",
"t  c #24613D",
"y  c #2C6A3A",
"u  c #357E39",
"i  c #143D40",
"p  c #134340",
"a  c #144A42",
"s  c #155444",
"d  c #155A47",
"f  c #156245",
"g  c #1F6141",
"h  c #156749",
"j  c #156C4B",
"k  c #15734A",
"l  c #1B7249",
"z  c #167B4E",
"x  c #187F4F",
"c  c #167F50",
"v  c #297B41",
"b  c #4C5164",
"n  c #3A8637",
"m  c #3D8B36",
"M  c #32813B",
"N  c #348B3C",
"B  c #3C8938",
"V  c #3B9F3D",
"C  c #3FA23B",
"Z  c #40832C",
"A  c #468E2E",
"S  c #429536",
"D  c #439D38",
"F  c #46A037",
"G  c #4CA533",
"H  c #4CAB35",
"J  c #42A33B",
"K  c #48A738",
"L  c #51AF32",
"P  c #55B034",
"I  c #5FB338",
"U  c #64B53B",
"Y  c #68B63B",
"T  c #71B93F",
"R  c #17854F",
"E  c #1A854E",
"W  c #1D894C",
"Q  c #168450",
"!  c #188551",
"~  c #268644",
"^  c #268843",
"/  c #288844",
"(  c #238D4A",
")  c #338C4B",
"_  c #2C9346",
"`  c #319643",
"'  c #339942",
"]  c #3F994E",
"[  c #309150",
"{  c #3F9850",
"}  c #64954C",
"|  c #709754",
" . c #46A243",
".. c #4FA740",
"X. c #67AD4E",
"o. c #68AD4F",
"O. c #6EB04F",
"+. c #78BC47",
"@. c #70B14F",
"#. c #79B54F",
"$. c #71B156",
"%. c #81BE45",
"&. c #81B054",
"*. c #8BC149",
"=. c #92C24D",
"-. c #99C54F",
";. c #8BC252",
":. c #8FC05C",
">. c #97C555",
",. c #9BC652",
"<. c #9BC55F",
"1. c #9FC85A",
"2. c #A1C85C",
"3. c #A5CA60",
"4. c #ABCF6E",
"5. c #8CC080",
"6. c #B7D682",
"7. c #A1CCA8",
"8. c #A8D0BC",
"9. c #C2DC95",
"0. c #CAE3B0",
"q. c #DEEBC4",
"w. c #DDEED6",
"e. c #E6F0D3",
"r. c #E8F1D6",
"t. c #E8F3E3",
"y. c #F7F9F0",
"u. c #FCFCF9",
"i. c #FEFDFC",
/* pixels */
"                                                                                                                                ",
"                                                                                                                                ",
"                                                                                                                                ",
"                                                                                                                                ",
"                                                                                                                                ",
"                                                                                                                                ",
"                                                                                                                                ",
"                                                                                                                                ",
"                                                                                                                                ",
"                                      ! Q Q Q Q Q Q Q Q Q Q Q Q Q Q R ! Q Q ! s - - - - i :                                     ",
"                                      R Q ! Q Q Q Q Q Q Q Q Q Q Q Q Q Q E Q R d i i - : i -                                     ",
"                                  ! ( V J o.o.o.o.5.8.8.8.8.8.8.8.8.7.$.o.@.#.&.| } B B j j s i                                 ",
"                                R R _ L L -.-.-.-.9.i.i.i.i.i.i.i.i.e.,.-.-.-.2.3.;.L L E R d p i                               ",
"                                ( _  .U *.-.-.2.6.r.i.i.i.i.i.i.i.i.y.9.4.-.-.2.3.3.+.X.` _ k d s                               ",
"                            Q Q C L Y -.=.-.-.q.i.i.i.i.i.i.i.i.i.i.i.i.u.,.,.2.3.3.3.3.L L ( Q j i i                           ",
"                            Q Q K L U =.=.-.-.0.w.w.w.t.t.t.t.r.t.t.t.t.t.=.*.>.<.3.<.:.L L ` R l i i                           ",
"                            i i S L V Q Q Q Q C L L L L L L L L L L P L L L L L H C Q Q Q Q V P n . .                           ",
"                            i i m L V Q Q Q Q J L L L L L L L L L L L P L L L P L C Q Q Q R V P q . .                           ",
"                            i p m L C Q Q d a V L L L P L L C ( W ( ( ( W g 2 7 3 g Q Q Q Q C P q . .                           ",
"                            i i n L C Q x - - m L L L H L L W E R R Q Q Q > - - - , Q Q Q Q ' L 0 . .                           ",
"                            : - v ' ' _ / - - v ' K +.T T T W R R R R k s i i - - i s h ' ' ' ' w . .                           ",
"                            i - h Q _ L G - i k R ] -.-.-.-.[ R R R z - - - - - - - - - L L _ ! 3 . .                           ",
"                            - - j Q ` L H s a j k ) *.-.-.-.] E Q Q z - - - - - - - < 7 H H ( Q 3 . .                           ",
"                                i i r L L Q Q , - r P U ,.-.U L W R z - - - - - - 2 L P ! Q = . .                               ",
"                                  i y L H E R , - r L P -.=.P L ` R h - - - - - i y P L Q Q = .                                 ",
"                                    $ $ ; K J E z E ( / I P L L u a - - - - - 7 G D W R & # @                                   ",
"                                      . X P L ( Q Q R E L L L L u - - - - i - m L C Q Q @ .                                     ",
"                                        X 9 6 N _ R Q E L L L L u - - - - 7 n N _ ~ > > X                                       ",
"                                          . . A L ' R E L L L L u - - - i G P ` R k . .                                         ",
"                                          . . q A N ( ( C K L L M s s 7 t D J / k g . .                                         ",
"                                              . . 5 P K R Q H L _ R ( P L W Q > . .                                             ",
"                                              . . 5 P G R E H P J E ( L L E Q : . .                                             ",
"                                                  X o $ H L L P P H J E R % @ X                                                 ",
"                                                    . O L L L L L L C R R # .                                                   ",
"                                                      o 4 8 L L H _ ^ * * @                                                     ",
"                                                        . . D L ` R k . .                                                       ",
"                                                          . 0 0 e 1 1 .                                                         ",
"                                                            . . . X .                                                           ",
"                                                              . . .                                                             ",
"                                                                                                                                ",
"                                                                                                                                ",
"                                                                                                                                ",
"                                                                                                                                ",
"                                                                                                                                ",
"                                                                                                                                ",
"                                                                                                                                ",
"                                                                                                                                ",
"                                                                                                                                ",
"                                                          b b b b b b                                                           ",
"                                                      b b b b b b b b b                                                         ",
"                                                  b b b b b b b b b b b b b b                                                   ",
"                                                                                                                                ",
"                                                                                                                                ",
"                                                                                                                                ",
"                                                                                                                                ",
"                                                                                                                                ",
"                                                                                                                                ",
"                                                                                                                                ",
"                                                                                                                                ",
"                                                                                                                                ",
"                                                                                                                                ",
"                                                                                                                                ",
"                                                                                                                                ",
"                                                                                                                                "
};
