/* XPM */
static char *ff64f75cf21841728dd0c58c555205398z5JHeZ8k6w1devs[] = {
/* columns rows colors chars-per-pixel */
"64 64 127 2 ",
"   c None",
".  c #110E1B",
"X  c #10151F",
"o  c #15191D",
"O  c #18211E",
"+  c #101720",
"@  c #111C23",
"#  c #122928",
"$  c #12342D",
"%  c #133A2F",
"&  c #133539",
"*  c #133D3F",
"=  c #233A21",
"-  c #16423E",
";  c #154E3E",
":  c #1D4F3D",
">  c #14533A",
",  c #1D503D",
"<  c #135C3E",
"1  c #264022",
"2  c #2A4B23",
"3  c #2F5925",
"4  c #245B3C",
"5  c #346427",
"6  c #336528",
"7  c #366B29",
"8  c #29663A",
"9  c #2B693A",
"0  c #2E7A3C",
"q  c #367732",
"w  c #143D40",
"e  c #134140",
"r  c #144E43",
"t  c #145144",
"y  c #155B44",
"u  c #156449",
"i  c #166A4A",
"p  c #1E7342",
"a  c #15744C",
"s  c #167A4D",
"d  c #1B7D4B",
"f  c #237F42",
"g  c #4C5164",
"h  c #3B8737",
"j  c #3E8A37",
"k  c #34853B",
"l  c #3A8238",
"z  c #358D3C",
"x  c #388A3B",
"c  c #36903D",
"v  c #3D9639",
"b  c #379C3F",
"n  c #3A9D3E",
"m  c #3EA13C",
"M  c #45912E",
"N  c #49992F",
"B  c #439535",
"V  c #469C35",
"C  c #4AA233",
"Z  c #4DAB34",
"A  c #43A439",
"S  c #49A838",
"D  c #50A537",
"F  c #51AF32",
"G  c #59A53F",
"H  c #59AD3D",
"J  c #58B136",
"K  c #64B53B",
"L  c #6BB73C",
"P  c #1F8146",
"I  c #16824F",
"U  c #1A844D",
"Y  c #1E8A4C",
"T  c #168450",
"R  c #188452",
"E  c #238245",
"W  c #2A8B46",
"Q  c #228548",
"!  c #228C4B",
"~  c #279147",
"^  c #2C9445",
"/  c #279048",
"(  c #309743",
")  c #349A41",
"_  c #3A9D40",
"`  c #4CA741",
"'  c #60AF41",
"]  c #65B241",
"[  c #6BB04B",
"{  c #77BA41",
"}  c #7CBC43",
"|  c #70B24C",
" . c #79B54F",
".. c #6FB050",
"X. c #6FB05A",
"o. c #7FB850",
"O. c #76B45A",
"+. c #81BA4E",
"@. c #89BD4F",
"#. c #85BB50",
"$. c #8BBE56",
"%. c #8CB25A",
"&. c #94BA5C",
"*. c #87C049",
"=. c #8CC04B",
"-. c #93C34E",
";. c #99C54F",
":. c #8BC252",
">. c #96C353",
",. c #9CC653",
"<. c #97C658",
"1. c #A0C95B",
"2. c #99C673",
"3. c #98CC73",
"4. c #A5CA60",
"5. c #AED174",
"6. c #B2DBA3",
"7. c #BDE0B0",
"8. c #C0DB91",
"9. c #C3DEBC",
"0. c #CAE0A3",
"q. c #D0E4AD",
"w. c #D7E7B9",
"e. c #D3E7DC",
"r. c #E9F1D7",
"t. c #EAF2D9",
"y. c #FEFDFC",
/* pixels */
"                                                                                                                                ",
"                                                                                                                                ",
"                                                                                                                                ",
"                                                                                                                                ",
"                                                                                                                                ",
"                                                                                                                                ",
"                                                                                                                                ",
"                                                                                                                                ",
"                                                                                                                                ",
"                                                                                                                                ",
"                                                                                                                                ",
"                                                                                                                                ",
"                                                                                                                                ",
"                                                                                                                                ",
"                                      T T T T T T T T T T T T I T T T R R T a * * * w * -                                       ",
"                                    T T I R T T T T T T T T T T T T R I T T s * - * * * w *                                     ",
"                                  R ) S H +.+.+.:.9.e.e.e.e.e.e.e.e.2.+.@.-.,.&.%.D V Q s i w                                   ",
"                                R R n F L ;.;.;.-.r.y.y.y.y.y.y.y.y.5.,.;.,.,.4.4.J F ^ R i w w                                 ",
"                              T ) _ ] } -.;.;.8.w.y.y.y.y.y.y.y.y.y.t.q.<.,.,.1.4.<.+.` ) W a i *                               ",
"                            T T Z F } ;.;.;.,.y.y.y.y.y.y.y.y.y.y.y.y.y.0.;.,.1.4.4.4.K F _ T d * *                             ",
"                            s a Z F ] [  . .+.6.6.6.6.6.6.7.7.7.7.7.7.7.3.} +.*.:.O.X.` m m / P & &                             ",
"                            w * Z F ^ T I I I F F F F F F F F F F F F F F F F F F T T T T ^ F C . .                             ",
"                            * * C F ^ I T I U F F F F F F F F F Z Z F F F F Z Z S T T T T ^ F N . .                             ",
"                            * * C F ^ T s - - F F F F F F Z Y T U T T T i * * * * T T T I ^ F N . .                             ",
"                            * w V F ^ R i * * Z F F F F F m I T T T I I y * * * w a T T T ~ F M . .                             ",
"                            * - f Y _ A 0 * * U ! | *.*.*.[ I T T T a t w * * * w e r x S n ! p X .                             ",
"                            * * s T m Z h * - d U  .;.;.;.o.I I T T t * * * w * w w w B F n R a . .                             ",
"                              * u i V F v i u y y G L -.;.=.b ! T T t * * * * * w 4 q z ( E > ; .                               ",
"                                w w h F m T R * * N F } >.@.F Z T T r * w * * * - Z F ~ I y . .                                 ",
"                                  w q N v Y U ; > v S ] *.K F F d i w * * * * : 9 A A Q a > .                                   ",
"                                    . . 2 F S T R T T ) F F F F - * * * * * : Z F R I % X .                                     ",
"                                      . 2 F Z R T T T ) F F F F - w * w * * 8 F F I I % .                                       ",
"                                          o O F A T T ) F F F F - * * * 4 F A T T # +                                           ",
"                                          . o F F Y T ) F F F F - * * * l F S T T @ .                                           ",
"                                              1 1 v m ( ~ m F F d a k B c ! Q $ $                                               ",
"                                              . . N F ( T ^ F F T T A F b T s . .                                               ",
"                                                . 5 7 z ( A F F m ^ b ) f < > .                                                 ",
"                                                  . . 7 F F F F F F ! I > . .                                                   ",
"                                                    . 6 N F F F Z S P s > .                                                     ",
"                                                      . X 3 F F Y I $ . .                                                       ",
"                                                        X = F Z I I $ .                                                         ",
"                                                            o o + @                                                             ",
"                                                            . . . X                                                             ",
"                                                                                                                                ",
"                                                                                                                                ",
"                                                                  g                                                             ",
"                                                        g g g g g g g g                                                         ",
"                                                      g g g g g g g g g g                                                       ",
"                                              g g g g g g g g g g g g g g g g g g                                               ",
"                                              g g g g g g g g g g g g g g g g g g                                               ",
"                                                                                                                                ",
"                                                                                                                                ",
"                                                                                                                                ",
"                                                                                                                                ",
"                                                                                                                                ",
"                                                                                                                                ",
"                                                                                                                                ",
"                                                                                                                                ",
"                                                                                                                                ",
"                                                                                                                                ",
"                                                                                                                                ",
"                                                                                                                                ",
"                                                                                                                                ",
"                                                                                                                                "
};
