/* XPM */
static char *_3efdbd5b9da4823825961debc9914d3n3kwliwMNOMZN875[] = {
/* columns rows colors chars-per-pixel */
"41 62 233 2 ",
"   c None",
".  c #0D0C0B",
"X  c #090908",
"o  c #130C03",
"O  c #120F0C",
"+  c #140601",
"@  c #1A1201",
"#  c #15120D",
"$  c #19150C",
"%  c #18150A",
"&  c #0D0E14",
"*  c #0D1619",
"=  c #0A1213",
"-  c #141413",
";  c #181713",
":  c #191814",
">  c #13151A",
",  c #1A1A1B",
"<  c #17181B",
"1  c #2A1A0F",
"2  c #2E2019",
"3  c #24211E",
"4  c #36241A",
"5  c #141621",
"6  c #151A23",
"7  c #1A1A22",
"8  c #161C2C",
"9  c #1A1C2B",
"0  c #13172D",
"q  c #151C32",
"w  c #1A1E37",
"e  c #1A1F3B",
"r  c #151E39",
"t  c #0D193E",
"y  c #1B222A",
"u  c #16222B",
"i  c #1C213C",
"p  c #152738",
"a  c #2C2727",
"s  c #202B35",
"d  c #27373D",
"f  c #3A3A38",
"g  c #362A23",
"h  c #4A2619",
"j  c #7A3919",
"k  c #6F2C15",
"l  c #4D352A",
"z  c #743C30",
"x  c #4D1E11",
"c  c #7E401D",
"v  c #70472F",
"b  c #564235",
"n  c #121E47",
"m  c #1C2243",
"M  c #1C244C",
"N  c #142846",
"B  c #1D2654",
"V  c #1E285D",
"C  c #152658",
"Z  c #12375A",
"A  c #102650",
"S  c #253747",
"D  c #243C57",
"F  c #353951",
"G  c #0F2568",
"H  c #1E2A64",
"J  c #1E2C6B",
"K  c #102B6B",
"L  c #0D3B66",
"P  c #183968",
"I  c #1C2A78",
"U  c #0D377A",
"Y  c #163C73",
"T  c #0D2977",
"R  c #212967",
"E  c #212E75",
"W  c #212F7A",
"Q  c #21307E",
"!  c #203566",
"~  c #4E3057",
"^  c #34474A",
"/  c #364556",
"(  c #0D497D",
")  c #325476",
"_  c #32577D",
"`  c #2E5371",
"'  c #4A4947",
"]  c #585858",
"[  c #4D4A59",
"{  c #755552",
"}  c #5B6A6D",
"|  c gray40",
" . c #757575",
".. c #883514",
"X. c #B53E16",
"o. c #CA3A11",
"O. c #F93A05",
"+. c #934B31",
"@. c #A64E28",
"#. c #F84513",
"$. c #DB4E24",
"%. c #893141",
"&. c #845B47",
"*. c #BD5F48",
"=. c #946D52",
"-. c #B36C48",
";. c #A86F51",
":. c #807F7D",
">. c #A06666",
",. c #CA6E51",
"<. c #FB7958",
"1. c #B88663",
"2. c #CF956D",
"3. c #F29774",
"4. c #F7AB7B",
"5. c #EBA87A",
"6. c #C5835A",
"7. c #0B2989",
"8. c #152C8B",
"9. c #1E328C",
"0. c #1C3287",
"q. c #0C349A",
"w. c #19339B",
"e. c #183694",
"r. c #0A2F92",
"t. c #222E84",
"y. c #213184",
"u. c #21328A",
"i. c #283B89",
"p. c #223594",
"a. c #0833AC",
"s. c #1437AA",
"d. c #0E39BC",
"f. c #0836B8",
"g. c #1337B1",
"h. c #1339B7",
"j. c #16468B",
"k. c #144A96",
"l. c #105292",
"z. c #2C4E8F",
"x. c #38679A",
"c. c #3B738D",
"v. c #085AA6",
"b. c #1859B8",
"n. c #0B4EB0",
"m. c #3058AD",
"M. c #0A63B9",
"N. c #1E63BA",
"B. c #3974AC",
"V. c #3768B6",
"C. c #2E6DB5",
"Z. c #515E99",
"A. c #4479B9",
"S. c #467584",
"D. c #0B3ACB",
"F. c #0B3AC6",
"G. c #063BD9",
"H. c #103DC6",
"J. c #023DE4",
"K. c #013DED",
"L. c #083FE1",
"P. c #013BF9",
"I. c #0B53CB",
"U. c #076BCB",
"Y. c #0668D6",
"T. c #0374D9",
"R. c #326CC2",
"E. c #0346E7",
"W. c #0041F4",
"Q. c #0042FC",
"!. c #004BFE",
"~. c #004EF3",
"^. c #0052FE",
"/. c #015BF5",
"(. c #0254E7",
"). c #0063FC",
"_. c #006AF9",
"`. c #017CF4",
"'. c #0078FA",
"]. c #046FE4",
"[. c #2F7CFA",
"{. c #4076C0",
"}. c #548C95",
"|. c #4782B9",
" X c #3D85D2",
".X c #0082FB",
"XX c #0089FF",
"oX c #0083F6",
"OX c #0092FF",
"+X c #0281EB",
"@X c #519ECE",
"#X c #458BDB",
"$X c #4792D6",
"%X c #4483C2",
"&X c #5AABDA",
"*X c #4E9CED",
"=X c #4895E4",
"-X c #509EEF",
";X c #4E9FF5",
":X c #52A4F4",
">X c #55ADFF",
",X c #54A8FA",
"<X c #5EB5F6",
"1X c #50A9EE",
"2X c #62BAEF",
"3X c #61B1D3",
"4X c #69C6F5",
"5X c #7ADCF1",
"6X c #73D3F4",
"7X c #6FCCEB",
"8X c #7DE2F8",
"9X c #63C7EA",
"0X c #868686",
"qX c #999998",
"wX c #B0A296",
"eX c #A3A3A3",
"rX c #A9A9A9",
"tX c #B6B6B6",
"yX c #AB928B",
"uX c #FDB483",
"iX c #FFBB88",
"pX c #FFC08A",
"aX c #F0CCBA",
"sX c #83BFCD",
"dX c #BDC1C2",
"fX c #82E8FC",
"gX c #8DD0DE",
"hX c #C7C7C7",
"jX c #D9D9D9",
"kX c #E4E4E4",
"lX c #E9E9E9",
"zX c #F9FDFE",
"xX c #F3DFD3",
/* pixels */
"                                                      > - $ # #                   ",
"                                                      N S d d S                   ",
"                                              # : % S ;X4XfXfX5Xd X % X           ",
"                                              q m i H #X X}.3X4X} ` ` D           ",
"                                          . $ J u.W w.P.7.+ x.,X8X8X>X%X% X       ",
"                                        O q V E t.F.I._.Y.v.( ` B.$X4X@XY N .     ",
"                                        : B u.y.9.K.^.oXoXOXP + j.M.5X9XI.` $     ",
"                                        $ B y.F.E._.].e.e.e.d.D.A d 7X6X6X_ O     ",
"                                        7 B t.G.W.].U.i.i.i.H.K.i g sXgXgX} $     ",
"                                    - i y.y.Q E.P.5 d -X*X:Xm.I v ..#.#.O.X.c 4 > ",
"                                    - i y.E V q.a.D ) :X:X,XV.m.[ z o.$.<.*.c 4 > ",
"                                    ; i p.m $ o : 1X>X*X:X,X>X,Xp.E j ;.zXwX..4 > ",
"                                    : 9 M 9 - ' | ) x.:X%X` ) _ V.V.~ { 3.>.~ a : ",
"                                    < : ; ; & 0XqX1 p >Xx.X X + $X,Xe.~ O.%.r.r - ",
"                                    : < > k o.l f < a { { +.yXdX/ ! #XA.~ Z.=XS $ ",
"                                    : > > ..#.x = > 2 k @.,.aXzXl < *X{.8.R.:XD # ",
"                                        * ..#.x > < 2 j -.4.xXzX^ & > L XXl.3     ",
"                                        > k o.x > > 2 j -.iXaXxXl - l / T.L o     ",
"                                    ; ; $ $ O $ $ > 2 j -.iX4.4.g , uX2.- .       ",
"                                  & m C T U ( U T < 2 j -.pX4.uX=.&.2.;.X         ",
"                                ; 9 y.g.Q._.OX^.K.6 1 j -.pX4.pXuXuX*.z           ",
"                                > , w n C P Z Y._.f.8.1 &.pX=.b 5.uX3.=..         ",
"                                ; : < - ; $ @ M..X!.I.X v pXv = 2.uXiX1.> X       ",
"                            . > ; u k.B.7X@X#XD p '.U.* l +.6.5.,.-.l 3           ",
"                            > 9 < y N. X8X4X>XS - U.M.5 g k ;.5.-.+.& &           ",
"                          : V y.7 y 1X<X5X5X8X^ O $ 7 t.B # , < , >               ",
"                          : H y.5 s *X<X5X5X8X^ - C T b.P ; : > - .               ",
"                          : H u.7 s =X<X5X5X8X^ > K.^.OXv.$ - O                   ",
"                            q m > s *X<XgX4X<XD - G r.).q.o ' | ] ' -             ",
"                            . : $ s *X<XfX2X,XD % @ r P.q.o | rXeXqX3 .           ",
"                          - M R , y N. X<X{.i.M.U.U.b.q [ }.tXjXjXhX0X] -         ",
"                          : J e.i p k.N.-Xm.8.].XXXXU.+ ' eXhXkXlXjXrX .> .       ",
"                          $ a.Q.'.T.: w i.H.Q.'..XXXU.O ' eXhXkXkXjXeX .> O       ",
"                          : 8.E.Y.I.C C B 8.f.I.T.].b.0 [ qXhXkXjXjXeX .> .       ",
"                          : B I R 8.Q.f.@ $ $ R t.t.t.8.Z.eXhXlXlXjXeX .> .       ",
"                          $ z.R.|.A.F.8.M q : i M M M m F ] qXhXdXtX] ' X         ",
"                          @ A.,X8X7XE W p.M $ # O % % % # X | eXqX0X: X           ",
"                      O N j.@X6X5X7X#Xx.7 P j.B.|.A.B.l.Z # a f l f               ",
"                      ; D I.&XfX5X7X:XA.o P b.#X-X:X=Xb.Y : > - * -               ",
"                      $ ) ;X9X5X8X7XN.j.% < 7 y y y y < m E E W 9 >               ",
"                      $ ) ;X4X6X6X2Xk.P 9 9 9 9 9 9 9 7 B s.9.y.9 -               ",
"                  ; : @ j..X4X8X<X@X: i y.Q Q Q W W W E g.Q.g.W 9 -               ",
"                  i m e L v.B.}.x.z.: w y.w.g.g.g.g.g.g.h.D.0.M < .               ",
"              # , y.u.u.m o o X O % % i y.H.Q.W.W.P.Q.Q.H.W i $                   ",
"            & m R E e.D.n.v.v.v.u < V B y a.W.W.K.h.w.G C i >                     ",
"          O , E y.W s.P./.XXXXXXp 7 u.H @ 7.Q.W.E.u.V % $ ;                       ",
"          . : J 9.G.E.'.'..X.X`.p < y.I E M q q q 9 5                             ",
"          > 9 R 9.E./.oX.X`..XoXp < Q y.u.B 0 q 8 : -                             ",
"        : B y.W 0.`.oXoX.X`.oX`.p < W y.W d.K.W.J.8 #                             ",
"      . : B u.w.g.`.oX.XoX.X'._.p 7 W 0.W d.W.W.E.8 #                             ",
"    ; : : B y.G.!.`..X.X`.oX^.P.q 7 y.y.W d.Q.W.J.8 #                             ",
". > B i - B y.G.Q.`.`.`..X.Xn.G & & m V W F.W.W.J.8 #                             ",
": 9 u.H $ B y.G.W..XoX.XoXXXZ @     % i W H.P.W.J.8 #                             ",
": 9 y.B % B y.E.Q.!.I.N N N u -     ; i u.u.w.G.E.8 -                             ",
"> 9 y.V : B E F.J.J.a.> 6 y 8 8     : i I E Q D.J.9 #                             ",
": 9 t.0.t.m : < 7 : n J.(.+XE.G.8 @     , V u.9.0.7 -                             ",
"# 5 H J 9.B 9 N A N U ^.).XX).~.K n     # i J H V < .                             ",
"    : m u.y.u.L.Q..XXXoX.X.XoXoX!.G.< O   . < : :                                 ",
"      6 B M M s.H./._.oX.X.X.X.X_.(., -     O .                                   ",
"        : : $ R u.K.^.XX.X.X.X.XXXT.7 .                                           ",
"              8 i C C Z Z Z Z Z Z Z < O                                           ",
"              - > $ $ % $ $ $ # % % : #                                           "
};
