/* XPM */
static char *_122ed6ae29e427cae1bd4db3a2bc661D6P9mx7BN7bzC1T4[] = {
/* columns rows colors chars-per-pixel */
"32 32 177 2 ",
"   c #58422D",
".  c #5F4632",
"X  c #644028",
"o  c #754D2E",
"O  c #634B35",
"+  c #6C4E32",
"@  c #674E38",
"#  c #744F34",
"$  c #7C4F30",
"%  c #67513B",
"&  c #6B543C",
"*  c #755236",
"=  c #73563C",
"-  c #7B563A",
";  c #76593D",
":  c #7A5E3F",
">  c #6A5341",
",  c #6E5841",
"<  c #715740",
"1  c #755A42",
"2  c #7B5E43",
"3  c #7B6146",
"4  c #7D634A",
"5  c #875C3A",
"6  c #895E3C",
"7  c #8C603E",
"8  c #845F42",
"9  c #826244",
"0  c #8D6342",
"q  c #84654A",
"w  c #88644A",
"e  c #84694C",
"r  c #8A6C4E",
"t  c #926544",
"y  c #966947",
"u  c #956B4B",
"i  c #9A6D4C",
"p  c #9C714F",
"a  c #836A51",
"s  c #8B6E52",
"d  c #916F52",
"f  c #8E7356",
"g  c #937354",
"h  c #9D7452",
"j  c #9E7957",
"k  c #937559",
"l  c #9A7659",
"z  c #977B5A",
"x  c #9B7B5C",
"c  c #A17553",
"v  c #A87757",
"b  c #A47956",
"n  c #A87C57",
"m  c #A57C5A",
"M  c #A97D5A",
"N  c #A6815E",
"B  c #AC815D",
"V  c #B0845F",
"C  c #9E8163",
"Z  c #A28664",
"A  c #AE8361",
"S  c #A58668",
"D  c #A38A6B",
"F  c #AC8E6A",
"G  c #B28662",
"H  c #B48A66",
"J  c #B68D69",
"K  c #BB8F6C",
"L  c #B1926E",
"P  c #AC8D70",
"I  c #AF9272",
"U  c #B49675",
"Y  c #BD9E78",
"T  c #BEA27D",
"R  c #C19D75",
"E  c #C2A178",
"W  c #BEA483",
"Q  c #C5A582",
"!  c #CAA983",
"~  c #C9AF8A",
"^  c #CCB08B",
"/  c #D4B38C",
"(  c #D1B88F",
")  c #D5B791",
"_  c #D8B690",
"`  c #D4BE95",
"'  c #DDBC93",
"]  c #E6C297",
"[  c #E4C39B",
"{  c #EBC69B",
"}  c #EBC99E",
"|  c #F3CD9E",
" . c #F4D09E",
".. c #F8D09F",
"X. c #EDC7A0",
"o. c #E1CBA2",
"O. c #EECCA4",
"+. c #E7CDA8",
"@. c #F2CDA4",
"#. c #F3CEA8",
"$. c #EED1A7",
"%. c #ECD5A9",
"&. c #F5D1A4",
"*. c #F9D4A7",
"=. c #F5D4AB",
"-. c #FAD5AB",
";. c #F3DBAD",
":. c #FBDAAE",
">. c #F5DCB2",
",. c #FCDDB2",
"<. c #FEDFB9",
"1. c #F6E0B4",
"2. c #FCE2B5",
"3. c #FCE8B6",
"4. c #F6E0B9",
"5. c #FFE1B9",
"6. c #FFE3B9",
"7. c #FEE2BA",
"8. c #FFE3BB",
"9. c #FDE0B8",
"0. c #F9E4B9",
"q. c #FBE4B8",
"w. c #FAE5B8",
"e. c #FBE4BA",
"r. c #FAE7BA",
"t. c #FCE4B8",
"y. c #FCE5B9",
"u. c #FFE5B8",
"i. c #FFE4B9",
"p. c #FDE7B8",
"a. c #FDE5BB",
"s. c #FDE6BA",
"d. c #FEE6BA",
"f. c #FEE7BB",
"g. c #FFE7BB",
"h. c #FEE6B8",
"j. c #FFE3BC",
"k. c #F9E6BC",
"l. c #FEE5BC",
"z. c #FDE6BC",
"x. c #FCE7BC",
"c. c #FDE6BD",
"v. c #FEE7BD",
"b. c #FFE6BD",
"n. c #FFE7BF",
"m. c #FCE5BC",
"M. c #FDE3BA",
"N. c #FDE8B9",
"B. c #FEE8B9",
"V. c #FFEBB9",
"C. c #FDE8BB",
"Z. c #FEE9BA",
"A. c #FDEBBB",
"S. c #FCEABA",
"D. c #FFEABB",
"F. c #FBE8BD",
"G. c #F9E8BC",
"H. c #FFE8BC",
"J. c #FEE9BC",
"K. c #FFE9BD",
"L. c #FFEABD",
"P. c #FFEBBC",
"I. c #FCE9BF",
"U. c #FFE8BE",
"Y. c #FEE9BE",
"T. c #FDEABF",
"R. c #FCEBBF",
"E. c #FFEBBE",
"W. c #FFEABF",
"Q. c #FCEABC",
"!. c #FDECBE",
"~. c #FEECBE",
"^. c #FDEABD",
"/. c #FFE9C0",
"(. c #FFEBC2",
"). c #FDECC0",
"_. c #FDECC1",
/* pixels */
"*.-.,.,.,.2.2.3.V.V.q.K.K.K.x.q.1.2.8.q.q.8.u.8.2.:.:.;.:.:.2.2.",
"*.-.,.5.8.8.3.3.V.A.).!.G.8.q.9.r.K.(.K.q.2.K.r.8.V.8.q.q.w.w.3.",
":.,.,.5.8.8.V.V.!.G.G.G.x.x.c.V.V.c.8.u.K.c.q.0.q.w.8.V.!.K.V.w.",
",.:.,.,.2.q.8.K.!.K.G.G.(.K.K.K.c.q.q.V.8.c.x.;.+.q.w.r.V.w.V.K.",
"=.:.,.,.2.2.4.q.x.G.(.R.G.x.(.K.K.V.0.o.C 4 2 2 ; ) q.q.c.w.3.x.",
",.2.9.5.<.,.,.>.,.<.9.8.K.K.>.` U f 2 1 2 3 9 z e T q.9.8.3.V.(.",
"2.u.K.5.<.,.,.,.,.-.[ Q S q 2 e k z z x z x z s f C >.w.q.V.K.G.",
",.,.9.5.,.O./ Y Z q e e e k x x x x m m N m Z d f r w.u.A.(.(.).",
",.,.! F x g q 9 e f k l c m m M h t M M M M M l k 4 r.3.V.r.K.).",
"@._ l s q k g l m m M m M c y 7 t y y M M M M x x 3 $.3.w.w.G.w.",
"' - g l j m M M M M M h t 7 6 0 y i t n M n m M x e ' 2.;.4.G.1.",
"R # R p M M M M M M p 5 5 7 t 7 0 0 b b p t b M z O Y 2.9.c.2.1.",
"_ * V t c M M M i p J c M H M M M h t t y i b g O O x <.9.2.,.,.",
"&.# V i M M c t t H J A G M m M m c b N x l g   > U 2 >.5.q.2.5.",
";.o b M M c b h M G G M M M M M M y p j e O = @ x U Q >.c.9.x.q.",
"u.8 j E h c M M M M M M n M M m c # ; : : ; 1 s =.<.<.a.a.c.c.c.",
"A.I : = o $ b M M m c b M c 0 5 = 2 2 2 3 O a Z ,.,.2.2.2.8.8.K.",
").,.=.>.F 9 X u y u p g e - - < = 9 i d 1 , R :.=.,.,.,.,.2.8.5.",
"q.q.5.,.=./ g 9 = 9 : = % % 2 g N c m 2 2 ) &.:.-.,.:.2.,.,.2.,.",
"1.q.,.,.[ s r q 1 w w l G V M G J 2 1 f $.,.,.,.,.,.,.2.,.,.,.,.",
"9.1.2.-.U w M M B m b J G N B A f < C ,.9.1.a.<.:.2.,.,.,.,.,.:.",
"2.0.c.,.N 6 M v m M b H B n H ; ; ~ e.9.5.a.,.<.:.2.,.,.2.,.2.,.",
">.2.2.>.] 8 i M M M B B B N 4 e o.8.q.x.a.,.<.,.,.,.:.:.:.:.:.:.",
"2.,.,.,.,.R 8 J y 0 c M d 4 % ^ ,.2.5.5.<.<.,.,.:.:.:.,.,.:.,.:.",
",.<.,.<.,.#.w 1 8 d r 1 O % D ,.;.,.2.,.,.:.,.,.:.:.:.:.:.,.,.,.",
",.,.,.<.,.:._ w 4 & < @ @ W -.=.:.,.,.2.2.2.,.:.:.:.:.:.,.:.2.2.",
"<.,.,.<.:.:.*.! a & % 1 [ ,.2.1.-.-.,.-.2.:.,.,.,.:.:.:.;.2.2.*.",
"-.,.,.-.-.-.-.=.P S / } *.=.<.9.>.=.*.*.2.:.:.,.:.:.:.:.,.V.=.*.",
"X.O.@.#.#.#.#.#.@.X.@.#.#.=.,.=.-.=.#.=.=.,.=.=.:.>.=.%.u.;.O.*.",
"-.=.&.@.X.@.@.X.{ { { { #.-.{ } O.#.#.=.#.&.#.#.@.O.=.9.>.$.*.&.",
"=.:.*.@.@.&.*.@...@.@.@.@.{ ] ' ] ] ] X.{ } @.@.{ O.&.$.X.O.&.&.",
"@.-.&.......&...*.*.:.*.*.*...@.@.{ { { { { { { ] [ [ ' [ [ { X."
};
