/* XPM */
static char *aaccf8d054f846eeeb2962eadf1eefb49yddHz99UpMEzN2p[] = {
/* columns rows colors chars-per-pixel */
"32 32 153 2 ",
"   c #DFBC94",
".  c #E0BE91",
"X  c #E5C296",
"o  c #E5C39A",
"O  c #EAC69B",
"+  c #EBC99C",
"@  c #F5CD9F",
"#  c #EDC7A0",
"$  c #EECBA3",
"%  c #F2CDA3",
"&  c #F8CFA1",
"*  c #F3CEA8",
"=  c #F5D2A5",
"-  c #F9D4A6",
";  c #F8D8A7",
":  c #F5D4AA",
">  c #F9D6AA",
",  c #F5D9AC",
"<  c #FBDAAD",
"1  c #FAD7B1",
"2  c #F6DEB2",
"3  c #FCDDB2",
"4  c #FFDFB8",
"5  c #F6E1B4",
"6  c #FCE0B0",
"7  c #FCE0B1",
"8  c #FDE1B1",
"9  c #FFE0B1",
"0  c #FCE1B2",
"q  c #FDE1B2",
"w  c #FDE2B3",
"e  c #FEE2B2",
"r  c #FEE2B3",
"t  c #F8E1B5",
"y  c #F9E1B5",
"u  c #FBE0B5",
"i  c #F8E3B4",
"p  c #F9E3B4",
"a  c #FAE2B4",
"s  c #FBE3B5",
"d  c #F8E3B6",
"f  c #FAE2B6",
"g  c #FAE3B7",
"h  c #FBE3B7",
"j  c #FDE0B4",
"k  c #FCE1B4",
"l  c #FFE0B4",
"z  c #FEE1B5",
"x  c #FFE1B5",
"c  c #FDE2B5",
"v  c #FDE0B6",
"b  c #FCE1B6",
"n  c #FFE0B7",
"m  c #FEE1B7",
"M  c #FDE2B7",
"N  c #FFE2B6",
"B  c #FEE3B6",
"V  c #F9E4B5",
"C  c #F9E4B7",
"Z  c #FBE5B6",
"A  c #FBE6B7",
"S  c #FCE4B4",
"D  c #FCE4B6",
"F  c #FDE5B7",
"G  c #FFE4B7",
"H  c #FCE6B7",
"J  c #FCE1B5",
"K  c #FDE9B7",
"L  c #FEE8B7",
"P  c #F7E6BB",
"I  c #FAE1B8",
"U  c #F9E2B8",
"Y  c #FBE2B9",
"T  c #FAE3B9",
"R  c #FCE0B8",
"E  c #FDE0B8",
"W  c #FCE0B9",
"Q  c #FDE1B9",
"!  c #FEE1B9",
"~  c #FFE2B8",
"^  c #FEE3B8",
"/  c #FFE3B9",
"(  c #FEE0BA",
")  c #FCE3BA",
"_  c #FEE2BA",
"`  c #FFE2BA",
"'  c #FFE3BB",
"]  c #F9E4B9",
"[  c #FBE4B8",
"{  c #FAE5B8",
"}  c #F8E6B8",
"|  c #FBE6B9",
" . c #F8E5BA",
".. c #F8E5BB",
"X. c #FBE4BA",
"o. c #F8E7BB",
"O. c #FCE4B8",
"+. c #FCE5B9",
"@. c #FDE5B9",
"#. c #FFE4B9",
"$. c #FCE7B8",
"%. c #FDE7B8",
"&. c #FEE6B8",
"*. c #FFE7B9",
"=. c #FDE4BB",
"-. c #FCE5BB",
";. c #FFE5BA",
":. c #FDE6BA",
">. c #FCE7BA",
",. c #FEE6BA",
"<. c #FEE7BB",
"1. c #FFE7BB",
"2. c #FAE7BC",
"3. c #FCE5BC",
"4. c #FEE5BC",
"5. c #FEE5BD",
"6. c #FDE6BC",
"7. c #FCE7BC",
"8. c #FCE6BD",
"9. c #FEE7BD",
"0. c #FDE3B9",
"q. c #FDE8B9",
"w. c #FEE8B9",
"e. c #FDE8BB",
"r. c #FEE9BA",
"t. c #FFE9BA",
"y. c #FCEABA",
"u. c #FFEABB",
"i. c #FBE8BD",
"p. c #FFE8BC",
"a. c #FEE9BC",
"s. c #FCEABC",
"d. c #FDEBBD",
"f. c #FFEBBC",
"g. c #FFEABD",
"h. c #FCE9BE",
"j. c #FCE9BF",
"k. c #FFE8BE",
"l. c #FEE9BE",
"z. c #FDEABF",
"x. c #FFEABE",
"c. c #FFEBBE",
"v. c #FFEABF",
"b. c #FEECBC",
"n. c #FEECBE",
"m. c #FFEDBF",
"M. c #FFE8BE",
"N. c #FDEAC0",
"B. c #FCEBC0",
"V. c #FEEBC1",
"C. c #FFECC1",
"Z. c #FEEDC1",
"A. c #FFECC2",
/* pixels */
"- > < 4 3 w a a q.L y.n.a.a.U U a a  .<. .G <.! w < < 2 < < 0 <.",
"- < 4 j G G q.q.q.s.n.Z.5.5.<. .<.<.5.<.C <.<.<.<.q. .a C S G 5 ",
"< < 4 j ! <.q.a.n.A.2.2.a. .<.s.<.C <.<.<.! a <.U U q.a.n.n.n. .",
"< 3 1 4 4 <.<.n.a.2.P A.s.A.a.a.q.<.<.<.<.<.<.a.5.a <.<.q.q.q.q.",
"> < 3 ! 3 U a  .y.a.a.A.A.a.a.n.<.<.<.G <.q.<.j U a a <.<.i y. .",
"3 ! j ! 4 3 1 2 1 4 U 2.a.a.a.a.<.<. .G <.<.<.! j <.U U <.G a.a.",
"! <.<.! 3 3 < 3 w 3 4 3 2 3 S S 5.q.a. .a a 2 3 a ! a a a.a.a.Z.",
"3 3 G ! ! 3 3 ! G < < < 1 < < 6 j <.<.! 5. .2 2 0 q.C <.a.a.Z.B.",
"1 3 3 3 < 3 w 2 < < ; = - ; ; < 6 < < 2 G <.G G q.q.q. .a.q.a.Z.",
"% - > > , ; - - O $ ; ; ; < ; < < < 3 < 2 w 2 w q.a.q.y.C  .s.2.",
"= O % = ; ; > > ; 6 6 8 6 w < < w w j w w 3 < 2 0 a j j 2 d ..2 ",
"w < ; - $ = : - < 6 8 8 G q.L S j w j 3 4 4 4 4 3 3 4 j a  .U 3 ",
"6 < 3 3 3 > , : > < < 4 4 <. .S w G j w j ! ! 4 4 4 4 ! ! ! a 3 ",
"< < 3 4 j w < 3 < > < ; : < < < < 3 < 3 j j ! ! 4 ) 3 U ! 3 ! a ",
"< 2 U 5.<., < 2 > < > ; < : < < < ; < < 2 j 4 4 U =.! ! =.! 5.U ",
"a a.A. .2 5 3 1 3 < < w 3 4 < , < ; ; ; < < 1 3 4 4 4 ! 5.2.5.5.",
"a.a.C 2 a j 3 3 < < 2 a a a a j < > : - ; < 1 < 4 3 3 j j <.5.a.",
"a.5 2 w 4 w 3 w 3 4 3 3 a G <.<.j 4 w < ; < < < < < 3 w j ! ! ! ",
" .G G w 3 3 w 3 j j ! 3 ! <.a.5.<.! j j w < < < < 3 3 4 3 3 j j ",
"5 <.! 3 < < 4 w 3 3 j a 3 U 5. .U =.U 3 j 3 3 3 3 3 < 3 2 < 4 4 ",
"a t 2 3 3 3 3 3 3 < 3 w a a  . .5.A.<.4 4 a j 4 < w 3 3 3 3 3 < ",
"4 d <.a 2 < < < < 3 3 j j ! <.! <.! <.! U ! ! j 3 3 3 3 3 3 3 3 ",
"2 d 4 j w 3 3 2 3 2 2 3 0 ! ! <.<.<.! ! 4 ! 4 1 3 3 3 < 2 < 3 < ",
"4 3 3 3 2 4 4 4 4 3 , < < 4 j a 2 ! ! ! ! 4 1 4 < < < 3 < < 3 > ",
"4 3 3 3 3 < < 1 3 3 w 3 < < 1 1 < 3 3 4 6 3 w 3 1 1 3 < < 3 3 2 ",
"3 4 3 4 3 3 < < < < 3 3 2 0 < , , 3 3 3 w w 3 < < < < < 3 < j w ",
"3 3 3 3 1 < > - > > > > < 2 4 0 1 : 1 < j < < 3 3 < < < , C j < ",
": 1 1 1 1 > > * > * > < : = 3 ! 1 : : ; 3 3 1 3 < < < < 6 G : : ",
"$ $ $ * * % * * * # * * * : 3 , : 1 * : : 1 : : , , : , G , $ : ",
": : = % # * % # # # . O * : o $ $ * * : * : * * * $ * P 2 % : : ",
": < : * & * & % & & % % % O X . . O . O + + $ % + $ : $ # $ - - ",
"% > - & @ & & & - > > ; - - & % & O O O O O O O X o o   o o o O "
};
