/* XPM */
static char *fe2a1893896047269f280b0b2af7defe5q3U9IOuRk4CQLo9[] = {
/* columns rows colors chars-per-pixel */
"64 64 164 2 ",
"   c #6D3E0F",
".  c #6F3E12",
"X  c #703E12",
"o  c #6F4016",
"O  c #714012",
"+  c #7C4A17",
"@  c #7B4719",
"#  c #7D4B19",
"$  c #7D4E22",
"%  c #824D1D",
"&  c #85511F",
"*  c #824E21",
"=  c #855321",
"-  c #8A5524",
";  c #875927",
":  c #895827",
">  c #8A5629",
",  c #875928",
"<  c #895A29",
"1  c #945F2B",
"2  c #915C30",
"3  c #8E602E",
"4  c #97622E",
"5  c #98622F",
"6  c #956332",
"7  c #9B6536",
"8  c #986837",
"9  c #9E6639",
"0  c #9D6939",
"q  c #9E703F",
"w  c #A36836",
"e  c #A26C3A",
"r  c #AB6C3E",
"t  c #B5723E",
"y  c #B8723F",
"u  c #9F7140",
"i  c #A36F40",
"p  c #AC6C40",
"a  c #A57545",
"s  c #AD7345",
"d  c #AF7448",
"f  c #A67C4C",
"g  c #A87C4D",
"h  c #B67242",
"j  c #B87242",
"k  c #B37947",
"l  c #BA774A",
"z  c #B67C4E",
"x  c #BC7C4D",
"c  c #B67F51",
"v  c #BB7F50",
"b  c #BD814F",
"n  c #AD8354",
"m  c #BF8053",
"M  c #B48C5D",
"N  c #B88F61",
"B  c #BA9264",
"V  c #BE9669",
"C  c #BF996B",
"Z  c #C68A56",
"A  c #C5865A",
"S  c #C38C5F",
"D  c #C98C58",
"F  c #CE925E",
"G  c #C68D60",
"H  c #C29B6E",
"J  c #D39662",
"K  c #D69A66",
"L  c #DA9C69",
"P  c #C49F72",
"I  c #DFA16E",
"U  c #C7A174",
"Y  c #C9A476",
"T  c #CCA679",
"R  c #CEA97C",
"E  c #D0A77C",
"W  c #D2AB7E",
"Q  c #E0A26F",
"!  c #E5A773",
"~  c #E5A872",
"^  c #D2AE81",
"/  c #D8AF83",
"(  c #D4B184",
")  c #D8B186",
"_  c #DAB68A",
"`  c #DBBA8D",
"'  c #DEBD92",
"]  c #E1B78D",
"[  c #E5BA8F",
"{  c #E6BD91",
"}  c #E9BF95",
"|  c #E2C196",
" . c #EAC096",
".. c #EAC195",
"X. c #E6C59A",
"o. c #EEC49A",
"O. c #E8C79C",
"+. c #EBCB9F",
"@. c #EECEA4",
"#. c #F1CEA4",
"$. c #F0D1A5",
"%. c #F5D2A8",
"&. c #F6D3A9",
"*. c #F6D2AA",
"=. c #F5D4A9",
"-. c #F4D5A9",
";. c #F4D4AB",
":. c #F5D4AB",
">. c #F5D5AC",
",. c #F8D7AE",
"<. c #F5D8AE",
"1. c #F9D8AF",
"2. c #F6D9B1",
"3. c #FBDEB4",
"4. c #FBDEB6",
"5. c #FCDFB5",
"6. c #FCDFB7",
"7. c #FFDFB6",
"8. c #FEDEB7",
"9. c #FEDEB5",
"0. c #FCDEB5",
"q. c #FFDFB8",
"w. c #FEDFB8",
"e. c #FBE3B7",
"r. c #FFE1B5",
"t. c #FDE0B6",
"y. c #FCE1B6",
"u. c #FFE0B7",
"i. c #FEE1B7",
"p. c #FDE2B7",
"a. c #FFE3B6",
"s. c #FDE2B5",
"d. c #FDE1B6",
"f. c #FBE2B9",
"g. c #FCE0B8",
"h. c #FDE0B8",
"j. c #FDE1B9",
"k. c #FEE1B9",
"l. c #FFE0B9",
"z. c #FFE2B8",
"x. c #FEE3B8",
"c. c #FEE0BA",
"v. c #FFE1BA",
"b. c #FFE1BB",
"n. c #FCE3BB",
"m. c #FCE3BA",
"M. c #FEE2BA",
"N. c #FFE2BA",
"B. c #FEE2BB",
"V. c #FFE3BB",
"C. c #FDE4BA",
"Z. c #FFE1BD",
"A. c #FCE2BD",
"S. c #FFE3BC",
"D. c #FEE2BD",
"F. c #FDE3BE",
"G. c #FFE3BE",
"H. c #FDE4BC",
"J. c #FCE5BC",
"K. c #FEE5BD",
"L. c #FDE5BF",
"P. c #FEE4BF",
"I. c #FEE1BA",
"U. c #FFE2C0",
/* pixels */
"L.L.m.m.Z.Z.Z.m.Z.L.q.U.Z.Z.L.V.m.Z.L.m.m.Z.m.Z.L.m.Z.Z.Z.m.Z.m.Z.Z.Z.Z.U.Z.L.Z.Z.L.Z.Z.Z.L.Z.Z.L.Z.m.L.Z.Z.L.m.m.m.Z.m.L.m.m.L.",
"m.p.p.m.m.q.m.m.m.p.m.p.e.m.m.p.8.m.m.p.m.q.8.m.p.m.m.m.m.q.m.m.m.m.q.m.m.m.m.m.8.m.m.m.m.m.q.m.p.m.p.p.m.m.8.m.q.m.m.q.m.8.m.m.",
"m.q.8.p.q.p.p.q.m.p.p.8.p.p.m.m.8.p.p.p.m.p.8.8.p.p.p.8.p.p.p.p.m.q.m.q.m.q.m.q.8.p.p.8.p.8.p.p.m.q.p.p.8.p.8.p.m.p.8.m.p.p.8.m.",
"Z.m.q.m.m.q.m.m.8.m.q.m.8.p.p.9.m.p.m.m.m.q.m.m.q.q.m.p.q.m.q.p.q.m.q.m.q.m.q.m.m.8.m.m.q.m.m.8.p.p.m.q.q.m.m.q.q.p.m.q.m.8.m.Z.",
"m.m.p.p.8.p.p.q.8.p.p.p.m.m.p.m.a.a.V.p.a.a.a.a.p.p.p.p.p.p.p.p.p.p.m.f.p.p.p.p.m.p.m.q.m.p.m.m.8.m.q.m.8.8.p.p.m.8.q.m.q.m.q.m.",
"Z.q.p.8.m.p.p.8.m.m.,.&.&.:.&.&.:.:.:.-.:.:.:.:.:.&.-.:.-.&.:.&.&.&.&.>.&.&.&.&.:.:.&.&.&.&.&.:.&.&.&.&.&.,.p.m.m.p.p.q.m.8.q.m.",
"Z.q.m.m.q.q.m.m.q.p.S j h t t h h h h h h h h h h h h h j h h h h j h h j j h h h h h h j h h h h t h j j G p.p.p.8.8.m.p.p.m.Z.",
"L.m.8.p.p.p.8.m.q.p.S h h h h j t h h h h h h h h h h h t h j h j j h h h j j h t h h h h h h h j h h h h S p.m.m.p.m.q.m.m.m.Z.",
"m.p.p.8.p.8.p.o.l l 8 $ & l h t h h h h h h h h h h h h h h h h h h h h h h h h h h h h h h h h h h x $ = 8 x x  .p.8.p.q.p.m.m.",
"m.p.8.8.p.m.8.} j t 7 + + x h h h h h h h h h h h h h h h h j h h h h h h h h h h h h h t h h h h h x + + 7 h h } p.m.p.8.m.m.Z.",
"q.8.8.m.p.m.8.} h h a s s S c n x c v x x c z c x c v c v c v v c c c c v c v x x n x z n x b x n x G a a p j h [ p.m.p.q.p.m.L.",
"Z.m.p.m.p.q.m.} y y t j h w & & = & * = = & & = & = & & & & & & & & & = & & & & & & & = & & & & & & 6 h h j t t } p.m.p.m.m.m.Z.",
"Z.m.p.m.p.q.p.} h h h h h 9 = & = = & & & % * = & = = & = * & = & = = = = & & & - & % & = % & & & & 7 h h h h h } p.m.m.m.m.m.Z.",
"Z.m.p.q.p.q.p.} h h h j h 6 & = J I Q Q Q ! Q L I I Q I L K L L I I I I Q I Q Q Q Q ! L Q ! I K & = 4 j h j h h [ p.m.p.m.q.m.Z.",
"Z.m.m.q.8.m.m.} h h t j h 9 & & Q ~ ~ ~ ~ ~ ~ ~ ~ ~ ~ ~ ~ ~ ~ ~ ~ ~ ~ ~ ! ! ! ! ~ ~ ~ ~ Q ~ ~ Q = = 6 j h j t h { p.q.m.m.m.m.L.",
"Z.m.8.m.p.q.m.{ h h t j h 9 & & L ! ! ! ~ ~ ! ~ ~ ! ! ~ ! ! ~ ! ! ! ! ! ! ! ! ! ~ ~ ~ ~ ~ D Z A = % 6 j h h h t } p.m.p.m.p.m.L.",
"Z.p.p.8.p.p.p.} h h h h h 9 = & I ! ~ ! ~ ! ! ! ! ! ! ! ~ ! ! ! ! ~ ! ! ! ! ~ ~ ~ ~ ~ ~ ~ - & = & & 6 j h h h y { p.m.q.m.q.Z.L.",
"m.8.8.p.8.8.8.{ h h h h h 9 & = I ~ ~ ~ ! ! ! ! ~ ~ ! ! ! ! ! ~ ! ! ! ~ ! ! ~ ~ ~ ~ ~ ~ ~ - & & & & 6 h h h h h { p.m.m.m.m.m.V.",
"q.8.m.9.8.p.9.[ j h d h h 8 = % 1 4 4 4 5 5 2 6 5 5 5 5 6 6 5 5 6 5 5 5 6 5 5 5 6 4 4 4 4 & & & & & 6 t h h h h { p.m.m.m.m.m.Z.",
"Z.8.8.8.8.8.9.{ j j j h h 9 = = & & & & = & & = & = & & = = & = = = & = = = & & = = & & & & & & & % 6 j h y h t { p.8.m.m.m.m.V.",
"m.3.3.3.8.9.3.[ h h j h h 7 & & & & & - & - w e e e e e e e e e e e e e e e e e e e e e 0 w e 0 & & 6 j h h h h { p.q.p.q.m.q.m.",
"m.p.p.9.3.3.3.[ h h h h h 9 & & & & & & & 5 ~ ~ ~ ~ ~ ~ ~ ~ ~ ~ ! ! ~ ~ ! ! ~ ! ! ! ~ ~ ! ! ! ! & & 6 j h h y h { p.f.p.m.q.q.m.",
"m.8.p.8.3.9.3.[ h h j j h 0 & & & & = & & 5 ~ ~ ! ! ! ~ ~ ~ ! ! ! ! ! ! ! ! ! ! ~ ~ ~ ~ ~ ~ ~ ~ & & 7 j h j h h { p.m.p.q.m.f.f.",
"m.8.p.8.p.8.p.[ h h h j h 7 & & J L L L L Q ~ ! ~ ~ ~ ~ ~ ~ ! ! ~ ~ ~ ~ ~ ~ ~ ~ ! ! ! ! ! ! ! ! & & 1 j h h t h { p.q.p.m.e.f.Z.",
"Z.8.p.8.p.8.8.[ h h h h h 9 & & I ~ ~ ! ~ ! ! ! ! ! ! ! ! ! ! ! ~ ! ~ ! ! ~ ! ! ~ ! ! ! ! ! ~ ~ % & 6 j h h h h { 8.m.8.p.p.m.m.",
"m.m.p.9.p.8.p.{ h h h h h 9 & & D F F F F F F F J F F F F F F F F F F F F F F F F F F F F F F D = = 6 h h h h h { m.q.p.8.p.8.m.",
"m.p.8.s.8.p.p.{ h h h t h 7 = & & = = % & = & & & & = % & & & & & & & & & & = & & & & = & = & & = = 1 h h h h h { p.m.p.8.p.q.m.",
"m.p.8.p.3.p.8.[ h h h h j w & & & = & & & = = & = = = = = = & = & & - & & = = = = & & & & = & = & = 7 h h s h h { 8.q.p.p.8.m.m.",
"m.8.e.p.8.m.p.{ h t a 6 6 A x b x m m m x m v v x m m m b x m m m x m m m m m x m v v m x m m v A x A 6 6 e j h { p.m.p.p.p.m.m.",
"m.8.6.q.m.q.8.{ h h 6 # + A h j h h h h h t h h h h h h h h h h h h h h y j j y h h h h t h h h y y m % # 6 h j { m.q.p.m.p.m.L.",
"m.q.m.m.m.m.p.` e w a - - x j y h h h h h h h h h h h j h h h h h h h j j h h h h h h h h j h h j h x - - w r r ] q.m.p.q.m.m.m.",
"Z.m.m.q.p.q.e.W + + k h j h h h h h j h h h j j h h j j h j h h h h h j j j h h h h j h j j j h h h h j h k @ # E m.m.p.m.m.m.Z.",
"L.p.8.p.a.m.a.W + # k h t h h h j t h t t j t h h t j h h h h h h h h h j t j h j j j j h h h h h t y j h k + + W a.q.p.p.p.m.V.",
"m.p.p.p.p.m.e.W # # = - - - - - - - - - - - - - - - - - - - - - - = : - - - - - - - - = - - - - - - - - - & # # W p.m.p.m.p.p.L.",
"L.p.m.p.e.p.s.W # # # + + + + + + + # % + + # # # # + # # + # # + # # # + + + + # # + # + # # # + + # + + + + + T p.q.p.p.p.m.m.",
"m.m.p.p.e.q.p.E , < ; , < < ; , - < < < - < ; ; - , ; ; < < > > , , , , < < < < , , , > , ; ; < - ; < < ; ; < ; T p.p.8.8.p.m.Z.",
"Z.m.p.p.p.8.p.T . . X . o   .   O . o   . . . . o     X . . . . . . . . X X X   . . . . X . . . O O . . . o o O P p.8.p.p.8.m.m.",
"V.m.m.m.p.p.8.T X . . . o o . . . O . . . . . . o o o . . . . X . . . . o . X . . . . . . X X X O o . . .   O O P s.8.p.p.p.q.m.",
"m.m.q.m.8.8.8.^ = $ = $ = @ . . w s s s d s s s 7 O . @ i s s s s s s d # . . 6 s d s s i X X X   o @ , $ $ = $ T p.8.8.p.8.q.Z.",
"m.8.m.8.p.p.p.) + # # # + $ . . p p r p p p p r s   o * p p p p p p h p 2 . X d p p p p p X X X .   # + + # + # ^ p.p.8.8.8.m.m.",
"Z.m.8.e.8.8.p.) + + + + + $     s p p p p p p p d X X > p p e p p p p r 2 . . p p p p p p % % X O O $ + + + + + ( 8.8.e.8.e.p.m.",
"A.q.m.p.p.p.p./ % + + % + $ O O p p p p p p p p d . X > p p r p p p p r > . . s p p p p p p p p O o $ + + + % + ( 8.p.8.p.8.8.m.",
"A.m.p.p.8.p.p./ + + # # + $ o o h p p p p p p p d . . > r p r p p p p r > . X d p p p p r p p r O O $ # % + % + ( p.8.p.p.8.8.m.",
"A.p.8.p.p.p.p.( + % + # # $ O O s p p p p p p p s . . > r p r p p p e r > . X s p p p p p r p r O O $ # + + + + W p.p.8.8.p.8.m.",
"m.p.p.p.p.p.p./ # # # # # $ . . p p r p p p p r d . X > r p r p p p p r > . . s r r r p p p r p O   # # + + + + ( 8.8.p.m.8.p.m.",
"m.8.e.p.8.p.p.) # # # # # $ . . p p p p p p p p d X . > r p r p p p p r > . . p r r r p p p p p   o $ # % + + % ( 8.p.8.8.p.8.m.",
"Z.m.p.8.8.f.8./ # # # # # $ . . p p p p p r p p d X . , r p r p p p p r * . . s r r p p r p p r O o $ # + + + + ( p.8.p.8.p.p.m.",
"Z.m.p.p.p.q.f.) # # + # # $ . X p p p p p p p p s . . - r p r p p p p r > . . p r p p p p p r r O o $ # + % # + ^ 9.m.8.p.8.8.m.",
"m.m.8.m.m.8.8.) + # # # + $ X . s p p p p p p p d X . - p p p p p p p p > X . s p r p p p p p p O   $ o # + # # ( a.8.p.p.p.p.Z.",
"Z.m.8.p.q.q.p.) # + + + # $   o p p p r p p p r d X . > p p p p p p p p > . . h p p p p p r p p O   $ # + # + # ( V.p.p.p.8.m.Z.",
"m.q.p.m.8.p.p.) + + % + + $ . . a r r p r r r r s . . * p p p p p p s s @ . . d p p p p p p p p o o $ # # # # # ^ V.f.p.p.p.m.Z.",
"Z.m.p.q.8.p.9.) # # + + + $ . . h p p p p p p p d . . > p p p p p e . X . . . s p p r p p p p p   o $ # # # # # ^ e.m.p.m.p.m.Z.",
"Z.m.8.m.8.8.8.) # # + # + $ O o p p p p p p r a d X . > p p p p p 9 . o . . X s p p p p r r r p O   $ # # # # # ^ p.m.q.q.p.m.Z.",
"m.m.p.q.8.m.p.) # # # # + # ; = 9 w 0 0 9 0 w 8 2 > , < 9 9 0 0 9 2 > ; = ; = 6 7 9 9 9 0 0 w 0 ; $ # # + # + $ ^ p.q.m.m.8.m.Z.",
"m.m.8.m.8.m.8.) # # + # + + @ + + # % # # + + + # # # # + + # # + @ + + + # # + + # # # # % # # + + # # # # + # ( p.m.q.m.p.m.Z.",
"q.q.8.p.8.8.9.( # # + + + + + # + + + # # # # # # # # # + + # # + + + + # + # # # # # # # + # # + + # + # + + # ^ 8.8.p.8.8.m.Z.",
"6.3.2.;.-.@.+.U + # # + + + # # # + + # # # # # # # # # + + # # + # + + # # + # + + + # # # # # + # + + # + # + U #.-.<.2.2.f.f.",
"2.<.@.O.| ` ( N # # + + # # # + # # # # # + # # # + # + # # # # + # + + + # + # # # # # # # + # + # + + # # # # M _ ' X.@.2.2.6.",
"6.2.;.@.X.' _ W P V N N n g f u u u 8 6 3 3 3 , ; ; = $ & % # # $ + + + # # # $ $ $ = = < ; 3 3 8 8 q a g n M B Y ( ` O.@.<.2.6.",
"A.6.2.2.>.;.@.@.@.X.X.' ' ' ` ` ) ( ^ R T Y P P C C C V V B B B B B B B B B B V C C C P U U Y T ^ ^ ( ) _ ' ' | O.@.-.>.2.2.4.A.",
"Z.m.q.3.8.8.3.3.3.3.3.3.2.3.2.2.3.3.<.2.2.1.:.,.<.<.<.<.:.:.:.,.:.:.:.:.2.:.:.:.>.2.2.2.<.2.<.3.2.2.2.3.3.3.3.3.8.8.p.8.f.8.m.m.",
"f.q.8.m.p.8.m.q.3.p.8.8.Z.m.m.m.8.m.q.8.p.p.m.p.a.p.p.8.9.8.m.8.p.p.p.8.p.p.8.m.6.f.6.6.6.q.q.p.f.e.p.p.p.8.8.8.p.p.p.p.Z.m.p.q.",
"m.m.m.m.p.m.m.8.8.8.8.8.8.8.8.8.8.8.8.8.8.8.p.8.8.m.p.p.e.m.q.m.p.8.p.p.8.p.p.8.q.q.m.8.e.8.8.8.8.m.8.m.q.m.m.m.q.m.p.8.m.m.q.Z.",
"Z.Z.Z.Z.L.Z.m.m.m.m.m.m.m.m.m.m.m.m.m.m.Z.m.Z.Z.m.q.m.m.Z.Z.Z.A.f.Z.Z.Z.m.Z.Z.m.m.Z.Z.m.Z.m.Z.m.m.m.Z.m.m.Z.Z.L.Z.Z.L.Z.Z.Z.L.Z."
};
