/* XPM */
static char *a3a121429f35441ccfd87a24b83c214bpiUJHAwwXyLzPyr8[] = {
/* columns rows colors chars-per-pixel */
"64 64 171 2 ",
"   c #0F0503",
".  c #100702",
"X  c #150A04",
"o  c #1D0D03",
"O  c #1C0F09",
"+  c #1C1006",
"@  c #1E1109",
"#  c #220F03",
"$  c #241205",
"%  c #2C1404",
"&  c #2B1807",
"*  c #261409",
"=  c #2B1709",
"-  c #2E190A",
";  c #311605",
":  c #341907",
">  c #3B1C06",
",  c #351B0A",
"<  c #3A1D0B",
"1  c #351E10",
"2  c #391F10",
"3  c #3C210E",
"4  c #372010",
"5  c #3D2211",
"6  c #411E06",
"7  c #401F0E",
"8  c #472207",
"9  c #4B2406",
"0  c #44230C",
"q  c #4B250B",
"w  c #4E290E",
"e  c #502709",
"r  c #552A0C",
"t  c #5A2D0C",
"y  c #5E300F",
"u  c #432611",
"i  c #4A2711",
"p  c #462812",
"a  c #4C2A12",
"s  c #542D13",
"d  c #5B2E13",
"f  c #563116",
"g  c #5C3114",
"h  c #563118",
"j  c #5D3519",
"k  c #62310F",
"l  c #633514",
"z  c #6A3513",
"x  c #633816",
"c  c #6D3914",
"v  c #633618",
"b  c #66391A",
"n  c #6D3C1B",
"m  c #723D17",
"M  c #723E1B",
"N  c #6E411F",
"B  c #74411D",
"V  c #7B441E",
"C  c #7F481F",
"Z  c #724221",
"A  c #7C4621",
"S  c #7E4822",
"D  c #82461E",
"F  c #88471D",
"G  c #86491E",
"H  c #88491E",
"J  c #864921",
"K  c #894B22",
"L  c #854D29",
"P  c #8D5026",
"I  c #8E5329",
"U  c #935326",
"Y  c #9A5727",
"T  c #9C5827",
"R  c #945429",
"E  c #9A572A",
"W  c #9A582A",
"Q  c #9F5F33",
"!  c #A15F2F",
"~  c #A35F31",
"^  c #A96331",
"/  c #AB6331",
"(  c #AA6230",
")  c #AA6333",
"_  c #AC6330",
"`  c #AD6332",
"'  c #AE6230",
"]  c #AA6431",
"[  c #AB6430",
"{  c #AA6433",
"}  c #AD6431",
"|  c #AC6531",
" . c #AC6432",
".. c #AD6533",
"X. c #AD6633",
"o. c #AD6334",
"O. c #AB6534",
"+. c #AC6434",
"@. c #CDB18C",
"#. c #D3B793",
"$. c #D4B894",
"%. c #D8BC97",
"&. c #D3B998",
"*. c #DABE9A",
"=. c #DDC19A",
"-. c #E0C79E",
";. c #E1C59E",
":. c #E3C7A3",
">. c #E5C9A1",
",. c #EBCDA6",
"<. c #EDD1AA",
"1. c #F3D6AE",
"2. c #F9D6AE",
"3. c #F5D9B1",
"4. c #FBDEB4",
"5. c #FBDFB7",
"6. c #FBDEB6",
"7. c #FDDDB4",
"8. c #FCDFB5",
"9. c #FEDEB5",
"0. c #FCDFB7",
"q. c #FFDFB6",
"w. c #FEDEB7",
"e. c #FDDEB5",
"r. c #FDDFB9",
"t. c #FFDFB8",
"y. c #FFDFB9",
"u. c #FFDFB8",
"i. c #FEE2B3",
"p. c #FBE0B5",
"a. c #FBE3B7",
"s. c #FFE1B5",
"d. c #FDE0B6",
"f. c #FCE1B6",
"g. c #FFE0B7",
"h. c #FEE1B7",
"j. c #FDE2B7",
"k. c #FDE1B7",
"l. c #FBE2B9",
"z. c #FCE0B8",
"x. c #FDE0B8",
"c. c #FDE1B9",
"v. c #FFE0B9",
"b. c #FEE1B9",
"n. c #FFE2B8",
"m. c #FEE3B8",
"M. c #FDE1BA",
"N. c #FEE0BA",
"B. c #FFE1BA",
"V. c #FFE1BB",
"C. c #FCE3BB",
"Z. c #FCE3BA",
"A. c #FEE2BA",
"S. c #FFE2BA",
"D. c #FEE2BB",
"F. c #FFE3BB",
"G. c #FBE4BB",
"H. c #FDE4BB",
"J. c #FFE1BD",
"K. c #FFE3BC",
"L. c #FFE1BE",
"P. c #FDE3BE",
"I. c #FFE3BE",
"U. c #FFE2BE",
"Y. c #FDE4BC",
"T. c #FCE5BC",
"R. c #FEE5BD",
"E. c #FDE1BA",
"W. c #FDE5C1",
"Q. c #FCE6C1",
"!. c #FDE4C2",
/* pixels */
"W.C.C.C.R.C.C.R.C.!.R.R.R.C.C.!.R.G.R.R.V.R.R.G.C.C.C.!.R.R.C.C.C.C.V.G.G.R.V.R.R.R.C.C.C.!.R.C.C.C.!.C.R.R.C.C.R.V.V.R.R.G.V.W.",
"V.V.V.V.d.G.V.y.V.y.d.V.V.V.V.V.d.V.V.d.d.V.d.G.V.V.V.V.d.G.V.V.V.C.V.V.V.d.d.V.V.V.V.V.V.V.V.G.V.V.V.V.d.V.V.V.V.V.V.d.V.d.V.V.",
"V.d.p.d.j.j.V.d.d.V.d.j.G.d.d.d.d.j.j.j.V.d.d.d.d.d.d.d.j.d.d.d.V.V.V.d.V.V.V.V.d.j.j.d.d.d.j.d.d.d.d.d.d.G.d.d.C.d.d.G.d.d.d.V.",
"G.d.V.V.d.j.V.d.d.d.j.j.d.j.d.d.j.j.G.j.j.j.G.j.G.j.j.d.j.j.j.j.V.d.d.V.p.d.V.d.j.j.j.j.d.d.j.j.j.d.V.d.j.d.j.d.q.V.d.j.V.G.d.G.",
"G.V.V.d.j.V.V.C.V.d.V.V.V.V.d.V.G.V.G.V.C.V.V.V.G.V.d.G.V.G.V.V.d.G.d.d.d.j.d.j.V.V.p.d.V.d.V.V.V.V.d.G.d.V.d.G.j.V.V.d.d.V.d.G.",
"R.d.d.V.d.d.a.d.V.V.d.p.d.G.V.d.d.V.V.d.V.V.V.y.j.V.V.G.d.V.G.G.d.d.j.d.V.d.j.d.d.p.V.V.V.V.d.d.G.d.V.V.d.V.V.G.i.G.d.d.V.V.d.G.",
"C.d.V.V.d.V.d.J G G G H H G G H G G H G H G F F G G G G H G G G H G G G G G H G G G G G H H G G H H H H H G G H J d.V.d.V.d.j.R.",
"!.d.d.d.V.V.j.G G G G G G G G G G G G G G G F J H H G K H J H G G G G G G G G G G G G G G G G F H J K G G K H J G d.V.d.V.d.G.C.",
"V.d.V.d.V.d.V.G G G G G G G G G J F J J J F F J F F J J J F G G H G H G F J F F G J G G G J J G J G G J G G J G G V.d.G.d.V.d.R.",
"G.d.d.d.d.d.C.G G G G G J J G G J F J F F J F F J J J F J J J G H G G J J F J J J F F F J G J G G G J G G J G J G V.d.d.d.V.V.G.",
"V.V.d.d.V.d.V.G G J J G G H G G J J J J J F J J J J F F F J G J G G G J J J F F J J G J G J G J H G G J H G G G G V.d.V.V.d.G.G.",
"V.d.V.d.G.d.V.H G G G J % % & ; ; ; % ; % % % ; ; & % ; % ; ; ; ; ; ; ; % ; % ; & ; , 0 f g g g g g g g J G G G J G.d.G.V.G.V.R.",
"R.d.V.d.V.d.V.J G G G G & ; ; : ; : : ; ; : : ; ; ; ; , : , : : : ; ; : : : , , : : 5 h S L K L L J L P G J G J H V.j.V.G.V.V.G.",
"R.V.d.V.G.d.d.G J G G J ; ; < > > < > < > : < ; > > > < > : , : : < > > < , > : : < 5 Z ^ { ^ { { [ { { G J G G H G.j.V.d.G.G.R.",
"G.G.V.d.d.j.d.G G J G G % : : > < < > > > < , < > ; , , : ; ; ; ; ; , , < : : ; : , , Z / ` X._ ` / { [ J J J H J V.j.G.d.V.V.R.",
"R.d.V.V.V.j.d.G J G F F & ; > : ; , : < ; ; ; ; ; ; ; % % % % % & ; : > ; ; ; < < , 4 Z X.O.o.{ { X.{ X.F H H J H G.j.V.G.V.V.R.",
"V.V.y.p.V.d.C.G J F J G ; & ; ; % ; ; % % ; % % % % ; ; % % % % % & ; , ; < < < a h p A { ` X./ X.[ X.` G G J G J V.j.G.V.V.d.R.",
"y.q.y.y.q.5.y.G J J F G % ; % % % % % ; % % % % % % % % % % % % % % % , < < i s L b p A { X./ ` ` X.{ / G J J G J d.j.G.d.G.V.R.",
"V.q.q.5.y.q.5.G G G G H % % % % % % = = % % ; % % % % % % % % ; ; % 0 < < a M K R b u A [ [ X._ / { ` X.H G G G G V.j.V.j.V.d.T.",
"V.5.q.5.q.q.q.J G G G H % % % % % % % % % % % ; % % % % & % ; % % < 1 u x K R W R v u S ^ X./ X.{ / / / G G G G G d.d.G.G.V.C.T.",
"C.V.q.p.5.4.5.F J J G G % % % % % % % % % % % % % % & % % % % % $ , u A U W W E R v u S ` ` / { ` ` / Q H D G G G C.p.V.d.V.V.G.",
"C.d.d.p.4.4.4.D G J J G % % % % % % % % % % % ; % % % $ $ % $ % $ - N W W W W E I j p S ^ X.` { ^ ! R P J G H G G p.a.V.V.p.d.G.",
"V.d.d.d.q.5.5.G G G G H $ % % % ; % ; % % % % % % % % % % % % $ $ 4 K W W W W W I j p S / { ^ ! R L V B G G H G J 1.C.p.V.p.d.G.",
"V.q.d.5.q.p.q.F G G G H % % ; ; % ; % ; ; % % % % & % % % % $ # - 5 K E W W W W R j p L / ^ R L A m b n G G G J G ;.p.V.V.V.d.G.",
"G.d.d.d.p.d.p.H H G G G % ; : ; ; % ; % % ; % % % % ; % % o $ & < u K W W W W W U j 5 L Q I S A M v v b H H H G F #.5.d.d.j.V.G.",
"V.d.d.d.V.d.V.G G G G G % % % % % ; % % % ; % % % % # # @ O @ , 5 u K W W W Y W U j u L R J A A M v g x G G G J G @.3.V.d.d.p.G.",
"G.d.d.d.p.d.V.H G G G G % % % % % % % % % % & % # o o + + $ 7 b p 5 L W E W Y W I h u S P C A V n b g j G G G J J @.3.V.j.d.V.G.",
"V.d.d.d.V.d.d.G G G G H % % % % % % % % ; % % # X o @ $ < d D V a 5 K W E E E Y R h u S L S A A N b x g G G G G F #.3.V.d.p.V.C.",
"G.V.p.G.V.d.d.J H G J G $ % % & % % % % % % % # @ = u v V J F V s 2 J Y E E W W I d u A J A A A M b b b G G J G G %.3.V.G.j.G.G.",
"C.d.d.p.d.V.V.J G G G G % % % % % % % % $ % % $ = g C G G F J V a 2 L E E W Y W I h u J J A A V M n n b G G H H J $.4.V.d.j.V.G.",
"C.y.y.V.G.d.G.J G G G G % % % % % % % % % % % & , m J J G J J D s 2 L Y E E W W I s u L A A A A M n n n G G G G H *.4.y.j.j.V.G.",
"C.C.V.V.V.V.p.J G G G G $ % % $ % % # % % # # & 1 B G J G J J V s 2 J Y E Y Y R I a u L A A A A n n n n G J J H J %.4.G.d.d.G.R.",
"G.G.j.j.a.a.C.J J F J F % # % # % % % % $ $ o - < M J G F H F V s 2 K R R P P K S a u K S S A A n n n n H F J J J *.4.q.d.d.G.G.",
"G.j.j.j.a.V.p.G F J F H % % % % $ $ $ o o o + & 3 V G G D H G V h 2 S U K J G L V u u L S A C Z n n n n H J J F F *.5.d.V.d.d.G.",
"R.j.a.j.d.j.p.G G G F J # ; % % % o X X - q r 3 0 B G G G G H C h 1 A J J J J S M u u J A A C A n n n n J F J F J *.q.d.d.d.d.R.",
"G.j.V.j.d.d.V.G J J F F # % % # o   $ w k z g , 0 V G G G G D C s 1 A J S S J J Z u u A A C A V n n n n F F J J J =.5.q.d.V.V.R.",
"R.V.V.j.d.d.4.H J G G J % # % % o = r z c m t 4 a V F G J F J C h 1 N J J J J S Z u u B C A A Z n n n n F J J J G ;.5.d.V.V.d.R.",
"G.V.j.j.V.d.3.H G F G F # % % # $ = y c c c k - a D J G G G J C f , B S L A J J N 0 u B A C A V n n n n F F F J G ;.5.d.V.d.V.C.",
"G.d.V.j.d.d.3.G J J J G # % $ # & , l c c c d & s C G G D G G F j , n J J J J J n 3 p N V A A A n n n n J F J J H -.q.p.d.V.d.V.",
"G.V.p.j.d.d.d.G J F H J % # o X & : k c m c t = g G G G G G D D j - N S J K S S n 3 p N A A A A n n n n F J J J J >.5.V.d.d.d.V.",
"R.V.V.d.j.d.j.G G G G G o   X $ & , l c c c t % g G G G V B V M j - n J A J J S N 4 a M A A S V n n n n G F J D H ,.q.y.5.d.q.V.",
"R.p.V.d.j.d.j.H J G G G $ 3 9 6 , 3 k c c m y $ v J D B m m m m h - n J J J S J b 2 a Z A A A A n n n n G J F J G ,.q.V.d.d.d.V.",
"G.C.5.d.j.d.j.H G G J H > r t 9 - 0 l c c z r @ b F V m m m B m h - b J J V V B v 4 u M A S A B n n n n G D J F G ,.q.d.d.d.q.V.",
"C.V.d.d.j.j.d.J G G J H 6 t e 9 & 0 l z x l w * m D m M B m m m s - x A V M M N g , p n A A A V n n n n G G F J J <.y.V.d.d.d.V.",
"G.G.d.G.j.j.V.H D G J G 6 e r 8 $ q y k k y q * b V m M M M m m g = v B M M B M f < 0 b V A V A n n n n G G G F G <.y.d.d.d.d.G.",
"G.d.d.d.d.d.V.J G H G G 6 t r 8 * q y y y y 0 & c m m M m M m m g = g m n M n B f < u b A A A A n n n n G D G J J 1.q.V.d.d.d.V.",
"V.d.d.j.p.d.d.G G G H H > t t 8 $ w l y g t 3 & v M m n c b c n s = d n B M n n h , u v V A A B n n n n G G F J J 1.y.d.d.d.d.V.",
"R.d.j.d.d.d.V.G G H H F > r r > $ q t t y r < - v b c z z v x z f = s n n M B n s , 0 v A A A V n n n N G F J F H 1.q.V.d.d.d.V.",
"R.V.d.d.V.5.d.J F J G G 6 r 9 , $ q r r r s , , g v l l l l l k s = s m M M m n s < 0 b A A C Z n n n n H J J G G 3.d.V.d.d.j.R.",
"C.V.V.d.d.d.d.G G G G G > r 9 : & 0 r r r w , ; s g k l l v l l a * s N N Z n n s < u b A A A B b n n n G G G G G 1.d.d.d.j.d.R.",
"G.G.V.d.5.d.y.F J G G G > e 8 ; & q r r r w & , s d l l l l l l s $ s m M M M n a 1 u n A A A Z b N b n G J J G J 3.d.V.d.d.d.R.",
"V.d.V.j.V.p.y.J J F G G 6 q 8 ; & q r s r q & > s r l l l l l l w $ s B n M n m w , u M A A V B n n n n G G G G J 3.d.V.j.d.V.R.",
"V.V.d.d.V.d.q.G F J G G > q 8 ; , q r r r a = , s d g l l l l l i $ g M M M B n a 1 i B C A A Z n n c N G H G G J 1.V.d.d.G.V.R.",
"G.V.V.V.d.d.y.J J J G G 6 q 9 ; : w r r r q % < r d g v l l l g a % j M n M n n a < a A A C V N b n N B J G G G J 3.d.V.j.d.V.C.",
"V.V.d.d.d.d.d.H J G G G J H D F H F G J J G J G J G G G H H G G F J F J G J J J F J J J G J G G H K H H G G G G G 3.d.V.V.d.V.C.",
"V.d.d.d.V.d.V.G J G G G J G G F J G J G J G J F G G J F G H G J G G J J F F F J J J F J G J J G G G G G G G J G G 3.V.d.V.V.V.C.",
"V.V.p.V.d.5.q.J G G F J F J J J F J F F J F F J G G G G G G G G J J J H J J F J G J G J G J J G G H G J G G J J H 3.V.d.a.d.d.R.",
"R.d.p.d.q.V.p.J F J J G J F D F J G J J J J J J G G G J C G G G J G G G G G J F J G G G G J G G G G H G H G G J G 3.G.d.V.p.V.V.",
"C.V.d.V.p.V.d.K J J J G J G J F F J G G J F J F G K G G H H G G G H G G G G G G G G G G G G G G G J G G G J J J J 3.d.j.d.G.d.G.",
"C.V.p.V.V.q.p.d.5.q.d.d.d.q.5.5.q.q.q.5.q.q.q.5.p.a.p.p.p.p.q.p.5.5.3.1.3.4.5.V.p.V.d.q.C.d.p.>.$.$.$.#.#.$.#.#.$.3.d.d.V.d.V.W.",
"C.V.d.V.V.d.V.d.5.V.p.V.V.d.d.V.d.V.p.V.d.5.V.y.p.d.d.p.5.5.5.7.q.q.q.q.7.q.q.7.d.5.d.d.q.y.5.>.$.#.#.#.#.#.$.#.$.4.V.d.d.d.d.R.",
"V.d.V.d.d.5.p.d.d.d.d.d.5.d.d.5.q.d.q.q.q.q.q.q.p.d.d.d.q.5.d.d.5.5.5.q.d.d.q.5.5.V.V.5.5.y.5.<.$.#.#.$.#.#.#.#.=.p.d.d.V.p.d.V.",
"V.5.d.V.V.C.V.y.q.y.d.y.q.V.q.q.p.V.V.p.V.5.y.y.d.q.d.d.y.q.q.y.p.d.y.V.d.q.p.p.d.d.d.d.d.d.y.1.=.$.#.$.#.&.$.%.,.d.y.V.y.C.d.G.",
"R.R.R.R.R.V.C.T.V.V.V.C.V.V.V.V.V.V.C.V.V.V.C.C.C.C.C.R.C.C.P.C.C.C.C.C.C.!.C.C.C.G.C.G.V.V.C.5.<.*.$.$.&.&.&.:.3.R.!.C.C.C.R.W."
};
