/* XPM */
static char *_0782_c01df693f1ed997a348c2c9e830d8a22d28a17c6e6bf2f18f1832b90f675506d[] = {
/* columns rows colors chars-per-pixel */
"64 64 112 2 ",
"   c #0E0701",
".  c #100702",
"X  c #150A03",
"o  c #1E0D03",
"O  c #1C0F09",
"+  c #1D1106",
"@  c #1E1109",
"#  c #220F02",
"$  c #241205",
"%  c #2C1404",
"&  c #2D1907",
"*  c #261409",
"=  c #2B1709",
"-  c #2E190B",
";  c #321706",
":  c #341906",
">  c #391C07",
",  c #311708",
"<  c #351B0A",
"1  c #3A1D0A",
"2  c #351E10",
"3  c #391F10",
"4  c #3C210E",
"5  c #372010",
"6  c #3D2211",
"7  c #411E06",
"8  c #411F0B",
"9  c #452107",
"0  c #4B2407",
"q  c #44230D",
"w  c #4B250B",
"e  c #4C290D",
"r  c #522609",
"t  c #552A0C",
"y  c #592C0C",
"u  c #5E300F",
"i  c #432611",
"p  c #4A2610",
"a  c #462812",
"s  c #4C2A11",
"d  c #4F2C18",
"f  c #532D13",
"g  c #5A2E13",
"h  c #563116",
"j  c #5C3114",
"k  c #563118",
"l  c #5D3519",
"z  c #62310F",
"x  c #633514",
"c  c #693615",
"v  c #633816",
"b  c #6D3914",
"n  c #623618",
"m  c #66391B",
"M  c #6D3C1B",
"N  c #733D17",
"B  c #723E1A",
"V  c #6D3E20",
"C  c #75411D",
"Z  c #7B441E",
"A  c #7F481F",
"S  c #754522",
"D  c #7C4621",
"F  c #7E4821",
"G  c #81461E",
"H  c #86491E",
"J  c #88491E",
"K  c #844A22",
"L  c #8A4D24",
"P  c #854E29",
"I  c #8D5126",
"U  c #8E532A",
"Y  c #925326",
"T  c #9A5627",
"R  c #9C5827",
"E  c #935429",
"W  c #9A572A",
"Q  c #97582E",
"!  c #9B592B",
"~  c #975C32",
"^  c #9E5E32",
"/  c #A15F2F",
"(  c #A15E31",
")  c #9F6035",
"_  c #A46233",
"`  c #AB6433",
"'  c #AF6A37",
"]  c #A6663A",
"[  c #AA6639",
"{  c #AD6A3B",
"}  c #B16D3D",
"|  c #B4703F",
" . c #B8723F",
".. c #AF6F41",
"X. c #B36F40",
"o. c #B67242",
"O. c #B87242",
"+. c #BA774A",
"@. c #B77948",
"#. c #BA7949",
"$. c #CC966B",
"%. c #D19465",
"&. c #F4CFA3",
"*. c #F3D1A6",
"=. c #F2D2A9",
"-. c #F5D8AE",
";. c #F7DAB0",
":. c #FDDFB6",
">. c #FFDFB8",
",. c #FDE1B7",
"<. c #FEE2BA",
"1. c #FEE6C1",
/* pixels */
"1.<.<.<.<.<.<.<.<.1.<.<.1.<.<.1.<.<.<.<.<.1.<.<.<.<.1.<.<.<.1.<.<.1.<.<.<.<.<.<.<.<.<.<.<.<.<.<.1.<.<.<.<.<.<.<.1.<.<.<.1.<.<.1.",
"<.<.<.<.,.,.<.<.<.<.<.,.<.<.<.>.<.<.<.<.<.<.<.<.<.<.<.<.,.,.<.,.,.<.,.,.<.<.<.<.,.,.<.<.<.<.,.,.<.<.<.<.<.<.<.<.<.<.,.<.<.,.<.<.",
"<.<.,.,.<.,.,.,.<.<.<.<.<.,.<.,.,.,.,.,.<.,.<.,.,.,.,.,.,.,.,.,.<.,.<.,.,.<.<.<.,.<.<.<.<.<.<.<.,.,.<.<.<.,.,.<.<.,.,.<.<.,.<.<.",
"<.<.<.<.<.>.<.<.<.,.,.,.,.<.<.<.,.,.,.,.<.,.,.,.<.<.<.<.<.<.<.<.<.<.<.<.<.<.<.<.,.,.>.<.,.,.,.,.<.<.,.<.,.,.,.<.<.<.,.<.<.<.<.<.",
"<.<.,.,.<.<.,.,.<.,.,.<.<.<.,.,.<.<.<.<.<.<.<.<.,.,.,.,.,.,.,.,.<.,.,.,.,.,.,.,.<.<.<.<.:.<.<.<.,.<.,.<.<.,.,.<.,.,.,.<.,.,.<.<.",
"<.<.,.,.<.,.,.,.<.,.,.,.<.<.<.<.<.<.<.<.<.<.<.<.,.<.<.<.<.<.<.<.,.,.,.,.,.,.,.,.<.<.:.<.<.<.<.:.<.,.<.<.,.,.,.,.<.,.<.<.<.,.<.<.",
"<.<.<.<.<.,.<.<.*.$.#.o.| o. .o.o.o.o.o. .o.o.o.o.o.o.o.o.@.o.o.o.o.o. .o. .o.@.o.o.o.o.o.o.o.o.o.o.o. .o.@.$.*.,.<.<.,.<.<.<.<.",
"<.<.<.,.,.<.,.*.#.o.o.o.o.O.o.o.o.o.} X.} o.o.o.o. .o.o.o.o. .o. .o.o. .o.o. . .o.O.O.O.O.o.O.O. .o.@. .o. .o.#.=.,.<.<.<.<.<.<.",
"<.,.,.>.,.<.<.%.O.o.O.O.X...' ] ' ` ` ` ] ] ` ] ' ' ] ' ' { { { { { } } X.} } } } X.X.O.X.X.o.X.O.o.o.o.o.o.o.o.%.<.<.,.,.<.<.<.",
"<.,.,.,.,.<.<.#.O.O.X.' _ _ ( ( ( ( ( ( ( / / / ( ( ( ( ( / / / _ / _ ) ( ( ( ( ( ( ( [ ] ] [ } { } } } { { o.o.@.<.<.,.,.<.<.<.",
"<.<.:.<.,.:.,.o.o.| ] _ ( ( ( _ ( ( ( ( / ( / _ ( _ _ / / / / / _ ! / ) ( ( ( ( ( ( / ( _ _ [ ` _ _ _ _ / _ { o.o.,.<.,.,.<.<.1.",
"<.<.<.:.<.<.,.o.o.} _ / / ~ P S d 8 8 8 8 q w q q q q q q q 8 1 q q 4 q q q q q q e e f j j x D U ~ ) ) / / _ o.o.,.<.,.<.<.<.1.",
"<.,.<.<.<.<.,.o.o...( ( ~ p < , ; , > ; : : : ; , : , : , : , : : , , : : : ; > : > 6 k F P L L P L W _ / / ] | o.<.<.<.<.<.<.<.",
"1.<.,.>.,.<.,.O.o.X.` _ D , < > > > > < < : > > > > > > > > : > : > > > > > > > : : 6 V _ [ ` / ` ` ` _ / / _ |  .,.<.<.<.<.<.1.",
"<.,.<.,.,.<.<.o.o.o.[ } V , > > > 1 : : > < > : < < : : ; ; ; ; , : : > : > : , > < 5 S ` ` ` ` ` ` ` ' _ / ] | @.,.<.<.<.<.<.<.",
"<.,.<.,.,.,.,.o.o.} ] { f : > > > : : : : : ; , , % , % % % $ % % ; : < : ; ; < 1 < 2 S ` ` ` ` ` ` ` ' ] / _ | o.,.<.<.<.<.<.1.",
"<.<.,.:.<.:.:.o.o.} ` } i , ; % % ; ; % % % % % % % & ; % % % % % % , , ; : i > s k a D ` ` ` ` ` ` ` ` ] ( _ o.o.<.<.<.<.<.<.<.",
"<.,.,.>.:.<.,.o.o.} _ } : % ; % % % % , ; % % % % % % % % % % ; % % ; < < 1 p t K m a D ` ` ` ` ` ` ` ` ' ( _ X.o.,.<.<.<.<.<.<.",
"<.:.>.:.:.>.:.o.o.} _ | % % ; % % % % % % $ ; % & % % % % & % % % % q 1 4 s M K E m 9 F ` ` ` ` ` ` ` ` ' ( _ o.o.,.<.<.<.<.<.1.",
"<.>.:.:.:.>.>.o.o.{ ( } $ ; % % % % % % % % ; % % % % % % % % , % 1 < i v L W Q E v 0 G ` ` ` ` ` ` ` ` } ( _ X.O.<.<.<.<.<.<.<.",
"<.;.:.:.:.:.:.| o.] _ } $ % % % % % % % % % ; % % % % % % % % % % < a D Y T Q R E l i F ` ` ` ` ` ` ( ( ` ( _ O...,.<.,.<.<.,.<.",
"<.,.,.:.:.;.,.| X.` ( } % % % % ; % % % % % % ; % % % % $ $ % % $ - S E T T W ! E l i P ` ` ` ` ` / Q U [ ( _ o.@.,.<.,.,.<.,.<.",
"<.,.,.,.:.:.:.| o.[ / } $ ; % ; % ; % % ; % % % % % % % % % % $ $ 4 K Q ! ! ! ! U l a F ` ` ` / R J N B ] ( [ } | ,.<.,.,.<.,.<.",
"<.,.,.,.:.,.,.| X._ _ } % % % ; ; % % ; % % % % % & % % % % $ # - 6 L W ! R ! ! E l a P ` _ E P G N b B _ / ` X.| ,.<.,.,.<.<.<.",
"<.,.,.,.,.,.,.| } ] / } % : : ; % ; % % % ; % % ; ; % % * o $ = < 6 L W T T W W Y l i P ) U F F C v h C ^ / ] | @.,.,.<.,.,.,.<.",
"<.<.,.,.,.,.:.o.} _ / } $ % % % ; % % % % % % % % $ $ # $ O O < i i P W T T W W U l i K E H D Z C l j C _ / _ | o.,.,.<.<.,.,.<.",
"<.,.,.,.,.,.,...| _ _ } % % % & % % % % , % % % @ o + o @ $ 8 c a 6 P W W W W W E k a F I A D Z C j u C ^ / _ | o.<.,.,.<.,.<.<.",
"<.,.,.,.,.<.,.@.| ] / } % % % * % % % % , % % # X o @ $ 1 j Z G d 6 L W W W W W U l 6 F P A D A C v j C ) / ^ | o.<.,.<.<.,.<.<.",
"<.,.;.<.<.<.,.o.| { / | * % % % % ; % % % % % o @ % a n Z K J G s 6 L T W W ! W Y h q F K D D D C m v C _ / ^ | @.<.<.<.<.,.<.<.",
"<.<.<.<.<.<.<.o.| { / } % % % % % % ; % % $ % # = j A H J H K B s 6 K W W W T ! I h 6 K F D D Z C v m S ^ / _ | | <.<.<.<.,.<.<.",
"<.;.<.<.<.<.<...o.{ / | $ % % % $ % $ % % % # = < N H H H H K G f 5 K W W W W ! U d a K K D D Z C M M C ^ / ~ | | ,.<.<.<.<.<.<.",
"1.<.<.<.<.<.<...o.{ / { % % % % % % % $ % % % % 2 C H K H K J G h 5 K T W ! T W I d a P F D D D M m M C _ / ^ | @.,.<.<.<.<.<.<.",
"<.,.,.<.,.<.<.o.X.} ( } # % # % % % % $ $ $ @ - > C L H H H J Z f 5 K E Y I L L D s i L F D D D M M M B _ ( _ X.o.<.<.,.<.<.,.<.",
"<.<.,.,.,.<.,.O.O.[ ( { % % % % % $ $ o o X + = 4 B H H J H H G f 3 K Y L H K L Z a i P F D D Z M M V B ( ( ( X.o.,.<.<.<.<.<.<.",
"<.<.,.,.,.<.,.o.O.' / } % % % % $ # X X < w r 4 q Z H J H H H Z h 5 D L K G K K B i i K D D K D M M M B _ ( ( X.O.<.>.,.<.<.,.<.",
"<.<.<.,.,.,.,.o.O.{ ( [ % # # % # . $ e z c j 4 q C J H H H H G j 2 S K K K K K S i i D D Z Z D M M M D ( ( ` X.O.,.,.:.<.<.<.<.",
"<.<.<.<.,.,.;.o.O.{ ( { % % # % o = r b b b z < s Z J J H H H Z k 2 B K K K K K S i i B F Z Z D M M B B ( ( ( X.o.,.,.>.<.<.,.<.",
"1.<.<.<.,.>.;.o.O...( { % % % # $ = u b b b u - f Z H J H J H H j < B A K G G K M 6 a B D F D S M M V B ( ( [ X.o.,.:.,.<.<.,.<.",
"<.<.<.,.,.,.;.o.O.{ ( { % $ $ # % : x b b b j - f G H J H H H G l 2 B K K K K K M q a M Z F F Z M m M S ( ( ] X.o.:.>.,.<.,.,.<.",
"<.<.<.,.,.,.<.o.O.} ( { # # o X = : x b N b y = j G H H H G G G l - M K K G K K m 6 s C D D D Z M V M B ] ( ( O.o.<.<.,.,.<.,.<.",
"<.<.<.,.,.,.,...O.{ ) { o   X + = < z N b b y & x G H G Z Z C C j - V K K G K K m 6 s B F F D S M B M C ( ^ _ X.o.,.<.>.,.:.:.<.",
"<.<.<.,.,.,.,.@.O.{ _ ] % 4 0 7 & 4 x b b b y $ n K G C N N N N h = M K K K K K m 1 a S D F D D M M M B ( ( _ O.o.:.:.>.:.,.,.<.",
"<.,.<.,.,.,.,...o.{ ( { > r y 0 - q x b b b t @ b K Z B N C N N f - m H G D C S j 4 p M D Z D Z M V M S ( ( _ X.O.,.:.>.:.,.>.<.",
"1.<.<.,.,.,.,.@.O.{ ^ ' > y y 0 = w z b v z e * b G N B N N C N f = m F Z B B C l 1 a M D Z D S M M M D ( ( _ X.o.<.<.:.,.<.>.<.",
"<.,.<.,.,.,.,.| O.{ _ ' > y y 9 $ w u z z u w $ b Z N B N N B B j = n C B B M C h 1 q m Z D D Z m M m Z ( / _ X.o.,.,.>.,.:.>.<.",
"<.,.,.,.,.,.,...o.{ _ ] 7 y r 0 $ w u u x u 9 * n B B N N B N B j = j M B B B B h < i n D Z D Z M M m D ( / _ o.o.:.,.>.:.,.,.<.",
"<.<.,.,.,.,.,.@.o.{ _ ` > y y 7 * e j x x y 4 & n B B B b m b b g = j M B B M M h > a n D D D C M M M D / / _ o.o.,.:.>.:.,.>.<.",
"<.,.,.,.,.,.,.| o.{ / ` 7 y y 4 $ w y y y f 1 & v b b c x n x c f = f B M B C M f < i n D D D Z M m M D ^ ^ _ o.o.:.,.>.,.<.>.<.",
"<.<.<.<.,.,.,.o.@.{ / ] 9 y r < $ e t t t e < : j x x x n x x x h = h b C M B M f 1 i x S D D Z M M M K ^ ! _ o.o.>.<.>.,.,.,.<.",
"<.<.<.<.,.,.,...o.{ / / t e 0 : $ w t t t s < : f j x x x x x c e $ s C b C M M f < q m D K D B M M B K / ^ ` O.O.,.<.,.,.<.<.<.",
"<.,.<.<.,.,.,.| o.{ / / C t 0 , % w t f y e : : f g x x x n x x e $ t C C M C M f 2 i B D D D S M M Z Y ( ( [ o.O.:.<.,.,.<.<.<.",
"<.<.<.<.,.,.,.@.o.{ ) ) L N y , = w t t t e & < t y g x x x x x t % f C M B M B s < a B D D D V m M K Y / / { o.o.<.<.<.,.<.,.1.",
"<.<.<.<.,.,.,.| O.{ _ ^ ! J K e : w t f t 0 % > f g j n x x v j s $ j B B B C b s 1 p B D K Z B B F I Q _ _ } o.o.,.<.,.,.<.<.<.",
"<.<.<.,.,.,.,.| O.O.] ^ / E L A m g y t t e % q y x c M M b b x d & j B B B M m s 1 d D F D K K P Y T ( / ] X.o.o.,.<.,.,.<.<.<.",
"<.<.<.<.,.,.,.@.O.o...' ` _ _ _ ^ _ _ ' ] ' ] ] _ _ _ ^ ( _ _ _ _ ] ] _ ` ] ] ' ] ] [ ` [ ( ( ( ( / ( / _ } o.o.O.<.<.<.<.<.<.1.",
"<.<.<.<.,.<.,.@.o.o.O.o.o.} { { { _ _ / / _ / ^ ( ( ( ( ( / ! _ / ( ( ^ ( ( ( ( _ ( ( ( ( ^ ^ / / / / ( ' o.o.o.#.<.:.<.:.<.<.<.",
"<.:.:.:.:.<.,.$.o.o.O.o.o.o.O.o.o.| { { { { ] [ ] ] _ _ _ _ _ ) ( ( ( _ ( ( ( ( _ ( ^ ( ( ( ( ( _ _ [ {  .o.O.O.$.,.,.,.<.,.<.<.",
"<.<.,.,.:.,.:.&.@.o.O.o.o.o.o.o.o.o.o.o.o.o.o.| | | } } } | } } } } } { { { { { { { ' { } { } { | { o.o.o.O.o.#.&.,.<.<.,.<.<.<.",
"<.<.,.,.:.<.:.<.*.$.@.O.o...o.o...o.o...O.o.o.o.| o.o.o.o.o.....o. .| o.o.o.O.O.o.o.o...o.o.O.o.o.o. .| o.+.$.*.,.,.<.<.<.,.<.<.",
"1.<.<.,.,.:.<.:.,.,.:.:.<.>.>.>.,.,.<.:.,.,.,.,.,.,.,.,.,.<.<.;.>.:.-.-.-.;.,.<.,.,.,.:.,.,.>.,.<.,.>.>.>.,.,.<.,.,.,.,.,.<.<.<.",
"<.<.<.<.,.<.:.<.<.,.,.,.<.,.,.,.<.:.,.:.:.,.:.:.,.,.:.,.<.<.;.<.:.:.:.:.>.>.>.>.:.<.:.<.:.,.,.,.,.>.,.,.<.:.<.,.<.:.<.<.<.<.<.<.",
"<.<.<.,.,.,.:.,.:.<.:.:.:.:.:.:.:.<.:.<.,.>.:.>.,.,.:.,.;.<.<.<.:.,.,.,.,.,.:.,.<.:.<.:.,.,.,.<.<.,.:.,.<.<.,.>.,.<.,.<.,.,.<.<.",
"<.<.:.<.<.<.<.,.:.:.<.<.:.<.<.,.<.:.<.<.:.,.<.<.:.<.:.<.<.<.<.<.<.;.<.<.<.<.,.:.<.<.:.<.:.<.<.<.<.,.,.,.<.<.:.<.,.<.<.:.<.<.<.<.",
"1.<.<.<.1.<.<.1.<.<.<.<.<.<.<.<.<.<.<.<.<.<.<.<.<.<.<.<.<.<.<.1.<.<.<.<.<.<.<.<.<.<.<.<.<.<.<.<.<.<.<.<.<.<.1.1.<.<.<.1.<.1.<.<."
};
