/* XPM */
static char *_70012c3619b4dabd53a59244e69b04bokrUKl9QAeViFMqQ[] = {
/* columns rows colors chars-per-pixel */
"64 64 125 2 ",
"   c #050302",
".  c #0B0603",
"X  c #0D0804",
"o  c #190E07",
"O  c #1A0F08",
"+  c #1D1108",
"@  c #2F1105",
"#  c #23140A",
"$  c #2B190C",
"%  c #331207",
"&  c #381407",
"*  c #3F1709",
"=  c #331E0F",
"-  c #3F1B0A",
";  c #372010",
":  c #451B0B",
">  c #4A1E0C",
",  c #44200B",
"<  c #4C230E",
"1  c #4B280F",
"2  c #53240F",
"3  c #432714",
"4  c #4E2A11",
"5  c #552610",
"6  c #582610",
"7  c #542B11",
"8  c #5C2B12",
"9  c #5D3215",
"0  c #553219",
"q  c #5C351A",
"w  c #5F381C",
"e  c #632D13",
"r  c #6A2F13",
"t  c #643416",
"y  c #6A3316",
"u  c #643719",
"i  c #6C3718",
"p  c #63391C",
"a  c #6C3B1B",
"s  c #713617",
"d  c #743817",
"f  c #743718",
"g  c #743B1A",
"h  c #7B3D1B",
"j  c #6E401F",
"k  c #73411E",
"l  c #7C411D",
"z  c #6E4020",
"x  c #744321",
"c  c #7A4622",
"v  c #7E4924",
"b  c #83431E",
"n  c #88471F",
"m  c #88491F",
"M  c #844620",
"N  c #894720",
"B  c #844A24",
"V  c #8C4B22",
"C  c #814D28",
"Z  c #914E24",
"A  c #8A5027",
"S  c #8C5229",
"D  c #955126",
"F  c #985427",
"G  c #945529",
"H  c #9A5629",
"J  c #97582C",
"K  c #9E592B",
"L  c #9A5B30",
"P  c #A25C2D",
"I  c #A15E30",
"U  c #A6602F",
"Y  c #A8612F",
"T  c #A46233",
"R  c #AA6332",
"E  c #A86536",
"W  c #A96637",
"Q  c #AA6737",
"!  c #AA6738",
"~  c #AC6839",
"^  c #AC693A",
"/  c #AD693A",
"(  c #AE6A3B",
")  c #AE6B3B",
"_  c #AF6C3C",
"`  c #B06C3D",
"'  c #B06D3D",
"]  c #B16E3E",
"[  c #B26F3F",
"{  c #B36F3F",
"}  c #B36F40",
"|  c #B47040",
" . c #B47141",
".. c #B57142",
"X. c #B67242",
"o. c #BA7748",
"O. c #BA7949",
"+. c #BB7949",
"@. c #CD9668",
"#. c #DBB388",
"$. c #E0BA8E",
"%. c #E3BD92",
"&. c #E4BF94",
"*. c #E6C196",
"=. c #E8C49A",
"-. c #E9C69B",
";. c #EBC99E",
":. c #ECC99F",
">. c #EDCBA1",
",. c #EECCA1",
"<. c #F1CFA5",
"1. c #F3D1A6",
"2. c #F4D1A7",
"3. c #F4D2A7",
"4. c #F6D5AC",
"5. c #F8D7AE",
"6. c #F8D9AF",
"7. c #F7DBB1",
"8. c #F9DBB2",
"9. c #FCDDB4",
"0. c #FCDFB6",
"q. c #FEE0B7",
"w. c #FEE1B8",
"e. c #FEE2B8",
"r. c #FEE2B9",
/* pixels */
"w.w.w.w.w.w.w.w.w.w.w.w.w.w.w.w.q.r.q.r.q.r.r.q.r.q.r.q.q.r.q.r.q.r.q.w.w.w.w.w.w.w.w.w.w.w.w.w.w.w.w.w.w.w.w.w.w.w.w.w.w.w.w.w.",
"w.w.w.w.w.w.w.w.w.w.w.w.w.w.w.w.r.q.r.q.e.e.q.r.q.r.q.r.r.q.r.q.r.q.r.q.w.w.w.w.w.w.w.w.w.w.w.w.w.w.w.w.w.w.w.w.w.w.w.w.w.w.w.w.",
"w.w.w.w.w.w.w.w.w.w.w.w.w.w.w.w.q.r.q.e.e.e.e.q.w.w.w.w.q.r.q.e.q.r.q.r.w.w.w.w.w.w.w.w.w.w.w.w.w.w.w.w.w.w.w.w.w.w.w.w.w.w.w.w.",
"w.w.w.w.w.w.w.w.w.w.w.w.w.w.w.w.r.q.r.e.e.e.e.e.w.w.w.w.r.q.r.e.r.q.r.q.w.w.w.w.w.w.w.w.w.w.w.w.w.w.w.w.w.w.w.w.w.w.w.w.w.w.w.w.",
"w.w.w.w.w.w.w.w.w.w.w.w.w.w.w.w.r.r.r.r.r.r.w.w.r.e.r.q.r.e.r.e.e.e.r.r.w.r.q.r.w.w.w.w.w.w.w.w.w.w.w.w.w.w.w.w.w.w.w.w.w.w.w.w.",
"w.w.w.w.w.w.w.w.w.w.w.w.w.w.w.w.r.w.r.r.r.r.r.w.r.e.r.r.r.r.r.r.e.e.e.r.r.q.q.e.w.w.w.w.w.w.w.q.w.w.w.w.w.w.w.w.r.w.w.w.w.w.w.w.",
"w.w.w.w.w.w.w.w.3.@.+.X.X.X.X.X.X.X.X.X.X.X.| X.X.X.X.X.X.X.X.X.X.X.X.X.X.X.X.X.X.X.X.X.X.X.X.X.X.X.X.X.X.+.@.3.e.e.w.w.r.w.w.w.",
"w.w.w.w.w.w.w.1.+.X.X.X.X.X.X.X.| | | | | | | | X.{ X.X.X.X.X.X.X.X.X.X.X.X.X.X.X.X.X.X.X.X.X.X.X.X.X.X.X.X.X.+.3.q.w.q.r.w.w.w.",
"q.q.q.q.w.w.w.@.X.X.X.X.] _ _ ! ! ! E E E E ! ^ ^ ^ ^ ^ ) ) ) _ ] ) { _ _ _ _ _ _ | { | ] ] X.X.X.| X. .| X.X.X.@.r.q.r.q.w.w.w.",
"q.q.q.q.0.q.8.+.X.X.X.^ Q P I I I I K I I L I K K T K I K I I I U I T L U T T I T T T T E Q ! ^ _ ] } ) ^ ] X.X.+.q.r.q.r.q.q.r.",
"q.q.q.w.4.4.>.X.X.X.Q T I L I T I T Q P I T P U T I U I I I U P I U I T T K L U I U I T T E Q Q T T W T K E ^  .X.r.e.e.q.e.r.e.",
"w.w.w.w.>.>.#.X.X.] T P I L S B u 7 5 7 7 8 9 u u u u u 7 4 , - 4 8 9 9 t 9 u u 9 u u 7 7 7 7 k S J K U T L T | X.q.e.e.r.e.e.e.",
"w.w.w.w.-.=.#.X.X.] I I L u y t r r t 8 7 t i g k l l l s 6 : % < t g g h l l u a l g g s k g g i k G T J T ~ { X.e.e.r.r.r.r.r.",
"w.w.w.w.-.-.#.X.X.} ! E C y h h h b M s i N n V D D H H Z h 2 % 2 l Z D D D H x A D A m m D V b b b V T I T E { X.e.r.r.r.r.r.r.",
"w.w.w.w.>.>.#.X.X.X.^ ^ x y h h h h b i g m n m N F H K F b e % 2 h N Z D D H k V D D n m V n h s h b L T K Q X.X.r.r.r.r.r.r.r.",
"w.w.w.w.>.1.%.X.X.} ! ] p i h h h h b i h V D N F H P U K D y % 2 s D K H H K g A D D n m n b d s g h G ~ J E X.X.r.r.r.r.r.r.r.",
"q.q.w.w.<.<.%.X.X.| Q } 0 g l h h b N y M N Z Z Z K P P P P h & < y D P K P U a Z F F Z n n b d s s l V ! I Q ] X.w.r.r.r.r.r.r.",
"0.0.0.0.3.3.%.X.X._ T } 4 g h g h b N u N N N Z Z K Y P K K h & > y D K K K P j K K P F Z m b d s s g n ^ E E ] X.w.r.r.r.r.r.r.",
"0.0.0.0.3.3.*.X.X._ T } 1 g l h h M N y N N V D D P Y P K K b : > y G K K P U g F P K F H Z m h s s d l ^ J T { X.w.w.r.r.r.r.r.",
"0.0.0.0.5.4.-.X.X.^ I } 1 g h h b N N y N V V D K Y R P K K V > : 8 n K P U Y z D P P K P F D m d d d l ` I T X.X.0.w.w.r.r.r.r.",
"q.q.0.0.4.4.=.X.| ^ I _ 4 g b l b N N y N n Z H P Y Y P K K Z 2 : 5 M P U R R u D P K K P F D m h d h b Q P I { { e.9.e.e.r.q.r.",
"q.q.0.0.8.5.-.X.| Q I } 1 l N N V V V i N D D K Y Y R Y P P D 6 , 7 Z P ^ R R g A P P P P H D m h h b m Q P Q X.| e.e.e.e.q.q.q.",
"q.0.q.q.5.5.-.X.{ E T _ 4 g N N D D D a n D D K Y R R R P P F 8 > 8 D R R R Q z N R P P P H F N b h b m Q T Q } | e.e.q.w.e.q.e.",
"q.q.q.w.5.4.-.X.X.T I | 4 l N N D D D g N D D K Y R R R Y P P t > e P R R R ~ v a R P P P P K D b h b m T K E ] | e.w.w.w.r.q.q.",
"0.q.w.q.7.7.=.X.| E L { 7 l V V D D D l c D D K T R R R R U P y > e P R R R R P q R Q U P P K D m b n D T L T  .| r.r.r.e.e.9.e.",
"q.q.q.q.7.7.-.X.| E T { 4 l V D V D D l l D D K K R R R z R P a > y P R ^ R R R 0 R U U P P P F m m V F I I T  .| r.r.r.e.e.e.e.",
"9.q.q.q.7.7.>. .{ E K { 4 l D D D D D m g D D H R R R H + H T g > g I R R c a R 0 Y R R U U P H V m S G I I T  . .r.r.r.e.e.e.e.",
"q.q.q.q.7.7.-.| | ^ I ] 4 M D H D D F V a D D F I R I u   k R g 5 S R ^ R $ $ D q R R R U P P F m m N G I I I |  .r.r.r.e.e.9.e.",
"q.q.e.e.7.7.;.| | ^ L ] 4 M D H D D D D a Z D F R R B $ . x R l r I R Q a o X $ 0 K R Y P P P H m b m D I I T |  .r.e.e.e.e.e.7.",
"q.q.e.e.e.7.>.| | ^ T _ 4 M F H D D D D g V D F P V   $ $ B R l e R R F 0 3 = L q T R U P P P H V m m A I I I |  .r.r.e.e.e.e.e.",
"q.q.q.e.7.7.;.| X.^ P _ 4 M F K F D D D a A D F I o # H H U U k u Q P z X G Q I q K Y U P P K F m b m D T I L  . .r.e.e.e.e.e.e.",
"q.q.q.e.7.7.;.| X._ T _ 4 B F K H D D D g V D F a + x G D U P g r P L = 0 R R R u K Y P P H P K D b m V I L E  . .r.e.e.e.e.e.e.",
"e.e.e.e.5.0.:.X.X._ I ^ 4 V K H H D D D g M D F p X H H P P P y 8 I M O C R R R w J R U P P P F m b m Z T K T X.{ q.w.w.w.e.e.e.",
"e.e.e.e.6.6.:.X.X.} I _ 7 V K K H D D D x M D F B   I D R F K y > D x O B I ^ R w J T P P P K K Z b m Z T T I } X.w.q.q.w.r.r.q.",
"e.e.w.r.7.7.:.{ X.^ P | 7 D H P P D D D b l D F P   q I R P K r > b S $ a R R R p J R P K P K K Z n m D T L T } X.w.w.q.q.r.q.r.",
"e.e.w.w.7.6.:.X.X._ T ^ 0 D K P K F D D M g D F P = O D R u Z e : r P 0 ; P R R p J Y U P P K K Z n m Z T K T { X.w.w.w.r.w.w.w.",
"e.q.q.q.8.6.:.X.X.} I _ 9 F K K P F D D M k D H T H # + D o c 8 * r D D 3 q ; c p J R P P P P K Z b m Z U P T X.X.q.q.q.q.r.q.r.",
"e.e.e.e.8.8.:.X.X.^ I ^ q H P P F K D D N k D D P R J + o X l 8 * r Z P B #   z x J Y P P P F K D n Z Z T P T ] { q.q.q.r.q.q.q.",
"e.r.e.e.8.8.>.X.X.^ I _ q K K P P H D D V y D D P R R P = : V e * y Z K H q X v k F P P P P P K D m Z Z T T T X.X.q.q.q.q.r.q.q.",
"q.q.q.q.8.8.>.X.X._ I ^ t P P P P H D D D a D D U T R P l Z V r : y Z K P B $ I g Z P K P K K K D m V Z T K T } X.q.q.q.q.q.q.q.",
"r.q.e.9.7.e.-._ X.] P ^ u P P K H P D D D a S D P R R P P P n e * y Z P K P B U k F J K K P K K F V V V I I T { X.q.q.q.q.q.q.q.",
"w.r.9.e.7.7.>.| X.` T ^ t K P K H P F D D d V D P Y Y P P H b e * s Z K P P U R a H H F K P P K F m D D T I T { X.q.q.q.q.q.q.q.",
"r.e.e.e.7.7.>...X.^ I ^ 9 H K P P P F D D g V D P R R P P F b r : h Z P K P T U a K F D F K K K H D V D I I T X.X.q.q.q.q.q.q.q.",
"q.e.e.e.7.w.>. .X.` I ^ 9 D H K H P H D D g V D P Y R P P P n r : h Z K K P Y K z K F D D H K K F D V S I I T { X.q.q.q.q.q.q.q.",
"e.e.q.q.7.9.;.] X.` P ^ 8 D D K K P K D D a V D P P R R R P N r : h D P P P U J x K F D D D K K F D m V I I T { X.q.q.q.q.q.q.q.",
"e.e.q.e.e.9.1.] X.^ I ^ e D D D K P D D D a S D P I R Y P P n r : h D D P P T G c K F D D D F K F m m m I I T X.X.q.q.q.q.q.q.q.",
"9.q.r.r.9.7.>.{ X.` I ^ 9 S D D K K K D D i V D P P R R R P b r : b D P H P P D c K D D D D D F F V b V I I T { X.q.q.q.q.q.q.q.",
"e.q.w.w.7.q.<.X.X.^ I ! 8 N N N D K K D D i D D P P R R R P b r : b D P P P Y Z c H D D D V N N V m b V I I T X.X.q.q.q.q.q.q.q.",
"q.e.e.e.9.9.>.X.X._ J ^ 9 m m V Z K K F Z i D D K P R R R P b e < b D K P P T S c K Z Z N b h h m b b V P T E | X.w.q.q.w.q.r.q.",
"e.q.e.e.9.9.>...X._ T T u b b b V Z D Z D i Z Z F I R R I P h e < b D K P P T V c D V b h h f f l h b D T L T | X.w.w.q.q.w.q.r.",
"e.e.e.e.7.9.1.X.X._ T K c b b h b N N N N t N N Z K P P P H s 6 > h N F D K P V f V b h h f f h h l b D H T ^ X.X.w.q.w.w.w.w.w.",
"e.e.e.e.9.e.<.X.X._ L T D V b b h l b h h 8 b h b Z D F P D y 6 > d b Z D F P Z i N b h f f h h h l N H T L _ ..X.w.w.w.w.w.w.w.",
"e.9.w.w.q.e.1.| X.] T I J D D N l h h f h 8 h b N Z F H P Z r 8 > f b V Z K K F i M b l h h h h b N G K T T | | X.w.w.w.w.w.w.w.",
"q.q.r.q.q.8.1.X.X.X.! I I H F S N b b h d e h b Z F Z K K Z g r 6 d b Z Z F P F g g n l b l b N D H H T K Q | X.X.w.w.w.w.w.w.w.",
"q.q.q.q.e.9.1.X.X.X.] ^ Q T T L I E E ~ ~ ! Q Q T I T I P I I I T Q Q Q ! ! ! ~ ! ! Q Q Q T T I K L I P E _ X.X.X.w.w.w.w.w.w.w.",
"q.q.q.q.q.q.9.X.X.X.X.X.] ] ] _ ! I E I I I I P P I I I I I I I P I L P I I I I I I I P I I P L I I I T _ | X.X.+.w.w.w.w.w.w.w.",
"0.w.w.0.0.w.0.@.X.X.X.X.X.X.X.X.{ X.] ] ` ^ ^ Q ! W T E Q T ! L T I I I I P I I L T P T L T P T I T Q _ X.X.X.X.@.q.w.w.w.w.w.w.",
"w.w.0.w.w.w.0.<.o.X.X.X.X.X.X.X.X.X.X.X.X.X.{ X._ | _ } _ | _ } ] _ ` ] ] ` ^ ] _ _ _ _ ] ^ ] ] ] ] ] X.X.X.X.+.1.q.w.w.w.w.w.w.",
"w.w.w.0.0.w.0.w.1.@.+.X.X.X.X.X.X.X.X.X.X.X.X.X.....| X.X.X.| ..X.X.X.X.X.X.X.X.X.X.X.X.X.X.X.X.X.X.| X.X.O.@.1.q.w.w.w.w.w.w.w.",
"w.w.w.w.w.0.w.0.q.9.w.9.9.e.9.w.0.0.0.0.0.0.0.0.e.w.w.9.e.9.9.e.0.0.0.0.0.w.0.0.w.0.w.0.0.q.0.q.w.9.e.e.q.q.w.w.w.w.w.w.w.w.w.w.",
"w.w.w.w.w.0.0.w.0.w.0.w.w.w.0.w.0.w.0.w.0.0.0.0.0.q.q.9.9.9.e.9.0.0.0.0.0.0.0.0.0.w.0.w.0.w.0.w.e.w.9.w.w.w.w.w.w.w.w.w.w.w.w.w.",
"w.w.w.w.w.w.w.0.w.0.w.0.w.w.w.0.w.0.w.0.w.w.0.w.q.q.w.9.e.q.e.9.q.q.0.q.w.0.0.0.0.w.w.0.w.0.w.0.w.9.w.w.w.w.w.w.w.w.w.w.w.w.w.w.",
"w.w.w.w.w.w.w.w.0.w.0.w.0.w.0.w.0.w.0.w.0.w.w.0.w.0.w.w.9.w.q.q.q.q.q.q.w.0.w.0.0.q.q.w.0.w.q.q.w.w.w.w.w.w.w.w.w.w.w.w.w.w.w.w.",
"w.w.w.w.w.w.w.0.w.0.w.0.w.0.w.0.w.0.w.0.w.0.0.w.0.w.0.w.q.q.q.0.q.q.q.w.0.w.0.w.w.q.q.0.w.0.q.q.w.w.w.w.w.w.w.w.w.w.w.w.w.w.w.w."
};
