/* XPM */
static char *_74c3132e28a4377fb682ddf00fc7b6dec5pfVp93I1mjvwN[] = {
/* columns rows colors chars-per-pixel */
"64 64 97 2 ",
"   c #F7DAAE",
".  c #FAD9AC",
"X  c #F9DAAC",
"o  c #FBDAAD",
"O  c #FADBAD",
"+  c #FAD9AE",
"@  c #F8DBAF",
"#  c #FBDAAF",
"$  c #FADBAF",
"%  c #FCDBAE",
"&  c #FBDCAE",
"*  c #FADEAF",
"=  c #FDDCAF",
"-  c #FCDDAF",
";  c #FBDBB2",
":  c #FCDBB0",
">  c #F9DCB0",
",  c #FBDCB0",
"<  c #FADDB1",
"1  c #FADFB0",
"2  c #FBDFB0",
"3  c #F9DCB2",
"4  c #FADDB3",
"5  c #FBDEB2",
"6  c #FADFB2",
"7  c #FDDCB1",
"8  c #FCDDB1",
"9  c #FDDEB0",
"0  c #FEDFB1",
"q  c #FCDCB3",
"w  c #FDDCB3",
"e  c #FEDDB2",
"r  c #FDDEB2",
"t  c #FCDFB3",
"y  c #FEDFB3",
"u  c #FBDEB4",
"i  c #FDDDB4",
"p  c #FCDCB5",
"a  c #FEDDB4",
"s  c #FCDFB5",
"d  c #FEDEB5",
"f  c #FCDFB7",
"g  c #FFDFB6",
"h  c #FEDEB7",
"j  c #FFDFB8",
"k  c #FBE0B3",
"l  c #FCE0B1",
"z  c #FDE1B2",
"x  c #FEE2B3",
"c  c #FBE0B5",
"v  c #FBE3B5",
"b  c #FAE2B6",
"n  c #FBE3B7",
"m  c #FDE0B4",
"M  c #FCE1B4",
"N  c #FFE0B4",
"B  c #FEE1B5",
"V  c #FDE2B5",
"C  c #FDE0B6",
"Z  c #FCE1B6",
"A  c #FFE0B7",
"S  c #FEE1B7",
"D  c #FDE2B7",
"F  c #FFE2B6",
"G  c #FEE3B6",
"H  c #FFE4B7",
"J  c #FBE2B9",
"K  c #FBE2BA",
"L  c #FCE0B8",
"P  c #FDE0B8",
"I  c #FDE1B9",
"U  c #FFE0B9",
"Y  c #FEE1B9",
"T  c #FFE2B8",
"R  c #FEE3B8",
"E  c #FDE1BA",
"W  c #FEE0BA",
"Q  c #FFE1BB",
"!  c #FCE3BA",
"~  c #FCE3BB",
"^  c #FEE2BA",
"/  c #FFE2BA",
"(  c #FEE2BB",
")  c #FFE3BB",
"_  c #FCE4B8",
"`  c #FDE5B9",
"'  c #FFE4B9",
"]  c #FCE2BD",
"[  c #FFE3BC",
"{  c #FEE2BD",
"}  c #FDE3BE",
"|  c #FFE3BE",
" . c #FDE4BC",
".. c #FFE4BD",
"X. c #FEE5BD",
"o. c #FDE5BF",
"O. c #FEE4BF",
/* pixels */
"o.o.! ! { { { ! { { { { o.! { ! ! { { ! j { ! ! { { | | { { { { { | | | | | | | { ! { { ! { ! { { ! ! { { ! { { ' { ! ! { ! { o.",
"! D D ! ! j D ! j ! j ! D D h ! j ! ! ! j ! ! ! j ! j ! ! j ! ! j ! j ! ! j j ! ! j ! j ! ! j ! ! ! ! j ! j ! j ! ! ! ! ! h ! ! ",
"! j h D j D D j ! j ! j D D D D h D D j D ! h h D h ! h D D D D ! j ! j ! j ! j D D D D h h D D D h h D D D D D j D h h D D h ! ",
"{ ! j ! ! j ! ! j ! j ! j j ! j ! j ! ! ! j ! D ! ! j ! j ! j j j ! j ! j ! j ! j ! j h ! D ! j ! ! j ! j ! j j ! h ! ! ! h ! { ",
"! j D h ! D D j h D h D D D ! D { ! j j ! j j ! D D D ! D D D ! D D D D ! D D D ! j ! ! h ! ! ! j ! ! j ! j j ! ! D j ! j ! h ! ",
"{ ! D h D h D h D D D D D D D D j ! ! ! j ! ! ! D ! ! ! D ! ! ! D h D h h D D D D ! h D D D h h D h D D h D D D ! h D j ! h ! ! ",
"{ j ! ! ! ! D ! ! j ! j ! j ! ! ! ! ! ! { ! { ! ! j ! j ! j ! j ! ! ! ! ! ! ! ! D D D h D h D D D D D h D h D h D h D ! D h j { ",
"{ ! h D D h h ! D D D h D D D D { j ! j ! ! j ! ! ! ! ! ! ! ! ! D ! D D ! D D ! ! ! ! ! ! ! j ! ! h j ! ! ! ! ! ! D h ! ! ! ! { ",
"! h D h ! D D j j ! j ! j ! j ! ! j ! h ! ! ! ! ! j ! j j j ! D D D ' D ' D ' D D D ! D D j ! j j ! j ! h D D D ! h D ! j D ! ! ",
"! D h h j h D ! ! j ! j ! j j h J j h ! h ! j ! j ! j ! ! ! ! D ! D D ' D ' D ' ! D ! D ! j j ! ! j ! j D D h ! D D h ! ! h ! ! ",
"! j D ! ! j D j j ! j ! Z h j ! D j h ! ! D ! D ! ! ! j ! ! ! ! ' D ' D ' D ' D D D D D D D D ! j ! ! j D D D D D D D j j ! ! { ",
"{ ! h ! j ! D h ! j ! j D D h h h ! h D j ! ! ! ! j ! j ! ! D D D ' D ' D ' D ' ' ! D D D D h h ! j ! ! h D D D ! D D ! ! j ! ! ",
"{ ! h ! h ! h ! j ! h ! h Z D h h D h h h ! ! h h D D D D D D D ' D ' D ' D ' D D D D D D D D D h D D D j ! j j D ! ! { ! j ! { ",
"! ! D j ! D D D ! j ! D Z h D k z h z D D h h h h u D h h D h D D ' D ' D ' D ' D D D D D D D h h D D D ! j J ! ! D ! j ! ! ! { ",
"{ ! D j ! h D D j ! D h k h h D t D h D h D h t t t 4 t t t D t ' D ' D ' D ' D D D D D D D D D h D D D j ! j ! ! h ! ! ! ! ! { ",
"! j D D ! h D D h h D h D D h t D h D t h t t t w t t 4 t t t t D ' D ' D ' D ' D D D D D D D D D D D D ! j ! j ! ! ! j ! ! { | ",
"{ ! D h D h D h D t h z D h D h k z h h t t + t t - t t t - t t h t t t u k h ! D D D D D h D D D D ' D D ! ! ! j D j ! ! ! j { ",
"! h h h h D h k h D D h h Z h u 4 4 > t w + > % % - % t - - t h z t t t D h t u h D h D D D D D D ' ' ' D D D j ! ! ! ! ! j ! o.",
"j j h t h h D h D t 4 h k h 4 4 @ @   - - + w + - - - t t - - z t t t t u h h k h D D D D h h D ' ' ' ' D ' ! D ! D ! ! ! D D ! ",
"! j u h h h t t h t h w t > 4 > @ @   @ t t - t - t - - - - - - t t t D D 4 u z z h h D D D D D ' D ' D ' D D D ! D h D j D ! { ",
"! Z h t t h 4 t 4 t t t t % 4 ; t % - t t t t t - z z z @ z @ t t z t D h D t h D h z h D h k D D D ! D D h D D D D D ! ! D j ! ",
"{ u D t t 4 4 4 4 4 w w t t 4 u % t t h t D D t D z z z z z z z z h z h D t h D h D h D h t D h h h u Z D D h D D D D ! D D D { ",
"! j D h k h h 4 4 t 4 @ + + > q t t t z t z z h z D H D D D D z t t D z D h D h k h Z D h D D Z ! j f j D D D D D h D h D D ! ! ",
"{ j h D u t h D h 4 4 4 @ 4 ; q t t t z h D D z D D H H H H D k D z D D D D 4 h D D h t D Z h h h D ! h h D h D D D D ! D h ! { ",
"! D h D D t h D h 4 u 4 > > > w % t % t t t t t h D D ! H D v Z t D D z D z h h t h D ! j ! ! j J u j j ! j j ! h D D D D h D ! ",
"{ h D h h D D h h z h z > > w > w % % t w t t t t t t h h z z D z t t h t t h h h 4 h Z j h f h ! h ! h j ! j ! ! D h ! D D j ! ",
"J Z h D D t h h D h D 4 u u w w w % t % w % w % w w t w w 4 z z t t t t t t t t h D D h ! ! h ! j ! j ! j ! ! j j ! h ! D h ! ! ",
"! Z D h h h ! ! h D D 4 u u q w + w % w + % + # % > w w > - 4 4 t t % t t t z h D h D D h h D j ! j ! ! j j j ! ! j ! h D D ! { ",
"! h h u ! D h u D D u u u u w t t - % w % % % % + w > w w + - - w % + % % % t t t t z D h h u D j ! j ! ! j ! j ! j j ! D D ! ! ",
"{ D D j D ! ! J Z z Z 4 u u h w t t t t t w t - t % w t t - - - % % % o % w - w - t t h D t h 4 j j j j j ! j ! j ! ! j D D ! { ",
"{ ! j ! D J ! J Z u Z u h 4 t w t t % % t t t t t t h z 4 @ 2 2 % + o . + + + - - t t t t t h Z f j J h ! j ! j ! j ! ! ! h ! { ",
"{ ! ! j J ! j J D Z Z D Z 4 h t t % t w w t t t h h D 4 t k 2 2 - % + % . + + w % % w w w h h u f j u ! j ! j ! j ! ! ! h ! ! ' ",
"! h ! D Z D Z Z u Z Z z D 4 t 4 q q w t 4 4 z k Z Z Z k z t z 4 t % % + . + + + @ - % % h t t t h h z h D ! h ! j ! D D ! D ! ! ",
"o.! D D J Z Z Z ! Z D h h h D D h t w t z k Z Z Z Z H Z D D D z t t % t - + 4 + + w % w w t w t t h h D D D ! h ! j h D D D D { ",
"o.D D D J D Z Z h D h D D t h Z h u 4 4 4 D Z u Z b v ~ D D D D D t t t t t - @ + > w % w h t w w h k D D h D h h D D D h D D o.",
"! ! D D D u D h D h t D h D D h h D h D 4 h u k Z v Z H ! H ' Z D D D D t t t t w w w w q q t t w t h t h z h D h D h D ! D ! { ",
"{ ! D D D h D D t h z D z D h z D D h k D 4 z h J D D D ` ` ` H ! h D D D h t z t h t w t t z t t w h t h h t h D Z h z ! D j { ",
"' ! D D D t h z h D D h h D D h t h h D h D h D D D D ~ H ~ ` ` ! ! ! ! D D D h D 4 h t t t h h h q t h h z D h t h D h h D D { ",
"{ j h D D D D h h 4 4 h t h h D h D k u h k h D Z Z Z v v ' D D ! ! ! j D h D h h Z h h h t h 4 h t h t Z h D D h D h D ! D D ! ",
"' ! D D D h D D t D u k D h D t t h 4 D D h D u Z Z Z v ~ H ' ! ! ! ! ! D ! t D D h D t h t t h t h t h u D h k Z h D h j h j ! ",
"{ { h ! D D D h D h D D h t h z t h t t z h D t D h D Z v ~ ! ! ! j ! ! ! j j j ! ! h h h D h D h t h h D h h h D h h Z D D h ! ",
"{ J ! h D h D D t D t h D h h h h t t t h D h D t D z D D ' j ! ! ! j ! ! ! ! j ! j D D D z k h h t h t h t D t D k Z h h h h ! ",
"{ ! ! D D D h D D h h D t h h t h z h u D z D t h h h D D D ! ! ! ! { ! ! j ! j j ! D h D h h D h h h D t D h D h h D D h h ! ! ",
"~ J h D D D h D k h Z Z h z 4 D t h u Z h h D h D D D D D D ! ! ! j ! ! ! ! D D ! j D D h t D k h D h t D h D t D t h Z D h j ! ",
"! ! D D D D h D j u D h z h D u k h h u 4 h h k k D h D h ! ! ! j j ! ! j ! D D j ! ! j h D D h t D t h D h k D D k h D h h D ! ",
"! ! h D D t D h J f h D D D h k D D 4 D D t 4 Z h D D t h ! j J j ! j ! ! h D D D j ! h D h h t h h h D h t D h h h D h z h j ! ",
"{ j D h u D h D D j h t h Z D h h D h u t 4 4 D h Z h J D h D j j ! j j ! j ! h D D D D h D t D D t z h Z D D Z D t h D h D j ! ",
"! ! D j ! j D h Z h D D Z h Z h Z h D k h D 4 h Z h D j j D h D ! j j ! h ! j ! h D h h D h D h h D h D h Z h h D h D h D h h { ",
"{ D D j t h D h Z D k D h t h Z D h D h D t h D t k D h h k D D D h h D h D h D D h z h k h h Z D D h z D D h h D h D D D D D ! ",
"{ D h ! D h h D f j h D D 4 f u h D t D D h t D h h t D 4 D h 4 h D 4 h D D D D D D D h D D Z h t h h D D h h D D j h D h D D { ",
"! h D ! t D h D Z D h Z h Z u D k u u Z h h D h Z D D h h 4 h t Z f t D h D h D h D D D h D Z D h D D h h D h D D ! h h ! h h { ",
"{ D D j D h D h h Z Z h D u h u h u Z h k D t D h h t D t D 4 Z f f h z h D D D D D D D h t h h D D h z z h D h h ! D D ! D ! ' ",
"o.D D j h D h D D h h D h Z u h h u Z Z u h u u k D D h D h h k f f u D h D h D h D h D Z D h ! D D D D D t h D h D D D h D ! ! ",
"! D h ! D h h D h t D k Z u u k u D u h Z u D h h t 4 D h z Z Z f f h u D u 4 k h z z h h Z J h D h h D h D D D D ! h D ! j j { ",
"! D h j h D h h Z D D h ! u D u u u h 4 u h u J t h 4 h D D t Z f u u Z Z u h t h h h ! D h h D D D D D D h D h D ! j ! j ! ! { ",
"j h D ! z h h D Z h h D h u f j Z h k D 4 Z f j h t D t h Z h D f Z h u h u z h ! ! h ! D h Z h h D h D D D D D D j ! j ! j ! { ",
"{ f D h h h D j j J J h Z ! h u h Z f D h u D u f u u Z h ! ! f ! j h Z f f j h D h J h Z j h J D D h D D h j ! j D D D h h ! ! ",
"{ j D D Z ! h D Z h h Z u u h h h h h h D h h h u Z h h h h u f Z h h ! u Z Z h Z h h D u Z D Z h h z D D D D j j ! j ! ! ! j { ",
"! ! D h D h D h h ! h f j u u j u D u Z h Z u Z D u 4 D Z 4 u f u u D u u Z h Z h Z h D D h D h h z h h h D j ! ! h D j D h ! { ",
"{ ! D Z h Z h D J h D j f J f f u Z h h h u j u u h h ! h D f f f f u j f u h D J j Z Z j J h Z ! h ! h j ! ! j j D D ! D ! j ! ",
"! j ! j h ! h h h D j D ! h ! h D h D z t D D h Z h D t u j f Z Z u u Z u h k D Z j J h h D ! h h z h ! j ! j ! j ! ! j j ! ! ! ",
"{ ! h D ! h D h D h h h h h D h h j h h h h h h h D h h Z u Z h h h D h ! h D h h D h Z D h h h D h h D ! ! ! h ! D h ! D h j ! ",
"{ ! D ! ! ! D h h ! j j j h h D j j ! h D h j j ! j D h J j f j Z Z j f j h u J j j j h h D j j j ! ! D j j ! ! j D ! j ! ! ! ! ",
"{ { ! { { ! ! { ! ! ! { ! { ! ! j ! ! { ! ! ! ! { ! ! ! { K J ! ! { ! { ! { ! ! ! { ! { ! ! ! { ! ! { { { { ! { ! { { { ! ' { { "
};
